<svg id="SVGRoot" width="192px" height="192px" enable-background="new" version="1.1" viewBox="0 0 192 192" xmlns="http://www.w3.org/2000/svg">
 <g>
  <path d="m71 32c-8.9309 0.0065-17.589 3.078-24.527 8.7012 2.8489-0.47119 9.7731-0.6412 12.738-0.61523 5.4027 0.04729 10.889 0.923 15.381 2.6309 9.0883 3.2077 15.164 9.2421 18.918 15.668 5.3495 9.1581 6.3047 20.25 6.4199 25.672 8.7392-0.56737 19.334-2.6663 23.49-2.9414 0.0702-4e-3 0.13924-0.0049 0.21094-0.0059 0.21598-0.02302 0.43554-0.04021 0.6543-0.05078 9.6163-0.46813 20.613 11.05 26.883 28.162 0.25873 0.7074 0.50499 1.4158 0.74023 2.125 0.0594 0.17902 0.11205 0.35801 0.16992 0.53711 0.17575 0.54323 0.35085 1.0853 0.51368 1.6289 2e-3 6e-3 4e-3 0.0116 6e-3 0.0176 0.0339 0.11317 0.0624 0.22666 0.0957 0.33984 0.17205 0.58427 0.34209 1.1681 0.5 1.752 0.0644 0.23839 0.12149 0.47659 0.18359 0.71485 0.11231 0.43025 0.22694 0.86144 0.33203 1.291 0.0106 0.0431 0.0188 0.0859 0.0293 0.12891 7e-3 0.028 0.0145 0.056 0.0215 0.084 0.16458 0.67922 0.31797 1.3568 0.46289 2.0332 4e-3 0.0169 6e-3 0.0339 0.01 0.0508 0.0193 0.0907 0.0372 0.18088 0.0566 0.27148 0.0769 0.35914 0.15501 0.71795 0.22461 1.0762 5e-3 0.0235 7e-3 0.0468 0.0117 0.0703 0.0362 0.18646 0.0632 0.37066 0.0977 0.55664 0.11946 0.64356 0.23763 1.2865 0.33984 1.9258 5e-3 0.0299 9e-3 0.0598 0.0137 0.0898 0.0109 0.0691 0.022 0.13793 0.0332 0.20703 0.0395 0.24376 0.08 0.4877 0.11523 0.73047 2e-3 0.0138 4e-3 0.0272 6e-3 0.041 1e-3 6e-3 9e-4 0.0116 2e-3 0.0176 0.13656 0.94293 0.24996 1.878 0.34766 2.8066 0.0204 0.19567 0.0409 0.39071 0.0606 0.58593 8e-3 0.0781 0.0164 0.15658 0.0234 0.23438 1e-3 0.0143 3e-3 0.0287 4e-3 0.043 0.0892 0.96059 0.15357 1.9092 0.20117 2.8496 2e-3 0.0287 3e-3 0.0572 4e-3 0.0859 0 9e-3 9e-4 0.0183 2e-3 0.0273 0.0101 0.20679 0.0193 0.41358 0.0273 0.61914 1e-3 0.0117 2e-3 0.0235 2e-3 0.0352 0.0389 0.99867 0.0529 1.983 0.0449 2.9531-1e-5 1e-3 1e-5 3e-3 0 4e-3 -2e-3 0.19612-2e-3 0.39308-6e-3 0.58789-6e-3 0.3371-0.0174 0.67078-0.0293 1.0039-8e-3 0.21889-0.0149 0.4372-0.0254 0.6543-0.0177 0.37349-0.0414 0.74335-0.0664 1.1113-0.0112 0.16318-0.0225 0.32622-0.0352 0.48828-3.5e-4 5e-3 3.5e-4 9e-3 0 0.0137-0.0323 0.41678-0.0696 0.82922-0.11133 1.2383-2e-3 0.017-4e-3 0.0338-6e-3 0.0508-9e-3 0.0875-0.0173 0.17462-0.0273 0.26172-1e-3 8e-3 -9e-4 0.0174-2e-3 0.0254-0.039 0.35858-0.0862 0.71056-0.13282 1.0625-0.0113 0.0859-0.0195 0.17417-0.0312 0.25977-3e-3 0.02-5e-3 0.0405-8e-3 0.0605-3e-3 0.0173-4e-3 0.0354-6e-3 0.0527-3e-3 0.0176-6e-3 0.0351-8e-3 0.0527-0.0713 0.50659-0.15178 1.0058-0.23828 1.498-0.31249 1.7782-0.72277 3.4602-1.2305 5.0254-1.5231 4.6954-3.9182 8.3396-7.1406 10.379-0.14158 0.0848-0.31171 0.16784-0.48437 0.25 21.849-3.989 37.728-23.02 37.738-45.23-8.7e-4 -20.16-13.129-37.971-32.387-43.938-2.4558-17.234-17.205-30.044-34.613-30.062-6.0766 0.015508-12.044 1.6128-17.316 4.6348-7.3737-8.0373-17.776-12.62-28.684-12.635zm-16.025 16.201c-6.1016 0.07396-12.25 1.0375-17.404 2.8594l-0.04882 0.0097c-3.5873 6.0123-5.5132 12.891-5.5215 19.93 0.0016 0.86797 0.03226 1.7356 0.0918 2.6016-14.829 8.0319-24.074 23.534-24.092 40.398 0.016536 22.191 15.874 41.207 37.701 45.211-0.15708-0.0759-0.31507-0.15247-0.44531-0.23047-0.26809-0.16965-0.53051-0.35142-0.78711-0.54297h-2e-3c-0.51366-0.38355-1.0034-0.81184-1.4707-1.2793-0.23417-0.23424-0.46309-0.47808-0.68555-0.73242-2.6656-3.0477-4.4883-7.5149-5.4258-12.85-0.0865-0.4922-0.16697-0.99144-0.23828-1.498-2e-3 -0.0176-0.0048-0.0351-0.0078-0.0527-2e-3 -0.0173-0.0029-0.0354-0.0059-0.0527-0.0021-0.0148-0.0039-0.0301-0.0059-0.0449-8e-4 -5e-3 -0.0012-0.0106-2e-3 -0.0156-0.01174-0.0856-0.0199-0.17387-0.03125-0.25977-0.04658-0.35194-0.0938-0.70392-0.13281-1.0625-1e-3 -8e-3 -9.08e-4 -0.0174-2e-3 -0.0254-0.0095-0.0871-0.01824-0.17422-0.02734-0.26172-0.0018-0.017-0.0042-0.0338-0.0059-0.0508-0.0417-0.40906-0.079-0.8215-0.11133-1.2383-3.52e-4 -5e-3 3.49e-4 -9e-3 0-0.0137-0.01265-0.16206-0.02394-0.3251-0.03516-0.48828-0.02501-0.36798-0.04867-0.73784-0.06641-1.1113-0.01048-0.2171-0.01739-0.43541-0.02539-0.6543-0.01195-0.33313-0.0231-0.66679-0.0293-1.0039-0.0038-0.1942-0.0041-0.39045-0.0059-0.58594v-2e-3c-1.3e-5 -1e-3 1.3e-5 -3e-3 0-4e-3 -8e-3 -0.97009 6e-3 -1.9544 0.04492-2.9531 5e-4 -0.0117 0.0015-0.0235 2e-3 -0.0352 2.85e-4 -7e-3 -2.89e-4 -0.0145 0-0.0215 0.0077-0.19847 0.01754-0.39808 0.02734-0.59765 5.01e-4 -9e-3 0.0015-0.0183 2e-3 -0.0273 0.0014-0.0287 0.0025-0.0572 0.0039-0.0859 0.0476-0.94039 0.11201-1.889 0.20117-2.8496 0.0013-0.0143 0.0026-0.0287 0.0039-0.043 7e-4 -7e-3 0.0013-0.0145 2e-3 -0.0215 0.0066-0.0707 0.01398-0.14199 0.02148-0.21289 0.01966-0.19522 0.04012-0.39026 0.06055-0.58593 0.0977-0.92862 0.2111-1.8637 0.34766-2.8066 9e-4 -6e-3 0.0011-0.0116 2e-3 -0.0176 2e-3 -0.0138 0.0039-0.0272 0.0059-0.041 0.0352-0.24277 0.0757-0.48671 0.11524-0.73047 0.01111-0.0691 0.02213-0.13783 0.0332-0.20703 0.0048-0.0299 0.0089-0.0598 0.01367-0.0898 0.10221-0.6393 0.22038-1.2822 0.33984-1.9258 0.03434-0.18602 0.06152-0.37017 0.09766-0.55664 0.0045-0.0235 0.0071-0.0468 0.01172-0.0703 0.06965-0.35822 0.14774-0.71703 0.22461-1.0762 0.0192-0.0907 0.03727-0.18078 0.05664-0.27148 0.0036-0.0169 0.0062-0.0339 0.0098-0.0508 0.14492-0.67637 0.29831-1.354 0.46289-2.0332 0.0067-0.028 0.01468-0.056 0.02148-0.084 0.01046-0.043 0.01874-0.0858 0.0293-0.12891 0.07807-0.31913 0.16601-0.63945 0.24805-0.95898 0.09565-0.37294 0.18783-0.74586 0.28906-1.1191 0.03867-0.14247 0.08159-0.28523 0.12109-0.42774 0.15476-0.55874 0.31256-1.1169 0.48047-1.6758 0.08832-0.29392 0.18527-0.58701 0.27734-0.88086 0.12729-0.40629 0.25009-0.81276 0.38477-1.2188 0.2352-0.709 0.48164-1.418 0.74023-2.125 0.25178-0.68714 0.52439-1.3489 0.79102-2.0176 6.1659-15.464 16.181-25.899 25.186-26.154 0.30302-0.0085 0.60574-0.0049 0.90625 0.0098 0.21876 0.01057 0.43832 0.02776 0.6543 0.05078 0.07174 1e-3 0.14071 0.0019 0.21094 0.0059 4.1532 0.27494 14.737 2.3704 23.473 2.9395 0.02572-2.9411-0.28563-12.756-5.2402-21.238-2.9465-5.0443-7.3735-9.5471-14.705-12.135-4.9712-1.7372-11.029-2.5545-17.135-2.4805zm21.785 92.633c-0.69466 0-1.3808 0.0334-2.0586 0.0977h-2e-3c-0.22525 0.0214-0.44288 0.0674-0.66602 0.0957-0.44796 0.0567-0.89869 0.10576-1.3379 0.18946-1.1502 0.21992-2.2678 0.53268-3.3457 0.92773-1.0792 0.39552-2.1189 0.87444-3.1094 1.4297h-2e-3c-0.91235 0.51153-1.7776 1.0944-2.6016 1.7285-0.07011 0.054-0.14542 0.10145-0.21484 0.15625l-2e-3 2e-3c-0.06383 0.0504-0.12231 0.1071-0.18555 0.1582-0.81364 0.65753-1.582 1.3676-2.291 2.1348-0.76465 0.82726-1.4663 1.7148-2.0938 2.6543-1.5683 2.3487-2.6827 5.0232-3.2168 7.9004-0.10328 0.55627-0.18319 1.1209-0.24219 1.6914h81.221c-0.12001-1.1608-0.33142-2.2946-0.63086-3.3926-0.30454-1.1166-0.69779-2.1964-1.1719-3.2324-0.47409-1.036-1.0288-2.0273-1.6562-2.9668-0.94093-1.4089-2.0448-2.7021-3.2852-3.8496h-2e-3c-0.35329-0.32682-0.7229-0.63662-1.0976-0.93945-0.18272-0.14768-0.37099-0.28794-0.5586-0.42969-0.32798-0.2478-0.65382-0.49746-0.99609-0.72656h-2e-3c-1.4102-0.94378-2.9398-1.7251-4.5586-2.3184-0.53843-0.19734-1.0851-0.37467-1.6426-0.5293-1e-3 -3.4e-4 -3e-3 3.4e-4 -4e-3 0-0.55751-0.15453-1.1247-0.28858-1.6992-0.39843-1e-3 -2.4e-4 -3e-3 2.4e-4 -4e-3 0-0.65684-0.12546-1.3237-0.22086-2-0.28516-1e-3 -1.3e-4 -5e-3 1.2e-4 -6e-3 0-0.67701-0.0643-1.3632-0.0976-2.0566-0.0977h-2e-3z"/>
  <g transform="translate(3.7484e-6 1.2113e-6)">
   <rect x="61.001" y="101" width="12" height="32" ry="6"/>
   <rect transform="rotate(90)" x="111" y="-83.001" width="12" height="32" ry="6"/>
  </g>
  <g transform="translate(1 1)">
   <circle cx="114" cy="116" r="6"/>
   <circle cx="124" cy="126" r="6"/>
   <circle cx="134" cy="116" r="6"/>
   <circle cx="124" cy="106" r="6"/>
  </g>
 </g>
</svg>
