<?xml version="1.0" encoding="UTF-8" standalone="no"?>
<!DOCTYPE svg PUBLIC "-//W3C//DTD SVG 1.1//EN" "http://www.w3.org/Graphics/SVG/1.1/DTD/svg11.dtd">
<svg width="100%" height="100%" viewBox="0 0 16 16" version="1.1" xmlns="http://www.w3.org/2000/svg" xmlns:xlink="http://www.w3.org/1999/xlink" xml:space="preserve" xmlns:serif="http://www.serif.com/" style="fill-rule:evenodd;clip-rule:evenodd;stroke-linejoin:round;stroke-miterlimit:2;">
    <g transform="matrix(0.768159,0,0,0.775958,1.93927,1.79234)">
        <g transform="matrix(1.45802,-1.45802,1.45802,1.45802,-19.0353,-3.09732)">
            <path d="M9.182,11.722C9.181,11.404 8.988,11.117 8.694,10.994C8.4,10.871 8.063,10.936 7.839,11.16L3.549,15.45C3.325,15.674 3.26,16.011 3.383,16.305C3.506,16.599 3.793,16.792 4.111,16.794L8.423,16.815C8.857,16.818 9.206,16.468 9.204,16.034L9.182,11.722ZM8.397,11.718L4.107,16.008L8.419,16.03L8.397,11.718Z"/>
        </g>
        <g transform="matrix(1,0,0,1,-0.908059,7.10543e-15)">
            <path d="M2.129,11.113C1.687,11.423 1.429,11.932 1.445,12.472C1.461,13.04 1.779,13.557 2.28,13.833L5.604,15.663C6.108,15.941 6.723,15.934 7.22,15.644C7.717,15.355 8.022,14.827 8.022,14.256L8.022,9.163C8.022,8.712 7.831,8.287 7.505,7.986C7.831,7.685 8.022,7.26 8.022,6.809L8.022,1.744C8.022,1.093 7.626,0.505 7.018,0.256C6.41,0.007 5.71,0.144 5.244,0.605L-1.075,6.861C-1.428,7.211 -1.6,7.702 -1.54,8.194C-1.479,8.685 -1.194,9.122 -0.767,9.378L2.129,11.113ZM6.395,6.809L6.395,1.744L0.076,8L5.215,11.079L3.071,12.425L6.395,14.256L6.395,9.163L4.424,8L6.395,6.809Z"/>
        </g>
    </g>
</svg>
