<svg xmlns="http://www.w3.org/2000/svg" viewBox="0 0 576 512">
  <path d="M288 512c-140.8 0-256-41.011-256-89.6 0-25.6 33.613-50.995 84.813-66.406C162.893 340.608 221.389 332.8 288 332.8c66.611 0 125.107 7.808 171.213 23.194C510.413 371.404 544 396.8 544 422.4c0 48.589-115.2 89.6-256 89.6zm0-51.2c84.506 0 153.6-10.189 153.6-25.6 0-15.411-69.094-25.6-153.6-25.6s-153.6 10.189-153.6 25.6c0 15.411 69.094 25.6 153.6 25.6zM116.813 304.794L83.2 51.2C83.2 22.989 175.411 0 288 0c112.589 0 204.8 22.989 204.8 51.2l-33.587 253.594C413.107 289.408 354.61 281.6 288 281.6c-66.611 0-125.107 7.808-171.187 23.194z"/>
</svg>
