<svg xmlns="http://www.w3.org/2000/svg" fill-rule="evenodd" stroke-linejoin="round" stroke-miterlimit="2" clip-rule="evenodd" viewBox="0 0 1152 1152">
  <path fill-opacity=".3" d="M375 653c-85-16-151-91-151-181 0-69 39-130 96-162v-10a156.7 156.7 0 01156-155.6A156 156 0 01591 195a138 138 0 0169-19c70 0 129 53 139 120 74 24 129 94 129 176 0 90-66 165-151 181h-2a138 138 0 01-27 3H602c-.5 1-.8 2-1 3v2c0 5 10 9 20 12 5 1 59 18 68 37a213 213 0 00-2 4c25 22 36 62 50 89s39 67 34 85l-1 8c-1 3-4 7-8 10v3c19 38 34 68 33 70-7 22-100 32-102 31l-10-51a232 232 0 01-25 31c8 13 13 25 10 34-27-5-49-18-67-37-2-21-5-35-11-54-4.7.5-9.3.8-14 1-4.3-.2-8.7-.6-13-1-7 19-10 33-12 54-18 19-40 32-67 37-2-9 2-21 10-34a232 232 0 01-25-32l-10 52c-2 1-95-9-102-31-1-2 14-32 33-70v-3c-4-3-7-7-8-10l-1-8c-5-18 20-58 34-85s25-67 50-89a213 213 0 00-2-4c1-3 4-6 8-9-.8-2-1.4-4-2-6a13 13 0 011-7l-1-1c-2-11 9-19 20-21 19-5 38-3 56 2 4-2 6-5 7-7l-1-2v-3H408a182 182 0 01-31-3h-2z"/>
  <path d="M493.3 983c-40-47-60.5-102.1-59.2-158.1 0-50.8 19.8-104.6 63.3-143.4 15.8-15 142.2-15 158 0a191.7 191.7 0 0163.3 143.4c4 50.7-15.8 110.5-59.3 158.3h-.7c7.6 12.5 12.2 24 9.3 32.8-27-5-50-19.8-68-38.8h.2c0-18-4-32.9-12-50.8-7.8.4-15.8.4-23.6 0-8 18-12 32.9-12 50.8l-.1.2A127.9 127.9 0 01484 1016c-2-8.7 1.8-20.3 9.3-33z"/>
  <g transform="matrix(3.95216 0 0 2.98693 197 -122)">
    <clipPath id="a">
      <path d="M76 269c4-5 36-5 40 0 11 13 16 31 16 48 1 17-4 37-15 53-3 0-8 0-15-2 0-6-1-11-3-17h-6c-2 6-3 11-3 17-7 2-12 2-15 2a95 95 0 01-15-53c0-17 5-35 16-48z"/>
    </clipPath>
    <g clip-path="url(#a)">
      <ellipse cx="88.1" cy="291.3" fill="#053155" rx="48.7" ry="39.1" transform="matrix(.99864 0 0 .8327 8 65)"/>
      <ellipse cx="88.1" cy="291.3" fill="#305b80" rx="48.7" ry="39.1" transform="matrix(.99864 0 0 .8327 8 53)"/>
      <path fill-opacity=".2" d="M107 265h2c3 1 10 4 16 11l-3 7c4 8 6 17 8 26l24 53c-2 7-27 14-27 14l-9-48c-5-13-11-63-11-63zm-22 0s-7 50-11 63l-10 48s-24-7-26-14l24-53c1-9 4-18 8-26l-3-7c5-7 13-10 16-11h2z"/>
    </g>
  </g>
  <path fill="#053155" d="M493 686.5c58.8-40.6 113.8-37.7 165.8 0-23.7 24-59.1 56.9-82.8 59.9-27.6-3-59.3-36-83-60z"/>
  <g transform="matrix(3.94675 0 0 2.9944 197 -119)">
    <clipPath id="b">
      <path d="M90 256h12v2c1 3 9 5 11 6l4 5c-6 8-14 19-20 20l-1 1-1-1c-7-1-14-12-20-20l4-5c2-1 10-3 11-6 0-.3.4-1.7 0-2z"/>
    </clipPath>
    <g clip-path="url(#b)">
      <path fill="#fff" d="M79 253c5-2 29-2 34 0 2 2-3 7-2 8-6 8-8 16-15 18-7-2-9-10-15-18 1-1-4-6-2-8z"/>
      <g transform="translate(0 -11)">
        <clipPath id="c">
          <path d="M79 264c5-2 29-2 34 0 2 2-3 7-2 8-6 8-8 16-15 18-7-2-9-10-15-18 1-1-4-6-2-8z"/>
        </clipPath>
        <g clip-path="url(#c)">
          <path fill="#ffdac0" d="M101 267l-5 4-5-4h10z"/>
          <path fill="#bfbdbe" d="M92 267c1.4 1.2 2.8 2.6 4 4 1.2-1.4 2.6-2.8 4-4h2a37 37 0 00-5 5l6 18c0 .5-.5 1-1 1l-6-17-6 17a1 1 0 01-1-1l6-18c-1.5-1.5-3-2.8-4.9-4l-.1-1h2z"/>
          <path fill-opacity=".2" d="M67 261h58v32H67z"/>
        </g>
      </g>
    </g>
  </g>
  <path fill="#fff" d="M624 666l69.6 336.7s92-10 101.7-30.1l-80.5-166.4c-4.5-39.5-20.5-83-53.3-115.9-7-9.6-10.7-13-37.5-24.3z"/>
  <g transform="matrix(-3.93173 -.34398 -.26098 2.98301 1030 -80)">
    <clipPath id="d">
      <path d="M86 260L61 370s-23-6-25-13l24-53c2-13 7-27 16-37 2-3 3-4 10-7z"/>
    </clipPath>
    <g clip-path="url(#d)">
      <path fill-opacity=".2" d="M71 322c0 2-2-23-6-27l7-7-5-18c5-7 15-9 18-10-3 9-5 32-14 62z"/>
    </g>
  </g>
  <path fill="#ffdac0" d="M724.6 899.5c18 6.1 31.7 1.7 37.2-14.6 5.5-16.3-2.6-28-20.6-34.2-18.1-6.1-33 2.4-37.2 14.6-5.5 16.3 6.2 29.3 20.6 34.2z"/>
  <g transform="matrix(3.6122 1.22543 1.37963 -4.06675 -204 1369)">
    <clipPath id="e">
      <path d="M191 173c5 0 8 2 8 6s-3 6-8 6-8-3-8-6c0-4 4-6 8-6z"/>
    </clipPath>
    <g fill="#ccae9a" clip-path="url(#e)">
      <path d="M198 173c0-2-2-3-4-3-3 1-3 1-3 3v2c0 2 0 4 3 4 2 0 4-2 4-4v-2z"/>
      <path d="M201 175c1-1 0-3-2-3s-2 1-3 2v2c-1 2-1 3 1 4 2 0 3-2 4-3v-2z"/>
    </g>
  </g>
  <path fill="#ffdac0" d="M763.5 904l-13 3.8-2.9-9.2 2.4-7.3 9-9.4 7 14.7-2.5 7.4z"/>
  <g transform="matrix(5.29234 1.7727 1.19584 -3.69546 -453 1201)">
    <clipPath id="f">
      <path d="M191 172l-2-2-1 2v2l1 3 2-3v-2z"/>
    </clipPath>
    <g clip-path="url(#f)">
      <path fill="#ccae9a" d="M189 171c0-2-1-4-3-4-2 1-2 1-2 3v3c0 2 0 4 2 4 1 0 3-2 3-4v-2z"/>
    </g>
  </g>
  <path fill="#ffdac0" d="M746.3 906l-13.3 4.5-2.6-9.9 2.8-8.1 9.5-10.5 6.4 15.8-2.8 8.2z"/>
  <g transform="matrix(5.2909 1.79492 1.38232 -4.07466 -502 1264)">
    <clipPath id="g">
      <path d="M191 172l-2-2-1 2v2l1 3 2-3v-2z"/>
    </clipPath>
    <g clip-path="url(#g)">
      <path fill="#ccae9a" d="M189 171l-2-2-1 2v4h3v-4z"/>
    </g>
  </g>
  <path fill="#ffdac0" d="M731 908c-1 3-6 6-12 4-5-2-8-7-7-10l5-16c1-3 6-2 11 0s10 3 9 6l-6 16z"/>
  <path fill-opacity=".2" d="M706 910c-17-9-26-61-33-76-46-97-39-142-38-150l43 23c31 21 43 66 58 96 14 26 39 67 34 85s-48 31-64 22z"/>
  <path fill="#fff" d="M704.9 904c-13.9-9.6-23.6-64-32.3-78.5-44.6-96.2-37.5-141.6-36-149.9l41 24.8c30.7 18.5 44.9 64 59.3 93.6 13.7 25.6 39.7 69 33.7 86.2-6 17-49.6 28.9-65.7 23.8z"/>
  <g transform="matrix(-.69522 -3.88503 2.94759 -.52746 -88 1114)">
    <clipPath id="h">
      <path d="M17 273c3-4 17-4 21-6 26-9 37-4 39-3l-8 12c-6 9-18 11-26 14-7 3-19 9-23 6s-5-18-3-23z"/>
    </clipPath>
    <g clip-path="url(#h)">
      <path fill-opacity=".2" d="M31 263c-2 0 16 9 18 15l7-7 12 11c6-5 10-17 12-21-8 3-25-1-49 2z"/>
    </g>
  </g>
  <path fill="#fff" d="M689.2 701c-9.8-19-61.6-35.5-69.1-36.2 0 0 32 156.1 47.7 193.6 0 0 10-71.3 22.1-79.2l-28.3-23.6 27.6-54.7z"/>
  <g transform="matrix(-3.77468 -.33024 -.26098 2.98301 1005 -83)">
    <clipPath id="i">
      <path d="M65 270c3-6 17-10 19-10 0 0-12 51-17 63 0 0-1-24-4-27l8-7-6-19z"/>
    </clipPath>
    <g clip-path="url(#i)">
      <path fill-opacity=".2" d="M87 259l-21-2-1 16 21 2 1-16z"/>
    </g>
  </g>
  <path fill="#fff" d="M528 666l-69.6 336.7s-92-10-101.7-30.1l80.5-166.4c4.5-39.5 20.5-83 53.3-115.9 7-9.6 10.7-13 37.5-24.3z"/>
  <g transform="matrix(3.93173 -.34398 .26098 2.98301 122 -80)">
    <clipPath id="j">
      <path d="M86 260L61 370s-23-6-25-13l24-53c2-13 7-27 16-37 2-3 3-4 10-7z"/>
    </clipPath>
    <g clip-path="url(#j)">
      <path fill-opacity=".2" d="M71 322c0 2-2-23-6-27l7-7-5-18c5-7 15-9 18-10-3 9-5 32-14 62z"/>
    </g>
  </g>
  <ellipse cx="92.9" cy="294.5" fill="#2ad376" rx="3.1" ry="4.4" transform="matrix(4.52492 0 0 3.20047 24 3)"/>
  <ellipse cx="92.9" cy="294.5" fill="#2daee5" rx="3.1" ry="4.4" transform="matrix(4.52492 0 0 3.20047 35 -34)"/>
  <ellipse cx="92.9" cy="294.5" fill="#faae00" rx="3.1" ry="4.4" transform="matrix(4.52492 0 0 3.20047 46 -71)"/>
  <path fill="#ffdac0" d="M427.4 899.5c-18 6.1-31.7 1.7-37.2-14.6-5.5-16.3 2.6-28 20.6-34.2 18.1-6.1 33 2.4 37.2 14.6 5.5 16.3-6.2 29.3-20.6 34.2z"/>
  <g transform="matrix(-3.6122 1.22543 -1.37963 -4.06675 1356 1369)">
    <clipPath id="k">
      <path d="M191 173c5 0 8 2 8 6s-3 6-8 6-8-3-8-6c0-4 4-6 8-6z"/>
    </clipPath>
    <g fill="#ccae9a" clip-path="url(#k)">
      <path d="M198 173c0-2-2-3-4-3-3 1-3 1-3 3v2c0 2 0 4 3 4 2 0 4-2 4-4v-2z"/>
      <path d="M201 175c1-1 0-3-2-3s-2 1-3 2v2c-1 2-1 3 1 4 2 0 3-2 4-3v-2z"/>
    </g>
  </g>
  <path fill="#ffdac0" d="M388.5 904l13 3.8 2.9-9.2-2.4-7.3-9-9.4-7 14.7 2.5 7.4z"/>
  <g transform="matrix(-5.29234 1.7727 -1.19584 -3.69546 1605 1201)">
    <clipPath id="l">
      <path d="M191 172l-2-2-1 2v2l1 3 2-3v-2z"/>
    </clipPath>
    <g clip-path="url(#l)">
      <path fill="#ccae9a" d="M189 171c0-2-1-4-3-4-2 1-2 1-2 3v3c0 2 0 4 2 4 1 0 3-2 3-4v-2z"/>
    </g>
  </g>
  <path fill="#ffdac0" d="M405.7 906l13.3 4.5 2.6-9.9-2.8-8.1-9.5-10.5-6.4 15.8 2.8 8.2z"/>
  <g transform="matrix(-5.2909 1.79492 -1.38232 -4.07466 1654 1264)">
    <clipPath id="m">
      <path d="M191 172l-2-2-1 2v2l1 3 2-3v-2z"/>
    </clipPath>
    <g clip-path="url(#m)">
      <path fill="#ccae9a" d="M189 171l-2-2-1 2v4h3v-4z"/>
    </g>
  </g>
  <path fill="#ffdac0" d="M421 908c1 3 6 6 12 4 5-2 8-7 7-10l-5-16c-1-3-6-2-11 0s-10 3-9 6l6 16z"/>
  <path fill-opacity=".2" d="M446 910c17-9 26-61 33-76 46-97 39-142 38-150l-43 23c-31 21-43 66-58 96-14 26-39 67-34 85s48 31 64 22z"/>
  <path fill="#fff" d="M447.1 904c13.9-9.6 23.6-64 32.3-78.5 44.6-96.2 37.5-141.6 36-149.9l-41 24.8c-30.7 18.5-44.9 64-59.3 93.6-13.7 25.6-39.7 69-33.7 86.2 6 17 49.6 28.9 65.7 23.8z"/>
  <g transform="matrix(.69522 -3.88503 -2.94759 -.52746 1240 1114)">
    <clipPath id="n">
      <path d="M17 273c3-4 17-4 21-6 26-9 37-4 39-3l-8 12c-6 9-18 11-26 14-7 3-19 9-23 6s-5-18-3-23z"/>
    </clipPath>
    <g clip-path="url(#n)">
      <path fill-opacity=".2" d="M31 263c-2 0 16 9 18 15l7-7 12 11c6-5 10-17 12-21-8 3-25-1-49 2z"/>
    </g>
  </g>
  <path fill="#fff" d="M463 702c9-19 63-36 68-37 0 0-31 155-46 192 0 0-10-69-22-79 6-8 15-16 26-23-5-14-18-39-26-53z"/>
  <path fill-opacity=".2" d="M568 728l-4 4c-12 16-16 20-32 28h-8c-24 0-32-20-32-40-12-8-20-16-24-32 0-12 8-20 20-24 24-4 44 0 68 8l16 8 16 4a8 8 0 014 4l8-4c24-4 44 0 64 8 12 4 20 16 16 24-4 16-12 24-28 28 0 20-12 40-36 36-2.8-1-5.5-2.4-8-4-16-8-20-16-28-32l-8-16h-4z"/>
  <g transform="matrix(4.00002 0 0 4 0 8)">
    <clipPath id="o">
      <path d="M142 180l-1 1c-3 4-4 5-8 7h-2c-6 0-8-5-8-10-3-2-5-4-6-8 0-3 2-5 5-6 6-1 11 0 17 2l4 2 4 1c.4.2.8.6 1 1l2-1c6-1 11 0 16 2 3 1 5 4 4 6-1 4-3 6-7 7 0 5-3 10-9 9a11 11 0 01-2-1c-4-2-5-4-7-8l-2-4h-1z"/>
    </clipPath>
    <g clip-path="url(#o)">
      <path fill-opacity=".2" d="M149 172c1-2 0-3-2-3l-5-1c-1 0-3 1-3 3v8c-1 2 0 3 2 3l5 1c1 0 3-1 3-3v-8z"/>
    </g>
  </g>
  <g>
    <path fill="#e52d6b" d="M572.4 678.5c-2-7.8-12.1-13.6-17.2-16.5-23.4-6.7-41.7-10.4-66.1-4.2-12.3 3.1-23.5 10.2-20.5 22 4 15.7 11 26.5 25.3 31.3-3.1 21.7 6 40.4 27.3 39.1l9.2 1.9c16.3-4.2 23.4-10.2 32.7-25.1 3-5 16.3-21 14.3-28.8l-5-19.7z"/>
    <g transform="matrix(4.07557 -1.03642 1.00095 3.93603 -81 -270)">
      <clipPath id="p">
        <path d="M95 266c0-2-2-4-3-5-5-3-9-5-15-5-3 0-6 1-6 4 0 4 1 7 4 9-2 5-1 10 4 11l2 1c4 0 6-1 9-4 1-1 5-4 5-6v-5z"/>
      </clipPath>
      <g clip-path="url(#p)">
        <path fill-opacity=".2" d="M100 269c1-1 0-2-1-3l-5-1c-1-1-2 0-3 1l-2 8c-1 2 0 3 1 3l5 2c1 1 2 0 3-1l2-9z"/>
      </g>
    </g>
  </g>
  <g>
    <path fill="#e52d6b" d="M580 690c3.4-7.4 14.4-11.4 20-13.3 24.1-2.4 42.8-2.8 65.8 7.6 11.5 5.2 21.3 14.2 16.2 25.3-6.7 14.7-15.6 24-30.4 26.3-.8 22-13 38.7-33.8 33.7l-9.4.2c-15.3-7-21.3-14.2-27.7-30.5-2.2-5.4-12.4-23.5-9-30.9L580 690z"/>
    <g transform="matrix(-3.82788 -1.74117 -1.68158 3.69683 1391 -128)">
      <clipPath id="q">
        <path d="M95 266c0-2-2-4-3-5-5-3-9-5-15-5-3 0-6 1-6 4 0 4 1 7 4 9-2 5-1 10 4 11l2 1c4 0 6-1 9-4 1-1 5-4 5-6v-5z"/>
      </clipPath>
      <g clip-path="url(#q)">
        <path fill-opacity=".2" d="M91 263c1-1 2-2 4-1l4 2c1 0 2 1 2 3l-3 8c-1 1-2 2-3 1l-5-1c-1-1-2-2-1-3l2-9z"/>
      </g>
    </g>
  </g>
  <path fill="#e52d6b" d="M593 683c1-4-2-8-7-8l-16-2c-4 0-8 3-8 8l-3 32c-1 4 3 8 7 8l16 2c4 0 8-3 9-8l2-32z"/>
  <g fill-rule="nonzero">
    <path fill="#bfbdbe" d="M775 645a138 138 0 01-27 3H408c-101 0-184-83-184-184 0-69 39-130 96-162v-10a156.7 156.7 0 01156-155.6A156 156 0 01591 187a138 138 0 0169-19c70 0 129 53 139 120 74 24 129 94 129 176 0 90-67 166-153 181z"/>
    <path fill="#fff" d="M560 344c0-12-1-51-21-85-12-20-29-38-59-48a222 222 0 00-138 2v-1a158 158 0 0136-41c12-2 39-3 51-3 21 1 43 4 61 11 37 13 61 37 76 63 21 36 25 81 26 102l-16 4-16-4z"/>
    <path fill="#ffdac0" d="M406 648c-.3 0-61.9-20.7-69.4-93.2-8.8-84.2 56.9-229.6 126.4-220.8 115.5 14.5 111.3 14.7 228 0 69.4-8.8 135 136.6 126.3 220.8C809.8 627.3 748 648 748 648H406z"/>
  </g>
  <path fill-opacity=".2" d="M670 372c35 14 83 5 97-10 7-7-42-2-76-16-35-14-46-33-50-24s-5 37 29 50z"/>
  <path fill="#fff" d="M670 364c35 14 83 5 97-10 7-7-42-2-76-16-35-14-46-33-50-24s-5 37 29 50z"/>
  <path fill-opacity=".2" d="M481 372c-34 14-83 5-97-10-6-7 43-2 77-16s46-33 49-24 5 37-29 50z"/>
  <path fill="#fff" d="M481 364c-34 14-83 5-97-10-6-7 43-2 77-16s46-33 49-24 5 37-29 50z"/>
  <g>
    <ellipse cx="120.1" cy="124.8" fill-opacity=".2" rx="25.9" ry="25.2" transform="matrix(4.17256 0 0 4.28728 203 -43)"/>
    <ellipse cx="120.1" cy="124.8" fill="#526779" rx="25.9" ry="25.2" transform="matrix(4.17256 0 0 4.28728 203 -51)"/>
    <ellipse cx="120.1" cy="124.8" fill-opacity=".2" rx="25.9" ry="25.2" transform="matrix(4.17256 0 0 4.28728 -53 -43)"/>
    <ellipse cx="120.1" cy="124.8" fill="#526779" rx="25.9" ry="25.2" transform="matrix(4.17256 0 0 4.28728 -53 -51)"/>
    <ellipse cx="65.3" cy="120.2" fill="#526779" rx="15.3" ry="16.5" transform="matrix(3.6704 0 0 1.85202 336 288)"/>
    <ellipse cx="120.1" cy="124.8" fill="#f3e5db" rx="25.9" ry="25.2" transform="matrix(3.5544 0 0 3.65214 277 28)"/>
    <ellipse cx="120.1" cy="124.8" fill="#f3e5db" rx="25.9" ry="25.2" transform="matrix(3.5544 0 0 3.65214 21 28)"/>
  </g>
  <g>
    <path fill-opacity=".2" d="M575 541l1-5 75 12a86 86 0 018 2 85 85 0 0132 15l9 9a82 82 0 0113 19c4 6 6 13 8 21v27c2 20-112-23-146-36-34 13-148 55-146 36v-27c2-8 4-15 8-21a82 82 0 0113-19c2.8-3.2 5.8-6.2 9-9a85 85 0 0132-15 86 86 0 018-2l75-12 1 5z"/>
    <path fill="#fff" d="M576 528l-10 65c0 1 157 63 155 40v-27c-2-8-4-15-8-21a82 82 0 00-13-19 85 85 0 00-9-9 85 85 0 00-32-15 87 87 0 00-8-2l-75-12z"/>
    <path fill="#fff" d="M574 528l11 65c-1 0-158 63-156 40v-27c2-8 4-15 8-21a82 82 0 0113-19 85 85 0 019-9 85 85 0 0132-15 87 87 0 018-2l75-12z"/>
  </g>
  <g transform="matrix(4.19476 0 0 2.55176 302 227)">
    <ellipse cx="65.3" cy="120.2" fill="#f5b49e" rx="15.3" ry="16.5"/>
  </g>
  <g>
    <path fill="#4e3e2e" d="M727 489c1-3 0-6-2-9s-5-4-8-4l-47-8a12 12 0 00-14 10c0 3 0 6 2 9s5 4 8 5l48 7a12 12 0 0013-10z"/>
  </g>
  <g>
    <path fill="#4e3e2e" d="M496 478c-1-3-2-6-5-8s-6-2-9-2l-47 8a12 12 0 00-10 13c0 4 2 6 5 8s5 3 9 2l47-7a12 12 0 0010-14z"/>
  </g>
</svg>
