<svg xmlns="http://www.w3.org/2000/svg" fill-rule="evenodd" stroke-linecap="round" stroke-linejoin="round" stroke-miterlimit="1.5" clip-rule="evenodd" viewBox="0 0 1152 1152">
  <path fill-opacity=".3" fill-rule="nonzero" d="M375 653c-85-16-151-91-151-181 0-69 39-130 96-162v-10a157 157 0 01156-156 156 156 0 01115 51 138 138 0 0169-19c70 0 129 53 139 120 74 24 129 94 129 176 0 90-66 165-151 181h-2a138 138 0 01-27 3H602l-1 3v2c0 2 75 25 75 25 8 4 15 9 21 14l-11 24a195 195 0 0131 77c38 60 96 153 95 156-5 23-97 41-99 40l-18-61c-9 19-21 38-37 54 8 13 13 25 10 34-27-5-49-18-67-37-2-21-5-35-11-54l-14 1-13-1c-7 19-10 33-12 54-18 19-40 32-67 37-2-9 2-21 10-34-15-16-28-35-37-54l-18 61c-2 1-94-17-99-40-1-2 40-68 75-125-12-13-67-72-51-87 41-36 81-54 112-63v-3s75-16 76-18l-1-2v-3H408a182 182 0 01-31-3h-2z"/>
  <path fill="#bfbdbe" fill-rule="nonzero" d="M775 645a138 138 0 01-27 3H408c-101 0-184-83-184-184 0-69 39-130 96-162v-10a157 157 0 01156-156 156 156 0 01115 51 138 138 0 0169-19c70 0 129 53 139 120 74 24 129 94 129 176 0 90-67 166-153 181z"/>
  <path fill="#fff" fill-rule="nonzero" d="M560 344c0-12-1-51-21-85-12-20-29-38-59-48a222 222 0 00-138 2v-1a158 158 0 0136-41c12-2 39-3 51-3 21 1 43 4 61 11 37 13 61 37 76 63 21 36 25 81 26 102l-16 4-16-4z"/>
  <path fill="#ffdac0" fill-rule="nonzero" d="M406 648s-62-21-69-93c-9-84 57-230 126-221 116 14 111 15 228 0 69-9 135 137 126 221-7 72-69 93-69 93H406z"/>
  <ellipse cx="98.8" cy="272.5" fill="#fff" rx="28.3" ry="14.7" transform="matrix(3.89989 0 0 3.06498 191 -133)"/>
  <path d="M493 983c-40-47-60-102-59-158 0-51 20-105 63-144 16-14 143-14 158 1a192 192 0 0164 143c4 51-16 110-60 158 7 13 12 24 9 33-27-5-50-20-68-39 0-18-4-33-12-51h-23c-8 18-12 33-12 51a128 128 0 01-69 39c-2-9 2-20 9-33z"/>
  <g transform="matrix(3.95216 0 0 2.98693 197 -122)">
    <clipPath id="a">
      <path d="M76 269c4-5 36-5 40 0 11 13 16 31 16 48 1 17-4 37-15 53-3 0-8 0-15-2 0-6-1-11-3-17h-6c-2 6-3 11-3 17-7 2-12 2-15 2a95 95 0 01-15-53c0-17 5-35 16-48z"/>
    </clipPath>
    <g clip-path="url(#a)">
      <ellipse cx="88.1" cy="291.3" fill="#053155" rx="48.7" ry="39.1" transform="matrix(.99864 0 0 .8327 8 65)"/>
      <ellipse cx="88.1" cy="291.3" fill="#305b80" rx="48.7" ry="39.1" transform="matrix(.99864 0 0 .8327 8 53)"/>
      <path fill-opacity=".2" d="M107 265h2c3 1 10 4 16 11l-3 7c4 8 6 17 8 26l24 53c-2 7-27 14-27 14l-9-48c-5-13-11-63-11-63zm-22 0s-7 50-11 63l-10 48s-24-7-26-14l24-53c1-9 4-18 8-26l-3-7c5-7 13-10 16-11h2z"/>
    </g>
  </g>
  <path fill="#053155" d="M493 687c59-41 114-38 166 0-24 24-59 56-83 59-28-3-59-36-83-60z"/>
  <g class="arm">
    <g transform="matrix(3.94675 0 0 2.9944 197 -119)">
      <clipPath id="b">
        <path d="M90 256h12v2c1 3 9 5 11 6l4 5c-6 8-14 19-20 20l-1 1-1-1c-7-1-14-12-20-20l4-5c2-1 10-3 11-6v-2z"/>
      </clipPath>
      <g clip-path="url(#b)">
        <path fill="#fff" d="M79 253c5-2 29-2 34 0 2 2-3 7-2 8-6 8-8 16-15 18-7-2-9-10-15-18 1-1-4-6-2-8z"/>
        <g transform="translate(0 -11)">
          <clipPath id="c">
            <path d="M79 264c5-2 29-2 34 0 2 2-3 7-2 8-6 8-8 16-15 18-7-2-9-10-15-18 1-1-4-6-2-8z"/>
          </clipPath>
          <g clip-path="url(#c)">
            <path fill="#ffdac0" d="M101 267l-5 4-5-4h10z"/>
            <path fill="#bfbdbe" d="M92 267l4 4 4-4h2a37 37 0 00-5 5l6 18-1 1-6-17-6 17a1 1 0 01-1-1l6-18-5-4v-1h2z"/>
            <path fill-opacity=".2" d="M67 261h58v32H67z"/>
          </g>
        </g>
      </g>
    </g>
    <path fill-opacity=".2" d="M753 636c1-16 73-25 71 13-1 77-9 102-30 125a81 81 0 01-97 14c-31-16-59-67-68-110h38c6 0 20 4 30 7 12 4 33 20 41 14 19-16 9-53 15-63z"/>
    <path fill="#fff" d="M823 639c1 80-9 105-30 125a77 77 0 01-96 16c-31-14-58-67-67-110l38-2 29 10c14 4 33 21 40 15 20-16 9-54 17-66 13-17 70-1 69 12z"/>
    <g transform="matrix(-1.3911 -3.69348 2.80224 -1.05542 -3 1233)">
      <clipPath id="d">
        <path d="M67 328c-19-9-24-15-27-24-4-9-3-23 5-32 6-8 21-10 32-8l-3 12-5 8c-2 4-8 8-7 11 2 8 12 9 14 13 3 6-6 22-9 20z"/>
      </clipPath>
      <g clip-path="url(#d)">
        <ellipse cx="192.7" cy="176.8" fill="#fff" rx="7.8" ry="3.1" transform="matrix(-.46356 1.23215 -.90799 -.59345 321 187)"/>
        <ellipse cx="192.7" cy="176.8" fill-opacity=".2" rx="7.8" ry="3.1" transform="matrix(-.44394 1.17999 -.8832 -.57724 313 192)"/>
      </g>
    </g>
    <path fill="#ccae9a" d="M778 568c-2-6-2-25 4-25 7-1 10 2 12 8l16 36c1 7-10 11-17 11s-11 2-13-5l-3-25z"/>
    <path fill="#ffdac0" d="M781 567c-1-5-2-20 2-20 5-1 6 1 8 6l12 29c1 6-7 9-12 9s-8 1-9-4l-1-20z"/>
    <path fill="#ccae9a" d="M753 576c1-8 1-14 7-15 7-3 13 8 16 15l12 32c2 7-7 11-12 12-6 1-20 1-21-6 0 1-3-29-2-38z"/>
    <path fill="#ffdac0" d="M756 581c0-6 1-15 6-16 6-2 9 8 11 14l12 27c1 6-6 9-11 10s-12 3-13-3c0 0-5-24-5-32z"/>
    <path fill="#ccae9a" d="M812 589a34 34 0 00-49-1c-12 12-12 30 2 44 15 15 36 18 48 6s13-34-1-49z"/>
    <path fill="#ffdac0" d="M808 593c-12-13-31-11-41-1s-10 25 2 37 30 15 40 5 11-29-1-41z"/>
    <path fill="#ffdac0" d="M808 593c-12-13-35-19-45-9s-6 33 6 45c12 13 30 15 40 5s11-29-1-41z"/>
    <path fill="#ccae9a" d="M771 573c4-5 11-8 16-1 7 7 6 8 2 13l-6 9c-4 5-8 11-15 5-8-5-4-14 0-19l3-7z"/>
    <path fill="#ffdac0" d="M773 576c3-4 8-6 12-1 5 5 4 6 1 10l-4 7c-3 4-6 8-12 4s-3-10 0-14l3-6z"/>
    <path fill="#ccae9a" d="M787 576c5-5 14-3 18 4 5 9 7 12 2 16l-13 7c-5 5-7 7-13 1s-6-17-1-22l7-6z"/>
    <path fill="#ffdac0" d="M788 579c4-4 12-3 15 3 4 7 17 30 13 33l-22-14c-4 4-6 6-11 1s-4-14 0-18l5-5z"/>
    <path fill="#ffdac0" d="M794 601c-4 4 12-10 17-4 14 17 3 50-20 25-2-3 5-15 3-21z"/>
  </g>
  <path fill="#fff" d="M616 660l97 329c2 1 94-17 99-40 1-3-58-97-95-157-7-40-27-82-63-112-8-7-11-13-38-20z"/>
  <path fill-opacity=".2" d="M681 848c2 4 9-68 24-82-7-7-17-14-29-20 3-15 13-39 21-54-20-20-62-28-74-31 14 28 21 96 58 187z"/>
  <path fill="#fff" d="M690 691c-11-18-68-31-74-31 0 0 47 152 65 188 0 0 4-70 16-82-7-7-17-14-29-20 3-15 14-41 22-55zM533 666s-83-6-170 71c-16 15 55 90 55 90l36-66 11-18 67-78z"/>
  <g transform="matrix(3.94675 0 0 2.9944 197 -119)">
    <clipPath id="e">
      <path d="M85 262s-21-2-43 24c-4 5 14 30 14 30l9-22 3-6 17-26z"/>
    </clipPath>
    <g clip-path="url(#e)">
      <path fill-opacity=".2" d="M83 266s-34 63-24 43c1-11-2-14 7-27 2-2 10-14 17-16z"/>
    </g>
  </g>
  <path fill="#fff" d="M536 660l-98 329s-91-18-99-39l95-159c8-39 27-81 63-111 8-8 12-14 39-20z"/>
  <path fill-opacity=".2" d="M469 848c0 3-8-69-23-81l31-21-23-53c19-21 63-30 75-33-16 30-20 95-60 188z"/>
  <path fill="#fff" d="M461 690c12-18 67-30 75-30 0 0-47 152-67 188 0 0-4-72-16-81l32-21-24-56z"/>
  <path fill-opacity=".2" d="M584 682l6-4c18-13 38-22 61-22 12 0 25 5 25 16 0 16-4 28-14 37 5 18 3 42-19 46l-9 1c-17 0-25-5-39-16l-11-10h-16l-11 10c-14 11-22 16-39 16l-9-1c-22-4-24-28-19-46-10-9-14-21-14-37 0-11 13-16 25-16a107 107 0 0167 26h16z"/>
  <path fill="#e52d6b" d="M584 674l6-4c18-13 38-22 61-22 12 0 25 5 25 16 0 16-4 28-14 37 5 18 3 42-19 46l-9 1c-17 0-25-5-39-16l-11-10h-16l-11 10c-14 11-22 16-39 16l-9-1c-22-4-24-28-19-46-10-9-14-21-14-37 0-11 13-16 25-16a107 107 0 0167 26h16z"/>
  <path fill="#e52d6b" d="M576 687c0-7-9-14-14-17-18-13-38-22-61-22-12 0-25 5-25 16 0 16 4 28 14 37-5 18-3 42 19 46l9 1c17 0 25-5 39-16 4-4 19-15 19-24v-21zm0 0c0-7 9-14 14-17 18-13 38-22 61-22 12 0 25 5 25 16 0 16-4 28-14 37 5 18 3 42-19 46l-9 1c-17 0-25-5-39-16-4-4-19-15-19-24v-21z"/>
  <path fill="#e52d6b" d="M592 682c0-4-4-8-8-8h-16c-4 0-8 4-8 8v32c0 4 4 8 8 8h16c4 0 8-4 8-8v-32z"/>
  <path fill-opacity=".2" d="M568 674a8 8 0 00-8 8v32c0 4 3 8 8 8a101 101 0 01-7 6 10 10 0 01-5-8v-36a10 10 0 0110-10h2zm16 0h2a10 10 0 0110 10v36c0 4-2 7-5 8a98 98 0 01-7-6 8 8 0 008-8v-32a8 8 0 00-8-8z"/>
  <ellipse cx="92.9" cy="294.5" fill="#2ad376" rx="3.1" ry="4.4" transform="matrix(4.52491 0 0 3.20045 4 -17)"/>
  <ellipse cx="92.9" cy="294.5" fill="#2daee5" rx="3.1" ry="4.4" transform="matrix(4.52491 0 0 3.20045 19 -54)"/>
  <ellipse cx="92.9" cy="294.5" fill="#faae00" rx="3.1" ry="4.4" transform="matrix(4.52491 0 0 3.20045 34 -91)"/>
  <g class="glasses">
    <ellipse cx="120.1" cy="124.8" fill-opacity=".2" rx="25.9" ry="25.2" transform="matrix(4.17256 0 0 4.28728 203 -59)"/>
    <ellipse cx="120.1" cy="124.8" fill="#526779" rx="25.9" ry="25.2" transform="matrix(4.17256 0 0 4.28728 203 -67)"/>
    <ellipse cx="120.1" cy="124.8" fill-opacity=".2" rx="25.9" ry="25.2" transform="matrix(4.17256 0 0 4.28728 -53 -59)"/>
    <ellipse cx="120.1" cy="124.8" fill="#526779" rx="25.9" ry="25.2" transform="matrix(4.17256 0 0 4.28728 -53 -67)"/>
    <ellipse cx="65.3" cy="120.2" fill="#526779" rx="15.3" ry="16.5" transform="matrix(3.6704 0 0 1.85202 336 272)"/>
    <ellipse cx="120.1" cy="124.8" fill="#f3e5db" rx="25.9" ry="25.2" transform="matrix(3.5544 0 0 3.65214 277 12)"/>
    <ellipse cx="120.1" cy="124.8" fill="#f3e5db" rx="25.9" ry="25.2" transform="matrix(3.5544 0 0 3.65214 21 12)"/>
  </g>
  <path fill-opacity=".2" d="M691 327c37 2 77 31 83 51 3 9-39-17-76-19s-55 11-55 1 11-35 48-33z"/>
  <path fill="#fff" d="M692 319c37 2 76 31 83 51 3 9-39-17-76-19s-56 11-55 1 11-35 48-33z"/>
  <g>
    <path fill-opacity=".2" d="M493 299c-33-17-82-12-97 2-7 6 42 6 74 23 33 16 43 37 47 28s9-36-24-53z"/>
    <path fill="#fff" d="M496 292c-32-17-82-12-97 2-7 6 42 6 75 22 33 17 43 38 47 29s8-36-25-53z"/>
  </g>
  <g>
    <path fill-opacity=".2" d="M575 547l1-15 76 4 8 1a85 85 0 0144 20 82 82 0 0114 17c4 6 8 13 10 20 2 8 3 27 3 27 4 21-135-16-156-22-21 6-160 43-156 22 0 0 1-19 3-27 2-7 6-14 10-20a82 82 0 0114-17l11-8a85 85 0 0133-12 86 86 0 018-1l76-4 1 15z"/>
    <path fill="#fff" d="M576 524l-4 66c1 0 164 46 159 23 0 0-1-19-3-27-2-7-6-14-10-20a82 82 0 00-14-17 85 85 0 00-44-20 87 87 0 00-8-1l-76-4z"/>
    <path fill="#fff" d="M574 524l4 66c-1 0-163 46-159 23 0 0 1-19 3-27 2-7 6-14 10-20a82 82 0 0114-17 85 85 0 0144-20 87 87 0 018-1l76-4z"/>
  </g>
  <g transform="matrix(4.19476 0 0 2.55176 302 215)">
    <ellipse cx="65.3" cy="120.2" fill="#f5b49e" rx="15.3" ry="16.5"/>
  </g>
  <g>
    <path fill="none" stroke="#4e3e2e" stroke-width="6.2" d="M122 121c-5-5-9-5-14 0" transform="matrix(3.48992 0 0 -4.19796 291 977)"/>
  </g>
  <g>
    <path fill="none" stroke="#4e3e2e" stroke-width="6.2" d="M122 121c-5-5-9-5-14 0" transform="matrix(3.48992 0 0 -4.19796 59 977)"/>
  </g>
</svg>
