<svg xmlns="http://www.w3.org/2000/svg" fill-rule="evenodd" stroke-linejoin="round" stroke-miterlimit="2" clip-rule="evenodd" viewBox="0 0 1152 1152">
  <path fill-opacity=".3" d="M375 653a184.3 184.3 0 01-107.4-62.8 184.7 184.7 0 01-32-54.2c-31.8-84.9 5.8-181.9 84.4-226v-10c0-20 3.6-42.1 12.5-60.3a167 167 0 0156.7-68.6A157 157 0 01591 195a138 138 0 0169-19c70 0 129 53 139 120 98.5 32 153.8 142.8 117.4 240a184.7 184.7 0 01-80 94.6A184.3 184.3 0 01777 653h-2c-9 2-17 3-27 3H602c-.5 1-.8 2-1 3-.2 3.2 1 5.5 4 7l71 16c31 9 71 27 112 63 16 15-39 74-51 87 35 57 76 123 75 125-5 23-97 41-99 40l-18-61c-9 19-21 38-37 54 8 13 13 25 10 34-27-5-49-18-67-37-2-21-5-35-11-54-4.7.5-9.3.8-14 1-4.3-.2-8.7-.6-13-1-7 19-10 33-12 54-18 19-40 32-67 37-2-9 2-21 10-34-15-16-28-35-37-54l-18 61c-2 1-94-17-99-40-1-2 40-68 75-125-12-13-67-72-51-87 41-36 81-54 112-63 0-1.7 71.7-15.4 71.4-16 0-1 3.7-9 3.6-10H408a182 182 0 01-31-3h-2z"/>
  <ellipse cx="98.8" cy="272.5" fill="#fff" rx="28.3" ry="14.7" transform="matrix(3.89989 0 0 3.06498 191 -133)"/>
  <path d="M493.3 983c-40-47-60.5-102.1-59.2-158.1 0-50.8 19.8-104.6 63.3-143.4 15.8-15 142.2-15 158 0a191.7 191.7 0 0163.3 143.4c4 50.7-15.8 110.5-59.3 158.3h-.7c7.6 12.5 12.2 24 9.3 32.8-27-5-50-19.8-68-38.8h.2c0-18-4-32.9-12-50.8-7.8.4-15.8.4-23.6 0-8 18-12 32.9-12 50.8l-.1.2A127.9 127.9 0 01484 1016c-2-8.7 1.8-20.3 9.3-33z"/>
  <g transform="matrix(3.95216 0 0 2.98693 197 -122)">
    <clipPath id="a">
      <path d="M76 269c4-5 36-5 40 0 11 13 16 31 16 48 1 17-4 37-15 53-3 0-8 0-15-2 0-6-1-11-3-17h-6c-2 6-3 11-3 17-7 2-12 2-15 2a95 95 0 01-15-53c0-17 5-35 16-48z"/>
    </clipPath>
    <g clip-path="url(#a)">
      <ellipse cx="88.1" cy="291.3" fill="#053155" rx="48.7" ry="39.1" transform="matrix(.99864 0 0 .8327 8 65)"/>
      <ellipse cx="88.1" cy="291.3" fill="#305b80" rx="48.7" ry="39.1" transform="matrix(.99864 0 0 .8327 8 53)"/>
      <path fill-opacity=".2" d="M107 265h2c3 1 10 4 16 11l-3 7c4 8 6 17 8 26l24 53c-2 7-27 14-27 14l-9-48c-5-13-11-63-11-63zm-22 0s-7 50-11 63l-10 48s-24-7-26-14l24-53c1-9 4-18 8-26l-3-7c5-7 13-10 16-11h2z"/>
    </g>
  </g>
  <path fill="#053155" d="M493 686.5c58.8-40.6 113.8-37.7 165.8 0-23.7 24-59.1 56.9-82.8 59.9-27.6-3-59.3-36-83-60z"/>
  <g transform="matrix(3.94675 0 0 2.9944 197 -119)">
    <clipPath id="b">
      <path d="M90 256h12v2c1 3 9 5 11 6l4 5c-6 8-14 19-20 20l-1 1-1-1c-7-1-14-12-20-20l4-5c2-1 10-3 11-6 0-.3.4-1.7 0-2z"/>
    </clipPath>
    <g clip-path="url(#b)">
      <path fill="#fff" d="M79 253c5-2 29-2 34 0 2 2-3 7-2 8-6 8-8 16-15 18-7-2-9-10-15-18 1-1-4-6-2-8z"/>
      <g transform="translate(0 -11)">
        <clipPath id="c">
          <path d="M79 264c5-2 29-2 34 0 2 2-3 7-2 8-6 8-8 16-15 18-7-2-9-10-15-18 1-1-4-6-2-8z"/>
        </clipPath>
        <g clip-path="url(#c)">
          <path fill="#ffdac0" d="M101 267l-5 4-5-4h10z"/>
          <path fill="#bfbdbe" d="M92 267c1.4 1.2 2.8 2.6 4 4 1.2-1.4 2.6-2.8 4-4h2a37 37 0 00-5 5l6 18c0 .5-.5 1-1 1l-6-17-6 17a1 1 0 01-1-1l6-18c-1.5-1.5-3-2.8-4.9-4l-.1-1h2z"/>
          <path fill-opacity=".2" d="M67 261h58v32H67z"/>
        </g>
      </g>
    </g>
  </g>
  <path fill="#fff" d="M532.5 665.5s-83-6-169.7 71.9c-15.8 15 55.2 89.8 55.2 89.8l35.5-65.8 11.9-18 67-77.9z"/>
  <g transform="matrix(3.94675 0 0 2.9944 197 -119)">
    <clipPath id="d">
      <path d="M85 262s-21-2-43 24c-4 5 14 30 14 30l9-22 3-6 17-26z"/>
    </clipPath>
    <g clip-path="url(#d)">
      <path fill-opacity=".2" d="M83 266s-34 63-24 43c1-11-2-14 7-27 2-2 10-14 17-16z"/>
    </g>
  </g>
  <path fill="#fff" d="M536.4 659.5L437.8 989S347 971 339 950l94.7-158.7c7.9-39 27.6-80.9 63.2-110.8 7.8-9 11.8-15 39.4-21z"/>
  <path fill-opacity=".2" d="M469.3 848.2c0 3-7.9-68.9-23.7-80.9l31.6-21-23.7-53.8c19.8-21 63.2-30 75-33-15.8 30-19.7 95.9-59.2 188.7z"/>
  <path fill="#fff" d="M461.4 689.5c11.9-18 67.1-30 75-30 0 0-47.3 152.8-67 188.7 0 0-4-71.9-15.9-80.9l31.6-21-23.7-56.8zM619.5 665.5s83-6 169.7 71.9c15.8 15-55.2 89.8-55.2 89.8l-35.5-65.8-11.9-18-67-77.9z"/>
  <g transform="matrix(-3.94675 0 0 2.9944 955 -119)">
    <clipPath id="e">
      <path d="M85 262s-21-2-43 24c-4 5 14 30 14 30l9-22 3-6 17-26z"/>
    </clipPath>
    <g clip-path="url(#e)">
      <path fill-opacity=".2" d="M83 266s-34 63-24 43c1-11-2-14 7-27 2-2 10-14 17-16z"/>
    </g>
  </g>
  <path fill="#fff" d="M615.6 659.5L714.2 989S805 971 813 950l-94.7-158.7c-7.9-39-27.6-80.9-63.2-110.8-7.8-9-11.8-15-39.4-21z"/>
  <path fill-opacity=".2" d="M682.7 848.2c0 3 7.9-68.9 23.7-80.9l-31.6-21 23.7-53.8c-19.8-21-63.2-30-75-33 15.8 30 19.7 95.9 59.2 188.7z"/>
  <path fill="#fff" d="M690.6 689.5c-11.9-18-67.1-30-75-30 0 0 47.3 152.8 67 188.7 0 0 4-71.9 15.9-80.9l-31.6-21 23.7-56.8z"/>
  <path fill-opacity=".2" d="M584 682l6-4c18-13 38-22 61-22 12 0 25 5 25 16 0 16-4 28-14 37 5 18 3 42-19 46l-9 1c-17 0-25-5-39-16l-11-10h-16l-11 10c-14 11-22 16-39 16l-9-1c-22-4-24-28-19-46-10-9-14-21-14-37 0-11 13-16 25-16a107 107 0 0167 26h16z"/>
  <path fill="#e52d6b" d="M584 674l6-4c18-13 38-22 61-22 12 0 25 5 25 16 0 16-4 28-14 37 5 18 3 42-19 46l-9 1c-17 0-25-5-39-16l-11-10h-16l-11 10c-14 11-22 16-39 16l-9-1c-22-4-24-28-19-46-10-9-14-21-14-37 0-11 13-16 25-16a107 107 0 0167 26h16z"/>
  <path fill="#e52d6b" d="M576 687c0-7-9-14-14-17-18-13-38-22-61-22-12 0-25 5-25 16 0 16 4 28 14 37-5 18-3 42 19 46l9 1c17 0 25-5 39-16 4-4 19-15 19-24v-21zm0 0c0-7 9-14 14-17 18-13 38-22 61-22 12 0 25 5 25 16 0 16-4 28-14 37 5 18 3 42-19 46l-9 1c-17 0-25-5-39-16-4-4-19-15-19-24v-21z"/>
  <path fill="#e52d6b" d="M592 682c0-4-4-8-8-8h-16c-4 0-8 4-8 8v32c0 4 4 8 8 8h16c4 0 8-4 8-8v-32z"/>
  <path fill-opacity=".2" d="M568 674a8 8 0 00-8 8v32c0 4 3 8 8 8a101 101 0 01-7 6 10 10 0 01-5-8v-36a10 10 0 0110-10h2zm16 0h2a10 10 0 0110 10v36c0 4-2 7-5 8a98 98 0 01-7-6 8 8 0 008-8v-32a8 8 0 00-8-8z"/>
  <ellipse cx="92.9" cy="294.5" fill="#2ad376" rx="3.1" ry="4.4" transform="matrix(4.52491 0 0 3.20045 4 -17)"/>
  <ellipse cx="92.9" cy="294.5" fill="#2daee5" rx="3.1" ry="4.4" transform="matrix(4.52491 0 0 3.20045 19 -54)"/>
  <ellipse cx="92.9" cy="294.5" fill="#faae00" rx="3.1" ry="4.4" transform="matrix(4.52491 0 0 3.20045 34 -91)"/>
  <path fill="#bfbdbe" fill-rule="nonzero" d="M775 645a138 138 0 01-27 3H408c-101 0-184-83-184-184 0-69 39-130 96-162v-10a156.7 156.7 0 01156-155.6A156 156 0 01591 187a138 138 0 0169-19c70 0 129 53 139 120 74 24 129 94 129 176 0 90-67 166-153 181z"/>
  <path fill="#fff" fill-rule="nonzero" d="M560 344c0-12-1-51-21-85-12-20-29-38-59-48a222 222 0 00-138 2v-1a158 158 0 0136-41c12-2 39-3 51-3 21 1 43 4 61 11 37 13 61 37 76 63 21 36 25 81 26 102l-16 4-16-4z"/>
  <path fill="#ffdac0" fill-rule="nonzero" d="M406 648c-.3 0-61.9-20.7-69.4-93.2-8.8-84.2 56.9-229.6 126.4-220.8 115.5 14.5 111.3 14.7 228 0 69.4-8.8 135 136.6 126.3 220.8C809.8 627.3 748 648 748 648H406z"/>
  <path fill-opacity=".2" d="M682 292c37 0 78 27 86 46 3 9-40-14-77-14s-55 13-55 4 9-36 46-36z"/>
  <path fill="#fff" d="M682 284c37 0 78 27 86 46 3 9-40-14-77-14s-55 13-55 4 9-36 46-36z"/>
  <path fill-opacity=".2" d="M470 292c-37 0-78 27-86 46-3 9 40-14 77-14s55 13 55 4-9-36-46-36z"/>
  <path fill="#fff" d="M470 284c-37 0-78 27-86 46-3 9 40-14 77-14s55 13 55 4-9-36-46-36z"/>
  <ellipse cx="120.1" cy="124.8" fill-opacity=".2" rx="25.9" ry="25.2" transform="matrix(4.17256 0 0 4.28728 203 -59)"/>
  <ellipse cx="120.1" cy="124.8" fill="#526779" rx="25.9" ry="25.2" transform="matrix(4.17256 0 0 4.28728 203 -67)"/>
  <ellipse cx="120.1" cy="124.8" fill-opacity=".2" rx="25.9" ry="25.2" transform="matrix(4.17256 0 0 4.28728 -53 -59)"/>
  <g transform="matrix(4.17256 0 0 4.28728 -53 -67)">
    <ellipse cx="120.1" cy="124.8" fill="#526779" rx="25.9" ry="25.2"/>
  </g>
  <g transform="matrix(3.6704 0 0 1.85202 336 272)">
    <ellipse cx="65.3" cy="120.2" fill="#526779" rx="15.3" ry="16.5"/>
  </g>
  <g transform="matrix(3.5544 0 0 3.65214 277 12)">
    <ellipse cx="120.1" cy="124.8" fill="#f3e5db" rx="25.9" ry="25.2"/>
  </g>
  <g transform="matrix(3.5544 0 0 3.65214 21 12)">
    <ellipse cx="120.1" cy="124.8" fill="#f3e5db" rx="25.9" ry="25.2"/>
  </g>
  <path fill-opacity=".2" d="M560 599c-32 3-160 16-153-3 0 0 4-19 7-26s8-13 13-19a82 82 0 0117-14 86 86 0 0112-7 85 85 0 0134-6h8l38 4h76l40-4 8-1a85 85 0 0134 7l12 6a82 82 0 0117 15c5 5 10 12 13 18l7 27c7 18-117 6-152 3h-31z"/>
  <path fill="#fff" d="M576 524l7 66s168 19 160-2l-7-27c-3-6-8-13-13-18a82 82 0 00-17-15 85 85 0 00-12-6 85 85 0 00-34-7 87 87 0 00-8 1l-76 8zm-2 0l-7 66s-168 19-160-2c0 0 4-19 7-26s8-13 13-19a82 82 0 0117-14 85 85 0 0112-7 85 85 0 0134-6h8l76 8z"/>
  <path fill="#fff" d="M639 538c0-10-8-18-17-18h-92c-10 0-18 8-18 18v35c0 10 8 18 18 18h92c9 0 17-8 17-18v-35z"/>
  <g transform="matrix(4.19476 0 0 2.55176 302 215)">
    <ellipse cx="65.3" cy="120.2" fill="#f5b49e" rx="15.3" ry="16.5"/>
  </g>
  <g>
    <path fill="#4e3e2e" d="M716 453c0-13.2-10.8-24-24-24s-24 10.8-24 24v32c0 13 11-1 24-1s24 14 24 1v-32z"/>
  </g>
  <g>
    <path fill="#4e3e2e" d="M484 453c0-13.2-10.8-24-24-24s-24 10.8-24 24v32c0 13 11-1 24-1s24 14 24 1v-32z"/>
  </g>
</svg>
