<svg viewBox="0 0 512 512" xmlns="http://www.w3.org/2000/svg" style="fill-rule:evenodd;clip-rule:evenodd;stroke-linejoin:round;stroke-miterlimit:2;">
    <path d="M53.277,398.918C24.753,358.525 8,309.225 8,256C8,119 119,8 256,8C393,8 504,119 504,256C504,393 393,504 256,504C215.832,504 177.898,494.458 144.329,477.509L144.271,477.48C114.969,494.615 73.152,512 24,512C14.4,512 5.7,506.3 1.9,497.5C-1.9,488.7 -0.1,478.5 6.5,471.5C6.993,471.106 38.124,437.642 53.277,398.918ZM359.152,176.316C331.752,152.967 291.003,157.167 265.853,183.116L256.004,193.266L246.154,183.116C221.054,157.167 180.255,152.967 152.856,176.316C121.456,203.116 119.806,251.215 147.906,280.264L244.654,380.163C250.904,386.612 261.054,386.612 267.303,380.163L364.052,280.264C392.201,251.215 390.551,203.116 359.152,176.316Z"/>
</svg>
