<svg xmlns="http://www.w3.org/2000/svg" viewBox="0 0 24 24"><path fill="none" stroke="currentColor" stroke-width="2" stroke-linecap="round" stroke-linejoin="round" d="M15.3 2h-6.6c-.562 0 -1.016 .201 -1.407 .593l-4.7 4.7a1.894 1.894 0 0 0 -.593 1.407v6.6c0 .562 .201 1.016 .593 1.407l4.7 4.7c.391 .392 .845 .593 1.407 .593h6.6c.562 0 1.016 -.201 1.407 -.593l4.7 -4.7c.392 -.391 .593 -.845 .593 -1.407v-6.6c0 -.562 -.201 -1.016 -.593 -1.407l-4.7 -4.7a1.894 1.894 0 0 0 -1.407 -.593zM9 9l6 6m0 -6l-6 6"/></svg>
