<svg viewBox="0 0 576 512" xmlns="http://www.w3.org/2000/svg">
    <path d="M152.197,133.362C121.548,147.992 100.468,165.344 94.846,181.141C82.411,222.032 83.759,309.988 118.641,371.139C109.79,376.039 88.193,360.338 61.381,334.24C8.504,282.77 -5.724,149.606 1.319,144.028C149.994,-16.028 454.606,-25.845 564.881,139.249C588.462,174.553 571.907,212.648 549.358,221.061C525.446,184.201 495.85,157.261 463.331,138.269C479.471,172.759 488.741,213.017 488.741,256C488.741,323.345 465.986,384 429.712,426.249C445.567,423.258 461.465,419.734 477.402,415.736C482.046,513.545 157.316,526.054 135.716,404.297C149.524,409.831 163.378,414.618 177.269,418.698C144.611,376.924 124.425,319.429 124.425,256C124.425,210.963 134.602,168.918 152.197,133.362ZM306.583,400L306.638,400C368.875,400 420.088,335.028 420.088,256.07C420.088,256.047 420.088,256.023 420.088,256C420.088,177.004 368.85,112 306.583,112C244.317,112 193.079,177.004 193.079,256C193.079,334.996 244.317,400 306.583,400ZM306.582,159.18C299.77,159.301 293.002,160.587 286.461,163.003C291.268,171.291 293.862,181.316 293.862,191.605C293.862,218.08 276.691,239.865 255.823,239.865C247.712,239.865 239.81,236.574 233.277,230.475C231.513,238.724 230.619,247.233 230.619,255.78C230.619,308.773 264.991,352.379 306.761,352.379C348.531,352.379 382.903,308.773 382.903,255.78C382.903,202.787 348.531,159.18 306.761,159.18C306.701,159.18 306.642,159.18 306.582,159.18Z"/>
</svg>
