<svg xmlns="http://www.w3.org/2000/svg" fill-rule="evenodd" stroke-linecap="round" stroke-linejoin="round" stroke-miterlimit="10" clip-rule="evenodd" viewBox="0 0 800 600">
  <defs/>
  <path fill="#c4d9f8" fill-rule="nonzero" d="M674 348l-1-1 6-18c5-12 9-25 15-37 10-20 23-34 38-42v1c-15 7-28 22-38 42l-14 36-6 18v1z"/>
  <path fill="#c4d9f8" fill-rule="nonzero" d="M724 277l-17-5a1 1 0 110-1l17 5v1zm3-4l-17-5a1 1 0 110-1l17 5v1zm2-3l-16-5-1-1 1-1 1 1 16 4a1 1 0 01-1 2zm3-4l-15-5a1 1 0 110-1l15 5v1zm3-4h-1l-13-4a1 1 0 110-1l14 4v1zm2-4l-12-4-1-1 1-1 1 1 11 4v1zm3-4l-10-3-1-1 1-1 1 1 9 3v1z"/>
  <path fill="#c4d9f8" fill-rule="nonzero" d="M707 272h-1l-4-18h1l4 17v1zm3-4l-4-16 1-1 4 16-1 1zm4-4l-4-15h1l3 14v1zm4-4h-1l-3-13h1l3 13zm3-3l-3-12-1-1 1-1 1 1 3 13h-1zm4-3l-3-12h1l3 12h-1zm4-2l-3-12-1-1 1-1 1 1 3 12-1 1zm-96 97v-1l15-12 32-23c19-11 38-17 55-15a1 1 0 110 1c-17-2-35 4-55 15l-31 23-15 12h-1z"/>
  <path fill="#c4d9f8" fill-rule="nonzero" d="M714 317l-12-14a1 1 0 111 0l11 13v1zm4-2l-12-13-1-1 1-1 1 1 12 14h-1zm4-1v-1l-11-12-1-1 1-1 1 1 11 13-1 1zm5-2h-1l-10-12-1-1 1-1 1 1 10 12v1zm4-2l-10-11-1-1 1-1 1 1 9 11v1zm4-2l-8-9-1-1 1-1 1 1 8 9-1 1zm4-2l-6-7-1-1 1-1 1 1 6 7-1 1z"/>
  <path fill="#c4d9f8" fill-rule="nonzero" d="M702 303l6-17h1l-6 17h-1zm5-1v-1l5-15a1 1 0 111 0l-5 16h-1zm5-1v-1l5-14a1 1 0 111 0l-5 14-1 1zm6-1l-1-1 5-13a1 1 0 111 0l-5 13v1zm5-1l-1-1 4-12 1-1 1 1-1 1-4 12h-1 1zm4-1l4-12 1-1 1 1-1 1-4 11h-1zm5 1l-1-1 4-11a1 1 0 111 0l-4 11v1zm-57 42l-1-1 4-15 7-31c2-18 0-34-7-46l-1-1 1-1 1 1c7 13 9 28 7 47l-7 31-4 15v1z"/>
  <path fill="#c4d9f8" fill-rule="nonzero" d="M686 274l-15-4 1-1 14 4v1zm-1-4l-14-4 1-1 14 4-1 1zm-1-4l-13-4 1-1 13 4v1h-1zm0-4h-1l-12-3v-1h1l12 3v1zm-1-4h-1l-11-3 1-1 11 3v1zm-2-4l-10-3v-1l10 3v1zm-2-4l-8-3v-1l8 3v1z"/>
  <path fill="#c4d9f8" fill-rule="nonzero" d="M686 274l-1-1 11-10 1 1-11 10zm-1-4v-1l10-9v1l-9 9h-1zm-1-4v-1l9-9h1v1l-9 9h-1zm0-5h-1l8-8 1 1-8 7zm-2-3v-1l8-7-7 7-1 1zm-1-4v-1l7-7 1-1 1 1-1 1-8 7zm-2-3v-1l7-7 1 1-7 6-1 1zM171 475l-16-10c-11-7-22-15-34-20a90 90 0 00-57-10l-1-1 1-1h1c17-3 36 1 56 11 12 5 23 13 34 20l16 10v1z"/>
  <path fill="#c4d9f8" fill-rule="nonzero" d="M88 451l-1-1 11-15a1 1 0 110 1l-10 15h-1 1zm-5-2v-1l10-14 1-1 1 1-1 1-10 14h-1zm-4-1l-1-1 10-13a1 1 0 111 0l-10 14zm-5-2l9-13a1 1 0 111 0l-9 13h-1zm-4-1l-1-1 9-11a1 1 0 111 0l-9 12zm-4-2h-1l7-10a1 1 0 111 0l-7 10zm-5-1v-1l5-8 1-1 1 1-1 1-5 8h-1z"/>
  <path fill="#c4d9f8" fill-rule="nonzero" d="M98 436l-8-17h1l8 16-1 1zm-5-1l-1-1-6-14-1-1 1-1 1 1 6 15v1zm-5-1h-1l-6-14a1 1 0 111 0l6 13v1zm-6-1l-5-12 1-1 5 13h-1zm-4 0h-1l-5-12h1l5 11-1 1h1zm-5 0h-1l-5-11 1-1 5 11v1zm-5 1l-5-12a1 1 0 111 0l5 11-1 1zm25 41l-1-1c13-12 31-20 53-22 13-2 26-2 39-2h19l1 1h-20c-13 0-26 0-39 2a88 88 0 00-53 22h1z"/>
  <path fill="#c4d9f8" fill-rule="nonzero" d="M120 476l1-19h1l-1 18-1 1zm-4 1h-1l1-18 1-1v1l-1 18zm-5 1l1-17h1l-1 17h-1zm-4 2l-1-1 1-16h1v1l-1 15v1zm-5 1v-15l1-1 1 1-1 14-1 1zm-4 1l-1-1 1-12h1l-1 12v1zm-5 1v-10l1-1v10l-1 1z"/>
  <path fill="#c4d9f8" fill-rule="nonzero" d="M121 458l-15-10a1 1 0 110-1l15 10v1zm-5 2l-14-9-1-1 1-1 1 1 13 9v1zm-5 2l-13-8-1-1 1-1 1 1 12 8v1zm-5 2l-11-7-1-1 1-1 1 1 11 7-1 1zm-4 3l-11-7-1-1 1-1 1 1 11 7-1 1zm-4 2l-10-6-1-1 1-1 1 1 10 6-1 1zm-3 3l-11-6-1-1 1-1 1 1 10 7zm75 7l-13-11-27-22a81 81 0 01-25-45h1c3 17 12 32 25 44l26 22 14 11-1 1z"/>
  <path fill="#c4d9f8" fill-rule="nonzero" d="M117 429l-1-1 10-13v1l-9 13zm-3-3v-1l9-13a1 1 0 111 0l-9 13-1 1zm-1-5h-1l9-12-8 12zm-2-4l-1-1 8-11 1 1-8 11zm-2-4l-1-1 8-10v1l-7 10zm-2-5v-1l6-8h1l-6 9h-1zm-1-5v-1l5-7a1 1 0 110 1l-4 7h-1z"/>
  <path fill="#c4d9f8" fill-rule="nonzero" d="M117 429l-16-1-1-1h1l16 1v1zm-3-4l-14-1-1-1h1l14 1v1zm-2-4l-13-1a1 1 0 110-1l13 1v1zm-2-4l-12-1v-1l12 1v1zm-1-4l-12-1v-2l12 1v2zm-2-5l-11-1 1-1 10 1v1zm-1-4l-10-1h-1l1-1 11 1v1h-1z"/>
  <ellipse cx="567.2" cy="483.8" fill="#d6d7d8" rx="149.1" ry="50.8"/>
  <path fill="#23286b" fill-rule="nonzero" d="M542 227c-59-27-55-112-232-107-34 1-144 79-170 135-28 59-38 148-3 199 34 49 77 64 152 66 137 3 314-36 395-184 57-105-113-96-142-109z"/>
  <path fill="#c8dcfd" fill-rule="nonzero" d="M314 287l-132 11V101l6-2 126 1v187z"/>
  <path fill="#78a9ef" fill-rule="nonzero" d="M241 73h21v357h-21z"/>
  <path fill="#caddfd" fill-rule="nonzero" d="M236 73h6v357h-6z"/>
  <path fill="#a1c3fc" fill-rule="nonzero" d="M320 287l-132 11V99l132 1v187z"/>
  <path fill="#a9c8f5" fill-rule="nonzero" d="M270 100l-45-1v-7h45v8z"/>
  <path fill="#b8d1fd" fill-rule="nonzero" d="M347 298l-166 1v-9l166-1v9z"/>
  <path fill="#e2ecfe" fill-rule="nonzero" d="M175 290h17v9h-17z"/>
  <path fill="#78a9ef" fill-rule="nonzero" d="M215 416h74v14h-74z"/>
  <path fill="#caddfd" fill-rule="nonzero" d="M201 416h20v14h-20z"/>
  <path fill="#1d72d8" fill-rule="nonzero" d="M269 448h22l2 5h11l-5 7h18l13 1 188-1s-67-24-104-34c-7-2 1-21-6-23-9-2-31 0-39-4-29-14-47-46-79-55-11-2-23 1-30 10-3 4-2 18-3 23-1 26 12 71 12 71z"/>
  <path fill="#78a9ef" fill-rule="nonzero" d="M277 100l-45-1v-7h45v8z"/>
  <path fill="#a1c3fc" fill-rule="nonzero" d="M684 270c-55 1-110-3-164-10-62-9-113-25-155-49a751 751 0 011-1 660 660 0 00318 60z"/>
  <path fill="#a1c3fc" fill-rule="nonzero" d="M489 259h-12c-74-2-148-19-220-36l-9-3c-22-5-32-7-55-19v-1c17 9 36 16 55 19l10 3c71 17 145 34 219 36 49 1 105-6 155-12l8-1 1 1-9 1c-45 6-96 12-143 12z"/>
  <circle cx="354" cy="205.5" r="4.4" fill="#a1c3fc"/>
  <circle cx="400.4" cy="225.9" r="4.4" fill="#e94a47"/>
  <circle cx="616.2" cy="252.2" r="4.4" fill="#e94a47"/>
  <circle cx="526.7" cy="264.5" r="4.4" fill="#1d72d8"/>
  <circle cx="349.7" cy="244.6" r="4.4" fill="#fff"/>
  <circle cx="411.5" cy="252" r="4.4" fill="#78a9ef"/>
  <circle cx="569" cy="251.9" r="4.4" fill="#78a9ef"/>
  <circle cx="450.6" cy="250.2" r="4.4" fill="#fff"/>
  <circle cx="651.1" cy="268.9" r="4.4" fill="#fff"/>
  <circle cx="585.6" cy="267.2" r="4.4" fill="#428dfc"/>
  <path fill="#c4d9f8" fill-rule="nonzero" d="M128 82h1v45h-1z"/>
  <path fill="#c4d9f8" fill-rule="nonzero" d="M110 93l38 22v1l-39-22 1-1z"/>
  <path fill="#c4d9f8" fill-rule="nonzero" d="M148 93v1l-38 22-1-1 39-22z"/>
  <circle cx="128.7" cy="104.5" r="3.1" fill="#fff"/>
  <path fill="#c4d9f8" fill-rule="nonzero" d="M129 108a4 4 0 11-4-7 4 4 0 014 7zm0-6a3 3 0 10-3 5 3 3 0 003-5zm311-48h1v45h-1V54z"/>
  <path fill="#c4d9f8" fill-rule="nonzero" d="M421 65l39 22v1l-39-22v-1z"/>
  <path fill="#c4d9f8" fill-rule="nonzero" d="M460 65v1l-39 22v-1l39-22z"/>
  <circle cx="440.5" cy="76.6" r="3.1" fill="#fff"/>
  <path fill="#c4d9f8" fill-rule="nonzero" d="M441 80a4 4 0 11-4-7 4 4 0 014 7zm0-6a3 3 0 10-3 5 3 3 0 003-5zm257 315h1v44h-1v-44z"/>
  <path fill="#c4d9f8" fill-rule="nonzero" d="M679 399l39 23v1l-39-23v-1z"/>
  <path fill="#c4d9f8" fill-rule="nonzero" d="M718 399v1l-39 23v-1l39-23z"/>
  <circle cx="698.6" cy="411.1" r="3.1" fill="#fff"/>
  <path fill="#c4d9f8" fill-rule="nonzero" d="M699 415c-2 0-4-2-4-4s2-4 4-4 4 2 4 4-2 4-4 4zm0-7c-2 0-3 1-3 3s1 3 3 3 3-1 3-3-1-3-3-3z"/>
  <g opacity=".3">
    <path fill="#c4d9f8" fill-rule="nonzero" d="M437 281h1v44h-1z"/>
    <path fill="#c4d9f8" fill-rule="nonzero" d="M418 291l39 23-1 1-39-23 1-1z"/>
    <path fill="#c4d9f8" fill-rule="nonzero" d="M456 291l1 1-39 23-1-1 39-23z"/>
    <circle cx="437" cy="303" r="3.1" fill="#fff"/>
    <path fill="#c4d9f8" fill-rule="nonzero" d="M437 307c-2 0-4-2-4-4s2-4 4-4 4 2 4 4-2 4-4 4zm0-7c-2 0-3 1-3 3s1 3 3 3 3-1 3-3-1-3-3-3z"/>
  </g>
  <g opacity=".3">
    <path fill="#c4d9f8" fill-rule="nonzero" d="M382 144h1v45h-1z"/>
    <path fill="#c4d9f8" fill-rule="nonzero" d="M363 155l39 22-1 1-39-22 1-1z"/>
    <path fill="#c4d9f8" fill-rule="nonzero" d="M401 155l1 1-39 22v-1l38-22z"/>
    <circle cx="382.1" cy="166.6" r="3.1" fill="#fff"/>
    <path fill="#c4d9f8" fill-rule="nonzero" d="M382 170a4 4 0 11-4-7 4 4 0 014 7zm0-6a3 3 0 10-3 5 3 3 0 003-5z"/>
  </g>
  <g opacity=".3">
    <path fill="#c4d9f8" fill-rule="nonzero" d="M603 319h1v44h-1z"/>
    <path fill="#c4d9f8" fill-rule="nonzero" d="M584 329l39 23-1 1-39-23 1-1z"/>
    <path fill="#c4d9f8" fill-rule="nonzero" d="M622 329l1 1-39 23-1-1 39-23z"/>
    <circle cx="603" cy="341" r="3.1" fill="#fff"/>
    <path fill="#c4d9f8" fill-rule="nonzero" d="M603 345c-2 0-4-2-4-4s2-4 4-4 4 2 4 4-2 4-4 4zm0-7c-2 0-3 1-3 3s1 3 3 3 3-1 3-3-1-3-3-3z"/>
  </g>
  <g opacity=".3">
    <path fill="#c4d9f8" fill-rule="nonzero" d="M178 327h1v45h-1z"/>
    <path fill="#c4d9f8" fill-rule="nonzero" d="M159 338l39 22-1 1-39-22 1-1z"/>
    <path fill="#c4d9f8" fill-rule="nonzero" d="M197 338l1 1-39 22-1-1 39-22z"/>
    <circle cx="178" cy="349.6" r="3.1" fill="#fff"/>
    <path fill="#c4d9f8" fill-rule="nonzero" d="M178 353a4 4 0 11-4-7 4 4 0 014 7zm0-6a3 3 0 10-3 5 3 3 0 003-5z"/>
  </g>
  <path fill="#c4d9f8" fill-rule="nonzero" d="M658 140h1v45h-1z"/>
  <path fill="#c4d9f8" fill-rule="nonzero" d="M639 151l39 22-1 1-38-22v-1z"/>
  <path fill="#c4d9f8" fill-rule="nonzero" d="M677 151l1 1-39 22v-1l38-22z"/>
  <circle cx="658.3" cy="162.5" r="3.1" fill="#fff"/>
  <path fill="#c4d9f8" fill-rule="nonzero" d="M658 166a4 4 0 11-4-7 4 4 0 014 7zm0-6a3 3 0 10-3 5 3 3 0 003-5zM69 220h1v44h-1v-44z"/>
  <path fill="#c4d9f8" fill-rule="nonzero" d="M50 230l39 23-1 1-38-23v-1z"/>
  <path fill="#c4d9f8" fill-rule="nonzero" d="M88 230l1 1-39 23v-1l38-23z"/>
  <circle cx="69.3" cy="242" r="3.1" fill="#fff"/>
  <path fill="#c4d9f8" fill-rule="nonzero" d="M69 246c-2 0-4-2-4-4s2-4 4-4 4 2 4 4-2 4-4 4zm0-7c-2 0-3 1-3 3s1 3 3 3 3-1 3-3-1-3-3-3z"/>
  <path fill="#fff" fill-rule="nonzero" d="M526 423l-105 2c11-7 25-17 17-26-7-8-23-5-35-5l-1-9c-5-10-15-10-26-9 5-38-9-33-15-33l-18-1v-30c0-24-7-25-20-32-17-10-14-43-13-63 1-38 1-64-3-102-30 4-88 1-101 0 8 58 0 111 16 168 3 11 15 6 26 19 10 12-16 101-4 128 3 7 7 13 14 17 6 3 16 2 19-5 3-5 0-12-2-18-3-17-8-61-6-67 1-7 8-14 17-9 24 13-5 75 0 97 2 6 8 15 11 1 2-9-1-14 1-30 2-11 6-33 11-36 7-3 13-3 17 3 11 15 0 31-19 51-4 5-11 15-11 22 0 2 1 5 6 3 8-2 32-65 49-63 6 1 13 8 6 24-10 24-67 44-34 41 11-1 22-2 34-16 15-17 33-23 92 19 74 52 96 52 96 52s135 1 152-2c-29-22-57-32-77-53-24-26-59-40-94-38z"/>
  <g fill="#e94a47">
    <circle cx="306.2" cy="116.7" r="3.3"/>
    <path fill-rule="nonzero" d="M302 123l-1-1 6-7 1 1-6 6v1z"/>
  </g>
  <path fill="#e94a47" fill-rule="nonzero" d="M211 121l-2-8-1-1 1-1 1 1 2 8-1 1z"/>
  <circle cx="209.8" cy="113.7" r="3.3" fill="#23286b"/>
  <path fill="#a1c3fc" fill-opacity=".5" fill-rule="nonzero" d="M221 186h80v4h-80v-4zm4 56h79v5h-79v-5zm-2-35h36v4h-37l1-4zm5 52h80v4h-80v-4zm43 136h-19v4h19v-4zm-36-114h63v4h-63v-4zm68 0h17v4h-17v-4zm-38-74h37v4h-37v-4zm-42 19h37v4h-37v-4zm51 189h-17v4h17v-4zm-13-112h70v4h-70v-4zm60 127h-7v4h5l2-4zm-9 15h-6v4h4l2-4zm-10-93h70v4h-70v-4zm-2 15h30v4h-30v-4zm6 18h-6v4h4l2-4zm37-18h30v4h-30v-4zm-44 42h-5v4h5v-4zm-2 20h-3v4h4l-1-4zm-28-70h-14v4h13v-4h1zm-9-36h30v4h-30v-4zm9 52h-16v4h16v-4zm27-52h36v4h-37l1-4zm169 107h36v4h-36v-4zm-97-24h20v4h-20v-4zm25 0h37v4h-37v-4zm-59-19h62v4h-62v-4zm6 15h-9v4h5l4-4zm21-5h57v4h-57v-4zm2 22h58v4h-57l-1-4zm3 18l8-4h-19v4h11zm-8 7h-17v4h13l4-4zm-84-102h37v4h-37v-4z"/>
  <path fill="#151a4f" fill-rule="nonzero" d="M493 445v7l3-6-3-1zm51 50c2 1 6 0 9-2l32-16c3-1 6-3 8-6 2-2 2-6 4-9-13 7-33 10-41 12-3 1-6 1-8 3-3 2-7 5-8 8s2 9 4 10zm54-31l24 1v-17l-25 3 1 13z"/>
  <path fill="#f8afa9" fill-rule="nonzero" d="M611 453l-1-6v-1l1-2c3-1 7-3 9-6 4-3 7-7 12-9l5 14c-6 2-11 4-15 8l-4 2h-7z"/>
  <circle cx="545.7" cy="138.6" r="51.1" fill="#d6e5fe"/>
  <circle cx="545.7" cy="138.6" r="43.6" fill="#23286b"/>
  <path fill="#f92424" fill-rule="nonzero" d="M524 158l-10-2 1-2c6 3 12 3 18 0s10-9 11-16h2v2c-1 7-6 13-12 16l-10 2z"/>
  <path fill="#78a9ef" fill-rule="nonzero" d="M520 153l-10-1 8 9-2-5 4-3zm19-29l-3-13-7 14 6-4 4 3z"/>
  <path fill="#78a9ef" fill-rule="nonzero" d="M545 139c-8-4-13-14-11-23a1 1 0 012 1c-1 8 3 16 10 20a1 1 0 01-1 2z"/>
  <circle cx="545.7" cy="138.6" r="3.3" fill="#78a9ef"/>
  <path fill="#f2a19c" fill-rule="nonzero" d="M510 424v-2l-1-1h-1l-1 1v-1l-4 2-2 3v7l2 4h1l1-1v-7l1 5c1 1 2 2 3 1l1-4v1h1v-1l-1-7z"/>
  <path fill="#ffbeb6" fill-rule="nonzero" d="M497 426l-1 3 1 2c2 0 5-5 6-8l7 1 1 5 3-3 12-6a45 45 0 01-13-4h-1l-1-1-11 1c-2 0-1 7-3 10z"/>
  <path fill="#428dfc" fill-rule="nonzero" d="M495 447l-2-2 17-49a2 2 0 012-3l2 2-2 2-16 49-1 1z"/>
  <path fill="#ffbeb6" fill-rule="nonzero" d="M518 422c-3 1-7 2-9 5h-7l-2 2-1 2v1h1l14 2 4-1 3-2 2-2h2l16 1 2-9c0-1 1-2 3-2-6 1-12 2-18 1h-5l-5 2z"/>
  <path fill="#78a9ef" fill-rule="nonzero" d="M677 501c3 2 6 5 6 8-12 5-25 3-35-5l-4-3h-7c-11 4-23 2-33-3 2-4 4-8 4-13l43-5h4l4 3c5 7 11 13 18 18z"/>
  <path fill="none" d="M663 489l-1 1 5 7-5 6 5 6-2 2 8 1v-14l-10-9zm14 12l-2-2v12l8-2c0-3-3-6-6-8zm-42-11l6-6-2-3-31 4-4 12c10 6 22 7 32 5l5-5-6-7z"/>
  <path fill="none" d="M641 481l2 3-5 6 5 7-3 4h4l4 2 1 1v-24l-8 1zm18 22l6-6-6-7 3-3-3-4-4-3h-4v26l12 5 2-2-6-6z"/>
  <path fill="#428dfc" fill-rule="nonzero" d="M673 497v15l2-1v-12l-2-2zm-11 6l5-6-5-7 1-1-1-2-3 3 6 7-6 6 6 6-2 2h2l2-2-5-6zm-13-23v24l2 2v-26h-2zm-11 10l5-6-2-3h-2l2 2-6 7 6 7-5 5h1l3-1 3-4-5-7z"/>
  <path fill="none" d="M626 502l6-7-3-3h-1l-7-1v19h9l2-2-6-7v1zm-20-13c1 7 4 14 4 21h9v-19l-13-2z"/>
  <path fill="none" d="M634 491l-3 1 3 3-5 6 5 7-2 2h1l2 1 1 1 7 6v-29l-9 2zm34 25l-5-6-8-11-2 2 5 7-5 6 5 6-3 4c3 1 6 2 9 1l7-2-3-7z"/>
  <path fill="#a1c3fc" fill-rule="nonzero" d="M671 523l-3-6-5-7-16-22-13 4h-6l-22-4c1 8 4 15 4 22h23l2 1 1 1c5 5 11 9 17 11l11 2 7-2z"/>
  <path fill="none" d="M651 514l5-6-5-7 3-3-7-9h-2v30l8 4 3-3-5-6z"/>
  <path fill="#428dfc" fill-opacity=".6" fill-rule="nonzero" d="M653 514l5-6-5-7 2-2-1-1-3 4 5 6-5 6 5 6-3 3 2 1 4-4-6-6zm-10-25v29l2 1v-30h-2zm-24 2v19h2v-19h-2zm10 10l6-6-4-3h-2l3 3-6 7 6 6-2 2h2l3-2-6-7z"/>
  <path fill="#ffbeb6" fill-rule="nonzero" d="M550 449c4 1 8 0 12-1 2-2-12-8-18-11l-8 7-21 14c5 2 7 3 10 7l20-7 11-5c2-1 6-2 5-4-1-3-5-1-8 0l-7 3 4-3z"/>
  <path fill="#151a4f" fill-rule="nonzero" d="M558 492c-8 1-18 6-22 13 11 8 25 8 38 7s26-3 39-2c-2-6-2-13 1-19-19-3-38-3-56 1z"/>
  <path fill="url(#_Linear1)" fill-rule="nonzero" d="M607 492l-12 1-25 8-7 5c-3 2-10 4-14 4l-9-2c-5-2-11-8-6-13 4-4 14-13 18-15l23-11 19-7 3-2c5-3 11 0 16-3 3-1-3-1-5-1l-10 2-3-5c15-2 29-8 41-16 21 7 24 39 5 51-8 4-34 4-34 4z"/>
  <path fill="#1d72d8" fill-rule="nonzero" d="M546 461l-12 3c-9 3-40 12-37 6 8-9 14-10 24-17 4-3 9-5 13-4l5 4 7 8z"/>
  <path fill="url(#_Linear2)" fill-rule="nonzero" d="M581 441l-7-1-14-3c-5-2-8-4-11-8-2-4-2-9-1-14s3-9 6-13l4-9 2-1 2-1c15 1 29 4 42 11s25 18 32 31l-9 11-9 6c-8 4-12 5-21 7-2-7-10-13-16-16z"/>
  <ellipse cx="519.3" cy="386.2" fill="none" stroke="#428dfc" stroke-width="2" rx="4.2" ry="6.3"/>
  <path fill="url(#_Linear3)" fill-rule="nonzero" d="M498 466c-1 2-2 5-1 7 1 3 6 3 9 3 13-3 23-13 32-22l10-12c2-2 6-11 11-12 16-5 8-14 8-18-1-4-7-2-10-6l-1-1-3 1c-5 2-9 6-12 10l-39 46-4 4z"/>
  <path fill="#fdbab3" fill-rule="nonzero" d="M519 375c-2 9 1 9 1 14 0 3 5 14 7 15h7c3 0 4-1 6-3 4-5 7-10 8-16 0-4-1-8-3-11-2-4-4-8-8-9s-7-1-11 1h-1c-2 1-6 7-6 9z"/>
  <path fill="#e94a47" fill-rule="nonzero" d="M546 420c-10-2-17-10-19-20v-6l-1-5a36 36 0 00-2-10l-2-5v-1l1 1 2 5 1 3 1 7 1 5v6c2 9 9 17 18 19v1z"/>
  <path fill="#e94a47" fill-rule="nonzero" d="M574 386c-5 0-10-3-13-7l-3-4-1-2c-4-7-11-12-19-13s-17 4-18 14h-1c2-9 10-16 19-15s17 7 21 15l2 4c5 7 15 9 22 4l1 1c-3 2-7 3-10 3z"/>
  <path fill="#e94a47" fill-rule="nonzero" d="M592 435l9-6c-1-4-3-7-6-11l-2-4c6 3 11 11 12 12l17-13c-3-12-34-27-45-25-5 1-10 1-14-3l-4-8c-2-7-7-12-14-15-6-3-27-1-26 13 3 7 11 7 10 15v9l4 7c4 5 10 9 17 10 6 1 12 0 18-1 6 0 13 0 18 4 5 3 9 9 6 15v1z"/>
  <path fill="#a1c3fc" fill-opacity=".5" fill-rule="nonzero" d="M218 170h79v4h-79v-4zm2-36h36v4h-36v-4zm42 0h37v4h-37v-4zm-41 19h36v4h-36v-4z"/>
  <defs>
    <linearGradient id="_Linear1" x1="0" x2="1" y1="0" y2="0" gradientTransform="scale(-75) rotate(-77 -8 2)" gradientUnits="userSpaceOnUse">
      <stop offset="0" stop-color="#23286b"/>
      <stop offset="1" stop-color="#151a4f"/>
    </linearGradient>
    <linearGradient id="_Linear2" x1="0" x2="1" y1="0" y2="0" gradientTransform="rotate(-141 384 113) scale(47.7)" gradientUnits="userSpaceOnUse">
      <stop offset="0" stop-color="#428dfc"/>
      <stop offset=".3" stop-color="#428dfc"/>
      <stop offset="1" stop-color="#1d72d8"/>
    </linearGradient>
    <linearGradient id="_Linear3" x1="0" x2="1" y1="0" y2="0" gradientTransform="scale(32) rotate(32 -15 35)" gradientUnits="userSpaceOnUse">
      <stop offset="0" stop-color="#428dfc"/>
      <stop offset="1" stop-color="#1d72d8"/>
    </linearGradient>
  </defs>
</svg>
