<svg xmlns="http://www.w3.org/2000/svg" fill-rule="evenodd" stroke-miterlimit="10" clip-rule="evenodd" viewBox="0 0 800 600">
  <defs/>
  <path fill="url(#_Linear1)" fill-rule="nonzero" d="M536 222v-44h-79v44h-8v145h95V222h-8z"/>
  <path fill="url(#_Linear2)" fill-rule="nonzero" d="M587.8 211l-15.6-50h-2.6l-2.5-33-2.7 33h-2.6l-15.6 50H541v185h52V211h-5.2z"/>
  <path fill="url(#_Linear3)" fill-rule="nonzero" d="M298 152v-25h-72v273h107V152h-35z"/>
  <path fill="url(#_Linear4)" fill-rule="nonzero" d="M156 239v31h-23v136h105V183l-82 56z"/>
  <path fill="url(#_Linear5)" fill-rule="nonzero" d="M465 381V242h-16v-46h-11v-30h-15l-10-80-11 80h-14v30h-11v46h-16v140h-14v22h132v-23h-14z"/>
  <path fill="url(#_Linear6)" fill-rule="nonzero" d="M289 188h79v200h-79z"/>
  <path fill="url(#_Linear7)" fill-rule="nonzero" d="M194 249h9v178h-9z"/>
  <path fill="url(#_Linear8)" fill-rule="nonzero" d="M174 249h9v178h-9z"/>
  <path fill="url(#_Linear9)" fill-rule="nonzero" d="M214 249h9v178h-9z"/>
  <path fill="url(#_Linear10)" fill-rule="nonzero" d="M667 461.4c0 11.1-9 20-20 20H153a20 20 0 01-20-20h534z"/>
  <path fill="url(#_Linear11)" fill-rule="nonzero" d="M670 238v-17l-34.9-14-34.1 14v17h-14v199h97V238h-14z"/>
  <path fill="url(#_Linear12)" fill-rule="nonzero" d="M597 251h78v5h-78z"/>
  <path fill="url(#_Linear13)" fill-rule="nonzero" d="M597 261h78v5h-78z"/>
  <path fill="url(#_Linear14)" fill-rule="nonzero" d="M597 271h78v5h-78z"/>
  <path fill="url(#_Linear15)" fill-rule="nonzero" d="M597 281h78v5h-78z"/>
  <path fill="url(#_Linear16)" fill-rule="nonzero" d="M597 291h78v5h-78z"/>
  <path fill="url(#_Linear17)" fill-rule="nonzero" d="M597 301h78v5h-78z"/>
  <path fill="url(#_Linear18)" fill-rule="nonzero" d="M597 311h78v5h-78z"/>
  <path fill="url(#_Linear19)" fill-rule="nonzero" d="M597 321h78v5h-78z"/>
  <path fill="url(#_Linear20)" fill-rule="nonzero" d="M597 331h78v5h-78z"/>
  <path fill="url(#_Linear21)" fill-rule="nonzero" d="M597 341h78v5h-78z"/>
  <path fill="url(#_Linear22)" fill-rule="nonzero" d="M597 351h78v5h-78z"/>
  <path fill="#e0e0e0" fill-rule="nonzero" d="M343 436.5h114v24H343z"/>
  <ellipse cx="400" cy="436.5" fill="#b0bec5" rx="57" ry="7"/>
  <ellipse cx="400.1" cy="460.5" fill="#e0e0e0" rx="57" ry="7"/>
  <path fill="#bdbdbd" fill-rule="nonzero" d="M471 226.5h47.5v13H471v-13zm-27-6h21v6h-21v-6zm0 19h21v6h-21v-6z"/>
  <path fill="#bdbdbd" fill-rule="nonzero" d="M514.7 238l9.3-9.2 52.5 52.6-9.2 9.2-52.6-52.6z"/>
  <circle cx="521" cy="234" r="11" fill="#78909c"/>
  <circle cx="521" cy="233.5" r="6" fill="#e0e0e0"/>
  <path fill="#78909c" fill-rule="nonzero" d="M474 225h4v17h-4v-17zm7 0h4v17h-4v-17zm-16-7h6v31h-6v-31z"/>
  <circle cx="521" cy="233.5" r="3" fill="#90a4ae"/>
  <path fill="none" stroke="#90a4ae" stroke-width="3" d="M520.6 232.5s-18.1 74 51.4 54"/>
  <path fill="#bdbdbd" fill-rule="nonzero" d="M561 288.5h21v159h-21z"/>
  <circle cx="572" cy="287" r="16" fill="#78909c"/>
  <circle cx="572" cy="286.5" r="9" fill="#e0e0e0"/>
  <circle cx="572" cy="286.5" r="4" fill="#90a4ae"/>
  <path fill="#78909c" fill-rule="nonzero" d="M558 331h27v8h-27v-8zm0 35h27v8h-27v-8zm30 102h-33v-6l3-3.5V446h27v12.3l3 3.7v6z"/>
  <g>
    <path fill="#dd2c00" fill-rule="nonzero" d="M456.1 271c0 4.6-1.1 11.5-1.1 11.5h1.5s6.5-3.5 6.5-6.3v-.6c0-1.4-.7-2.6-1.7-3.4-.8-.5-.8-1.8 0-2.5 1-.8 1.7-2 1.7-3.3v-.6c0-2.9-6.5-6.3-6.5-6.3H455s1.1 6.9 1.1 11.5zm2.3 2.6c1.7 0 2.3.6 2.3 2v.4a3 3 0 01-1.8 2.7c-.8.2-1.6-.4-1.6-1.2l1.1-3.9zm.5-10.1c1.1.3 1.8 1.4 1.8 2.6v.3c0 1.5-.6 2-2.3 2l-1.1-3.7c0-1 .8-1.5 1.6-1.2z"/>
    <path fill="none" stroke="#dd2c00" stroke-width="2" d="M456 260.5s-3.3-4.5-1.4-10.5c1-3 2.4-6.2 2.4-8.4 0-4-2-3.5-2-2.1"/>
    <path fill="none" stroke="#dd2c00" stroke-linecap="round" stroke-width="2" d="M456.5 280.5c-5.5 10 6.9 14.3.8 27"/>
  </g>
  <path fill="#c62828" fill-rule="nonzero" d="M357.1 257.5s-15 4-35 29-66.9 35.5-90.9 29.5-52 6.5-58 26.5c0 0 26.3-2.3 21.2 22.2-5.6 26.5 8.7 41.8 17.7 43.8s32 2 42-10 35-16 40-3l21-11.8s48-128.2 42-126.2"/>
  <g>
    <path fill="#bdbdbd" fill-rule="nonzero" d="M225.7 311.4l52.5-52.6 9.3 9.2-52.6 52.6-9.2-9.2zM342 240.5l20.9-3 .8 5.9-20.7 3-1-5.9z"/>
    <path fill="#bdbdbd" fill-rule="nonzero" d="M280.3 255.8l56.7-8.4 2 12.9-56.8 8.4-1.9-12.9zm64.6 3.5l20.8-3 .8 5.9-20.7 3-.9-5.9zM220 328.5h21v128h-21v-128z"/>
    <path fill="#78909c" fill-rule="nonzero" d="M247 468h-33v-6l3-3.5V446h27v12.3l3 3.7v6zm-30-118h27v8h-27v-8zm0 15h27v8h-27v-8z"/>
    <circle cx="281" cy="263" r="11" fill="#78909c"/>
    <circle cx="281" cy="263.5" r="6" fill="#e0e0e0"/>
    <circle cx="281" cy="263.5" r="3" fill="#90a4ae"/>
    <path fill="none" stroke="#90a4ae" stroke-width="3" d="M280.9 262.5s19.7 103.8-50.3 53.9"/>
    <circle cx="230" cy="317" r="16" fill="#78909c"/>
    <circle cx="230" cy="317.5" r="9" fill="#e0e0e0"/>
    <circle cx="230" cy="317.5" r="4" fill="#90a4ae"/>
    <path fill="#78909c" fill-rule="nonzero" d="M329.8 246l4-.7 2.5 16.8-4 .6-2.5-16.7zm-6.9 1l4-.6 2.5 16.8-4 .6-2.5-16.8zm12.9-8.5l6-.9 4.3 29.7-5.9.9-4.4-29.7z"/>
  </g>
  <path fill="#b71c1c" fill-rule="nonzero" d="M356.1 257.5s-31 106.7-62.1 138c-9.5 9.5-2.9 16.2-.9 18 9.9 8 25 7 25 7s47-46 49-142c.1-5.1-2.9-22-9-22-2 0-2 1-2 1z"/>
  <g>
    <path fill="#1565c0" fill-rule="nonzero" d="M380 317.5s-.7 28.4 2.1 64l1 11h13c4-38 4-57 4-57v-18H380zm40 0s1 28-1.9 63.8l-1 11.2h-13c-4-38-4-57-4-57v-18H420z"/>
    <path fill="#1e88e5" fill-rule="nonzero" d="M420.1 280.5l-10-23c-5-1-10-11-10-11s-5 10-10 11l-10 23 3 23-3 14 17 17.7a4 4 0 006 0l17-17.7-3.1-14 3.1-23z"/>
    <path fill="#b71c1c" fill-rule="nonzero" d="M407.1 434.4s0 3 3 3h18s-.3-5-6.1-5.4c-7.9-.5-7-3.1-6.9-5.5.3-9.3 2-34 2-34h-13l3 41.9zm-14 0s0 3-2.9 3h-18s.2-5 6-5.4c8-.5 7-3.1 7-5.5-.3-9.3-2-34-2-34h13l-3 41.9h-.1z"/>
    <path fill="#1565c0" fill-rule="nonzero" d="M410.1 257.5c-7-5-4.1-16-4.1-16h-12s3 11-4 16c.6.2 7 2 10 4 3-2 9.7-3.8 10.1-4z"/>
    <path fill="#ffccbc" fill-rule="nonzero" d="M423.1 307.5h-5.5a2 2 0 00-1.8 2.3l1.1 6a2.7 2.7 0 004 2l7.2-5.3-3.5-4.3a2 2 0 00-1.5-.7zm-46 0h5.5a2 2 0 011.8 2.3l-1 6a2.7 2.7 0 01-4 2l-7.3-5.3 3.5-4.3a2 2 0 011.5-.7zm33.9-79.2c0 5.4-3 20.2-11 20.2s-11-14.8-11-20.2c0-5.4 5-9.7 11-9.7s11 4.3 11 9.7z"/>
    <path fill="#1565c0" fill-rule="nonzero" d="M410.1 257.5a46 46 0 0126.1 16l7.5 10.7a11.2 11.2 0 01-1.6 15.2l-14 13.1-5-5 9.5-13.2a2 2 0 00-.5-3l-12-10.8-10-23zm-20 0a46 46 0 00-26 16l-7.8 10.7a11.2 11.2 0 001.5 15.2l14.3 13.1 5-5-9.7-13.2a2 2 0 01.5-3l12.2-10.8 10-23z"/>
    <path fill="#424242" fill-rule="nonzero" d="M413 225.7c0-4.8-2.3-9.3-7.8-10.4l-1.4-2.3H400c-4.2 0-9.9 1.8-12 7.8-2.7 7 1.6 14.4 1.6 14.4l-.3-3.4c.2-1.6 1.3-3 2.8-3.5l13.1-4.5 3.7 3.2c1 .9 1.6 2 1.7 3.4l-.2 4.8s2.6-4.5 2.6-9.5z"/>
    <ellipse cx="409" cy="234" fill="#ffccbc" rx="3" ry="3.5"/>
    <ellipse cx="391" cy="234" fill="#ffccbc" rx="3" ry="3.5"/>
  </g>
  <defs>
    <linearGradient id="_Linear1" x1="0" x2="1" y1="0" y2="0" gradientTransform="matrix(0 -189 189 0 496.5 367)" gradientUnits="userSpaceOnUse">
      <stop offset="0" stop-color="#fff" stop-opacity="0"/>
      <stop offset=".3" stop-color="#fafafa" stop-opacity=".3"/>
      <stop offset=".8" stop-color="#ebebeb" stop-opacity=".8"/>
      <stop offset="1" stop-color="#e0e0e0"/>
    </linearGradient>
    <linearGradient id="_Linear2" x1="0" x2="1" y1="0" y2="0" gradientTransform="matrix(0 -268 268 0 567 396)" gradientUnits="userSpaceOnUse">
      <stop offset="0" stop-color="#fff" stop-opacity="0"/>
      <stop offset=".3" stop-color="#fafafa" stop-opacity=".3"/>
      <stop offset=".8" stop-color="#ebebeb" stop-opacity=".8"/>
      <stop offset="1" stop-color="#e0e0e0"/>
    </linearGradient>
    <linearGradient id="_Linear3" x1="0" x2="1" y1="0" y2="0" gradientTransform="matrix(0 -273 273 0 279.5 400)" gradientUnits="userSpaceOnUse">
      <stop offset="0" stop-color="#fff" stop-opacity="0"/>
      <stop offset="1" stop-color="#eee"/>
    </linearGradient>
    <linearGradient id="_Linear4" x1="0" x2="1" y1="0" y2="0" gradientTransform="matrix(0 -223 223 0 185.5 406)" gradientUnits="userSpaceOnUse">
      <stop offset="0" stop-color="#fff" stop-opacity="0"/>
      <stop offset=".3" stop-color="#fafafa" stop-opacity=".3"/>
      <stop offset=".8" stop-color="#ebebeb" stop-opacity=".8"/>
      <stop offset="1" stop-color="#e0e0e0"/>
    </linearGradient>
    <linearGradient id="_Linear5" x1="0" x2="1" y1="0" y2="0" gradientTransform="matrix(0 -318 318 0 413 404)" gradientUnits="userSpaceOnUse">
      <stop offset="0" stop-color="#fff" stop-opacity="0"/>
      <stop offset="1" stop-color="#eee"/>
    </linearGradient>
    <linearGradient id="_Linear6" x1="0" x2="1" y1="0" y2="0" gradientTransform="matrix(0 -200 200 0 328.5 388)" gradientUnits="userSpaceOnUse">
      <stop offset="0" stop-color="#fff" stop-opacity="0"/>
      <stop offset="1" stop-color="#e0e0e0"/>
    </linearGradient>
    <linearGradient id="_Linear7" x1="0" x2="1" y1="0" y2="0" gradientTransform="matrix(0 -178 178 0 198.5 427)" gradientUnits="userSpaceOnUse">
      <stop offset="0" stop-color="#fff" stop-opacity="0"/>
      <stop offset="1" stop-color="#fafafa"/>
    </linearGradient>
    <linearGradient id="_Linear8" x1="0" x2="1" y1="0" y2="0" gradientTransform="matrix(0 -178 178 0 178.5 427)" gradientUnits="userSpaceOnUse">
      <stop offset="0" stop-color="#fff" stop-opacity="0"/>
      <stop offset="1" stop-color="#fafafa"/>
    </linearGradient>
    <linearGradient id="_Linear9" x1="0" x2="1" y1="0" y2="0" gradientTransform="matrix(0 -178 178 0 218.5 427)" gradientUnits="userSpaceOnUse">
      <stop offset="0" stop-color="#fff" stop-opacity="0"/>
      <stop offset="1" stop-color="#fafafa"/>
    </linearGradient>
    <linearGradient id="_Linear10" x1="0" x2="1" y1="0" y2="0" gradientTransform="matrix(0 -20 20 0 400 481.4)" gradientUnits="userSpaceOnUse">
      <stop offset="0" stop-color="#fff" stop-opacity=".2"/>
      <stop offset="1" stop-color="#e0e0e0" stop-opacity=".2"/>
    </linearGradient>
    <linearGradient id="_Linear11" x1="0" x2="1" y1="0" y2="0" gradientTransform="rotate(-90 536.2 -99.3) scale(229.9)" gradientUnits="userSpaceOnUse">
      <stop offset="0" stop-color="#fff" stop-opacity="0"/>
      <stop offset="1" stop-color="#eee"/>
    </linearGradient>
    <linearGradient id="_Linear12" x1="0" x2="1" y1="0" y2="0" gradientTransform="matrix(0 -103.4 103.4 0 636 355.7)" gradientUnits="userSpaceOnUse">
      <stop offset="0" stop-color="#fff" stop-opacity="0"/>
      <stop offset="1" stop-color="#fff"/>
    </linearGradient>
    <linearGradient id="_Linear13" x1="0" x2="1" y1="0" y2="0" gradientTransform="matrix(0 -103.4 103.4 0 636 355.7)" gradientUnits="userSpaceOnUse">
      <stop offset="0" stop-color="#fff" stop-opacity="0"/>
      <stop offset="1" stop-color="#fff"/>
    </linearGradient>
    <linearGradient id="_Linear14" x1="0" x2="1" y1="0" y2="0" gradientTransform="matrix(0 -103.4 103.4 0 636 355.7)" gradientUnits="userSpaceOnUse">
      <stop offset="0" stop-color="#fff" stop-opacity="0"/>
      <stop offset="1" stop-color="#fff"/>
    </linearGradient>
    <linearGradient id="_Linear15" x1="0" x2="1" y1="0" y2="0" gradientTransform="matrix(0 -103.4 103.4 0 636 355.7)" gradientUnits="userSpaceOnUse">
      <stop offset="0" stop-color="#fff" stop-opacity="0"/>
      <stop offset="1" stop-color="#fff"/>
    </linearGradient>
    <linearGradient id="_Linear16" x1="0" x2="1" y1="0" y2="0" gradientTransform="matrix(0 -103.4 103.4 0 636 355.7)" gradientUnits="userSpaceOnUse">
      <stop offset="0" stop-color="#fff" stop-opacity="0"/>
      <stop offset="1" stop-color="#fff"/>
    </linearGradient>
    <linearGradient id="_Linear17" x1="0" x2="1" y1="0" y2="0" gradientTransform="matrix(0 -103.4 103.4 0 636 355.7)" gradientUnits="userSpaceOnUse">
      <stop offset="0" stop-color="#fff" stop-opacity="0"/>
      <stop offset="1" stop-color="#fff"/>
    </linearGradient>
    <linearGradient id="_Linear18" x1="0" x2="1" y1="0" y2="0" gradientTransform="matrix(0 -103.4 103.4 0 636 355.7)" gradientUnits="userSpaceOnUse">
      <stop offset="0" stop-color="#fff" stop-opacity="0"/>
      <stop offset="1" stop-color="#fff"/>
    </linearGradient>
    <linearGradient id="_Linear19" x1="0" x2="1" y1="0" y2="0" gradientTransform="matrix(0 -103.4 103.4 0 636 355.7)" gradientUnits="userSpaceOnUse">
      <stop offset="0" stop-color="#fff" stop-opacity="0"/>
      <stop offset="1" stop-color="#fff"/>
    </linearGradient>
    <linearGradient id="_Linear20" x1="0" x2="1" y1="0" y2="0" gradientTransform="matrix(0 -103.4 103.4 0 636 355.7)" gradientUnits="userSpaceOnUse">
      <stop offset="0" stop-color="#fff" stop-opacity="0"/>
      <stop offset="1" stop-color="#fff"/>
    </linearGradient>
    <linearGradient id="_Linear21" x1="0" x2="1" y1="0" y2="0" gradientTransform="matrix(0 -103.4 103.4 0 636 355.7)" gradientUnits="userSpaceOnUse">
      <stop offset="0" stop-color="#fff" stop-opacity="0"/>
      <stop offset="1" stop-color="#fff"/>
    </linearGradient>
    <linearGradient id="_Linear22" x1="0" x2="1" y1="0" y2="0" gradientTransform="matrix(0 -103.4 103.4 0 636 355.7)" gradientUnits="userSpaceOnUse">
      <stop offset="0" stop-color="#fff" stop-opacity="0"/>
      <stop offset="1" stop-color="#fff"/>
    </linearGradient>
  </defs>
</svg>
