<svg xmlns="http://www.w3.org/2000/svg" fill-rule="evenodd" stroke-linejoin="round" stroke-miterlimit="2" clip-rule="evenodd" viewBox="0 0 800 600">
  <path fill="#fff" fill-rule="nonzero" d="M523 352l18 91H259l18-91a147 147 0 01-25-82 148 148 0 01296 0 147 147 0 01-25 82z"/>
  <path fill="url(#_Linear1)" fill-rule="nonzero" d="M480 375l8 43h-2v10h-10v-10h-10c-25 0-45-20-45-44v-1c0-20 12-37 30-43a13 13 0 010-3c0-19 16-35 35-35a35 35 0 0111 2 100 100 0 01-22 42l-3 3 8 36z"/>
  <path fill="url(#_Linear2)" fill-rule="nonzero" d="M421 373c0-20 12-37 30-43a13 13 0 010-3 35 35 0 015-17c-5-14-18-23-33-23a1 1 0 01-1-1v-4c0-16-13-28-29-28-14 0-26 12-27 26v3c0 7-5 12-11 15-16 7-26 23-26 42 0 21 17 41 39 41h17v47h10v-39a30 30 0 0020 8 29 29 0 0011-3 46 46 0 01-5-21z"/>
  <path fill="url(#_Linear3)" fill-rule="nonzero" d="M329 340c0-19 10-35 26-42 6-3 11-8 11-15v-6a17 17 0 01-2-8l1-14c0-24-19-45-43-47-30 38-29 91 3 128l3 3-4 17-4 23h20a53 53 0 0012-2c-14-6-23-21-23-37z"/>
  <path fill="#fff" fill-rule="nonzero" d="M493 443H307l17-87a30 30 0 0122 36 28 28 0 0131-11 30 30 0 0158 5 29 29 0 0114-3 30 30 0 0117 5 30 30 0 0114-13l13 68z"/>
  <path fill="url(#_Linear4)" fill-rule="nonzero" d="M472 339l3-3c28-32 33-77 13-113h-1c-20 1-35 18-34 37a13 13 0 01-9 12c-18 7-31 25-30 44a45 45 0 0015 31h45l-2-8z"/>
  <path fill="#fff" d="M327 363a111 111 0 01-25-80 97 97 0 015-20c1-4 5-12 8-15 12-20 32-34 52-36a79 79 0 0120 1l2 1h-5a64 64 0 00-47 21c-7 6-11 12-15 20a80 80 0 00-8 44c3 26 17 51 39 68 16 12 36 20 57 22a117 117 0 01-83-26zm86 25h-4c-12-2-24-5-35-10a92 92 0 01-54-79l1-17c4-17 13-31 26-41 3-2 3-2 0 1-8 9-14 19-17 31-5 23 0 47 16 67l14 14c10 7 21 13 34 16a106 106 0 0096-24 208 208 0 005-4c6-5 6-6 4-3a121 121 0 01-11 10c-19 21-45 36-75 39a352 352 0 001 1 115 115 0 01-4 0l3-1zM285 286c2-22 9-43 23-59 2-4 10-11 13-14 16-13 34-19 54-20 25-1 47 10 58 29l-3-2-10-9c-11-7-23-10-37-10-23 0-44 10-60 28a91 91 0 00-23 54v18a107 107 0 0027 62 119 119 0 006 6l2 3-3-3a105 105 0 01-7-7c-22-19-37-45-40-76zm231-23a897 897 0 010 10c0 28-10 53-26 73a91 91 0 01-34 20c-12 3-26 5-38 5-11 0-24-3-38-11a73 73 0 01-40-56c-1-5 0-14 1-19v-1 3l2 15c2 12 10 26 21 36 15 14 34 21 55 21 13 0 27-3 39-9a101 101 0 0058-87zm-41-78h1c22 20 37 47 40 78v1c-2 12-6 24-11 35a96 96 0 01-70 53l-21 1c-15-3-27-9-37-18-4-3-6-7-9-11l2 1a68 68 0 0051 20 85 85 0 0070-47 96 96 0 008-65c-3-13-8-25-12-32l-8-12a121 121 0 00-3-4h-1zm-83-28a117 117 0 0183 28l2 1a109 109 0 0121 74 83 83 0 01-44 67 56 56 0 01-27 6h-10c-5-1-6-1-2-1a75 75 0 0069-61c8-42-13-83-54-103-12-6-24-9-37-11a110 110 0 00-1 0zm-1 0h-3a49 49 0 013 0 104 104 0 0164 32c10 10 16 20 20 31 9 25 7 52-8 71a70 70 0 01-17 15l2-2 7-8c6-8 11-21 13-31v-21c-3-17-11-32-24-45a93 93 0 00-79-26 124 124 0 00-57 25h-1 1c19-23 47-38 79-41zm-79 41a63 63 0 002-2c12-9 29-17 45-20l18-2a84 84 0 0176 43c7 13 10 27 7 40-1 5-1 5-1-1a71 71 0 00-26-52l-23-13a93 93 0 00-95 25c-18 18-28 42-31 67l1 3a136 136 0 00-1 5 4044 4044 0 010-8 117 117 0 010-10c0-29 10-55 28-75z" class="portal"/>
  <path fill="#e2e8ea" fill-rule="nonzero" d="M327 339l-18 89h12l19-92-7-8a89 89 0 01-22-58 89 89 0 01178 0 89 89 0 01-22 58l-7 8 19 92h12l-18-89 3-3a101 101 0 0025-66c0-55-46-101-101-101s-101 46-101 101c0 24 9 48 25 66l3 3z"/>
  <path fill="#ccd5d9" d="M231 415h67v9h-67v-9zm267 0h67v9h-67v-9z"/>
  <path fill="#c0cbd1" fill-rule="nonzero" d="M186 438h7v7h-20l13-7z"/>
  <path fill="#a6b6be" fill-rule="nonzero" d="M167 452l-14 8h20v-8h-6z"/>
  <path fill="#859ba6" fill-rule="nonzero" d="M193 430v15h-20v15h-20v15h108l32-45H193z"/>
  <path fill="#b0bec5" fill-rule="nonzero" d="M548 270a148 148 0 00-296 0 147 147 0 0025 82l-15 72h9l9-9 14-67-2-3a132 132 0 01-24-75c0-73 60-132 132-132s132 59 132 132c0 27-8 53-24 75l-2 3 14 67 9 9h9l-15-72a147 147 0 0025-82z"/>
  <path fill="#859ba6" fill-rule="nonzero" d="M607 430v15h20v15h20v15H539l-32-45h100z"/>
  <path fill="#c0cbd1" fill-rule="nonzero" d="M614 438h-7v7h20l-13-7z"/>
  <path fill="#a6b6be" fill-rule="nonzero" d="M633 452l14 8h-20v-8h6z"/>
  <path fill="#d4dcdf" fill-rule="nonzero" d="M490 443H310l-43 65h266l-43-65z"/>
  <path fill="#f0f2f4" fill-rule="nonzero" d="M479 428H321l-11 15h180l-11-15z"/>
  <path fill="#ccd5d9" fill-rule="nonzero" d="M193 430l28-15h24v9h66l-6 6H193zm414 0l-28-15h-25v9h-64l5 6h112z"/>
  <path fill="#90a4ae" fill-rule="nonzero" d="M242 424h29l14-74a140 140 0 01-25-80 140 140 0 01280 0 140 140 0 01-25 80l14 74h29l-17-69a164 164 0 0024-85 165 165 0 00-330 0 164 164 0 0024 85l-17 69z"/>
  <path fill="#859ba6" d="M241 488h26v20h-26v-20zm292 0h26v20h-26v-20z"/>
  <path fill="#e2e8ea" fill-rule="nonzero" d="M311 424l-6 6-38 58v20l43-65 11-15-10-4zm179 0l5 6 38 58v20l-43-65-11-15 11-4z"/>
  <path fill="#a6b6be" fill-rule="nonzero" d="M241 488h26l38-58h-21l-43 58zm275-58h-21l38 58h26l-43-58zm-226-6h20l18-85-3-3a100 100 0 01-25-66c0-55 45-100 100-100a100 100 0 0175 166l-3 3 18 85h20l-16-79a120 120 0 0026-75c0-66-54-120-120-120s-120 54-120 120a120 120 0 0026 75l-16 79z"/>
  <g fill-rule="nonzero">
    <path fill="#cfd8dc" d="M396 142l-23-46a4 4 0 014-6h46c2 0 4 2 4 4a4 4 0 010 2l-23 46a4 4 0 01-4 2 4 4 0 01-4-2z"/>
    <path fill="#90a4ae" d="M420 96l-20 40-20-40h40"/>
    <path fill="#fbc02d" d="M388 101l12 23 12-23h-24z"/>
  </g>
  <g fill-rule="nonzero">
    <path fill="#cfd8dc" d="M509 203l28-43a4 4 0 017 0l23 40a4 4 0 01-1 6 4 4 0 01-2 0l-51 3a4 4 0 01-4-6z"/>
    <path fill="#90a4ae" d="M561 200l-45 3 25-37 20 34"/>
    <path fill="#fbc02d" d="M540 175l-14 22 26-1-12-21z"/>
  </g>
  <g fill-rule="nonzero">
    <path fill="#cfd8dc" d="M287 209l-51-3a4 4 0 01-3-6l23-40a4 4 0 017 0l28 43a4 4 0 01-4 6z"/>
    <path fill="#90a4ae" d="M259 166l25 37-45-3 20-34"/>
    <path fill="#fbc02d" d="M248 196l26 1-14-22-12 21z"/>
  </g>
  <g fill-rule="nonzero">
    <path fill="#cc9281" d="M351 266a1 1 0 00-2 1v1a4 4 0 01-1 1 10 10 0 01-1-2 16 16 0 01-1-4l-1-2-4 3a3 3 0 00-1 2 23 23 0 001 6l3 5v2a3 3 0 003 1 3 3 0 003-3l-1-3v-1a6 6 0 002-3v-4z"/>
    <path fill="#1565c0" d="M402 376c0-3 0-28-7-51l-35 1c-4 7-5 17-5 26l1 25s-5 6-6 13l-3 23s1 3 5 3l3-1 14-34 7-28c4 10 12 22 12 22v3c0 5 1 18 7 38l3 1c5 0 6-3 6-3l-2-38z"/>
    <path fill="#369ced" d="M344 279c0 4-1 21 3 26l2 1c4 0 3-14 3-14a88 88 0 00-2-15 6 6 0 01-3 1 10 10 0 01-3 1z"/>
    <path fill="#42a5f5" d="M386 269a6 6 0 01-1-4h-12a9 9 0 01-2 3c1 2 4 4 7 4a10 10 0 008-3zm-22 3s-7 3-12 13-6 13-6 16c0 4 2 5 3 5 3 0 12-9 13-15l2-19z"/>
    <path fill="#1976d2" d="M396 275a68 68 0 01-8-4 13 13 0 01-2-2l-8 2c-3 0-6-1-7-3l-6 4c-3 1-7 6-7 14l2 15 3 12a29 29 0 01-3 13c-2 4 1 7 17 7 19 0 18-8 18-8a34 34 0 01-1-10c0-13 4-16 4-24l-2-16z"/>
    <path fill="#cc9281" d="M382 235c6 0 10 5 11 7a18 18 0 011 7c0 7-1 13-6 13a3 3 0 00-3 3l-6 2c-4 0-6-1-6-2a14 14 0 00-1-5c-1-2-4-7-4-13s5-12 14-12z"/>
    <path fill="#5d4037" d="M366 246c0-4 2-13 14-13a15 15 0 018 2c4 2 5 6 5 7l-3 3a14 14 0 01-2 3 4 4 0 01-2 1 2 2 0 00-2 2c0 4 2 5 2 5s-3 5-7 5h-4l-3-1c-4-6-6-9-6-14z"/>
    <path fill="#ba8675" d="M414 330v2a5 5 0 002 2l2 4 1-1-1-7h-4z"/>
    <path fill="#cc9281" d="M413 330l4-4v1l6 5a55 55 0 011 4 4 4 0 01-1 1l-1 3-2 1-1-1 2-2v-1l-1-2-3-1a5 5 0 01-3-3 7 7 0 00-1-1z"/>
    <path fill="#42a5f5" d="M413 330l-17-16c-2-3-5-17-5-28 0-9 5-11 5-11s6 2 7 17l1 15a191 191 0 0113 19c4 6 0 1-1 3a5 5 0 01-3 1zm-40-98a4 4 0 014 4 4 4 0 01-3 4h-1c-2 0-3-2-3-4s1-4 3-4z"/>
    <path fill="#6d4c41" d="M368 229c-8 0-10 7-10 13 0 5 3 12 6 17 2-7 4-10 6-12 3-3 5-7 5-10s-2-8-7-8z"/>
    <path fill="#5d4037" d="M388 235s6 1 6 9l-4 1s0-8-2-10z"/>
    <path fill="#37474f" d="M355 436a14 14 0 01-6-5 29 29 0 00-5-4v-1l1-3a48 48 0 001-5 66 66 0 001-5 29 29 0 008 2c3 0 0 1-1 3v2a27 27 0 00-2 6l1 5c2 1 2 2 2 5z"/>
    <path fill="#263238" d="M354 418v2l-8-2 1-2 7 2zm1 18c0-2-3-1-4-4-1-2-2-6-6-6l-1 1-1 2 4 3c1 1 0 4 2 5l3 1 3-1v-2z"/>
    <path d="M350 435c-1-1-1-6-5-7l-2 1a8 8 0 002 3l2 5 5 1 3-1-5-2z"/>
    <path fill="#263238" d="M412 428l-3 3c-2 1-6 5-9 5-2 0-3-1-3-3v-5l8-2 7-1v3z"/>
    <path fill="#37474f" d="M412 425l-3 3c-2 1-6 5-9 5-2 0-3-1-3-3v-5a19 19 0 00-1-4v-3l-1-2c8 0 9-2 9-2v6l1 4a13 13 0 014-1c2 0 3 1 3 2z"/>
    <path fill="#263238" d="M404 420l-8 1v-3l8-1v3z"/>
  </g>
  <defs>
    <linearGradient id="_Linear1" x1="0" x2="1" y1="0" y2="0" gradientTransform="rotate(-90 444 -16) scale(135.78)" gradientUnits="userSpaceOnUse">
      <stop offset="0" stop-color="#fff"/>
      <stop offset=".4" stop-color="#f9f9f9"/>
      <stop offset="1" stop-color="#e6e6e6"/>
      <stop offset="1" stop-color="#e6e6e6"/>
    </linearGradient>
    <linearGradient id="_Linear2" x1="0" x2="1" y1="0" y2="0" gradientTransform="rotate(-90 61533 11356) scale(30276)" gradientUnits="userSpaceOnUse">
      <stop offset="0" stop-color="#fff"/>
      <stop offset=".4" stop-color="#f9f9f9"/>
      <stop offset="1" stop-color="#e6e6e6"/>
      <stop offset="1" stop-color="#e6e6e6"/>
    </linearGradient>
    <linearGradient id="_Linear3" x1="0" x2="1" y1="0" y2="0" gradientTransform="rotate(-77 48922 18816) scale(23229.68)" gradientUnits="userSpaceOnUse">
      <stop offset="0" stop-color="#fff"/>
      <stop offset=".4" stop-color="#f9f9f9"/>
      <stop offset="1" stop-color="#e6e6e6"/>
      <stop offset="1" stop-color="#e6e6e6"/>
    </linearGradient>
    <linearGradient id="_Linear4" x1="0" x2="1" y1="0" y2="0" gradientTransform="rotate(-60 512 -206) scale(137.0102)" gradientUnits="userSpaceOnUse">
      <stop offset="0" stop-color="#fff"/>
      <stop offset=".5" stop-color="#f9f9f9"/>
      <stop offset="1" stop-color="#eee"/>
    </linearGradient>
  </defs>
</svg>
