<svg viewBox="0 0 512 512" xmlns="http://www.w3.org/2000/svg" style="fill-rule:evenodd;clip-rule:evenodd;stroke-linejoin:round;stroke-miterlimit:2;">
    <path d="M53.278,398.917C24.751,358.517 8,309.22 8,256C8,119 119,8 256,8C393,8 504,119 504,256C504,393 393,504 256,504C215.804,504 177.847,494.445 144.271,477.48C114.969,494.615 73.152,512 24,512C14.4,512 5.7,506.3 1.9,497.5C-1.9,488.7 -0.1,478.5 6.5,471.5C6.993,471.106 38.124,437.642 53.278,398.917ZM100.138,447.642L99.148,448.06C92.462,450.867 85.317,453.543 77.612,456C80.969,450.003 84.273,444.007 87.517,438.007L88.211,436.723C96.033,422.22 103.492,407.714 110.455,393.207C76.69,357.402 56,309.128 56,256C56,145.5 145.5,56 256,56C366.5,56 456,145.5 456,256C456,366.5 366.5,456 256,456C215.623,456 178.05,444.05 146.623,423.492C133.108,431.263 118.32,439.923 100.138,447.642ZM256.008,165.206C223.707,139.53 177.359,138.155 145.339,165.442L145.332,165.448C105.579,199.378 103.484,260.262 139.053,297.033L227.655,388.52C243.288,404.653 268.673,404.653 284.304,388.522L372.898,297.044C408.529,260.273 406.433,199.382 366.682,165.455L366.675,165.448C334.649,138.156 288.349,139.521 256.008,165.206ZM334.23,203.492C351.975,218.644 352.898,245.833 336.986,262.254L255.98,345.897L174.989,262.269C159.102,245.843 160.027,218.648 177.777,203.492C192.846,190.657 215.212,193.808 229.015,208.077L256.003,235.888L282.969,208.101C296.81,193.82 319.155,190.652 334.23,203.492Z"/>
</svg>
