<?xml version="1.0" encoding="UTF-8" standalone="no"?>
<!DOCTYPE svg PUBLIC "-//W3C//DTD SVG 1.1//EN" "http://www.w3.org/Graphics/SVG/1.1/DTD/svg11.dtd">
<svg width="100%" height="100%" viewBox="0 0 24 24" version="1.1" xmlns="http://www.w3.org/2000/svg" xmlns:xlink="http://www.w3.org/1999/xlink" xml:space="preserve" xmlns:serif="http://www.serif.com/" style="fill-rule:evenodd;clip-rule:evenodd;stroke-linejoin:round;stroke-miterlimit:2;">
    <g transform="matrix(1.05097,0,0,1.06164,4.52413,3.5069)">
        <g transform="matrix(1.45802,-1.45802,1.45802,1.45802,-19.0353,-3.09732)">
            <path d="M9.293,11.722C9.291,11.36 9.071,11.033 8.736,10.892C8.4,10.752 8.016,10.827 7.761,11.082L3.47,15.372C3.216,15.627 3.141,16.012 3.281,16.347C3.421,16.682 3.749,16.902 4.111,16.904L8.424,16.926C8.918,16.928 9.317,16.529 9.314,16.035L9.293,11.722ZM8.397,11.718L4.107,16.008L8.419,16.03L8.397,11.718Z" style="fill:rgb(250,174,0);"/>
        </g>
        <g transform="matrix(1,0,0,1,-2.4613,1.33227e-14)">
            <path d="M1.742,11.145C1.395,11.496 1.202,11.976 1.216,12.479C1.235,13.126 1.597,13.716 2.169,14.03L5.493,15.861C6.068,16.177 6.769,16.169 7.336,15.839C7.902,15.509 8.25,14.907 8.25,14.256L8.25,9.163C8.25,8.727 8.094,8.311 7.819,7.986C8.094,7.661 8.25,7.245 8.25,6.809L8.25,1.744C8.25,1.001 7.798,0.332 7.105,0.047C6.412,-0.237 5.614,-0.08 5.083,0.445L-1.236,6.701C-1.639,7.1 -1.835,7.661 -1.766,8.221C-1.698,8.781 -1.373,9.279 -0.885,9.571L1.742,11.145ZM6.395,6.809L6.395,1.744L0.076,8L5.215,11.079L3.071,12.425L6.395,14.256L6.395,9.163L4.424,8L6.395,6.809Z" style="fill:rgb(250,174,0);"/>
        </g>
    </g>
</svg>
