<svg xmlns="http://www.w3.org/2000/svg" fill-rule="evenodd" stroke-linejoin="round" stroke-miterlimit="2" clip-rule="evenodd" viewBox="0 0 1080 720">
  <defs/>
  <path fill="#eee" fill-rule="nonzero" d="M189 611h674v2H189z"/>
  <path fill="#a1c3fc" fill-rule="nonzero" d="M426 230a48 48 0 11-13.8-95 48 48 0 0113.8 95zm0-90a43 43 0 10-13 85 43 43 0 0013-85z"/>
  <circle cx="325.8" cy="314.7" r="7.9" fill="#eee"/>
  <circle cx="318.3" cy="290.1" r="13.4" fill="#eee"/>
  <path fill="#f1b505" fill-rule="nonzero" d="M427 129l38-25 25 38-38 25-25-38z"/>
  <path fill="#a1c3fc" fill-rule="nonzero" d="M351 202l-71-5 33 54 38-49z"/>
  <path fill="#eee" fill-rule="nonzero" d="M630 212l17-84 74 47-91 37zm21-76l-14 68 73-30-59-38zM339 303a6 6 0 014-3l24-3a6 6 0 014 1 6 6 0 012 9 6 6 0 01-4 2l-24 4a6 6 0 01-7-6 6 6 0 011-4zm31 2a3 3 0 001-2.2 3 3 0 00-4-2.8l-23 3h-.2a3 3 0 00-2.8 4v.2a3 3 0 004 2.8l23-4a3 3 0 002-1z"/>
  <path fill="#a6bfff" fill-rule="nonzero" d="M720 151a17 17 0 0126-19l50 36c3 2 6 6 6 11a17 17 0 01-26 16l-49-35a17 17 0 01-7-9zm77 27a12 12 0 00-4-6l-50-36a12 12 0 00-9-2 12 12 0 00-5 22l50 35a12 12 0 0017-3 12 12 0 001-10z"/>
  <path fill="#f1b505" fill-rule="nonzero" d="M359 275c-5 0-10-2-14-6a20 20 0 01-6-14 20 20 0 016-14 20 20 0 0127 0 20 20 0 016 14c0 11-9 20-20 20h1zm0-36a16 16 0 00-12 5 16 16 0 00-5 11.4 16 16 0 0028 10.6 16 16 0 005-11 16 16 0 00-5-11 16 16 0 00-11-5z"/>
  <g fill-rule="nonzero">
    <path fill="#d0a391" d="M744 565s-2 33 1 34 12-1 16-2c3-1 9 0 12 2l14 10s-5 3-13-1l-2-2c-9-5-15-1-13 0l8 1c2 0 6 0 7 3h-30c-8-1-7 1-11-13l-8-26 19-6z"/>
    <path fill="#f1b505" d="M821.3 378.6L848 388l15-69s-6-2-11 6a238.3 238.3 0 01-24.4 26.4l-6.3 27.2zM774 300.5l28-6.5-21-66s-7 1-7 10c-1 9-11 35-11 35l11 27.5z"/>
    <path fill="url(#_Linear1)" d="M781 317h-2s-62.9 7.6-64 17c-5-1-8 3-2 18a247 247 0 0128.3 47s-18.2 25.6-36.3 26c-2-4-42-82-44-97s15-21 28-27l10-3 64-25 12 30 6 14z"/>
    <path fill="#a1c3fc" d="M830 341l-9 39c-5 1-14-3-21-10-8-7-12-5-21-5-10 0-16-7-20-9-5-2-3 11 0 22 2 8 2 24 1 31-5 1-15 4-23 10-14 9-22 12-30 14l-3 1c1-15 11-115 16-129 4-14 20-4 29-1l81 37z"/>
    <path fill="#d0a391" d="M897 428l-4 4a30 30 0 01-15 3c-10-1-17-8-22-7-3 0-18.2 9.6-27.2 14.6L820 425l39-13c12-5 21-6 21-6 4 6-10 7-10 9 1 3 1 3 12 5 13 3 17 6 15 8z"/>
    <path fill="#23286b" d="M837 459s-12 12-31 13c-18 2-44 23-44 23s-10.4 7.5-13 13c-2.7 5.7-3 21-3 21v5l-1 15-1 3v10l-1 3-34 12s-7-5-3-22c3-17 13-49 1-69s-30-24-27-36c3-11 18-14 27-17 8-3 16-5 30-14 13-9 28-11 28-11l1 35s4 0 19-9c16-9 34-11 34-11l18 36z"/>
    <path fill="#d0a391" d="M749 508l-3-7a3 3 0 010-2c1-2 3-4 7-5 6-2 9 1 9 1l2 10"/>
    <path fill="#d0a391" d="M749 508c-6 6-4 12-5 13-1 2-4 4-2 6 3.2 1.6 6.6 3 10 4 7 3.8 22.8-9.3 21-17 1-4-5-4-7-6l-2-3s-9-1-15 3z"/>
    <path fill="#201d6b" d="M782 534c-9 5-15 8-14 15l-12 8s-8-13-4-25a24 24 0 0116-15c2 0 5-1 5-4s-5-3-7-5l-3-4v-1s14-7 22 3c9 10 7 22-3 28z"/>
    <path fill="#201d6b" d="M755 527a29 29 0 00-3 28l1-1a29 29 0 012-27c1 0 0-1 0 0z"/>
    <path fill="#1c2868" d="M751 528c-1-2 1-4 3-3v-1a3 3 0 00-3 1 3 3 0 00-1 4l1-1z"/>
  </g>
  <g fill-rule="nonzero">
    <path fill="#4484f7" d="M530 529l14 19-51 31s-3-4 2-10l14-28 21-12zm87-132l22-10 19 56s-5 3-10-3-25-20-25-20l-6-23z"/>
    <path fill="url(#_Linear2)" d="M623 420s-90 31-110 18c-26.1-39-6-73.4 7-57v-1s4 20 22 18c19-2 18-3 28 0 9 2 16-4 21-5 5 0 22-1 26 3l6 24z"/>
    <path fill="#eee" d="M530 529l-21 12s-33-82-35-99c-1-16 0-36 2-53 3-16 7-30 4-44v-1c11.4 1 23 0 34-3l5-1c1 2 9 18-3 53-12 38-3 44 1 55a62 62 0 016 30c-1 11 4 8 6 22 3 14 1 29 1 29z"/>
    <path fill="#f1b505" d="M562 269c-14 20-24 30-24 51s-2 22-2 22-11-4-22-1c-9 2-33 7-43 0-11-7-18-14-20-21l12-11c2 2 3 3 3 5 0 0 21-9 29-24l12-21s-1 7 2 7c4-1 10-9 10-9s7 3 12-11 6-24 6-26l35 2s4 17-10 37z"/>
    <path fill="#ffdeb5" d="M550 231s11-26 5-38l-10-19s3-2 5 2c3 4 5 6 5 4l3-21c1-2 3-2 3 1s-2 13 1 11c2-2 4-11 5-12 0 0 7 5 9 10 2 6-3 14-7 18-3 5-1 13 3 45l-22-1zm-97 71l10 7-11 10-31 12-14 11c-3-5 7-12 7-15-1-2-2-2-14-3s-12-4-9-4c2-1 11 1 12-1 1-1-13 0-11-2l2-1c3-2 6-3 10-1l20 4c4-1 26-17 28-19l1 2z"/>
    <path fill="#1c2868" d="M519 242s-5-8-17-4c-12 3-16 19-8 24l10 7s-11 3-20 1-31-8-45 6c0 0 5 18 14 26 9 7 11 8 13 12 0 0 21-9 29-24l12-21 1-2s0-3-2-4l-4-1c-2-1-4-3-2-5s3-2 5-2c4 3.5 15.9-9 14-13z"/>
    <path fill="#1c2868" d="M439 274a39 39 0 0132-6c9 1 17 5 27 4v-1c-12 1-22-4-32-5s-19 1-27 7v1z"/>
    <path fill="#ffdeb5" d="M519 267c-1 1-6 8-10 9-3 0-2-6-2-7l1-2v-1h3l7-1v2h1z"/>
    <path fill="#ffdeb5" d="M526 253l-2 2c0 1-1 6.2-2 8a7.3 7.3 0 01-4 3c-1.8.7-5.3 1-7 1-1 0-2.2-.5-3-1-.8-.5-1.3-1.4-2-2-.7-.6-1.4-1.2-2.2-1.5-.8-.4-2-.1-2.8-.5-4.6-2-2.3-9 4-7 3.3 1.5 15-10.7 13.3-13.8l6.7 7.8c2 2 3 3 1 4z"/>
    <path fill="#1c2868" d="M522.1 246.5c3.8 4.6 5.7-1 4.5-3.2-1.5-2.7-5.5-3-4.7 2.8-1 .3-1.4 1.2-1.8 2l-.2-.2c-.8-.6-1.6-.8-2.5-.7-1.7.4-2.7 2.4-2.3 4.6.3 1 .8 1.9 1.5 2.5a3 3 0 002 .7h.5c.8-.2 1.5-.8 2-1.6.4-.9.5-2 .3-3-.2-.7-.5-1.4-1-1.9.4-.7.8-1.7 1.7-2zm-5.1 7.4a4 4 0 01-1.3-4.2c.2-1 1-1.8 1.9-2h.4c.5 0 1 .2 1.6.6a4 4 0 011 4.8c-.7 1.4-2.4 2-3.6.8zm6.8-11.9c1.7-.3 2.8 1.8 2.6 3.6 0 1-.6 2-1.8 2.1-2.5.2-3.4-5.2-.8-5.7z"/>
  </g>
  <g fill-rule="nonzero">
    <path fill="#28306d" d="M359 611h-70l5-31h29c4 3 22 18 29 21 8 4 7 10 7 10zm43-113l16 24 54-44s-3-5-12-3l-36 5-22 18z"/>
    <path fill="url(#_Linear3)" d="M364 380c0 12.3-14.7 24-23 26s-20-4.5-27-14c-11.8-16-27-51.5-41-77-6-8-9-15-15-10l-10 9 1-5c2-2 15-17 21-17 7-1 11 6 19 19l31 55c6 9 12 5 8-2-4-6-15-23-17-35-3-11 1-16 1-16l42 11s-8.3 5-10 7c-1 1.3-.6 3.5 0 5 3.3 8.2 20 31.5 20 44z"/>
    <path fill="url(#_Linear4)" d="M365 491c-3 12-32 89-32 89h-52l4-15c2-6 12-18 13-32s7-17 13-25 11-19 5-29c-5-9-39-23-47-26 11 2 62-17 62-17l32 31c9 10 6 13 2 24z"/>
    <path fill="#428dfc" d="M424 480l-34 28s-2-2-7-12c-6-9-3-20-13-32s-12-24-13-30 4-14-35 8c-38 20-62 9-64 8-4.3-7 1.3-50.2 40-54 5-1 48-11 59-15 11-3 17-1 24 8 7 10 43 91 43 91z"/>
    <path fill="url(#_Linear5)" d="M271 398s-15 7-24 6c-7-1-18-4 0-73 0 1 14 43 42 46 0 0 0 6-3 10a129 129 0 01-15 11z"/>
    <path fill="#eee" d="M295 438a75 75 0 01-39 12h-23l-12 2c-14 3-27-2-27-18a105 105 0 015-23l5-17v-1a362 362 0 0128-66c5 7 15 4 15 4-18 69-8 72 0 73 9 1 24-6 24-6l24 40z"/>
    <path fill="#ffbeb5" d="M271 398s19-12 22-19 2-10-1-18l-4-8s3-3 6 2c2 5 4 8 5 5l2-18s5-1 4 6-1 15 0 11l3-14s5-1 9 10-5 20-10 26-18 33-24 37l-12-20z"/>
    <path fill="#ffbabe" d="M249 308s0 9-7 13c-4 2-6 3-9 2l-4-2h-3a5 5 0 01-1 0 3 3 0 01-2-1c-8.8-7.6 12.2-30.4 21-23l7 7c2 2-2 4-2 4z"/>
    <path fill="url(#_Linear6)" d="M247 331s-10 3-15-4v-4h1c2 1 5 0 9-2h1l4 10z"/>
    <path fill="#a1c3fc" d="M244 297c0 1-3 4-6 5-3 2-7 3-8 8 0 5-2 5-4 5-1 1-3 0-3 3s2 3 3 3h3l4 2c-8 7-19 1-19 1-6-3-2-7 0-8 .4-.6-3.3-12.4 0-16.9 3.3-4.5 20-10.1 20-10.1 5-7 16 0 11 7l-1 1z"/>
    <path fill="#a1c3fc" d="M240 301c5-4 11-12 4-17v1c6 4 1 12-4 15v1z"/>
    <path fill="#1d2969" d="M210 319l-10-8 22-29 10 7 9-14 2 1-39 54-1-2 7-9z"/>
    <path fill="#1c2868" d="M239 306c3 2 5 0 6-2h-1a3 3 0 01-4 2h-1z"/>
  </g>
  <defs>
    <linearGradient id="_Linear1" x1="0" x2="1" y1="0" y2="0" gradientTransform="matrix(71 81.2 -81.2 71 700 310.2)" gradientUnits="userSpaceOnUse">
      <stop offset="0" stop-color="#a1c3fc"/>
      <stop offset="1" stop-color="#6ea2ed"/>
    </linearGradient>
    <linearGradient id="_Linear2" x1="0" x2="1" y1="0" y2="0" gradientTransform="matrix(-67 -4 4 -67 556.7 412.6)" gradientUnits="userSpaceOnUse">
      <stop offset="0" stop-color="#f5f3f3"/>
      <stop offset=".3" stop-color="#f7f5f5"/>
      <stop offset="1" stop-color="#d8d8d8"/>
    </linearGradient>
    <linearGradient id="_Linear3" x1="0" x2="1" y1="0" y2="0" gradientTransform="rotate(73.2 -85.4 390.8) scale(65.3)" gradientUnits="userSpaceOnUse">
      <stop offset="0" stop-color="#fcb30b"/>
      <stop offset="1" stop-color="#e2950c"/>
    </linearGradient>
    <linearGradient id="_Linear4" x1="0" x2="1" y1="0" y2="0" gradientTransform="rotate(-144.2 239.2 206) scale(43.5)" gradientUnits="userSpaceOnUse">
      <stop offset="0" stop-color="#428dfc"/>
      <stop offset="1" stop-color="#1479f2"/>
    </linearGradient>
    <linearGradient id="_Linear5" x1="0" x2="1" y1="0" y2="0" gradientTransform="rotate(132 45.5 242.1) scale(40.2)" gradientUnits="userSpaceOnUse">
      <stop offset="0" stop-color="#efefef"/>
      <stop offset="1" stop-color="#d8d8d8"/>
    </linearGradient>
    <linearGradient id="_Linear6" x1="0" x2="1" y1="0" y2="0" gradientTransform="rotate(-113.6 227.9 86) scale(13.5)" gradientUnits="userSpaceOnUse">
      <stop offset="0" stop-color="#ffbeb5"/>
      <stop offset="1" stop-color="#f49e95"/>
    </linearGradient>
  </defs>
</svg>
