<svg xmlns="http://www.w3.org/2000/svg" viewBox="0 0 1729.5 1153" style="enable-background:new 0 0 1729.5 1153" xml:space="preserve" width="1730" height="1153"><path d="m1293.2 497.2-1.6-.3c2.4-12.3 5.5-22.5 8.4-32.3 5.4-18.1 10.6-35.2 10.3-62.2h1.6c.3 27.3-4.9 44.5-10.3 62.7-3 9.8-6 19.9-8.4 32.1z" style="fill:#a1c3fc"/><path style="fill:#eee" d="M1130.1 680.6h190.5v8h-190.5z"/><path d="M1447.1 576.3c0-3.3 0-6.7.1-10 1.4-.2 2.9-.6 4.3-1-1.4-.1-2.8-.3-4.2-.5 0-1.4 0-2.9-.1-4.4 1.3-.6 2.5-1.4 3.7-2.2-1.3.3-2.5.5-3.8.8-.2-1.5-.5-2.9-.9-4.3 1-.5 2-1.1 2.8-1.9-1.3-.1-2.6-.2-3.8-.4-.3-.6-.8-1.2-1.2-1.7-.7-.8-1.7-1.5-2.7-1.7-1.7-.2-3 1.2-3.9 2.8 0-.1-.1-.2-.1-.3-.8-1.2-2.1-2-3.5-2.6.9 1.6 1.8 3.3 2.7 4.9-.3.9-.6 1.7-.9 2.6-1.5.5-3 1.1-4.5 1.7 1.3.3 2.6.6 3.9.7-.4 2-.7 4-.9 6.1-1.4.1-2.8.2-4.1.2 1.3.6 2.7 1 4 1.4-.1 2-.1 4-.1 6.1-1.7-.5-3.6-.8-5.4-.6 1.7 1.2 3.5 2.1 5.5 2.8.2 4.6.7 9.1 1.1 13.3 3.2-1.9 8.7.9 12.1-.6 0-3.5 0-6.9.1-10.4 1.2.1 2.4.2 3.6.6-1.3-.4-2.5-.9-3.8-1.4z" style="fill:#a1c3fc"/><path d="M1373.1 417.3c-1.2-1.5-2.4-2.9-3-4.6-1.3-3.7.6-7.7 1.9-11.4s1.9-8.5-1.2-11c-2.6-2-7-1.8-8.3-4.9-.5-1.1-.3-2.4-.5-3.6-.7-5.2-7.4-7.7-12.4-6-5 1.7-8.4 6.1-11.6 10.3-1.2 1.5-2.2 3.9-.7 5.1 1.4 1.1 3.9-.2 5.2 1.1 1 1 .4 2.8-.6 3.9s-2.3 2-2.6 3.5c-.5 2.7 3 4.4 5.7 4.7 2.8.4 6.3 1.1 6.8 3.8-3.7 4.4-7.6 9.9-5.8 15.4 2.2 6.3 9.8 9 15.7 12.1 10.8 5.8 15.2 17.9 17.5 30 6.9-15.7 4.5-35.1-6.1-48.4z" style="fill:#dfebfe"/><path d="M1374.8 307.3c-.1 1.1-.2 2.1-.2 3.2 0 15.3 12.4 27.8 27.8 27.8 15.3 0 27.8-12.4 27.8-27.8 0-1.1-.1-2.2-.2-3.2h-55.2z" style="fill:#cfe0fd"/><path style="fill:#a1c3fc" d="m1318.5 255.5.2-13.3-.3-.1-5.2 12.2z"/><path transform="rotate(-77.942 1307.357 294.618)" style="fill:#a1c3fc" d="M1266.4 291.9h81.8v5.4h-81.8z"/><path style="fill:#a1c3fc" d="m1315.9 247.8 2.7.6.1-6.2-.3-.1zM1301.9 269.6l-3-10.3h-.3l-1.1 10.7z"/><path transform="rotate(-5.042 1302.524 302.657) scale(.99997)" style="fill:#a1c3fc" d="M1300.4 269.4h4.4v66.4h-4.4z"/><path style="fill:#a1c3fc" d="m1298.1 264.3 2.2-.2-1.4-4.8h-.3zM1262.7 410h18v87.7h-18zM1296.7 629.1h10.5v51.3h-10.5zM1282.8 629.1h10.5v51.3h-10.5zM1269 629.1h10.5v51.3H1269zM1255.1 629.1h10.5v51.3h-10.5z"/><path transform="rotate(-71.53 1243.28 654.714)" style="fill:#a1c3fc" d="M1217.6 649.5h51.3V660h-51.3z"/><path transform="rotate(-75.972 1248.382 460.623)" style="fill:#bfd6fd" d="M1211.3 455.6h74.1v10.2h-74.1z"/><path transform="rotate(-70.361 1233.832 460.668)" style="fill:#a1c3fc" d="M1196.7 455.6h74.1v10.2h-74.1z"/><path style="fill:#a1c3fc" d="M1330.8 769.6h18v87.7h-18z"/><path transform="rotate(-14.023 1363.092 820.097)" style="fill:#a1c3fc" d="M1358 783.2h10.2v74.1H1358z"/><path transform="rotate(-19.644 1377.508 820.306)" style="fill:#a1c3fc" d="M1372.6 783.2h10.2v74.1h-10.2z"/><path style="fill:#a1c3fc" d="M1402.8 498.2h-46.9l-8.3-54.8h63.5zM1425.9 339h-47l-8.2-7.8h63.4z"/><path style="fill:#cee0fd" d="M1354.7 730h90.1v17.4h-90.1z"/><path style="fill:#a1c3fc" d="M1341.4 712.6h90.1V730h-90.1zM1233 592.1h90.1v17.4H1233z"/><path style="fill:#d6d7d8" d="M1219.8 574.7h90.1v17.4h-90.1z"/><path style="fill:#a1c3fc" d="M1242.2 557.1h72.4v17.4h-72.4zM1378.7 451.9c-.2-10.4.4-20.8 1.7-31.2"/><path d="M1378.7 452.7c-.4 0-.8-.4-.8-.8-.2-10.4.4-20.9 1.7-31.3.1-.4.5-.8.9-.7.4.1.8.5.7.9-1.3 10.3-1.9 20.7-1.7 31.1 0 .4-.4.8-.8.8z" style="fill:#a1c3fc"/><ellipse transform="rotate(-83.01 1380.619 419.696)" cx="1380.7" cy="419.7" rx="2" ry="5.3" style="fill:#a1c3fc"/><path d="M1380.5 419.5c.8-5.8 1.8-11.7 3-17.4" style="fill:#a1c3fc"/><path d="M1380.5 420.3h-.1c-.4-.1-.7-.5-.7-.9.8-5.9 1.8-11.7 3-17.5.1-.4.5-.7 1-.6.4.1.7.5.6 1-1.2 5.7-2.2 11.6-3 17.4 0 .3-.4.6-.8.6z" style="fill:#a1c3fc"/><ellipse transform="rotate(-88.611 1383.874 400.752)" cx="1383.9" cy="400.7" rx="2.4" ry="6.4" style="fill:#a1c3fc"/><path d="M1383.9 400.5c1.1-4.8 2.3-9.5 3.6-14.2" style="fill:#a1c3fc"/><path d="M1383.9 401.3h-.2c-.4-.1-.7-.5-.6-1 1.1-4.8 2.3-9.5 3.7-14.2.1-.4.6-.7 1-.5.4.1.7.6.5 1-1.4 4.6-2.6 9.4-3.6 14.1-.1.4-.4.6-.8.6z" style="fill:#a1c3fc"/><ellipse transform="rotate(-70.683 1388.412 384.978)" cx="1388.4" cy="385" rx="2.4" ry="6.4" style="fill:#a1c3fc"/><path d="M1388.1 384.4c1.1-3.5 2.2-7.1 3.5-10.6" style="fill:#a1c3fc"/><path d="M1388.1 385.2h-.2c-.4-.1-.7-.6-.5-1 1.1-3.6 2.3-7.1 3.5-10.6.2-.4.6-.6 1-.5.4.2.6.6.5 1-1.2 3.5-2.4 7-3.5 10.5-.1.4-.4.6-.8.6z" style="fill:#a1c3fc"/><ellipse transform="rotate(-70.683 1392.32 372.062)" cx="1392.3" cy="372.1" rx="3.2" ry="8.6" style="fill:#a1c3fc"/><path d="m1392.5 371.5 2.7-6.9M1392.5 372.3h-.3c-.4-.2-.6-.6-.5-1l2.7-6.9c.2-.4.6-.6 1-.4.4.2.6.6.4 1l-2.7 6.9c0 .2-.3.4-.6.4z" style="fill:#a1c3fc"/><path d="M1292.6 505.8h-118.5V387.2h118.5v118.6zm-110.5-8h102.5V395.2h-102.5v102.6z" style="fill:#eee"/><path d="M1454.4 347.1h-104.1V242.9h104.1v104.2zm-96.1-8h88.1V251h-88.1v88.1zM1470.3 616.5h-307.4V497.8h307.4v118.7zm-299.4-8.1h291.4V505.8h-291.4v102.6zM1470.3 864.9h-307.4V746.3h307.4v118.6zm-299.4-8h291.4V754.3h-291.4v102.6z" style="fill:#d6d7d8"/><path style="fill:#d6d7d8" d="M1315 344.7h8v158.7h-8zM1315 612.4h8v248.5h-8z"/><path style="fill:#eee" d="M1261.4 339.1h225.7v8h-225.7zM1428.6 584.3h24.2v24.2h-24.2z"/><path style="fill:#a1c3fc" d="M1244.2 746.2h-39.6l-6.9-6.6h53.4z"/><path d="M1201.2 719.5c-.1.9-.2 1.8-.2 2.7 0 12.9 10.5 23.4 23.4 23.4 12.9 0 23.4-10.5 23.4-23.4 0-.9-.1-1.8-.2-2.7h-46.4zM1206.4 802.9h66.8v54.8h-66.8z" style="fill:#a1c3fc"/><path style="fill:#a1c3fc" d="m1225.6 806.7-7.2-7.2 7.2-7.2 7.2 7.2zM1254.1 806.7l-7.1-7.2 7.1-7.2 7.2 7.2z"/><path d="M1227.9 797.9h-6.4c0-7.4.2-15.1 2.7-20.1 2.7-5.4 9.8-11.1 16.6-10.9 8.3.3 14.7 8.1 16.1 13.4 1.4 5.4.8 15.1.6 17l-6.4-.5c.4-5.1.4-11.8-.4-15-.7-2.8-4.9-8.3-10.1-8.5-3.6-.1-8.6 3.3-10.6 7.3-2.1 4.1-2.1 12.3-2.1 17.3zM1285.4 289.7h32v50.2h-32zM1302.2 497.3l-1.5-.4c11.6-43 15.3-78.1 12-113.8l1.6-.1c3.3 35.8-.4 71.1-12.1 114.3z" style="fill:#a1c3fc"/><path d="m1297.4 497.2-1.6-.3c1.5-7.7 3.2-15.3 4.8-22.6 6-27.4 11.6-53.2 11.2-85.7h1.6c.4 32.7-5.3 58.6-11.3 86.1-1.5 7.3-3.1 14.8-4.7 22.5z" style="fill:#a1c3fc"/><g><linearGradient id="a" gradientUnits="userSpaceOnUse" x1="5254.014" y1="-2935.372" x2="5520.492" y2="-2935.372" gradientTransform="matrix(.1174 0 0 -.1172 416.383 493.475)"><stop offset=".09" style="stop-color:#eee"/><stop offset=".818" style="stop-color:#d6d7d8"/></linearGradient><path style="fill:url(#a)" d="M1064.6 958.6h-9.4l-21.9-242.2h9.3l.1-.2z"/><linearGradient id="b" gradientUnits="userSpaceOnUse" x1="4365.048" y1="-2935.372" x2="4631.526" y2="-2935.372" gradientTransform="matrix(.1174 0 0 -.1172 416.383 493.475)"><stop offset=".09" style="stop-color:#eee"/><stop offset=".818" style="stop-color:#d6d7d8"/></linearGradient><path style="fill:url(#b)" d="M960.3 958.6h-9.4L929 716.4h9.2l.1-.2z"/><linearGradient id="c" gradientUnits="userSpaceOnUse" x1="-2656.423" y1="-2935.372" x2="-2389.946" y2="-2935.372" gradientTransform="matrix(-.1174 0 0 -.1172 520.812 493.475)"><stop offset=".09" style="stop-color:#eee"/><stop offset=".818" style="stop-color:#d6d7d8"/></linearGradient><path style="fill:url(#c)" d="M801.5 958.6h9.4l21.9-242.2h-9.3l-.1-.2z"/><linearGradient id="d" gradientUnits="userSpaceOnUse" x1="-1802.186" y1="-2935.372" x2="-1535.708" y2="-2935.372" gradientTransform="matrix(-.1174 0 0 -.1172 520.812 493.475)"><stop offset=".09" style="stop-color:#eee"/><stop offset=".818" style="stop-color:#d6d7d8"/></linearGradient><path style="fill:url(#d)" d="M701.2 958.6h9.4l21.9-242.2h-9.3l-.1-.2z"/><linearGradient id="e" gradientUnits="userSpaceOnUse" x1="5491.589" y1="-1990.359" x2="3856.036" y2="-1710.51" gradientTransform="matrix(.1174 0 0 -.1172 416.383 493.475)"><stop offset=".09" style="stop-color:#eee"/><stop offset=".818" style="stop-color:#d6d7d8"/></linearGradient><path style="fill:url(#e)" d="M823.4 716.4h219.2l6.7-22.2H823.4z"/><linearGradient id="f" gradientUnits="userSpaceOnUse" x1="5502.22" y1="-958.165" x2="4136.681" y2="-430.157" gradientTransform="matrix(.1174 0 0 -.1172 416.383 493.475)"><stop offset=".09" style="stop-color:#eee"/><stop offset=".818" style="stop-color:#d6d7d8"/></linearGradient><path style="fill:url(#f)" d="M1049.3 694.2H924.9l65.5-209.9h124.5z"/><linearGradient id="g" gradientUnits="userSpaceOnUse" x1="-12826.681" y1="-1629.187" x2="-9394.764" y2="-2085.673" gradientTransform="matrix(-.02568 0 0 -.1172 478.397 493.475)"><stop offset=".09" style="stop-color:#eee"/><stop offset=".818" style="stop-color:#d6d7d8"/></linearGradient><path style="fill:url(#g)" d="m823.4 716.4-100.4.2v-22.4h100.4z"/></g><g><path d="M612.4 580.8v-80.2h-46.7v65.1c16.5 4.2 32.1 9.3 46.7 15.1z" style="fill:#d6d7d8"/><path d="M642.5 594.5v-73.1h-52.4v51.4c19 6.1 36.6 13.4 52.4 21.7z" style="fill:#e3edfe"/><path d="M403.8 552.1v-21.8H349v28.9c17.6-3.4 35.9-5.7 54.8-7.1z" style="fill:#d4e3fe"/><linearGradient id="h" gradientUnits="userSpaceOnUse" x1="310.285" y1="888.87" x2="307.029" y2="796.61" gradientTransform="matrix(.792 0 0 -.791 81.094 1221.224)"><stop offset="0" style="stop-color:#eee"/><stop offset="1" style="stop-color:#d6d7d8"/></linearGradient><path d="M349.1 559.1v-45.5h-45.9v56.6c14.6-4.4 30-8.1 45.9-11.1z" style="fill:url(#h)"/><linearGradient id="i" gradientUnits="userSpaceOnUse" x1="707.945" y1="800.849" x2="754.663" y2="800.849" gradientTransform="matrix(.792 0 0 -.791 81.094 1221.224)"><stop offset="0" style="stop-color:#a1c3fc"/><stop offset="1" style="stop-color:#78a9ef"/></linearGradient><path d="m678.8 617.4-23-59.3-14 36c13.6 7.1 26 14.9 37 23.3z" style="opacity:.7;fill:url(#i);enable-background:new"/><linearGradient id="j" gradientUnits="userSpaceOnUse" x1="183.655" y1="827.64" x2="246.38" y2="827.64" gradientTransform="matrix(.792 0 0 -.791 81.094 1221.224)"><stop offset="0" style="stop-color:#a1c3fc"/><stop offset="1" style="stop-color:#78a9ef"/></linearGradient><path d="m276.2 579.4-20-49.9-29.7 74.1c14.9-9.1 31.5-17.2 49.7-24.2z" style="opacity:.7;fill:url(#j);enable-background:new"/><path style="fill:#fff" d="M310.9 521.7h6.2v15h-6.2zM324.6 521.7h13.3v15h-13.3zM311.1 543.1h14.4v15h-14.4zM626.7 531.6h7.1v18.7h-7.1zM603 531.6h15.2v18.7H603zM617.2 558.2h16.4v18.7h-16.4z"/><path d="M552.5 363.2c-17.4 0-34.8-1.4-51.8-2.8-6.3-.5-12.4-1.3-16.5-5.4-3.1-3-4.4-7.6-3.4-12.4 1.1-5.5 4.9-10.3 9.6-12.2 9.6-3.9 20.6 1.8 25.7 9.5.2.4.1.9-.2 1.1-.4.2-.9.1-1.1-.2-4.7-7.2-14.9-12.5-23.8-8.9-4.3 1.7-7.7 6.1-8.6 11.1-.9 4.3.2 8.3 3 11 3.8 3.7 9.5 4.4 15.6 4.9 28.2 2.3 57.3 4.7 85.8.5 3.9-.6 7.8-1.5 9.9-4.3 3.1-4.2.6-10.5-3.3-14.4-5.5-5.5-13.9-8.8-23.6-9.3-8.5-.5-17.2 1.1-25.6 2.6l-.6.1c-2.1.4-5 .9-7.5-.3-1.8-.9-2.9-2.5-4-4-.3-.4-.6-.8-.9-1.1-3.3-4.2-8.7-6.8-14.7-7-6-.2-11.5 1.9-15.1 5.9-.3.3-.8.3-1.1.1-.3-.3-.3-.8-.1-1.1 3.9-4.3 9.9-6.7 16.4-6.4 6.5.2 12.2 3 15.9 7.6l.9 1.2c1.1 1.4 2 2.8 3.5 3.5 1.8.9 4 .6 6.5.2l.6-.1c8.5-1.5 17.2-3.1 25.9-2.6 10.1.6 18.8 4 24.7 9.7 4.5 4.4 7.1 11.5 3.5 16.4-2.4 3.3-6.7 4.3-11 4.9-11.6 1.6-23.1 2.2-34.6 2.2zM583.8 463.6c-3.6 0-7.2-.3-10.7-1-5.4-1.1-8.8-3.4-9.8-6.7-.8-2.7.1-6 2.6-8.8 2.4-2.8 5.8-4.5 9.1-4.8 3-.2 6 .8 8.1 2.7.3.3.3.8 0 1.1-.3.3-.8.3-1.1 0-1.8-1.6-4.3-2.5-6.8-2.3-2.9.2-5.8 1.8-8 4.3-2.1 2.3-2.9 5.1-2.3 7.3 1 3.4 5.3 4.9 8.6 5.6 5.7 1.1 11.5 1.3 17.2.6 2.6-.3 5.8-1 7.8-3.1.9-.9 1.5-2.3.9-3.4-.4-.7-1.2-1.2-2-1.6-5.3-2.4-11.4-2.6-16.8-.5-.4.2-.9 0-1-.5-.2-.4 0-.9.5-1 5.8-2.2 12.4-2 18 .5 1.1.5 2.2 1.1 2.8 2.3.9 1.9-.1 4-1.2 5.2-2.3 2.5-5.9 3.2-8.8 3.6-2.5.3-4.8.5-7.1.5zM245.1 498.5c-1.5 0-2.8-.1-3.9-.5-3.6-.9-7-3.2-6.6-6.3.6-4.6 3.6-10.1 8.1-11.5 1.4-.4 3-.7 4.8-.7 2.3 0 4.7.3 7 .6 2.5.3 4.9.7 7 .6.8 0 1.7-.1 2.5-.1 2.1 0 4.9.2 7.4 1.4 3.1 1.5 5.7 5.3 4.5 8.9-1.4 4-6.4 5-10 5.4l-15.9 1.8c-1.5.2-3.2.4-4.9.4zm2.4-17.5c-1.7 0-3.1.2-4.3.6-3.9 1.3-6.5 6.1-7 10.3-.3 2.4 3.4 4.1 5.4 4.6 1.1.3 2.2.4 3.5.4 1.6 0 3.2-.2 4.7-.4l15.9-1.8c3.5-.4 7.6-1.3 8.7-4.4 1-2.7-1.2-5.7-3.7-6.9-2.2-1.1-4.7-1.2-6.7-1.2-.8 0-1.7 0-2.5.1-2.3.1-4.8-.3-7.3-.6-2.2-.3-4.5-.7-6.7-.7zM389.7 454.6c-5.6 0-11.1-.1-16.4-.2h-3.1c-3.8 0-8 0-11.1-1.4-3.8-1.8-5.5-2.9-6.7-7.3-1.7-6.2 1-10 4.7-14.2 4.8-5.5 11.8-6 19.8-5.9.4 0 .8.4.8.8s-.4.8-.8.8c-7.5 0-14.2.4-18.6 5.4-4.1 4.7-5.7 7.7-4.3 12.8 1 3.7 2.3 4.6 5.9 6.2 2.7 1.3 6.8 1.2 10.4 1.2h3.2c8.9.3 18.5.3 27.7.2 4.8 0 9.5-.1 14 0 7.2.1 13.5.2 16.7-5.8 2.6-4.8 1.7-9.4-2.4-13.4-4-3.9-10.7-4.8-15.5-2-.3.2-.7.1-1-.2-.2-.3-.3-.7-.1-1 2.3-3.2.6-7.9-2.2-10.9-3.6-3.8-9.8-5.5-15.4-4.2-7.1 1.6-12.5 7.3-15.3 16-.1.4-.6.6-1 .5-.4-.1-.6-.6-.5-1 4-12.5 12-16.1 16.5-17.1 6.3-1.4 13 .4 16.9 4.7 2.7 2.9 4.4 7.2 3.3 10.8 5.2-1.9 11.4-.6 15.4 3.2 4.6 4.5 5.5 9.9 2.7 15.3-3.7 6.9-10.7 6.8-18.2 6.7-4.5-.1-9.2 0-13.9 0-3.9-.1-7.7 0-11.5 0z" style="fill:#a1c3fc"/><path d="M259.6 586.3v-15.6h-66.5v57.8c17.6-16.1 40.1-30.4 66.5-42.2z" style="fill:#e5eefe"/><path d="M442.6 550.7c8.6 0 17.2.2 25.6.6v-32.7h-92.4v36.3c21.4-2.8 43.8-4.2 66.8-4.2z" style="fill:#eee"/><path d="M342.8 560.3v-8.7h-10.7v10.9c3.5-.7 7.1-1.4 10.7-2.2z" style="fill:#d6d7d8"/><path d="M609.6 579.7v-10.8h-12.2v6.3c4.1 1.5 8.2 3 12.2 4.5z" style="fill:#d0e1fd"/><path d="M579.1 569.4v-40.9h-66.5v26.9c23.4 3.1 45.7 7.9 66.5 14z" style="fill:#f1f6ff"/></g><g><path d="M749.4 486.8c-.4 4.3 2.1 12.5 2.6 17.8.2 2.4-.1 7.8 1.1 9.9 2 3.4 12.9 2.2 16.8 2.2 6.8-.1 12.9-1.9 19.2-4.4 9.9-3.9 2.1-6.8-4-8.1 2.7-1.3 12.6-2.7 12.5-7.5-.1-5.8-10.7-3.4-13.3-4.1 4-3.8 9.6-6.8 9.9-13.2.3-6.8-8.1-8.2-13.4-8.2-6.7.1-13.8 2.4-19.9 5.3-5.1 2.5-7.3 6.9-11.7 9.8 0 .4-.5.6.2.5z" style="fill:#f2a19c"/><path d="M761.2 490.8c-6 13.6-10.9 70.9-32.2 64.3 3.8-13.9 9.2-28.5 12.7-42.4 4.3-17.5 2.9-29.2 15.6-40.5 27-24 59.7-3.8 92.7-10.5-.2 9.6 3.5 18.4 1.8 27.6-13.3.7-35.5-9.7-45.3-1.1-18.9 16.6-12.9 9.2-25.6 21.8-10.3 10.2-23.3 27.7-21.4 6.3 1.1-11.7 14.5-22.5 18.6-33.2-8.7-.8-16.7 9.6-16.9 7.7z" style="fill:#ffbeb6"/><path d="M788.9 692.3c12.6 7.9 27.7 11.8 40.7 19.7 9.7 5.9 18.8 12.2 28.8 17.4 12.9 6.7 29.8 15.8 44.2 17.4 46.4 5.1-3.6-51.7-13.9-65.2-5.9-7.6-11.7-14.9-17.6-22.2-2.9-3.5-4.7-6.1-8.3-9.1-2-1.7-7.9-8.8-9.9-9.4-4.5-1.2-13.2 6.1-17.5 8.3-9.1 4.7-18.3 9-27.2 13.9-9.1 5-18.9 8.6-27.3 14.2 5.7 9.2-1.2 9.3 8 15z" style="fill:#428dfc"/><path d="M806.3 567.2c-56.4 2.3-98.4-1-136.7 4.7-39.7 5.9-114.8 10.6-104.6 72.7 13.5 82.1 180.5 48.1 235.2 48.1 20 0 59.1 2.4 88.6 2.4 9.4-36 6.2-88.3 0-124.9-29.2-1.4-87.1-1.5-82.5-3z" style="fill:#151a4f"/><linearGradient id="k" gradientUnits="userSpaceOnUse" x1="204.538" y1="876.997" x2="318.976" y2="876.997" gradientTransform="matrix(2.996 0 0 -2.986 76.309 3239.82)"><stop offset="0" style="stop-color:#23286b"/><stop offset="1" style="stop-color:#151a4f"/></linearGradient><path d="M1031.3 540.5c0 45.5 7.2 108.9-26.9 144.2-34.3 35.6-87 16-131.2 16-43.9.1-91.2 4-134-2.1-49.3-7-72.5-76.7-21.4-104.8 21.5-11.8 64.1-14.8 88.7-17.2 29.4-2.9 62.2-.8 90.7-8.3 1.1-13 .1-20.1-2.2-32.2 34.4 12.8 113 2.8 136.3 4.4z" style="fill:url(#k)"/><linearGradient id="l" gradientUnits="userSpaceOnUse" x1="250.515" y1="951.796" x2="295.163" y2="907.149" gradientTransform="matrix(2.996 0 0 -2.986 76.309 3239.82)"><stop offset="0" style="stop-color:#428dfc"/><stop offset="1" style="stop-color:#1d72d8"/></linearGradient><path d="M858.1 296.2c42-1.1 66.5 13.4 84 26.5 25.2 19 50 38.6 66.1 65.2 35.4 58.6 34.7 123.2 28.3 186.2-36.2 2.4-232.2-2.3-232.2-2.3l-.7-234.4s9.5-24.3 19.2-31.9c8.1-6.5 18.1-8.8 35.3-9.3z" style="fill:url(#l)"/><path d="M769.3 322.8c19.3 7.6 27 14.6 48.6 27.8 11.5 7.1 22.6 4.7 30.7-7.7 4.9-7.6 13.6-21.5 11.6-31.2-2.4-11.8-13.3-15.1-23.2-20.9-7.4-4.3-23.4-20.3-30.8-20.9-12-1.1-38.9 39.8-36.9 52.9z" style="fill:#f2a19c"/><linearGradient id="m" gradientUnits="userSpaceOnUse" x1="234.366" y1="986.171" x2="224.515" y2="998.061" gradientTransform="matrix(2.996 0 0 -2.986 76.309 3239.82)"><stop offset="0" style="stop-color:#ffbeb6"/><stop offset="1" style="stop-color:#f8afa9"/></linearGradient><path d="M696.4 256.8c-13 42.2 31.1 74 67.8 74.5 23.8.3 40-16.2 50.8-39.4 30.1-64.7-66.9-109.2-107.2-58.6-4.9 6.2-9 12.8-10.7 20.5-1.8 1 .2 5.4-.7 3z" style="fill:url(#m)"/><path d="M721.1 206.7c19.8-11.6 42.6-16.2 65.1-5.9 62.7 28.7 31.4 94.9 31.4 94.9l-122.3-39.2c-.1 0-6.8-30.7 25.8-49.8z" style="fill:#23286b"/><linearGradient id="n" gradientUnits="userSpaceOnUse" x1="235.338" y1="988.189" x2="225.78" y2="999.725" gradientTransform="matrix(2.996 0 0 -2.986 76.309 3239.82)"><stop offset="0" style="stop-color:#ffbeb6"/><stop offset="1" style="stop-color:#f8afa9"/></linearGradient><path d="M754.4 281.4c3.4-9.8 17.2-19.9 27.7-15 13 6.1 11.5 21.8 8.8 32.7-10-5.6-25.1-13.1-36.3-16 .9.3-1-2-.2-1.7z" style="fill:url(#n)"/><ellipse cx="791.5" cy="295.2" rx="25.5" ry="25.4" style="fill:#a1c3fc"/><path style="fill:#89b3f4" d="M690.5 557.5h140.2v20.4H690.5z"/><path style="fill:#a1c3fc" d="M519.6 433.8h174.2l40.1 144.1H559.7z"/><ellipse cx="621.5" cy="508.3" rx="15" ry="14.9" style="fill:#89b3f4"/><linearGradient id="o" gradientUnits="userSpaceOnUse" x1="243.212" y1="892.563" x2="258.212" y2="901.063" gradientTransform="matrix(2.996 0 0 -2.986 76.309 3239.82)"><stop offset="0" style="stop-color:#ffbeb6"/><stop offset="1" style="stop-color:#f8afa9"/></linearGradient><path d="M909.1 548.4c-4.7-9.9-10.3-19.5-15.1-29.2-2.4-4.8-.8-7.2-7-7.2-2.7 0-8.3 4.4-10.9 5.2.7-.8-2.9-.2-2-.8-12.3 4.5-23.7 8.2-35.5 13.8-5.7 2.7-11.4 4.8-17.1 7.3-1.9-.4-3.7-.8-5.7-1-6.7-.6-11 1.3-17.2 3.4-11.2 3.9-22.6 4.1-32.1 11.5-3.9 10.8 19.4 8.7 31.7 7.5-3.9 8.3-7.4 16.8-11.6 24.7-2.2 4.1-9.1 13.5-1.7 17.2 5.4 2.6 6.1-1.8 9.3-2.5 6.5-1.4 4.8-1.1 12.6.4 9.1 1.7 15.1-1.7 22.8-1.1 3.8.3 7.2 4.3 11 2.1 1.6-.9 2.7-9 3.3-10.7 1.7-5.1 2.9-10.8 4.1-16.5 5.3-1.3 10.6-2.5 15.4-4.1 15.9-5.3 29.6-15.8 45.7-20z" style="fill:url(#o)"/><path d="M716.5 321c-5.9 0-12.7-3.6-17.7-9.5-3.7-4.3-6-9.3-6.6-14.1-.6-5 .7-9.2 3.8-11.9 2-1.7 4.6-2.6 7.6-2.6 5.9 0 12.7 3.6 17.7 9.5 3.7 4.3 6 9.3 6.6 14.1.6 5-.7 9.2-3.8 11.9-2 1.7-4.7 2.6-7.6 2.6zm-12.9-35.1c-2.3 0-4.2.6-5.7 1.9-2.3 2-3.3 5.2-2.8 9.2.5 4.2 2.6 8.7 5.9 12.5 4.4 5.2 10.3 8.4 15.4 8.4 2.3 0 4.2-.6 5.7-1.9 2.3-2 3.3-5.2 2.8-9.2-.5-4.2-2.6-8.7-5.9-12.5-4.4-5.1-10.3-8.4-15.4-8.4z" style="fill:#23286b"/><linearGradient id="p" gradientUnits="userSpaceOnUse" x1="260.994" y1="939.174" x2="322.178" y2="909.409" gradientTransform="matrix(2.996 0 0 -2.986 76.309 3239.82)"><stop offset="0" style="stop-color:#428dfc"/><stop offset="1" style="stop-color:#1d72d8"/></linearGradient><path d="M884.5 375.5c-3.9-21.2-2.9-55.2 27-56.4 24.4-1 48.1 36.1 60.2 53.5 29.3 42.2 49.4 84.2 60.2 133.3-38 37.5-96.6 67.6-144 89.6-14.3-22.3-31.4-46.3-39.6-71.5 37.8-20.5 63-29.7 95.7-48.2-13.9-10.7-53.4-67.5-59.5-100.3z" style="fill:url(#p)"/><path d="M825.6 297h-.4c-.8-.2-1.3-1-1.1-1.8 6.4-24.8 3.8-49.4-7-67.3-7.8-12.9-19.5-21.5-34-25-.8-.2-1.3-1-1.1-1.8.2-.8 1-1.3 1.8-1.1 15.2 3.7 27.6 12.8 35.8 26.4 11.2 18.6 13.9 44 7.4 69.6-.1.6-.7 1-1.4 1z" style="fill:#23286b"/><path d="m808.7 282.9-8.5-3c1.5-4.3 3-8.2 4.4-12 4.5-11.8 8.3-22 9.6-35 2.2-22-8.5-37.7-27.8-44.3-31.6-10.9-59.1 14.6-59.1 14.6-5.9 3-12.7 7-18.3 12.5 9-28.7 47.2-45.3 80-35.7 23.7 7 36.8 27.6 34.2 53.8-1.4 14.2-5.5 24.9-10.2 37.3-1.3 3.7-2.8 7.6-4.3 11.8z" style="fill:#a1c3fc"/><ellipse cx="791.5" cy="295.2" rx="16.9" ry="16.8" style="fill:#b9d3fd"/><path d="M946 354.1c.1.2.4.4.6.3.2-.1.4-.4.3-.6-.1-.2-.4-.4-.6-.3-.2.1-.3.4-.3.6zm32.6 34.5c-.1.2 0 .5.2.6.2.1.5 0 .6-.2v-.1c.1-.2 0-.5-.2-.6-.3 0-.5.1-.6.3zm-15.4-18.5c-.2.2-.2.5 0 .7.2.2.5.2.7 0 .2-.2.2-.5 0-.7-.2-.2-.5-.2-.7 0zm-56.7 24.6c-.4.3-.4.9-.1 1.3.3.4.8.5 1.2.2.4-.3.4-.9.1-1.3-.3-.5-.8-.5-1.2-.2zm16.7-13.5c-.4.3-.4.9-.1 1.3.3.4.9.4 1.2.1.4-.3.4-.9.1-1.2-.3-.5-.8-.5-1.2-.2zm16.7-13.5c-.4.3-.4.8-.1 1.2.3.4.8.5 1.2.2.4-.3.4-.9.1-1.3-.3-.4-.8-.4-1.2-.1zM894 350.6c.2.5.7.7 1.1.6s.7-.6.6-1.1c-.1-.5-.6-.7-1.1-.6-.5.1-.8.6-.6 1.1zm20.6-6.1c.2.5.7.7 1.1.6s.7-.6.6-1.1c-.1-.5-.6-.7-1.1-.6-.5.1-.7.6-.6 1.1zm30.7 69.6c-.2.4-.1 1 .4 1.2.4.2.9.1 1.2-.3.3-.4.1-.9-.3-1.2h-.1c-.4-.3-1-.2-1.2.3zm10.3-18.9c-.2.4-.1 1 .4 1.2.4.2 1 .1 1.2-.4.2-.4.1-1-.4-1.2-.5-.2-1 0-1.2.4zm10.2-18.8c-.2.4-.1.9.3 1.2.4.2 1 .1 1.2-.3.2-.4.1-1-.4-1.2-.3-.3-.8-.1-1.1.3zm-77.3-46.1c.1.4.5.7.9.6.4-.1.7-.5.6-.9-.1-.4-.5-.7-.9-.6-.4 0-.7.5-.6.9zm44.8 66.5c-.2.4-.1.9.2 1.1.3.2.8.1 1.1-.2.3-.4.2-.8-.2-1.1-.4-.3-.9-.2-1.1.2zM944 381c-.2.4-.1.8.2 1.1.3.2.8.1 1.1-.2.3-.4.2-.8-.2-1.1-.4-.3-.9-.2-1.1.2zm10.7-15.9c-.3.4-.2.8.2 1.1.3.2.8.2 1-.2v-.1c.3-.4.2-.8-.2-1.1-.2-.2-.7-.1-1 .3zm-43.1-4.3c-.4.3-.4.7-.2 1.1.2.4.7.5 1.1.2.4-.2.5-.7.2-1.1-.2-.3-.7-.4-1.1-.2zm16-10.5c-.4.2-.5.7-.3 1 .2.4.7.5 1.1.2.4-.2.5-.7.2-1.1-.1-.3-.6-.4-1-.1zm44.2 52.5c-.1.4.2.8.6.9.4.1.8-.2.9-.6.1-.4-.2-.8-.6-.9-.4-.2-.8.1-.9.6 0-.1 0 0 0 0zm3.9-18.8c-.1.4.2.9.6.9.4.1.9-.2.9-.6.1-.4-.2-.8-.6-.9-.4-.1-.8.1-.9.6zm-102.3-40.1c-.4.3-.5.9-.2 1.3s.8.5 1.3.3c.4-.3.5-.9.2-1.3-.4-.5-.9-.6-1.3-.3zm18.3-12.4c-.4.3-.5.8-.3 1.3.3.4.8.5 1.3.3.4-.3.5-.8.3-1.3-.3-.5-.9-.6-1.3-.3zm59.2 64.1c-.1.5.2 1 .7 1.1.5.1 1-.3 1.1-.8.1-.5-.2-.9-.7-1-.6-.1-1 .2-1.1.7zm4.1-21.7c-.1.5.2 1 .7 1.1.5.1 1-.2 1.1-.7.1-.5-.2-1-.7-1.1-.5-.1-.9.3-1.1.7zm-43.6-6c-.3.4-.1 1 .3 1.3.4.3 1 .1 1.3-.3.3-.4.2-1-.2-1.2-.6-.4-1.1-.2-1.4.2zm12.2-18.5c-.3.4-.2 1 .3 1.3.4.3 1 .2 1.2-.3.3-.4.2-1-.3-1.3-.4-.2-.9-.1-1.2.3zM897 363c-.3.4-.2 1 .2 1.3.4.3 1 .2 1.3-.2.3-.4.2-.9-.2-1.2-.4-.5-1-.4-1.3.1zm12.9-17.9c-.3.4-.2 1 .2 1.3.4.3 1 .2 1.3-.2.3-.4.2-1-.2-1.3-.4-.3-1-.2-1.3.2zm32.5 26.4c-.1.5.2 1 .7 1.1.5.1 1-.2 1.1-.7.1-.5-.1-1-.6-1.1-.6-.1-1.1.2-1.2.7z" style="fill:#fff"/></g><g><path d="M1493.3 729.6s-14.6-11.7-74.3 9.5c-59.7 21-90.5-13.7-90.5-13.7-5.1 32.9 13.8 53.9 36.6 64.4 12.3 8.7 26.9 13.3 41.9 13.5 23.1.2 49.8-11.1 69 7.1.8.6 1.8-.4 1.2-1.2-12.5-11.9-29.7-11.7-46.1-9.9-20.4 2.4-39.1 2.4-56.3-5.9 13.8 4.4 27.9 5.1 38.2 2.4 30.6-8.1 70 4.4 70 4.4 19-13.8 10.3-70.6 10.3-70.6z" style="fill:#23286b"/><linearGradient id="q" gradientUnits="userSpaceOnUse" x1="5207.17" y1="282.482" x2="9548.751" y2="282.482" gradientTransform="matrix(.04261 0 0 -.04254 735.405 494.296)"><stop offset="0" style="stop-color:#a1c3fc"/><stop offset=".696" style="stop-color:#81aef2"/><stop offset="1" style="stop-color:#78a9ef"/></linearGradient><path d="M1126.3 433.7c2 21.6-7.7 42.8-25.7 55.1-30.8 21.2-71.4 30.1-96.3 25-25.1-5.1-35.6-21.8-46.9-5.7 0 0 66.4 45.6 110.9 26.3 44.5-19.4 65.2-29.3 70.8-57 5.7-27.5 4.5-49.3-6.9-51.9-11.4-2.3-5.9 8.2-5.9 8.2z" style="fill:url(#q)"/><linearGradient id="r" gradientUnits="userSpaceOnUse" x1="11660.286" y1="-8267.556" x2="14079.285" y2="-8267.556" gradientTransform="matrix(.04261 0 0 -.04254 735.405 494.296)"><stop offset="0" style="stop-color:#a1c3fc"/><stop offset=".696" style="stop-color:#81aef2"/><stop offset="1" style="stop-color:#78a9ef"/></linearGradient><path d="M1328.6 725.2s-1.8 49.9-11.9 85c-9.9 34.9 12.5 77.6 17 107.5 4.5 30.1-1.2 49.1-1.2 49.1h-58.9s-.8-19.6 22.7-17.8c18.8 1.4.6-44.4-8.7-57-9.3-12.5-43.9-8.7-51.4-56.2s1.2-81.2-3.8-89.3l96.2-21.3z" style="fill:url(#r)"/><linearGradient id="s" gradientUnits="userSpaceOnUse" x1="8042.71" y1="1423.225" x2="8907.855" y2="1423.225" gradientTransform="matrix(.04261 0 0 -.04254 735.405 494.296)"><stop offset="0" style="stop-color:#a1c3fc"/><stop offset=".696" style="stop-color:#81aef2"/><stop offset="1" style="stop-color:#78a9ef"/></linearGradient><path d="M1114.9 432.1c-.6 2-3.2 7.1-13.8 7.9-8.1.6-16.2-1.4-23.3-5.7l16.2-6.9c5.9 1.8 11.9 3.2 18 4 1.3.3 2.1.5 2.9.7z" style="fill:url(#s)"/><path d="M1297.3 811.6c-29.1 35.6-4.2 84.2-6.5 109.1-1.6 16.2-6.3 31.7-13.4 46.3l-76.3-.2s6.3-22.4 27.9-19.2c21.7 3.2 23.7-41 12.3-51.7-11.5-10.9-49.6-46.3-45.9-92.7 3.6-46.3 25.3-72.5-19-109.1-44.3-36.6-66-57.2-83.6-119.4 0 0-43.3 7.3-98.5-26.3-55.2-33.5-72.6-42.6-72.6-42.6s14.4-18.6 40.7-.6c26.3 18 80.9 36.6 129.3 8.3 48.4-28.3 46.9-77.2 34.6-79.8-2.6-.6-7.7-1.2-14-2.2-21.7-3.6-57.3-13.1-49.6-48.1l1.2-4.8 1.2-3.8c.6.2 5.5 2 12.1 3.8 12.1 3.4 30.2 7.5 40.1 3.8 11.3-3.8 23.3-5.7 35.2-5.2 3.8.2 7.7.6 11.3 1.6 3.6.8 7.3 2.2 10.7 4 4.7 2.6 8.5 6.3 11.3 10.7l.6 1.2 1.2 2.4c6.3 13.7 5.1 25.3 2.4 37v.2c-2.6 11.7-6.7 23.4-5.5 37.8 2 28.3 16.8 135.3 143.5 253.1.4 0-1.6 50.7-30.7 86.4z" style="fill:#a1c3fc"/><linearGradient id="t" gradientUnits="userSpaceOnUse" x1="7163.672" y1="1042.45" x2="10731.686" y2="1042.45" gradientTransform="matrix(.04261 0 0 -.04254 735.405 494.296)"><stop offset="0" style="stop-color:#23286b"/><stop offset="1" style="stop-color:#151a4f"/></linearGradient><path d="M1192.8 420.2c0-.2 0-.4-.2-.6.2-7.7-1.2-15.1-4.5-22.2l-1.2-2.4-.6-1.2c-2.8-4.4-6.7-8.3-11.3-10.7-3.4-1.8-6.9-3.2-10.7-4-3.6-.8-7.5-1.4-11.3-1.6-.8 3.4-1.8 6.9-3.2 10.1-8.7 18-27.5 31.7-43.9 41.8-19.2 11.9-43.3 18-63.7 5.7-.4-.2-.8 0-1 .4-.2.4 0 .8.2 1 19.8 11.9 43.3 7.3 62.3-3.8 13.2-7.7 27.7-17.6 38.2-30.1-7.7 11.5-17.8 21.4-29.3 29.1-15.4 10.5-36.4 19.8-65.4 25 0 0 9.5 39.8 44.9 56.8 11.7 5.7 26.5 8.9 44.7 7.3 0 0 28.9-30.3 45.5-64-8.3 23.6-20.8 45.4-37 64.6-.6.8.4 1.8 1.2 1.2 19.8-23.2 34.2-50.7 42.1-80 1-2.6 1.8-5.2 2.4-7.9v-.2c1-4.2 1.6-8.5 2-12.7-.4-.8-.2-1.2-.2-1.6z" style="fill:url(#t)"/><path d="M1119.6 376.1c-2.4 4.6-.6 10.3 4 12.7 1.6.8 3.6 1.2 5.5 1 1.4-.2 1.4-2.4 0-2.2-3.8.6-7.7-2-8.1-6.1-.2-1.4 0-3 .6-4.2.6-1.4-1.4-2.4-2-1.2zM1077.5 378.8c-1.8 5.5-12.7 4.8-14.8 4.6l1.2-4.8 1.2-3.8c.9.3 5.7 2.1 12.4 4z" style="fill:#1c2868"/><path d="M1170.4 509.9c0 .4.4.8.8.8s.8-.4.8-.8-.4-.8-.8-.8c-.4-.1-.8.2-.8.8zm8.1 77.5c-.4.4-.4.8 0 1.2.2.4.8.4 1.2.2.4-.4.4-.8 0-1.2-.4-.4-.8-.4-1.2-.2zm14.9-13.3c-.4.4-.4.8 0 1.2.4.4.8.4 1.2 0 .4-.2.4-.8 0-1.2-.3-.2-1-.2-1.2 0zm-28.5-27.1c.2.4.6.6 1 .4.4-.2.6-.6.4-1-.2-.4-.6-.6-1-.4-.4 0-.6.6-.4 1zm18.8-6.6c.2.4.6.6 1 .4.4-.2.6-.6.4-1-.2-.4-.6-.6-1-.4-.4.1-.6.6-.4 1zm31.8 63.4c-.2.4 0 .8.4 1 .4.2.8 0 1-.4.2-.4 0-.8-.2-1-.6-.2-1 0-1.2.4zm-56.7-75.6c0 .4.4.6.8.6s.6-.4.6-.8-.4-.6-.8-.6c-.4.2-.6.4-.6.8zm17.4-4.2c0 .4.4.6.8.6s.6-.4.6-.8-.4-.6-.8-.6c-.6 0-.8.4-.6.8zm27.2 64.2c-.2.4 0 .8.2 1 .4.2.8.2 1-.2.2-.4.2-.8-.2-1-.2-.2-.6-.2-1 .2zm-20.1-95.7c0 .4.2.8.6.8.4 0 .8-.2.8-.6 0-.4-.2-.8-.6-.8-.4 0-.8.2-.8.6zm-1.6 63.2c-.4.2-.4.8-.2 1 .2.4.6.4 1 .2s.4-.6.2-1-.8-.4-1-.2zm14.4-10.5c-.4.2-.4.6-.2 1s.6.4 1 .2.4-.6.2-1-.6-.4-1-.2zm-18.2-45.4c0 .2.4.4.6.4.2 0 .4-.4.4-.6 0-.2-.4-.4-.6-.4-.4 0-.4.2-.4.6zm29.5 40.6c-.2.2 0 .4.2.6.2.2.6 0 .6-.2.2-.2 0-.6-.2-.6-.2-.2-.4 0-.6.2zm-23.9-66.1c0 .2.2.6.4.6s.6-.2.6-.4-.2-.6-.4-.6c-.4 0-.6.2-.6.4zm-38.2 67.3c-.4.2-.4.8-.2 1.2.2.4.8.4 1.2.2.4-.2.4-.8.2-1.2-.2-.4-.8-.4-1.2-.2zm16.6-12.4c-.4.2-.4.8-.2 1.2.2.4.8.4 1.2.2.4-.2.4-.8.2-1.2-.4-.4-.8-.4-1.2-.2zm16.4-12.3c-.4.2-.4.8-.2 1.2.2.4.8.4 1.2.2.4-.2.4-.8.2-1.2-.2-.4-.8-.4-1.2-.2zm-3.5-27.6c.2.4.6.8 1 .6.4-.2.8-.6.6-1-.2-.4-.6-.8-1-.6-.4.1-.8.5-.6 1zm6.9 73.1c-.2.4 0 1 .4 1.2s1 0 1.2-.4c.2-.4.2-1-.2-1.2-.6-.2-1 0-1.4.4zm10.5-17.8c-.2.4-.2 1 .4 1.2.4.2.8 0 1.2-.2.2-.4.2-1-.2-1.2-.6-.4-1-.2-1.4.2zm-12.7-69.5c.2.4.6.8 1 .6.4-.2.8-.6.6-1 0-.4-.4-.8-1-.6-.4 0-.8.4-.6 1zm-11.3 83.2c-.2.4-.2 1 .2 1.2.4.2 1 .2 1.2-.2.2-.4.2-.8-.2-1.2-.4-.2-1-.2-1.2.2zm11.3-17.1c-.2.4-.2 1 .2 1.2.4.2.8.2 1.2-.2.2-.4.2-1-.2-1.2-.6-.2-1-.2-1.2.2zm11.1-17.2c-.2.4-.2 1 .2 1.2.4.2 1 .2 1.2-.2.2-.4.2-1-.2-1.2-.4-.4-1-.2-1.2.2zm-28.1-15.2c-.4.2-.4.8-.2 1.2.2.4.8.4 1.2.2.4-.2.4-.8.2-1.2-.4-.4-.8-.4-1.2-.2zm17-11.7c-.4.2-.4.8-.2 1.2.2.4.8.4 1.2.2.4-.2.4-.8.2-1.2-.4-.4-.8-.4-1.2-.2zm13.7 36.2c-.2.4 0 .6.4.8.4.2.6 0 .8-.4.2-.4 0-.6-.4-.8-.4 0-.6 0-.8.4zm-22.4-24c-.2.2-.2.6 0 .8.2.2.6.2.8 0 .2-.2.2-.6 0-.8-.2-.3-.6-.3-.8 0zm10.7-11.2c-.2.2-.2.6 0 1 .2.2.6.2.8 0 .2-.2.2-.6 0-.8-.2-.6-.6-.6-.8-.2z" style="opacity:.86;fill:#fff;enable-background:new"/></g><g><circle cx="358.2" cy="291.2" r="63.5" style="fill:#d6e5fe"/><path d="M373.7 257c0-7.1 5.8-12.9 13-12.9s13 5.8 13 12.9c.2-.3-26 0-26 0z" style="fill:#fff"/><path d="M401.3 257H398c0-6.2-5.1-11.3-11.3-11.3s-11.3 5.1-11.3 11.3h-3.3c0-8 6.6-14.6 14.6-14.6 8.1-.1 14.6 6.6 14.6 14.6z" style="fill:#a1c3fc"/><path d="M377.6 318c7.1 0 12.9 5.8 12.9 13s-5.8 13-12.9 13v-26z" style="fill:#fff"/><path d="M377.6 345.6v-3.3c6.2 0 11.3-5.1 11.3-11.3 0-6.3-5.1-11.3-11.3-11.3v-3.3c8 0 14.6 6.6 14.6 14.6s-6.7 14.6-14.6 14.6z" style="fill:#a1c3fc"/><path d="M314.2 277.5c-7.1 0-12.4 5.8-12.9 13-.6 9.3 12.7 13.6 12.9 13v-26z" style="fill:#fff"/><path d="M314.2 305.1v-3.3c-6.2 0-11.3-5.1-11.3-11.3 0-6.3 5.1-11.3 11.3-11.3v-3.3c-8 0-14.6 6.6-14.6 14.6-.1 8 6.6 14.6 14.6 14.6zM395.4 273.2h-20.7l16.5-21.3 3.3 2.6-11.2 14.5h12.1z" style="fill:#a1c3fc"/><path transform="rotate(-52.21 315.886 308.48)" style="fill:#a1c3fc" d="M304.6 306.4h22.6v4.2h-22.6z"/><path style="fill:#a1c3fc" d="M372.7 327.6h-4.2v-20.3h20.7v4.2h-16.5z"/><path d="M366.6 326.7c0-.1 0-.3.2-.3.1 0 .3 0 .3.2 0 .1 0 .3-.2.3-.1 0-.2-.1-.3-.2zm6-1.7c0-.1 0-.3.2-.3.1 0 .3 0 .3.2 0 .1 0 .3-.2.3s-.3 0-.3-.2zm-2.9-24.3c.1-.1.2-.2.3-.1.1.1.2.2.1.3-.1.1-.2.2-.3.1-.1 0-.2-.1-.1-.3zm10.7 6.1c.1-.1.2-.2.3-.1.1.1.2.2.1.4-.1.1-.2.2-.4.1v-.4zm5.4 3c.1-.1.2-.2.3-.1.1.1.2.2.1.4-.1.1-.2.2-.3.1-.1-.2-.1-.3-.1-.4zm4.2-24.9c0-.1 0-.3.2-.3.1 0 .3 0 .3.1s0 .3-.2.3c-.1.1-.2 0-.3-.1zm-21.1 29.2c0-.1.1-.2.3-.2.1 0 .2.1.2.3 0 .1-.1.2-.3.2-.1-.1-.2-.2-.2-.3zm12.2 1.4c0-.1.1-.2.3-.2.1 0 .2.1.2.3 0 .1-.1.2-.3.2-.1 0-.2-.2-.2-.3zm6.1.7c0-.1.1-.2.2-.2s.2.1.2.3c0 .1-.1.2-.3.2 0 0-.1-.1-.1-.3zm-6.9-22.6c-.1-.1-.1-.3 0-.4.1-.1.3-.1.4 0 .1.1.1.3 0 .4-.2.1-.4.1-.4 0zm3.8 4.8c-.1-.1-.1-.3.1-.4.1-.1.3-.1.3 0 .1.1.1.3 0 .4-.2.1-.3.1-.4 0zm-41.8 21.8c0-.3.2-.5.5-.5s.5.2.5.5-.2.5-.5.5-.5-.2-.5-.5zm11.7.6c0-.3.2-.5.5-.5s.5.2.5.5-.2.5-.5.5-.5-.2-.5-.5zm11.7.6c0-.3.2-.5.5-.5s.5.2.5.5-.2.5-.5.5-.6-.2-.5-.5zm-13.8-45.8c-.2-.2-.2-.5 0-.7.2-.2.5-.2.7 0 .2.2.2.5 0 .7-.2.2-.5.2-.7 0zm7.8 8.7c-.2-.2-.2-.5 0-.7.2-.2.5-.2.7 0 .2.2.2.5 0 .7-.2.2-.5.1-.7 0zm7.8 8.6c-.2-.2-.2-.5 0-.7.2-.2.5-.2.7 0 .2.2.2.5 0 .7-.2.2-.5.2-.7 0zm15.7 17.3c-.2-.2-.2-.5 0-.7.2-.2.5-.2.7 0 .2.2.2.5 0 .7-.2.3-.5.2-.7 0zm-32.7 29.2c-.1-.3 0-.5.3-.6.3-.1.5 0 .6.3.1.3-.1.5-.3.6-.2.1-.5-.1-.6-.3zm11.1-3.9c-.1-.2 0-.5.3-.6.2-.1.5 0 .6.3.1.2 0 .5-.3.6-.3 0-.6-.1-.6-.3zm-20.2-37.2c.1-.2.4-.3.6-.2.2.1.3.4.2.6-.1.2-.4.3-.6.2-.2-.1-.3-.4-.2-.6zm10.6 5c.1-.2.4-.3.6-.2.2.1.3.4.2.6-.1.2-.4.3-.6.2-.2-.1-.3-.4-.2-.6zm10.5 5c.1-.2.4-.3.7-.2.2.1.3.4.2.6-.1.2-.4.4-.6.2-.3-.1-.4-.4-.3-.6zm11.8-39.9c-.1-.3.1-.5.3-.6.2-.1.5 0 .6.3.1.2 0 .5-.2.6-.3.1-.6-.1-.7-.3zm4 11c-.1-.3 0-.5.3-.6.3-.1.5.1.6.3.1.3 0 .5-.3.6-.3.1-.5 0-.6-.3zm3.9 11c-.1-.2 0-.5.3-.6.2-.1.5 0 .6.3.1.3 0 .5-.3.6-.3.1-.5-.1-.6-.3zm3.9 11c-.1-.3.1-.5.3-.6.2-.1.5 0 .6.3.1.2 0 .5-.3.6-.2.1-.5 0-.6-.3zm-49.3 7.3c.1-.2.3-.3.5-.3.2.1.3.3.3.5-.1.2-.3.3-.5.3s-.4-.2-.3-.5zm9.8 3.6c.1-.2.3-.3.5-.3.2.1.3.3.3.5-.1.2-.3.3-.5.3s-.4-.3-.3-.5zm9.8 3.9c-.1-.1-.1-.2 0-.3.1-.2.3-.3.5-.3.2.1.4.3.3.6 0 .1-.2.2-.3.3h-.2l-.3-.3zm9.8 3.2c.1-.2.3-.3.6-.3.2.1.3.3.3.6-.1.2-.3.3-.5.3-.3-.1-.5-.4-.4-.6zm.2-42.7c-.1-.2 0-.5.2-.6.2-.1.5 0 .6.2.1.2 0 .5-.2.6-.2.1-.5 0-.6-.2zm4.4 9.4c-.1-.2 0-.5.2-.6.2-.1.5 0 .6.2.1.2 0 .5-.2.6-.2.1-.5 0-.6-.2zm4.5 9.5c-.1-.2 0-.5.2-.6.2-.1.4 0 .5.2.1.2 0 .5-.2.6-.2.1-.4 0-.5-.2zm4.4 9.4c-.1-.2 0-.5.2-.6.2-.1.5 0 .6.2.1.2 0 .5-.2.6-.3.1-.5 0-.6-.2zm4.4 9.5c-.1-.2 0-.5.2-.6.2-.1.5 0 .6.2.1.2 0 .5-.2.6-.2 0-.5 0-.6-.2zm-35.3 16.6c0-.2.2-.4.4-.4s.4.2.4.4-.2.4-.4.5c-.2-.1-.4-.3-.4-.5zm31.2-1.4c0-.2.2-.4.4-.4s.4.2.4.4-.2.4-.4.4-.4-.2-.4-.4zm-28.2-35.5c-.2-.2-.2-.4 0-.6.2-.2.4-.2.6 0 .2.2.2.4 0 .6-.2.2-.5.2-.6 0zm7.7 7c-.2-.1-.2-.4 0-.6.2-.2.4-.2.6 0 .2.2.2.4 0 .6-.2.2-.5.2-.6 0zm7.7 7.1c-.2-.2-.2-.4 0-.6.2-.2.4-.2.6 0 .2.2.2.4 0 .6-.2.1-.5.1-.6 0zm20.4-31.6c0-.2.2-.4.4-.4s.4.2.5.4c0 .2-.2.4-.4.4-.3 0-.5-.1-.5-.4zm.5 10.4c0-.2.2-.4.4-.5.2 0 .4.2.4.4s-.2.4-.4.4c-.2.2-.4 0-.4-.3zm-34.8 41.6c0-.1.2-.2.3-.2s.2.2.2.3c0 .1-.2.2-.3.2-.1-.1-.2-.2-.2-.3zm12.1 1.9c0-.1.1-.2.3-.2.1 0 .2.1.2.3 0 .1-.1.2-.3.2-.1-.1-.2-.2-.2-.3zm1.4-23.8c-.1-.1-.1-.3.1-.4.1-.1.3-.1.4.1.1.1.1.3-.1.4-.1 0-.3 0-.4-.1zm14.5 19.8c-.1-.1-.1-.3.1-.4.1-.1.3-.1.4.1.1.1.1.3-.1.3-.2.2-.3.1-.4 0zm-24.2 15c0-.1.1-.3.2-.3s.3.1.3.2 0 .3-.2.3c-.1 0-.3-.1-.3-.2zm6-1.4c0-.1 0-.3.2-.3.1 0 .3 0 .3.2 0 .1 0 .3-.1.3-.3 0-.4-.1-.4-.2zm-2.5-22.1c.1-.1.2-.1.4-.1.1.1.2.2.1.3-.1.1-.2.2-.3.1-.3 0-.3-.2-.2-.3zm5.2 3.2c.1-.1.2-.1.4-.1.1.1.2.2.1.4-.1.1-.2.2-.3.1-.2-.1-.3-.2-.2-.4zm5.3 3.2c.1-.1.2-.2.3-.1.1.1.2.2.1.4-.1.1-.2.1-.4.1-.1-.1-.1-.2 0-.4zm8.3-20.2c0-.1 0-.3.2-.3.1 0 .3 0 .3.2 0 .1 0 .3-.1.3-.2 0-.3-.1-.4-.2zm1.5 6c0-.1.1-.3.2-.3s.3.1.3.2 0 .3-.1.3c-.2 0-.4-.1-.4-.2zm1.4 6c0-.1.1-.3.2-.3s.3.1.3.2-.1.3-.2.3-.2-.1-.3-.2zm-36.2 10.3c0-.1.2-.2.4-.2s.2.2.2.4c0 .1-.2.2-.4.2-.2-.1-.3-.3-.2-.4zm6.6 2.3c.1-.2.2-.2.4-.2.2.1.2.2.2.4 0 .1-.2.2-.4.2-.2-.1-.3-.2-.2-.4zm13.1-24.1c-.1-.1 0-.3.1-.4.1-.1.3 0 .4.1.1.1 0 .3-.1.4-.2.1-.4 0-.4-.1zm3 6.3c-.1-.1 0-.3.2-.4.1-.1.3 0 .4.1.1.1 0 .3-.1.4-.2.1-.4 0-.5-.1zm6.1 12.6c-.1-.1 0-.3.1-.4.1-.1.3 0 .4.1.1.1 0 .3-.1.4-.2.2-.3.1-.4-.1zm-27.2 18c0-.2.1-.3.3-.3.2 0 .3.1.3.3 0 .2-.1.3-.3.3-.1 0-.2-.2-.3-.3zm7.1-.4c0-.2.1-.3.3-.3.2 0 .3.1.3.3 0 .2-.1.3-.3.3-.2 0-.3-.2-.3-.3zm7-.4c0-.1.1-.3.2-.3.2 0 .3.1.3.2 0 .2-.1.3-.3.3-.1.1-.2 0-.2-.2zm-5.4-24.7s0-.1.1-.1c.1-.1.3-.1.4 0 .1.1.1.3 0 .4-.1.1-.3.1-.4 0-.1-.1-.1-.2-.1-.3zm5.4 4.9c-.1-.1-.1-.3 0-.4.1-.1.3-.1.4 0 .1.1.1.3 0 .4-.1.1-.3.1-.4 0zm5.2 4.7c-.1-.1-.1-.3 0-.4.1-.1.3-.1.4 0 .1.1.1.3 0 .4-.1.1-.3.1-.4 0zm13.5-21.4c0-.2.1-.3.3-.3.2 0 .3.1.3.3 0 .2-.1.3-.2.3-.2 0-.4-.1-.4-.3zm.4 7c0-.1.1-.3.2-.3.2 0 .3.1.3.2 0 .2-.1.3-.3.3 0 .1-.2 0-.2-.2zm.4 7c0-.2.1-.3.3-.3.2 0 .3.1.3.3 0 .2-.1.3-.3.3-.1 0-.3-.1-.3-.3zm-51.5-18.2c-.2-.2-.2-.5 0-.7.2-.2.5-.2.7 0 .2.2.2.5 0 .7-.2.1-.5.2-.7 0zm8.8 8.2c-.2-.2-.2-.5 0-.7.2-.2.5-.2.7 0 .2.2.2.5 0 .7-.2.1-.5.2-.7 0zm8.8 8.2c-.2-.2-.2-.5 0-.7.2-.2.5-.2.7 0 .2.2.2.5 0 .7-.2.2-.5.2-.7 0zM365 333c-.2-.2-.2-.5 0-.7.2-.2.5-.2.7 0 .2.2.2.5 0 .7-.1.2-.5.2-.7 0zm10.8-54.2c0-.3.2-.5.5-.5s.5.2.5.5-.2.5-.5.5-.5-.2-.5-.5zm.4 12c0-.3.2-.5.5-.5s.5.2.5.5-.2.5-.5.5-.5-.2-.5-.5zm.4 12c0-.3.2-.5.5-.5s.5.2.5.5-.2.5-.5.5-.5-.2-.5-.5zm-32.9 29.6c.1-.3.4-.4.6-.3.3.1.4.4.3.6-.1.3-.4.4-.6.3-.3 0-.4-.3-.3-.6zm11.2 4.2c.1-.3.4-.4.6-.3.3.1.4.4.3.6-.1.3-.4.4-.6.3-.2 0-.4-.3-.3-.6zm11.3 4.2c.1-.3.4-.4.6-.3.2.1.4.4.3.6-.1.2-.3.4-.6.3-.2 0-.4-.3-.3-.6 0 .1 0 .1 0 0zm-14-50.4c-.1-.3 0-.5.3-.7.3-.1.5 0 .7.3.1.2 0 .5-.2.7-.3.1-.6 0-.8-.3zm5 11c-.1-.3 0-.5.3-.7.2-.1.5 0 .6.2.1.2 0 .5-.2.7-.2.1-.5 0-.7-.2zm5 10.9c-.1-.2 0-.5.2-.7.2-.1.5 0 .7.2.1.2 0 .5-.2.7-.2.2-.5.1-.7-.2zm5 11c-.1-.3 0-.5.3-.6.2-.1.5 0 .6.2.1.2 0 .5-.2.7-.3 0-.6-.1-.7-.3zM345.4 341c.1-.3.4-.4.6-.3.3.1.4.4.3.6-.1.3-.3.4-.6.3-.2-.1-.3-.3-.3-.6zm-1.3-49.1c-.1-.2 0-.5.2-.7.2-.1.5 0 .7.2.1.2 0 .5-.2.6-.3.2-.6.1-.7-.1zm5.4 10.7c-.1-.2 0-.5.2-.7.2-.1.5 0 .7.2.1.3 0 .6-.2.7-.2.1-.5 0-.7-.2zm5.5 10.6c-.1-.2 0-.5.2-.7.2-.1.5 0 .7.2.1.2 0 .5-.2.7-.3.2-.6.1-.7-.2zm5.4 10.7c-.1-.2 0-.5.2-.6.2-.1.5 0 .7.2.1.2 0 .5-.2.7-.3.1-.6 0-.7-.3zm26.6-13.5c.1-.3.4-.4.6-.3.3.1.4.4.3.6-.1.3-.3.4-.6.3-.3-.1-.4-.3-.3-.6zm-49.3 9.9c-.2-.2-.2-.5 0-.7.2-.2.5-.2.7-.1.2.2.2.5.1.7-.3.3-.6.3-.8.1zm9.1 7.8c-.2-.2-.2-.5-.1-.7.2-.2.5-.2.7-.1.2.2.2.5.1.7-.1.3-.5.3-.7.1zm9.1 7.8c-.2-.2-.2-.5 0-.7.2-.2.5-.2.7-.1.2.2.2.5.1.7-.2.3-.6.3-.8.1zm13.3-44.8c0-.3.2-.5.5-.5s.5.2.5.5-.2.5-.4.5c-.4 0-.6-.2-.6-.5zm.9 11.9c0-.3.2-.5.5-.5s.5.2.5.5-.2.5-.4.5c-.3 0-.6-.2-.6-.5zm1.8 23.9c0-.3.2-.5.5-.5s.5.2.5.5-.2.5-.4.5c-.3 0-.5-.2-.6-.5zm-21.6 17.5c.1-.2.3-.2.5-.1s.2.3.1.5-.3.2-.5.1c-.1-.1-.1-.3-.1-.5zm6.8-36.4c-.1-.2.1-.4.3-.5.2-.1.4.1.5.3.1.2 0 .4-.2.5-.4 0-.6-.1-.6-.3zm2.3 8.7c-.1-.2.1-.4.3-.5.2-.1.4.1.5.3.1.2-.1.4-.3.5-.2 0-.4-.1-.5-.3zm2.3 8.8c-.1-.2.1-.4.3-.5.2-.1.4.1.5.3.1.2-.1.4-.3.5-.2 0-.4-.1-.5-.3zm-19.1-5c-.1-.2-.1-.4.1-.5.2-.1.4-.1.5.1.1.2.1.4-.1.5-.2.1-.4.1-.5-.1 0 .1 0 0 0 0zm5.4 7.2c-.1-.2-.1-.4.1-.5.2-.1.4-.1.5.1.1.2.1.4 0 .5-.2.1-.4.1-.6-.1zm5.5 7.2c-.1-.2-.1-.4.1-.5.2-.1.4-.1.5 0 .1.2.1.4-.1.5-.1.2-.3.2-.5 0zm21.1-14.8c0-.2.2-.4.4-.3.2 0 .3.2.3.4s-.2.4-.4.3c-.1-.1-.3-.2-.3-.4zm-21.5 17.5c-.1-.1 0-.2.1-.3.1-.1.2 0 .3.1.1.1 0 .2-.1.3-.2.1-.3 0-.3-.1zm2.3 4.4c-.1-.1 0-.2.1-.3.1-.1.2 0 .3.1.1.1 0 .2-.1.3-.1 0-.3 0-.3-.1zm8-4.9c0-.1.1-.2.2-.2s.2.1.2.2-.1.2-.2.2-.2-.1-.2-.2zm.5 4.9c0-.1.1-.2.2-.2s.2.1.2.2-.1.2-.2.2-.2-.1-.2-.2zm-11.2-14.2c0-.2.1-.3.3-.4.2 0 .3.1.3.3 0 .2-.1.3-.3.4-.1 0-.3-.1-.3-.3zm.9 8.1c0-.2.1-.3.3-.4.2 0 .3.1.4.3 0 .2-.1.4-.3.4-.3.1-.4-.1-.4-.3zm.8 8.2c0-.2.1-.4.3-.4.2 0 .4.1.4.3 0 .2-.1.4-.3.4-.2 0-.4-.2-.4-.3zm12.1-2.6c0-.1-.1-.2 0-.3.1-.2.2-.3.4-.2.1 0 .1.1.2.2 0 .1.1.2 0 .2-.1.2-.2.3-.4.2 0 0-.1 0-.2-.1z" style="fill:#fff"/><path d="M359 291.1c-.7-.5-1.5-.9-2.2-1.5-7.9-5.5-13.1-15-13.5-24.7-.4-9.7 3.9-19.5 11.4-25.7l1.2 1.4c-7 5.8-11.1 15.1-10.7 24.2.4 9.1 5.3 18 12.7 23.2.7.5 1.4 1 2.1 1.4l-1 1.7z" style="fill:#d62929"/><path style="fill:#23286b" d="m354 248.4 8-13.7-16.5 6.6 8 .5zM378.7 290.8l20.5 1.1-17.5-15.1 4.2 9.5z"/><path d="M357.7 294.8c-.3 0-.6-.1-.8-.3-.5-.5-.5-1.2-.1-1.7 8.9-9.4 24-11.7 35.3-5.4.6.3.8 1.1.5 1.6-.3.6-1.1.8-1.6.5-10.2-5.7-24.4-3.5-32.4 5-.3.1-.6.3-.9.3z" style="fill:#23286b"/><circle cx="358.2" cy="291.2" r="4.7" style="fill:#d62929"/></g></svg>