<svg xmlns="http://www.w3.org/2000/svg" viewBox="0 0 792 792"><g clip-path="url(#a)" transform="translate(-23.539 -13.976) scale(1.107)"><defs><clipPath id="a"><path d="M0 0h800v600H0z"/></clipPath></defs><path fill="#FFF" d="M0 0h800v600H0z"/><path fill="#F5F5F5" d="M67.453 43.301h525.33v419.796H67.453z"/><radialGradient id="b" cx="1027.408" cy="93.623" r="264.369" gradientTransform="matrix(1.339 0 0 1.1796 -975.74 232.133)" gradientUnits="userSpaceOnUse"><stop offset="0" stop-color="#E0E0E0"/><stop offset="1" stop-color="#FFF"/></radialGradient><path fill="url(#b)" d="M0 27.301h800V600H0z"/><path fill="#FFF" d="M.625 462.875h800v137h-800z"/><path fill="#FDFDFD" d="M128.632 272.849h181.145v111.964H128.632z"/><path fill="#F5F5F5" d="M128.632 135.301h181.145v137.548H128.632z"/><path fill="#FFF" d="M123.884 129.935h190.643v10.756H123.884z"/><path d="M360.74 111.371v351.726h14.564V129.935h142.914v333.162h14.564V111.371H360.74z" fill="#E0E0E0"/><path fill="#FDFDFD" d="M375.305 129.935h142.914v324.059l-142.914 3.641z"/><path d="m559.181 463.097-42.94-22.603a120.004 120.004 0 0 0-55.896-13.813h-85.04v36.416h183.876z" fill="#D3D3D3"/><path fill="#E0E0E0" d="M661.29 519.301H403.21l-24.26-47.1h189.13z"/><path fill="#EEE" d="m518.219 129.935 134.721-4.551v350.457l-134.721-12.744z"/><path d="M143.216 267.227c3.822-1.29 6.455-5.011 6.324-9.165-.042-1.329.01-2.682.163-4.054 1.439-12.897 11.754-23.035 24.286-23.882 15.281-1.033 27.987 11.476 27.987 27.052 0 1.513-.12 2.996-.351 4.441-.679 4.245 1.421 8.386 5.162 10.271 12.848 6.474 21.469 20.516 20.424 36.518-1.206 18.47-15.487 33.446-33.333 34.961a35.37 35.37 0 0 1-11.907-1 7.079 7.079 0 0 0-4.713.407v38.741h-9.043v-30.163c-3.578 2.357-7.894 3.622-12.514 3.318-9.864-.649-18.032-8.581-19.271-18.718a22.465 22.465 0 0 1-.092-4.575c.215-2.598-.823-5.113-2.811-6.72-7.095-5.736-11.807-14.487-12.294-24.295-.764-15.41 8.694-28.652 21.983-33.137zM304.334 363.88c0 34.184-14.273 20.933-31.525 20.933s-30.949 13.251-30.949-20.933 31.237-150.2 31.237-150.2 31.237 116.016 31.237 150.2z" fill="#EFEFEF"/><path fill="#FAFAFA" d="m341.873 228.852 8.812 49.231L103.363 53.814l.411-.844 56.323 11.058zM352.154 298.693 78.396 50.959l-25.158-3.016 300.384 271.831zM262.036 332.373-11.722 84.639l-25.158-3.016 300.385 271.832z" style="clip-path:url(#SVGID_3_)"/><g fill="#FFF"><path d="M118.775 135.301h9.32v256.794h-9.32zM300.098 135.301h9.32v256.794h-9.32z"/></g><path fill="#FFF" d="M209.437 141.769h9.32v132.532h-9.32z"/><path fill="#FFF" d="M121.193 193.375H307v9.32H121.193zM100.767 377.428h226.659v14.668H100.767zM118.775 269.208h190.643v10.756H118.775z"/><path fill="#E0E0E0" d="M100.767 111.371h226.659v96.93H100.767z"/><path fill="#BDBDBD" d="M100.767 201.301h226.659v7H100.767z"/><path fill="#E0E0E0" d="M100.767 194.301h226.659v7H100.767z"/><path fill="#BDBDBD" d="M100.767 187.301h226.659v7H100.767z"/><path fill="#CFCFCF" d="M300 111.371h9.418v75.93H300zM119 111.371h9.418v75.93H119z"/><path fill="#A8A8A8" d="M300 187.301h9.418v7H300zM119 187.301h9.418v7H119zM300 201.301h9.418v7H300zM119 201.301h9.418v7H119z"/><path fill="#CFCFCF" d="M300 194.301h9.418v7H300zM119 194.301h9.418v7H119z"/></g><g clip-path="url(#c)" transform="matrix(1.941 0 0 1.946 133.639 247.362)"><defs><clipPath id="c"><path d="M0 0h264v227H0z"/></clipPath></defs><defs><radialGradient id="d" cx="207.962" cy="120.5" r="4.819" gradientTransform="matrix(1 0 0 -1 0 186)" gradientUnits="userSpaceOnUse"><stop offset=".76" stop-color="#ebebeb"/><stop offset=".77" stop-color="#ececec" stop-opacity=".86"/><stop offset=".78" stop-color="#eee" stop-opacity=".66"/><stop offset=".79" stop-color="#f0f0f0" stop-opacity=".48"/><stop offset=".8" stop-color="#f2f2f2" stop-opacity=".33"/><stop offset=".81" stop-color="#f3f3f3" stop-opacity=".21"/><stop offset=".82" stop-color="#f4f4f4" stop-opacity=".12"/><stop offset=".83" stop-color="#f4f4f4" stop-opacity=".05"/><stop offset=".85" stop-color="#f5f5f5" stop-opacity=".01"/><stop offset=".87" stop-color="#f5f5f5" stop-opacity="0"/></radialGradient></defs><path d="M173.25 103H159a2 2 0 0 1 0-4h14.25a28.786 28.786 0 0 0 6.28-.59h.16c.32-.06 3.31-.65 3.31-3.45a19.811 19.811 0 0 0-.67-4.19c-2.07-8.92-4.23-16.59-5.66-21.66l-.15-.52c-.16-.57-.34-1.23-.53-1.93-1-3.73-3.65-13.63-6.52-13.63a2 2 0 0 1 0-4c5.94 0 8.51 9.59 10.39 16.59.18.69.35 1.32.51 1.88l.15.53c1.44 5.1 3.62 12.82 5.71 21.83A24.141 24.141 0 0 1 187 95c0 5-4.27 7-6.61 7.39a31.686 31.686 0 0 1-7.14.61z" fill="#ebebeb"/><path d="m174.77 10.43-1-.43L157 92h1.06a5.4 5.4 0 0 0 5.31-4.21l14.52-71.38a5.339 5.339 0 0 0-3.12-5.98z" fill="#fafafa"/><path d="m120 90 5 1h7.27a10.627 10.627 0 0 1 1.49.13c.92.16 2.5.44 3.57.69a3.173 3.173 0 0 1 1.84 1.1c1.08 1.36 4.82 4.78 4.83 5.79 0 .23-.05.75-.83.82-.95.09-6.14-3-6.14-3l-4-.59-1 1a16.459 16.459 0 0 0 3 1.35c1 .35 1 .68 1 1.18 0 .21-.09.68-.8.75-1.13.12-3.4-.28-5.12-.28a8.482 8.482 0 0 1-5.08-2h-7z" fill="#4d3e34"/><path d="M76 51c-4 0-9 1-9 14 0 6 2.22 22.78 8 30 4 5 37.62 3 43 3l2-8s-14.91-3.16-30.72-5.8c0 0-1.32-5.44-3.51-15.92C83 55 80.12 51 76 51z" fill="#1b3963"/><path d="M77 48c5 3 9 15.49 9 26 0 13-3 27-2 40a87.371 87.371 0 0 1 0 15H53V48z" fill="#22477d"/><path d="M78.72 200.62A5.006 5.006 0 0 1 78 198a4.658 4.658 0 0 1 1.44-3c4.56-5 6.56-7 6.56-7l8 6a10.7 10.7 0 0 0-3 8 9.643 9.643 0 0 0 2 6s4 2 4 8h-6.34a4 4 0 0 1-3.38-1.87z" fill="#212121"/><path d="M70 140c12 3 29 5 29 5-7 18-17 46-17 46l13 6s28.72-42 28.72-57.7C123.72 131 117 121 77 116c-13.94-1.74-19 5-19 11 0 8 6 11.5 12 13z" fill="#6d4c41"/><path d="M128 198s.35 1.47 5 11c1.26 2.58 2.08 7 5 7 1.77 0 21.49-8.14 24-9 0-2-3-5-8-5-4 0-8 1-10 1s-5-9-5-9z" fill="#212121"/><path d="M60 122c-19.89 0-27 8-27 8s0 21 19 21h51c0 10 24.93 50.52 25 51l13-6s-13-40.33-19.89-57.8c-1.37-3.47-4.11-6.2-11.44-8.87C90.31 122.29 63.86 122 60 122z" fill="#8d6e63"/><path d="M123 103h-17c0-4 2-5 6-5 10 0 11 5 11 5z" fill="#fafafa"/><path d="M98 94h3c1.45 0 7.08-2 10-2 1.5 0 5.29 1.4 7 2 1.54.54 4 4.81 4 6 0 .74-.28 1-1 1-1 0-4-1-8-1-1.51 0-7 1-9 1h-6zM83 43a12.274 12.274 0 0 1-5-1 14.642 14.642 0 0 0-1 6c0 2-1 4-3 4-17 0-14-14-14-14s3-3 3-5v-8c0-15 5-22 16-22s19 7.71 19 16c0 11-7 24-15 24z" fill="#6d584a"/><path d="M79 0C64 0 61 12 61 18c0 5.22 1.84 9.52 2 12 .05.85 0 3 0 3s7.43-.77 10.42-2.49A3 3 0 0 0 75 28a20.315 20.315 0 0 1-1-5 3.76 3.76 0 0 1 3-4c2 0 3 1.24 3 5a2.78 2.78 0 0 0 3-2c.56-2.28 2.71-8 5-8 2 0 5 5 10 5 0-7-2-19-19-19z" fill="#212121"/><path d="M81 100a140.608 140.608 0 0 0 2-31c-.54-15.28-6-21-6-21s-1 1-4 1c-9 0-13-9-13-9l-7 8v81h14s12-4.15 12-12c0-1.76 1.13-11.89 2-17z" fill="#ffb300"/><path d="M60 38s-13 9-19 20.62c-5.69 11-6.95 32.79-6.75 42.27C34 124 32 126 32 137c0 0 3.95 4 18 4s18.91-9.18 19-11c.43-8.76 0-17 2-33 .62-5 4-15 4-25a30.2 30.2 0 0 0-5-17C60 41 60 38 60 38z" fill="#22477d"/><path d="M56 54c-7 0-11 6-11 24 0 7.95 1.4 18.53 5 22 2.16 2.09 9 3 16 3h32v-9c-13-3-33-7-33-7V71c0-10-2-17-9-17z" fill="#254e8a"/><g><path d="M150 103h-22v-1.11a1 1 0 0 1 .91-1l20-1.87a1 1 0 0 1 1.09.9z" fill="#fafafa"/><path fill="#e0e0e0" d="M150 103h-22l22-2v2z"/></g><g><path d="M5 51c0 37.75 12 44.64 12 71 0 21.07-1.48 41 26.63 41H86v-7a5 5 0 0 0-5-5H43.63c-3.88 0-9-.48-11.26-2.77-3.44-3.46-3.41-13.48-3.38-23.18V122c0-13.83-2.92-23.17-5.74-32.22-3.08-9.85-6.26-20-6.26-38.78a5 5 0 0 0-5-4.95h-7z" fill="#546e7a"/><path d="M81 168H43.63c-10.47 0-18.09-2.54-23.3-7.77C11.9 151.77 12 138.77 12 125v-3c0-11.24-2.3-18.61-5-27.15C3.71 84.29 0 72.33 0 51a5 5 0 0 1 5-5h5v5c0 19.81 3.34 30.51 6.58 40.87C19.37 100.8 22 109.24 22 122v3c0 11.64-.07 22.63 5.42 28.14 3.24 3.25 8.55 4.83 16.22 4.83H86v5a5 5 0 0 1-5 5z" fill="#455a64"/><path d="M54 164a3 3 0 0 1-1.28-5.71c.17-.08 17.28-8.38 17.28-20.46 0-2.71-.66-5.83-5.83-5.83H18a3 3 0 0 1 0-6h46.17c7.3 0 11.83 4.53 11.83 11.83 0 15.89-19.87 25.48-20.72 25.88A3 3 0 0 1 54 164zM69.1 212.69S67 209 52 209c-9.91 0-14.15 1.62-15.8 2.59a3.513 3.513 0 0 0-1.27 1.06l-1.3-.41-1-.19-3.63-.29c.16-2.05 2.31-8.76 23-8.76s22.83 6.71 23 8.76l-6 .48a1.13 1.13 0 0 0 .1.45z" fill="#263238"/><path d="M86 217.46c-.58-2.36-7.81-8.46-34-8.46s-33.46 6.1-34 8.46a.81.81 0 0 0 0-.22l-6-.48c.18-2.3 3-13.76 40-13.76s39.81 11.46 40 13.76l-6 .48a.81.81 0 0 0 0 .22z" fill="#546e7a"/><path fill="#37474f" d="M46 168h12v37H46z"/><rect x="44" y="199" width="16" height="12" rx="3" ry="3" fill="#455a64"/><path d="M52 223a3 3 0 0 1-3-3v-14a3 3 0 0 1 6 0v14a3 3 0 0 1-3 3z" fill="#78909c"/><rect x="48" y="220" width="8" height="7" rx="2" ry="2" fill="#263238"/><rect x="11" y="216" width="8" height="7" rx="2" ry="2" fill="#263238"/><rect x="28" y="211" width="8" height="7" rx="2" ry="2" fill="#263238"/><rect x="68" y="211" width="8" height="7" rx="2" ry="2" fill="#263238"/><rect x="85" y="216" width="8" height="7" rx="2" ry="2" fill="#263238"/></g><g><path d="M235 86a10.623 10.623 0 0 0-5.48-9.13l1-1.76A12.629 12.629 0 0 1 237 86z" fill="#33691e"/><path d="m236 86-2-.06a10.739 10.739 0 0 0-4.58-9.15l1.16-1.64A12.789 12.789 0 0 1 236 86z" fill="#33691e"/><path d="M236 86a12.789 12.789 0 0 1 5.42-10.85l1.16 1.64A10.741 10.741 0 0 0 238 86z" fill="#33691e"/><path d="M244.5 68c4.31 0 9.23 3.39 10.5 4.31-2.75 1.07-4.6 4.41-9.47 5.05-3.25.41-4-.77-4-.77s-2.57-.25-2.57-4c.04-1.94 1.68-4.59 5.54-4.59z" fill="#558b2f"/><path d="M245.8 82.92c4.65-.65 6.41-9.54 9.2-10.61-2.17-.32-5.58 1-13.43 4.28-1.76 4.83.82 6.86 4.23 6.33z" fill="#33691e"/><path d="M230.54 68.85c-4.24-2.09-10.86.26-12.54.86 2.47 1.48 2.12 9.46 6.63 10.94 3.18 1 5.65-.17 5.91-4.51 3.54-2 3.01-5.82 0-7.29z" fill="#558b2f"/><path d="M224.63 80.65c-4.51-1.48-4.16-9.46-6.63-10.94 2.21.18 5.39 2.09 12.54 6.43-.26 4.34-2.65 5.55-5.91 4.51zM235 70h2v15h-2z" fill="#33691e"/><path d="M236 59a11.608 11.608 0 0 0-3 7.38c0 4.62 3 4.62 3 4.62s3 0 3-2.77c0-2.41-3-4.61-3-9.23z" fill="#558b2f"/><path d="m225 88 3 15h16l3-15z" fill="#e64a19"/><path d="M247 91h-22a1 1 0 0 1-1-1v-4h24v4a1.079 1.079 0 0 1-1 1z" fill="#bf360c"/></g><g><path fill="#ffb300" d="M196 84h32v10h-32z"/><path fill="#ff8f00" d="M201 84h2v10h-2zM221 84h2v10h-2zM206 87h12v4h-12z"/></g><g><path fill="#2e7d32" d="M196 94h32v9h-32z"/><path fill="#7cb342" d="M201 94h2v9h-2zM221 94h2v9h-2zM206 97h12v3h-12z"/></g><g><path fill="#1565c0" d="M200 75h27v9h-27z"/><path fill="#64b5f6" d="M203 75h2v9h-2zM222 75h2v9h-2zM208 78h11v3h-11z"/></g><g><path d="m211 60 1 11h-3.71a3 3 0 0 1-2.89-2.21l-1.37-5a3 3 0 0 1 2.1-3.68 3.137 3.137 0 0 1 .8-.11z" fill="url(#d)"/><path d="M213.09 72h-4.8a4 4 0 0 1-3.85-2.95l-1.37-5a3.926 3.926 0 0 1 .38-3 4 4 0 0 1 2.42-1.88 4.182 4.182 0 0 1 1.05-.14h5zm-6.16-11a1.9 1.9 0 0 0-.53.07 2 2 0 0 0-1.4 2.457l1.37 5A2 2 0 0 0 208.29 70h2.62l-.82-9z" fill="#1b3963"/><path d="M210 75h12a111.11 111.11 0 0 0 2-19 1 1 0 0 0-1-1h-14a1 1 0 0 0-1 1 111.11 111.11 0 0 0 2 19z" fill="#254e8a"/></g><g><path fill="#4e342e" d="M249.99 163.25 250 218h-8.99l-.01-54.75.01-55.25H250l-.01 55.25zM206.99 162.75 207 218h-8.99l-.01-55.25.01-54.75H207l-.01 54.75z"/><path fill="#6d4c41" d="M104 103h160v11H104zM158 208h106v10H158z"/></g></g></svg>