<svg data-name="Layer 1" xmlns="http://www.w3.org/2000/svg" viewBox="0 0 800 600"><defs><radialGradient id="a" cx="732.23" cy="6376.82" r="282.82" gradientTransform="matrix(.47 0 0 .49 161.02 -2851.85)" gradientUnits="userSpaceOnUse"><stop offset="0" stop-color="#f4f4f4"/><stop offset=".36" stop-color="#f2f2f2" stop-opacity=".59"/><stop offset=".67" stop-color="#f0f0f0" stop-opacity=".27"/><stop offset=".89" stop-color="#eee" stop-opacity=".08"/><stop offset="1" stop-color="#eee" stop-opacity="0"/></radialGradient><radialGradient id="b" cx="400" cy="3457.94" r="400" gradientTransform="translate(0 -2990)" gradientUnits="userSpaceOnUse"><stop offset="0" stop-color="#f5f5f5"/><stop offset="1" stop-color="#fff"/></radialGradient><radialGradient id="c" cx="400" cy="3471.94" r="400.1" gradientTransform="translate(0 -2990)" gradientUnits="userSpaceOnUse"><stop offset="0" stop-color="#ececec"/><stop offset="1" stop-color="#fff"/></radialGradient><radialGradient id="d" cx="400" cy="3485.44" r="400.01" gradientTransform="translate(0 -2990)" gradientUnits="userSpaceOnUse"><stop offset="0" stop-color="#dfdfdf"/><stop offset="1" stop-color="#fff"/></radialGradient><radialGradient id="e" cx="-102.84" cy="-2171.82" r="283.02" gradientTransform="matrix(1.34 0 0 -1.09 544.57 -2058.97)" gradientUnits="userSpaceOnUse"><stop offset="0" stop-color="#fff" stop-opacity="0"/><stop offset=".13" stop-color="#fff" stop-opacity=".01"/><stop offset=".26" stop-color="#fff" stop-opacity=".06"/><stop offset=".38" stop-color="#fff" stop-opacity=".14"/><stop offset=".51" stop-color="#fff" stop-opacity=".24"/><stop offset=".63" stop-color="#fff" stop-opacity=".38"/><stop offset=".75" stop-color="#fff" stop-opacity=".55"/><stop offset=".87" stop-color="#fff" stop-opacity=".75"/><stop offset=".99" stop-color="#fff" stop-opacity=".97"/><stop offset="1" stop-color="#fff"/></radialGradient><linearGradient id="f" x1="335" y1="3443.83" x2="476.79" y2="3443.83" gradientTransform="translate(0 -2990)" gradientUnits="userSpaceOnUse"><stop offset="0" stop-color="#fff" stop-opacity="0"/><stop offset="1" stop-color="#1d1d1b" stop-opacity=".2"/></linearGradient></defs><path style="fill:#fff" d="M0 0h800v600H0z"/><circle cx="517" cy="274" r="168" style="fill:url(#a)"/><ellipse cx="517" cy="274" rx="35" ry="33" style="fill:#fff"/><path d="M668.28 351s11.42-43 6.48-58-10.4-13.46-10.4-13.46L651 351z" style="fill:#b7b7b7"/><path d="M630 266s13-38 5-44a15 15 0 0 0-9-3 18 18 0 0 0-10 3s-7 9-7 44z" style="fill:#e0e0e0"/><path d="M615 266a70.22 70.22 0 0 1-3-20 74.5 74.5 0 0 1 4-24s-4 2-7.73 11.92C605.2 242.06 604 253 604 266z" style="fill:#eee"/><path d="M626 256c1-1 3-6 3-9 0-4.2-.84-8.69 0-15.41.74-5.93 2-9.59 5.5-9.59a8.23 8.23 0 0 1 4.18 1.57C645 227.57 654 241.94 654 261s-5 90-5 90h-40a390.1 390.1 0 0 1-4-53c0-28 14-37 14-37a30.6 30.6 0 0 0 7-5z" style="fill:#cecece"/><path d="M624 351c-11.38-26.15-15-48.83-15-64 0-19 10-26 10-26s-10 2.68-11 3c-11.36 3.65-19.31 14.18-21 26a149.26 149.26 0 0 0-2 21v40z" style="fill:#e0e0e0"/><path d="M649.26 260.75a19.67 19.67 0 0 1 15.19 18.31v.5L657 351h-14l2.3-31.13z" style="fill:#cecece"/><path d="M681 351s13-21 6-36c-3.45-7.41-7.13-10-10-10-4 0-9 0-9 7 0 4 1 9 1 19a35.84 35.84 0 0 1-6 20z" style="fill:#e0e0e0"/><path d="M576 305.91s-4 2.09-6 12.09-10 33-10 33l16.53-.05S584 339 584 320c0-16-8-14.09-8-14.09z" style="fill:#f5f5f5"/><path d="M587 351s3-14.87 3-28c0-11-1.53-16.53-3-18-1-1-2.76-1-4-1a17.45 17.45 0 0 0-7 1.91s3-.91 3 10.09-7.1 35-7.1 35z" style="fill:#d1d1d1"/><path d="M632 351a261.74 261.74 0 0 0 1-28c-.3-12.49-2.14-25.41-4-31s-3-9.7-3-12c0-2.64 1.66-4.26 7-8 4.65-3.26 7.47-5.11 10-5 2.91.12 5.33 2.72 8 7a18.15 18.15 0 0 1 2 9c.2 20.9-8 68-8 68zM375 302s-.75-13.23-1-16c-1-11-4.33-18.58-15.29-20.15 0 0-4.71-14.81-16.71-19.81 0-24.13-7.31-32.88-7.31-32.88s-7.9-2.63-15.81 0-10.36 12.38-10.36 12.38l3.77 20.56a25.79 25.79 0 0 0-18.29 24l-.11 4.9 1.11 75.91h70C369 325 375 302 375 302z" style="fill:#e0e0e0"/><path d="M399.26 347.16S396 326 394 316c-1.87-9.34-12.49-12.17-19-14-5 17-10 49-10 49h35z" style="fill:#f5f5f5"/><path d="M347 268v-35l2.32.88a13 13 0 0 1 8.41 11.18l2 25.9z" style="fill:#f8f8f8"/><path d="m279 350.94 12.21-79.85 1.55-9.49a19.76 19.76 0 0 1 10.91-14.6l5.33-2v105.9z" style="fill:#d9d9d9"/><path d="m274.08 309.25 1.48-19.25a21.3 21.3 0 0 1 15.65-18.91l-1.32 35.53.11 44.32h-25zM312.29 217.14l6.59-3.94s-6.59 21.06 0 40.8h8.17a21.34 21.34 0 0 1 21.05 17.8c.3 1.78 10.9 79.2 10.9 79.2h-57l6-103.89v-15c0-7.04 1.62-11.79 4.29-14.97z" style="fill:#cecece"/><path d="M336.23 256A21.41 21.41 0 0 1 347 267.72v-36.65a16.86 16.86 0 0 0-5.79-12.07l-6.52-5.79a114.62 114.62 0 0 1 3.31 26.85 76.33 76.33 0 0 1-1.77 15.94z" style="fill:#eee"/><path d="M383 350.94V307c0-3.2-.65-11-5-13-1.66-.75-5.17-2.35-7-3a8 8 0 0 1-5.26-6.28s-6-30.75-38.95-30.75c0 0 18.21 36 18.21 64 0 22.37-2 33-2 33z" style="fill:#f0f0f0"/><g><path d="m210 346-1-200h-14c-4 0-17.28 2.11-19 15-2 15-2 42-2 42l7 143z" style="fill:#afacac"/><path d="M156 346s-11-14-11-39a186.92 186.92 0 0 1 6-46c0-6-1-17.29-1-17.29a19.14 19.14 0 0 1 5.28-13.77S159 227 161 227c1.14 0 8.8 34.81 11 68 1.67 25.19-1.87 51-1.87 51z" style="fill:#b7b7b7"/><path d="M214 224c0-70-2.76-90.19-2.76-90.19A26.72 26.72 0 0 1 222 132c4 0 13 4.95 13 4.95s14 7.05 14 33v41h-6s-21 5.63-29 13.05z" style="fill:#e0e0e0"/><path d="M243 211s1-23 1-37c0-31-9-37-9-37s14-.53 19 16.05c3 10 4 29.68 4 38v20z" style="fill:#eee"/><path d="M208 346s11-5 11-29c0-17.92-3.81-39.21-4-60-.26-29.5 11.86-54 26-54h11c9 0 13 5 22 10 8.05 4.47 16 13.14 16 22 0 6-2 20-2 28s-1 83-1 83z" style="fill:#f5f5f5"/><path d="M137 325c-2.72-12.72-4-47.93-4-47.93 0-12.9 18-16.05 18-16.05s-6 51 5 85c0-.02-16.28-8.32-19-21.02z" style="fill:#e0e0e0"/><path d="M297 268c10 0 16.9 8.65 20 18 3.62 10.91 10 60 10 60h-40s-1-27-1-48 4.92-30 11-30z" style="fill:#f5f5f5"/><path d="M247 346c9-2 19.8-9.78 22-23 4-24 2-28 3-42 .34-4.79 6-18 14-18a17.62 17.62 0 0 1 12 5c-3 5-6 15-6 28 0 27.78 2 50 2 50zM195 146h14l-10.74 62.59S197 200 195 186c-1.38-9.65-6-17-6-28 0-2-1-12 6-12z" style="fill:#e0e0e0"/><path d="M286 263s-9 6-9 30a257.31 257.31 0 0 1-2 32 176.29 176.29 0 0 1-4 21h-24s2-4 7-21c1.22-4.14 1-4 6-25 3.94-16.54 6-37 22-37zM241 203c-13 0-17.49 9-22 9 0 0-1-13.94-1-46 0-20-5.77-32.61-5.77-32.61S198 136 198 148c0 0 .26 39.19.26 60.59 0 19.67-3.26 60.41-7.26 60.41-1 0-6-13.16-6-27 0-25-10.22-42.14-10.22-42.14A22.72 22.72 0 0 0 157 222c0 10.95 6.45 38.64 10 68 3.25 26.86 3 56 3 56h55c-.53-26-5-58-5-90 0-25.27 11-47 21-53z" style="fill:#cecece"/></g><g><path d="M800 337.94a219.41 219.41 0 0 1-22.92-1.11 163.88 163.88 0 0 0-34.16 0 237.19 237.19 0 0 1-45.84 0 163.88 163.88 0 0 0-34.16 0 237.19 237.19 0 0 1-45.84 0 163.88 163.88 0 0 0-34.16 0 237.19 237.19 0 0 1-45.84 0 163.88 163.88 0 0 0-34.16 0 237.19 237.19 0 0 1-45.84 0 163.88 163.88 0 0 0-34.16 0 237.19 237.19 0 0 1-45.84 0 163.88 163.88 0 0 0-34.16 0 237.19 237.19 0 0 1-45.84 0 163.88 163.88 0 0 0-34.16 0 237.19 237.19 0 0 1-45.84 0 163.88 163.88 0 0 0-34.16 0 219.41 219.41 0 0 1-22.92 1.11 219.41 219.41 0 0 1-22.92-1.11 163.88 163.88 0 0 0-34.16 0A219.41 219.41 0 0 1 80 337.94a219.41 219.41 0 0 1-22.92-1.11 163.88 163.88 0 0 0-34.16 0A219.41 219.41 0 0 1 0 337.94v262h800z" style="fill:url(#b)"/><path d="M800 365.94a219.41 219.41 0 0 1-22.92-1.11 163.88 163.88 0 0 0-34.16 0 237.19 237.19 0 0 1-45.84 0 163.88 163.88 0 0 0-34.16 0 237.19 237.19 0 0 1-45.84 0 163.88 163.88 0 0 0-34.16 0 237.19 237.19 0 0 1-45.84 0 163.88 163.88 0 0 0-34.16 0 237.19 237.19 0 0 1-45.84 0 163.88 163.88 0 0 0-34.16 0 237.19 237.19 0 0 1-45.84 0 163.88 163.88 0 0 0-34.16 0 237.19 237.19 0 0 1-45.84 0 163.88 163.88 0 0 0-34.16 0 237.19 237.19 0 0 1-45.84 0 163.88 163.88 0 0 0-34.16 0 219.41 219.41 0 0 1-22.92 1.11 219.41 219.41 0 0 1-22.92-1.11 163.88 163.88 0 0 0-34.16 0A219.41 219.41 0 0 1 80 365.94a219.41 219.41 0 0 1-22.92-1.11 163.88 163.88 0 0 0-34.16 0A219.41 219.41 0 0 1 0 365.94v234h800z" style="fill:url(#c)"/><path d="M800 392.94a219.41 219.41 0 0 1-22.92-1.11 163.88 163.88 0 0 0-34.16 0 237.19 237.19 0 0 1-45.84 0 163.88 163.88 0 0 0-34.16 0 237.19 237.19 0 0 1-45.84 0 163.88 163.88 0 0 0-34.16 0 237.19 237.19 0 0 1-45.84 0 163.88 163.88 0 0 0-34.16 0 237.19 237.19 0 0 1-45.84 0 163.88 163.88 0 0 0-34.16 0 237.19 237.19 0 0 1-45.84 0 163.88 163.88 0 0 0-34.16 0 237.19 237.19 0 0 1-45.84 0 163.88 163.88 0 0 0-34.16 0 237.19 237.19 0 0 1-45.84 0 163.88 163.88 0 0 0-34.16 0 219.41 219.41 0 0 1-22.92 1.11 219.41 219.41 0 0 1-22.92-1.11 163.88 163.88 0 0 0-34.16 0A219.41 219.41 0 0 1 80 392.94a219.41 219.41 0 0 1-22.92-1.11 163.88 163.88 0 0 0-34.16 0A219.41 219.41 0 0 1 0 392.94v207h800z" style="fill:url(#d)"/><path d="M800 420.94s-24.87-4-79-4c-37.89 0-74.18 4-98 4s-52.29-8-101-8-95.43 8-127 8c-67 0-110.11-8-148-8s-180 8-247 8v179h800z" style="fill:#fff"/><path style="fill:url(#e)" d="M0 0h800v600H0z"/></g><path d="M436.29 168.34c-33.05-13.1-38.29 23.6-38.29 23.6 14-22.13 33.27-16.87 33.27-16.87l-4 8.66c10.33-2.85 17.25-10.7 17.25-10.7 7.05-20 36.44-16.81 36.44-16.81-31.85-14.4-44.67 12.12-44.67 12.12zM490.42 88.21C475.18 76.43 466 93.6 466 93.6c11.28-8.55 20.17-2 20.17-2L483 94.83c5.94.61 9.48-1.49 9.48-1.49C499 85.55 515 92 515 92c-15.4-15.57-24.58-3.79-24.58-3.79zM568.34 203.81C569.08 184.73 550 187 550 187c13.35 4.32 13.18 15.26 13.18 15.26l-4.43-.76c2.92 5.18 6.64 6.87 6.64 6.87 10 .86 14 17.55 14 17.55 3.71-21.35-11.05-22.11-11.05-22.11z" style="fill:#eee"/><g><path d="M120 452c-5 0-15 7-15 14s14 6 17 6c8 0 20-4 24-4s7-3 7-5c0-4-12-11-33-11z" style="fill:#c2a58a"/><path d="M204.21 421.81a21.16 21.16 0 0 0 11.3 9.34c5.47 2 12.83 3.66 21 6.84-5.48-4.31-13.72-8.63-20.4-11.65a107.48 107.48 0 0 0-11.9-4.53zM193.67 414.33c-7-3.35-15.69-6.4-21.46-5.39 6.2 1.39 13.13 5.56 18.56 9.56 3.31 2.41 13.44 3.29 13.44 3.31a35.93 35.93 0 0 0-10.54-7.48zM197 406.34c-6.92-3.33-15.4-5.66-20.48-5.44 5 1.57 13.71 5.32 18.37 11.13 3 3.71 12.93 2.63 12.94 2.64a33.91 33.91 0 0 0-10.83-8.33zM217.44 399.57a12.72 12.72 0 0 0 7.84 8.9c5.55 2.13 13.5 1.78 22.51 5.78-8.54-6.08-13.65-9.64-20.54-11.67-6.02-1.77-9.82-3.01-9.81-3.01z" style="fill:#388e3c"/><path d="M207.79 414.67a13.64 13.64 0 0 0 7.78 8.84c5.62 2.28 14.26 3.4 23.74 7.09-5.49-4.52-14.14-9.33-20.69-12.54a43.4 43.4 0 0 0-10.83-3.39zM207.93 389.64a40.09 40.09 0 0 0-19.41-9.21c4.73 1.51 9 8.2 14.06 13.51 4.09 4.3 14.85 5.61 14.86 5.63a62.5 62.5 0 0 0-9.51-9.93zM212.54 406.79s2.57 7.55 8 9.53c5.72 2.08 13.86 3.81 22.45 7.21a98.15 98.15 0 0 0-20.59-12.23c-4.92-2.22-9.86-4.52-9.86-4.51zM213.46 432.74a66.12 66.12 0 0 0-13.2-4c.25 2.7 9.67 8.33 12.17 9a135.41 135.41 0 0 1 20.57 7.35c-2.78-4.09-11.88-8.98-19.54-12.35zM162.52 434.65A83.52 83.52 0 0 1 181 439.2c5.56 2.07 13.68 1.08 13.69 1.08a42.91 42.91 0 0 0-11.75-4.71c-6.83-1.52-15.18-2.57-20.42-.92zM203.78 448.93a42.44 42.44 0 0 0-10.53-3.49 27.36 27.36 0 0 0 8.63 9.05c3.88 2.37 6.91.48 18.16 9.29-1.87-5.27-9.82-11.61-16.26-14.85zM189.14 420.71c-6.43-2.85-14.48-5.35-20.87-4.55A51 51 0 0 1 187.2 425c3.67 2.72 13.06 3.71 13.06 3.73a34.91 34.91 0 0 0-11.12-8.02zM161.52 442.49c7.22.83 12.37 3.6 18.09 4.15 3.56.31 13.63-1.22 13.64-1.2a41.94 41.94 0 0 0-12-3.19c-7.39-.81-16.5-1.72-19.73.24zM197.21 435.49s8.22 6.64 11.71 7.89c5.05 1.77 11.51 4.19 19.21 7.45-5.27-5.13-10.34-7.87-17.6-11.3a58.38 58.38 0 0 0-13.32-4.04zM162.89 426.2a78.9 78.9 0 0 1 19.92 5.67c3.53 1.52 14.41 3.59 14.4 3.62a38.39 38.39 0 0 0-11.81-7.34c-7.69-2.77-17.4-4.92-22.51-1.95z" style="fill:#388e3c"/><path d="M206.82 444.17a47.43 47.43 0 0 0-12.18-3.89s5.41 5 10.48 7.18a186 186 0 0 1 21.13 10.23c-2.11-3.97-11.56-9.62-19.43-13.52zM181.38 391.19a50.7 50.7 0 0 1 18.21 11.36c2.91 2.72 12.95 4.22 12.95 4.24a83.38 83.38 0 0 0-10.06-7.79c-5.94-4-13.75-7.85-21.1-7.81zM254.79 352.13c-2.08-3.6-5.39-7.05-11.91-10.13 4.7 4.56 5.37 10.17 6.77 13.79 2.2 5.72 6.49 7.35 6.49 7.35s1.11-6.76-1.35-11.01zM247 359.59a30 30 0 0 0-16.29-10.15 23.63 23.63 0 0 1 10.53 13c1.45 4.42 7.66 6.09 7.65 6.1s.92-5.68-1.89-8.95zM262.54 347.42c-.84-3.69-2.37-7.88-7.29-10.63 2.36 3.2 1.41 9.25 2.08 13.21 1.11 6.59 4.76 9.59 4.76 9.59s1.7-6.72.45-12.17zM259.3 370.67a28.61 28.61 0 0 0-10.37-2.11s-.06 4.84 6.35 7c6 2 14.58 2.72 19.18 5.89a44.07 44.07 0 0 0-15.16-10.78z" style="fill:#388e3c"/><path d="M264.25 364.58a23.38 23.38 0 0 0-8.11-1.44s1 3.42 5.92 5.48c4.12 1.72 10.4 2 16.48 5.8-3.75-4.7-9.08-7.86-14.29-9.84zM264.7 358l4.46-2.57c8.67.21 24.19-11.08 24.26-11.05s-8.67 2.89-16.27 5.29c-7.09 2.24-8 5.59-8 5.58l-4.5 2.75a72.72 72.72 0 0 0 8.19 2.32c5.59.94 13.05.61 18.37 3.57-2.21-2.3-7.86-5.93-15-7s-11.05.86-11.51 1.11z" style="fill:#388e3c"/><path d="M272.5 333c-.73 4.75-6 10.27-7.12 15.27a33.35 33.35 0 0 0-.73 9.76 50 50 0 0 0 6.77-11.78c1.58-4.11 1.45-7.83 1.08-13.25zM262.09 359.59s1.28 3.2 6 4.79c3.85 1.29 10.83 2 17.38 5.12a57.31 57.31 0 0 0-15.22-8.21 25.68 25.68 0 0 0-8.16-1.7zM252 376.17c-4.48-2-10.6-1.82-10.59-1.82a12.13 12.13 0 0 0 7.41 7.49c4.59 1.79 9.22 1.08 19.52 6.16-4.68-5.69-9.42-8.79-16.34-11.83zM216.4 385.06c-4.78-3.84-11.88-8.21-19.87-9.24 5.73 3.14 10.94 8.53 14.54 13.54 2.94 4.06 11.23 5.16 11.23 5.17s-1.75-6.15-5.9-9.47zM222.33 378.19c-5-4.27-10.53-10.14-17.7-11.06 5.17 2.79 9.17 10.35 12.89 15.66a14.4 14.4 0 0 0 9.48 5.57 14.27 14.27 0 0 0-4.67-10.17zM222.3 394.53a15 15 0 0 0 9.19 7.76c5.78 1.82 9.37 2.84 17.51 5.71-5.42-4.83-8.83-8.62-15-10.86a51.92 51.92 0 0 0-11.7-2.61z" style="fill:#388e3c"/><path d="M227 388.36a17.09 17.09 0 0 0 9.71 7.29c4.57 1.44 11.38 1.23 18.83 4.18a42.26 42.26 0 0 0-16.37-10.32c-5.17-1.82-12.17-1.16-12.17-1.15zM239.26 364.68a29.61 29.61 0 0 0-15.68-10.87c3.92 2.9 6.46 8.6 9.33 13a22.89 22.89 0 0 0 8.54 7.57s.74-5.55-2.19-9.7zM229.21 371c-5-4.45-7.93-7.75-14.09-8.92 5.52 3.66 6.3 7.09 9.43 12.92 2.68 5.13 10.09 5.79 10.09 5.8a17.7 17.7 0 0 0-5.43-9.8zM234.64 380.81s1.53 5 8.46 7c4.8 1.43 11.51 2.18 19.19 5.66-5.25-4.47-11.8-8.86-17.08-10.75-6.75-2.39-10.57-1.91-10.57-1.91z" style="fill:#388e3c"/><path d="M270.28 354.73c.09-.68-64.88 27.62-85.18 106.91l5.07 1.37c14.06-50.28 37.94-81.8 80.11-108.28z" style="fill:#2e7d32"/><g><path d="M149.27 400.61c7-.58 15.85 1.57 23.2 4 4.47 1.45 15.42-1.64 15.42-1.64a42.83 42.83 0 0 0-14.17-4.14c-8.67-1.06-18.87-1.34-24.45 1.78zM186.78 412.23c1.41 2.94 13.89 5.26 16.88 4.93a193.14 193.14 0 0 1 25.22-1.26c-4.92-3.09-16.84-4.29-26.42-4.75a82.33 82.33 0 0 0-15.68 1.08zM148 410.12a60.65 60.65 0 0 1 23.46 3.09c5 1.68 15.35-1 15.35-1a42.55 42.55 0 0 0-15.09-4.57c-7.96-.64-17.36-.64-23.72 2.48zM191.35 372.88s4.11 6.53 12 6.44c6.6-.07 15.41-2.18 26.45-2.15a138.92 138.92 0 0 0-26.29-3.88c-6.91-.4-12.16-.41-12.16-.41zM171.16 426.71c-7.9.88-17.25 2.68-22.32 6.32a105.8 105.8 0 0 1 21.69-1.51c6.86.25 15.22-4.13 15.22-4.13a51.37 51.37 0 0 0-14.59-.68z" style="fill:#2e7d32"/><path d="M154.71 365.69c5.32 0 13 2.65 19.25 6.95 5.68 3.9 17.39.24 17.39.24a54.49 54.49 0 0 0-12.49-6.54c-7.21-2.69-16.28-4.34-24.15-.65zM187.89 402.93a23.66 23.66 0 0 0 16 5.58c6.63-.21 15.13-1.61 25.25-2-7.84-2.09-18.46-3.08-26.79-3.55a139.49 139.49 0 0 0-14.46-.03zM186.41 433.71s5.94 5.2 13.28 6.52c5.31.95 7.7-2.33 24.1 2.21-4.53-4.91-16.07-8.31-24.45-9.2a51.36 51.36 0 0 0-12.93.47zM202.26 390c6.82-.18 16.26-3.38 26.68-3.75a127.29 127.29 0 0 0-27.19-3.75 84.39 84.39 0 0 0-12 .37s6.02 7.3 12.51 7.13zM189.72 382.87a109.33 109.33 0 0 0-13.64-4.6c-7.76-2.1-17.19-3.46-24.57-.82 8.52.18 16.67 2.89 23.21 5.92 4.14 1.92 15-.5 15-.5zM188.43 393.55a40.23 40.23 0 0 0-14.75-4.94c-8.5-1-18.1-.55-23.2 1.46 5.72 0 16.19 1 23.48 5.7 4.7 3 14.47-2.22 14.47-2.22zM183.64 357.32c-6.46-2.29-15.33-4.33-23.58-2.52 7 1.37 14.47 5.32 20.3 9.41 4.75 3.34 13.48 1.08 13.48 1.08s-4.62-6-10.2-7.97z" style="fill:#2e7d32"/><path d="M200.45 400.06c6.89.11 16.34-2.46 27.91-2.92-7.9-2.3-19.07-3.66-27.27-4.4a48 48 0 0 0-12.66.81s4.32 6.39 12.02 6.51zM202.43 424.88c6.2-.21 14.23-.39 24-.42-8.08-3.16-14.76-3.88-24-4.54a71.5 71.5 0 0 0-16 1.08s11.68 4 16 3.88zM172.12 434.83c-8.39 1.94-18.64 4.12-21.46 7.45 8.2-1.56 14.9-.32 21.38-1.88 4-1 14.37-6.69 14.37-6.69a50.85 50.85 0 0 0-14.29 1.12z" style="fill:#2e7d32"/><path d="M169.59 422.58c4.41.42 16.87-1.58 16.87-1.58a46.58 46.58 0 0 0-15.64-3.58c-9.3-.16-20.43.83-24.73 5.9a97.82 97.82 0 0 1 23.5-.74zM185.75 427.39s8 3.42 14.39 3.65 15.61.43 27.56 1.81c-4.18-3.33-17-5.2-27.18-6.19a56.26 56.26 0 0 0-14.77.73zM210.75 316.32s2.64 3.26 8.3 3.18a111.48 111.48 0 0 1 18.54.62 51.1 51.1 0 0 0-17.28-5.47 21.17 21.17 0 0 0-9.56 1.67zM206.82 325.42s2.37 5.29 9.5 4.69c6.72-.56 15.1-.64 21.1.47-5.93-4-13.82-6.3-19.86-7.59-5.24-1.13-10.74 2.43-10.74 2.43zM195.49 291.26c3.73 2.43 7 6.37 9.62 10.34 4.38 6.62 9.27 8.18 9.27 8.18s-1.58-7.11-5.76-11.5a22.48 22.48 0 0 0-13.13-7.02zM204.09 306.3c-4-2.43-9.71-4.32-17.15-4.93a44.53 44.53 0 0 1 14.12 9.9c4.9 5.23 9.69 5.05 9.69 5.05s-2.29-7.32-6.66-10.02zM222.5 308.73a63.18 63.18 0 0 0-8.12 1 10.18 10.18 0 0 0 8 2.33 161.9 161.9 0 0 1 17.62-.55 38.66 38.66 0 0 0-17.5-2.78zM225.36 301.34c-4.18 1-9.45 5.58-9.45 5.58a60 60 0 0 0 8.64-1.35c5.57-1.66 12.51-3.1 18.92-2.65-3.27-1.31-10.89-3.23-18.11-1.58z" style="fill:#2e7d32"/><path d="M234.13 278.63s-5.93 7.33-11.41 13.49c-5.11 5.74-4.24 9.75-4.24 9.75l-2.57 5.05 2.72-4.89c8.03-3.8 15.5-23.4 15.5-23.4zM214.85 291.86c-2-4.86-4.69-10.42-7.95-14.09 1.85 5.43 3 12.44 4.57 18.33a46.6 46.6 0 0 0 4.44 10.82s1.15-9.61-1.06-15.06zM195.84 325.43a32 32 0 0 0-19.84-5.38c5 1.61 10.12 6.8 14.93 10.37a23.87 23.87 0 0 0 11.73 4.58s-2.04-6.31-6.82-9.57zM195.55 356.54s-2.8-6.68-9.33-9.21c-6.81-2.64-15.55-4.93-22.87-3.25 6.21 1.15 14.25 5.95 20.34 10.28a14.55 14.55 0 0 0 11.86 2.18zM208.56 360.28c5.19-.46 12-1.5 20.74-1.86a99.64 99.64 0 0 0-21.3-5.92c-5.89-.93-12.4 4-12.4 4a18.37 18.37 0 0 0 12.96 3.78zM200.56 316.53c-4.87-2.7-11.86-5.41-20-4.18 6.15 1 12.18 5.15 16.09 9.8 3.53 4.19 10.19 3.27 10.19 3.27s-2.08-6.56-6.28-8.89zM189.41 336.58c-6.86-2.79-15.47-5.41-21.83-4.34a49.31 49.31 0 0 1 19.28 10.68c5 4.55 12.47 2.09 12.47 2.09a22.66 22.66 0 0 0-9.92-8.43zM202.66 335a13.67 13.67 0 0 0 10.77 4.81 182 182 0 0 1 21.66.36 94.21 94.21 0 0 0-21.26-7.4c-5.21-1.17-11.17 2.23-11.17 2.23zM199.33 345s3.88 4.79 11.6 3.92a182.28 182.28 0 0 1 21.66-1.23c-7.38-2.26-14.91-4-20.83-4.33a33.38 33.38 0 0 0-12.43 1.64zM193.84 365.29a16.62 16.62 0 0 0 12.79 4.55c6.63-.55 14.91-2.42 24.4-3.21-7.82-2.61-17.18-3.39-24.37-3.54a38.86 38.86 0 0 0-12.82 2.2z" style="fill:#2e7d32"/><path d="M219.27 300.76s-43.21 57.93-35.16 154.39l6.23-.52c-5.19-62.22 4.73-105.89 28.93-153.87z" style="fill:#326e36"/></g><g><path d="M230.64 433a42.82 42.82 0 0 1 7.22 10 50.4 50.4 0 0 0-4.22-11.4 13.2 13.2 0 0 0-3.49-4.36s-.54 4.76.49 5.76zM235.92 432.17c1.78 2.56 4.47 5.54 6.78 9.29a33.32 33.32 0 0 0-3.7-10.65 15.79 15.79 0 0 0-4.39-4.78 7.89 7.89 0 0 0 1.31 6.14zM221.1 436.45a65.45 65.45 0 0 1 8 10.24 58.1 58.1 0 0 0-4.67-11.69 13.48 13.48 0 0 0-3.85-4.31s-.33 4.86.52 5.76zM225.91 434.81c1.77 2.63 4.71 5.85 7.19 9.94a46.94 46.94 0 0 0-4.52-11.54 15.39 15.39 0 0 0-3.43-4.15 7.65 7.65 0 0 0 .76 5.75zM198.22 435.12c-3.06-2.69-7.06-5.52-9.37-5.46a39.49 39.49 0 0 1 7.45 6.87c1.25 1.47 6.37 4.12 6.35 4.13a20.31 20.31 0 0 0-4.43-5.54zM217.65 452.31c.11-2-2.15-6.58-4.36-10.23a28.09 28.09 0 0 0-4.56-5.52s1.34 5.21 2.55 6.79c1.72 2.26 3.93 5.23 6.37 8.96zM240.72 431a92.39 92.39 0 0 1 5.27 8.17 38.48 38.48 0 0 0-1.81-9.92c-.85-2.6-4.28-4.26-4.29-4.25a6.49 6.49 0 0 0 .83 6zM202.65 440.66s1 4.78 1.78 5.73a59.09 59.09 0 0 1 5.66 9.45c.67-3-1.28-7.43-3.25-10.74a16.56 16.56 0 0 0-4.19-4.44zM214.78 441.85a61.37 61.37 0 0 1 6.86 9.33c0-2.63-2.37-7.52-4.68-11.28a26.1 26.1 0 0 0-4.56-5.33c-.19 1.43 1.44 6.23 2.38 7.28zM214.72 454.86c.23-2.41-2.3-7.73-4.67-11.76a16.37 16.37 0 0 0-4.39-4.8s1.46 5.28 2.19 6.12a50.66 50.66 0 0 1 6.87 10.44zM202 419.39a24.82 24.82 0 0 1 5.6 9.4c.7 1.93 4.83 5.78 4.82 5.78a18.05 18.05 0 0 0-2.33-7.14c-1.98-3.14-4.78-6.59-8.09-8.04zM195.5 422.46a36.25 36.25 0 0 1 7.49 8.19c1.13 1.69 5.76 5.91 5.74 5.91a21.28 21.28 0 0 0-3.17-6.87c-2.62-3.45-6.46-7.2-10.06-7.23zM192.17 426.26a39.1 39.1 0 0 1 7.33 7.21 21.58 21.58 0 0 0 6.16 4.83 19.35 19.35 0 0 0-4-5.95c-2.66-2.6-6.31-5.41-9.49-6.09zM236.3 420.32c-.48-3.07-1.67-7.09-4.73-10a21.41 21.41 0 0 1 .64 10.12c-.38 2.61 2.41 5.58 2.4 5.58s2.09-3.02 1.69-5.7zM256.5 428.85a33.78 33.78 0 0 1 3.73 9 23.37 23.37 0 0 0-.06-9.64c-.45-2.41-3.28-4.32-3.28-4.31a3.9 3.9 0 0 0-.39 4.95z" style="fill:#52a246"/><path d="M260 420a12 12 0 0 0-2-9.19 10.84 10.84 0 0 1-1.56 8.4c-1.35 2.18.49 4.73.48 4.73s2.77-1.79 3.08-3.94zM251.3 429.26a61.23 61.23 0 0 1 4.08 9.18 36.76 36.76 0 0 0-.65-10.2c-.47-2.4-3.37-4.3-3.37-4.29a5.38 5.38 0 0 0-.06 5.31zM265.86 420a14.66 14.66 0 0 0-.84-8.1 17.44 17.44 0 0 1-2.25 7.51 5.14 5.14 0 0 0-.44 5s3.01-2.13 3.53-4.41zM254.61 419.43a12.09 12.09 0 0 0-1.62-9.28c.3 2.38-1.21 5.41-1.92 8a9.38 9.38 0 0 0 .29 5.76 9.29 9.29 0 0 0 3.25-4.48zM276.34 426.32c-3.75-1.58-5.83-.68-5.83-.69 2.83 2.92 14.38 4.23 14.4 4.31s-4.56-1.94-8.57-3.62zM270.78 420.9a8.51 8.51 0 0 0 1.2-6.64 15.63 15.63 0 0 1-3.54 5.55 15.15 15.15 0 0 0-3.21 4.89s4.06-1.42 5.55-3.8zM268.28 425.14a7.87 7.87 0 0 0 1.67 3.65 22 22 0 0 1 4.37 7.93 13.47 13.47 0 0 0-2.15-8.12 16.46 16.46 0 0 0-3.89-3.46zM281.08 417.72c-2.54 1.39-6 2.71-8.68 4.14a12.4 12.4 0 0 0-4.12 3.28c-.15 0 4.46-.71 6.87-2.32a26 26 0 0 0 5.93-5.1zM244.78 408.83a18.62 18.62 0 0 1-.79 10c-1 2.91 1.44 5.52 1.43 5.52a8.51 8.51 0 0 0 2.26-5.64c-.15-3.4-.8-7.45-2.9-9.88zM224.52 421.89c-1.06-3.51-3-7.51-6.32-9.69a22.05 22.05 0 0 1 3.6 10.35c.24 2.05 3.36 6.5 3.35 6.51a18.68 18.68 0 0 0-.63-7.17zM230.78 420.31c-.55-3.44-2.07-7.44-6-9.66 1.46 2.08 2.2 5.69 1.81 9.12-.33 3.11 3.58 7.51 3.56 7.52a15.73 15.73 0 0 0 .63-6.98zM241.72 419.37c-.32-3.3-1.27-7.33-4-10 1 2.75.57 7 0 10.33-.56 3.13 2.18 5.29 2.17 5.29a8.52 8.52 0 0 0 1.83-5.62zM225.45 449.09c-1-3.54-3.56-7.7-5.09-11.23-1.79-4.12-3.79-5.3-3.79-5.3s.68 5.91 1.83 7.24a83.74 83.74 0 0 1 7.05 9.29zM206.67 417.27c2.35 2.42 3.94 6.29 5 9.65.64 2 4.94 5.64 4.94 5.64a16.85 16.85 0 0 0-2-6.63c-2.01-3.54-4.83-7.44-7.94-8.66zM219.12 423.4c-1.83-3.51-4.76-7-7.2-8.44 1.66 2.15 4.14 6.37 4 10.3 0 2.52 4.64 5.4 4.62 5.41a14.59 14.59 0 0 0-1.42-7.27z" style="fill:#52a246"/><path d="M245.44 424.31a6.13 6.13 0 0 0 1.05 5.54 59.69 59.69 0 0 1 5 8.8 36.16 36.16 0 0 0-2.19-9.46 13 13 0 0 0-3.86-4.88zM262.14 428.37a40.47 40.47 0 0 1 3 8.06 20 20 0 0 0-.42-8.23 9.57 9.57 0 0 0-2.41-3.78 3.77 3.77 0 0 0-.17 3.95zM266.36 428.74a55.05 55.05 0 0 1 3.27 7.57 15.5 15.5 0 0 0-1.6-8 12.35 12.35 0 0 0-2.8-3.62 8.74 8.74 0 0 0 1.13 4.05z" style="fill:#52a246"/><path d="M271.42 425.86c1.55 0-37.63-12.76-77.31 19.18.69.67 1.37 1.35 2 2 26.13-19.96 47.53-24.83 75.31-21.18z" style="fill:#388e3c"/></g><g><path d="M195.35 440c-.1-19.74.83-148-44-148-14 0-18 10-18 23 0 41 51.22 122.9 55 163h6s1.07-30.06 1-38z" style="fill:#558b2f"/><path d="M194.35 478c0-43-15.64-141.78-48.38-185.41 34 55.58 44.38 158.19 44.38 185.41z" style="fill:#639440"/></g><path d="M255.08 464.05C240.18 455 223.72 456 212 456c-11 0-14.6 4.2-17 9-2 4-5 6-5 9s1 9 21 9c17 0 28-3 34-5s18-2.82 18-7c0-2-2.42-3.62-7.92-6.95z" style="fill:#c2a58a"/><g><path d="M225.41 443c-.56-3.93-2.27-8.24-4.33-10.36 1 2.58 1.93 7.39.39 11.06-.94 2.37 2.77 6.62 2.73 6.64a13.94 13.94 0 0 0 1.21-7.34zM244 457.92a82 82 0 0 1 1.77 9.58 38.22 38.22 0 0 0 2.3-9.83c.28-2.73-2.41-5.6-2.42-5.6a6.27 6.27 0 0 0-1.65 5.85zM233.36 456a39.37 39.37 0 0 1 3.21 12 48.44 48.44 0 0 0 .27-12.15 12.45 12.45 0 0 0-1.75-5.32s-2.35 4.14-1.73 5.47zM218.78 458.27a73.29 73.29 0 0 1 3.74 11.08c.26-3.68-.83-8.46-1.12-12.28-.33-4.49-1.94-6.25-1.94-6.25s-1.38 5.81-.68 7.45zM219.76 443.88c-.71-4-2.23-8.58-5.1-10.7 1.62 3 1.88 7.21 1.74 10.71-.05 2.13 3.07 6.91 3.06 6.93a15.94 15.94 0 0 0 .3-6.94zM228 456.05c.79 3.08 2.49 7.12 3.37 11.82a44.71 44.71 0 0 0-.14-12.39 14.5 14.5 0 0 0-1.85-5.09s-2.12 2.72-1.38 5.66zM222.69 456a58.5 58.5 0 0 1 4.22 12.33 55.24 55.24 0 0 0-.38-12.59 12.81 12.81 0 0 0-2.28-5.35s-2.15 4.44-1.56 5.61zM238.87 457.17c.75 3 2.17 6.81 2.91 11.15a32.25 32.25 0 0 0 .64-11.25A15 15 0 0 0 240 451a7.51 7.51 0 0 0-1.13 6.17zM210.5 459.43c1 2.68 2.23 6.18 3.42 10.47.74-1.89 0-6.92-1-11.07a26.35 26.35 0 0 0-2.79-6.64s-.34 5.38.37 7.24zM250.07 459.11a55.89 55.89 0 0 1 1.07 10.07 35.72 35.72 0 0 0 1.88-9.54 12.49 12.49 0 0 0-1.63-6 5.9 5.9 0 0 0-1.32 5.47zM191.57 440.13a35.09 35.09 0 0 1 5.76 8.55c.88 1.74 5.32 5.68 5.29 5.7a18.91 18.91 0 0 0-2.86-6.55c-2.33-3.43-5.71-7.19-8.19-7.7zM202.62 454.38s-.4 4.89 0 6a53.29 53.29 0 0 1 2.81 10.62c1.52-2.65 1-7.49 0-11.24a15.66 15.66 0 0 0-2.81-5.38zM214.58 443.89c-.9-3.58-2.62-7.74-5.69-10.11a22.22 22.22 0 0 1 2.63 10.65c.08 2 3 7 3 7a16.84 16.84 0 0 0 .06-7.54z" style="fill:#5ab54e"/><path d="M209.15 444.7c-1.55-4.07-4.35-8.8-8.19-9.8a32.13 32.13 0 0 1 5.2 10c.64 2 4 7.34 4 7.34a19.48 19.48 0 0 0-1.01-7.54zM214.5 451.4c-.64 1.28-.61 6.37 0 7.65a56.81 56.81 0 0 1 3.66 11c.91-2.48.2-7.89-.84-12.17a23.65 23.65 0 0 0-2.82-6.48zM196.16 437.67a34.82 34.82 0 0 1 5.46 8.93 21.81 21.81 0 0 0 4.81 6.35 17.64 17.64 0 0 0-2.16-6.82c-1.96-3.27-4.92-6.98-8.11-8.46zM206.69 459.46a46.57 46.57 0 0 1 3.56 12c1-2.23.16-8.07-.94-12.63a15.61 15.61 0 0 0-2.91-5.83s-.16 5.43.29 6.46zM262.44 453a11.53 11.53 0 0 0 2.69-9.06c-.83 2.26-3.7 4.33-5.58 6.42a8.94 8.94 0 0 0-2.27 5.35s3.41-.66 5.16-2.71zM254.92 460.57a59.63 59.63 0 0 1 0 10 38.14 38.14 0 0 0 3.76-9.55c.6-2.38-1.34-5.32-1.35-5.31a5.28 5.28 0 0 0-2.41 4.86zM260 462.35a32.29 32.29 0 0 1-.46 9.76 24.15 24.15 0 0 0 4.18-8.73c.66-2.37-1.16-5.31-1.17-5.31a3.9 3.9 0 0 0-2.55 4.28zM274.57 465.67c1.24 3.73 10.36 10.1 10.88 10.61-.24-.32-3.17-4-5.89-7.27s-5.01-3.34-4.99-3.34zM280.17 465.36a30.26 30.26 0 0 0 8-1.57c-3-.05-6.83-.56-10-.58a12.85 12.85 0 0 0-5.37 1 23.36 23.36 0 0 0 7.37 1.15zM267.36 455.9a11.45 11.45 0 0 0 2.33-9.13c-.54 2.84-2.9 5.33-5.44 6.85-2.29 1.37-1.67 4.46-1.68 4.46s3.48-.41 4.79-2.18zM265.54 464.35a39.77 39.77 0 0 1-.81 8.57 20.6 20.6 0 0 0 3.3-7.57 9.2 9.2 0 0 0-.52-4.47 3.75 3.75 0 0 0-1.97 3.47zM277.07 461.57a8.7 8.7 0 0 0 4.37-5.28 17 17 0 0 1-6 3.23 15 15 0 0 0-5.3 2.88s4.4.6 6.93-.83z" style="fill:#5ab54e"/><path d="M276 451a18.49 18.49 0 0 1-5.75 5.66c-2.92 1.82-2.72 4.27-2.73 4.26s3.81-.56 5.38-2.33A14.3 14.3 0 0 0 276 451zM236.28 433.05c.67 2.47-.06 6.1-1.82 9.16-1.56 2.78.66 8.3.63 8.3a15.78 15.78 0 0 0 3.45-6.24c.83-3.41.96-7.7-2.26-11.22zM244 446.33c.79-3 1.31-7.18-.59-11-.14 3.27-1.79 6.81-3.57 9.6-1.44 2.28.16 6.08.14 6.08s3.35-2.01 4.02-4.68zM228.77 432.15a20.16 20.16 0 0 1-.3 11c-.53 2 .95 7.27.93 7.27a18.18 18.18 0 0 0 2.1-6.93c.29-3.69-.06-8.11-2.73-11.34zM249.84 447.57c1.1-3.15 1.93-7.22.35-10.71-.21 2.92-2.47 6.63-4.48 9.47-1.87 2.67 0 5.72-.06 5.72a9 9 0 0 0 4.19-4.48zM272.56 468.23a20.86 20.86 0 0 1 .29 9 13.5 13.5 0 0 0 1.84-8.21 16.08 16.08 0 0 0-1.95-4.85 7.57 7.57 0 0 0-.18 4.06zM268.83 474.79a15.32 15.32 0 0 0 2.19-7.86 12 12 0 0 0-.91-4.5 8.1 8.1 0 0 0-.82 4.11 54.13 54.13 0 0 1-.46 8.25zM256.05 449.39c1.31-3.12 2.51-7.07 1.52-10.15a18.55 18.55 0 0 1-5.21 8.74c-2.3 2.24-1 5.63-1 5.63s3.43-1.28 4.69-4.22z" style="fill:#5ab54e"/><path d="M275.29 466.3c2.6 1.21-30.9-30.81-82.72-9.94.52.82 1 1.65 1.53 2.48 32.39-12.54 57.45-8.49 81.19 7.46z" style="fill:#4a984e"/></g><g><path d="M239.55 344.75c-9.32-4.1-20 9.68-24.12 15.75-7.58 11.32-13 24.1-17.51 36.93C187.1 428.3 186 461 186 461h7s5.65-16.19 8.65-21.88q9.57-18.12 19.1-36.27c3.98-7.61 31.85-52.45 18.8-58.1z" style="fill:#689f38"/><path d="M191.38 461c8.88-41.25 22.76-79.08 47.31-116.56-30.08 34.85-47.62 94.24-51.38 116.58z" style="fill:#7cb342"/></g><g><path d="M239 398c-21-.51-47.85 48.95-54 63h8s10.59-8.5 24-18c19.5-13.81 32-25 32-35 0-8-7.09-9.93-10-10z" style="fill:#9ccc65"/><path d="M187 461c13-28 41.42-48.59 59.35-59.93C229.42 414.41 204 435 191 461z" style="fill:#aed581"/></g><g><path d="M151.78 372.25c-15.86-20.59-27.56-25.56-35.84-24a13.28 13.28 0 0 0-4.31 1.52c-10.33 6.09 4.27 24.85 8.84 30.63 5.74 7.26 33.36 41.62 51.66 72.55A266.29 266.29 0 0 1 184.84 478H189c0-25.49-12-73-37.22-105.75z" style="fill:#689f38"/><path d="M111.63 349.75c27 22.6 47.63 53.69 62 85.76 8.12 18.14 12.94 42.49 12.94 42.49H189c-10-49.45-38.21-96.45-77.37-128.25z" style="fill:#7cb342"/></g><g><path d="M182.4 472.88c-11.73-13.17-25.68-25.52-41.89-32.83-7.67-3.46-16.12-6.05-24.51-6.05-7 0-17 1.28-17 9.91 0 5.7 9.56 8.79 14.14 10.58 7.53 2.93 18 4.8 25.86 6.82A189.27 189.27 0 0 1 180.37 478l4.56-2.22z" style="fill:#9ccc65"/><path d="M100.22 439.44c54.72 10.29 81.78 37.78 81.78 37.78l2.53-1.23c-21.75-20.53-56.9-33.99-84.31-36.55z" style="fill:#aed581"/></g><g><path d="M133 436.67c18.43 10.67 27.32 17.08 41.36 41.33H183s-4.75-23.31-19.5-43.17C156.13 424.91 140 405 116 405c-2.58 0-4.41.53-5.53 1.5A4.36 4.36 0 0 0 109 410c0 7 9.25 18.13 24 26.67z" style="fill:#7cb342"/><path d="M111 406.05c18.31 7 33.58 21.61 46.21 36.81C169 457 178 478 178 478h4.85s-5.39-16.62-23.85-38c-12.34-14.3-29.47-27.61-48-33.95z" style="fill:#9ccc65"/></g><path d="M209 460.94c0 3.06-1.91 25.06-23.06 25.06h-5c-9 0-23.95-7-23.95-13 0-8 15.74-23 37.92-23 10.98 0 14.09 7.88 14.09 10.94z" style="fill:#e5c2a3"/><path d="M120 476.18c.1-3.18 6.09-11.18 32-11.18 10 0 12.17 1.59 19 5 8 4 10 7.85 10 11 0 5-7.71 7-12 7-7.69 0-21-5-41.92-5-5.97 0-7.18-3.64-7.08-6.82z" style="fill:#edd2b5"/></g><g><path style="fill:#e3f2fd" d="M523 486H343l3.22-5 3.86-6 5.16-8 3.22-5 4.51-7 3.22-5L381 427h104l14.81 23 3.22 5 4.51 7 3.22 5 5.16 8 3.86 6 3.22 5z"/><path style="fill:#8fbae5" d="M490.15 435h-114.3l2.57-4h109.16l2.57 4zM495.95 444h-125.9l2.58-4h120.74l2.58 4zM503.03 455H362.97l3.22-5h133.62l3.22 5zM510.76 467H355.24l3.22-5h149.08l3.22 5zM519.78 481H346.22l3.86-6h165.84l3.86 6z"/></g><g><path d="m500 373-.5 6-.45 5.46-.73 8.74a.89.89 0 0 1-.9.8h-8.84a.89.89 0 0 1-.9-.8l-.73-8.74-.45-5.46-.5-6z" style="fill:#e53935"/><path style="fill:#5d4037" d="m499.76 379-.71 5.46h-12.1l-.45-5.46h13.26zM486.93 371h12.14a1.92 1.92 0 0 1 1.93 1.91V374h-16v-1.07a1.92 1.92 0 0 1 1.91-1.93z"/></g><g><path d="M476.79 433C465 477 384 476 368 476c-30 0-33-9-33-12 0-9 27-24 54-31 11.66-3 39 0 39 0z" style="fill:url(#f)"/><path d="M464 406c-6 0-31 3-31 3s-24.37-3-31-3c-18 0-20 6-20 12 0 8 10.31 16 10.31 16h81.38S484 426 484 418c0-6-2-12-20-12z" style="fill:#e6b175"/><path style="fill:#dbad79" d="M402 406h12v14h-12z"/><path d="M406 412c-2-2-5.79-.54-5.79-.54s-3.15.62-7.13 6.6c-3.21 4.84-5.29 13-3.3 15.95s4.3 3 4.3 3zM461 413c.77-1.58 3.25-1.89 4.31-2a2.46 2.46 0 0 1 1 .18c1.07.46 3.59 2 6.57 6.52 3.21 4.92 5.29 13.18 3.3 16.22s-4.3 3-4.3 3z" style="fill:#6d4c41"/><path d="m461 413-8 2-39 1-8-4s-12 9-12 25c0 0 12 19 27 19 6 0 9-1 12-1s6 1 12 1c15 0 27-19 27-19a30.66 30.66 0 0 0-11-24z" style="fill:#4e342e"/><g><path d="M458 393s5.46 10.46 9 14c3 3 5 3 6 3 3 0 8-4 18-18h2c3.16 0 8-4 8-7v-3c0-2-.14-4-1.42-4a4.53 4.53 0 0 1-1.86 3.18 16.28 16.28 0 0 1-4.11 2.1 11.48 11.48 0 0 1-3.61.72 9.22 9.22 0 0 1-3.22-2.07l-.36-3.93s-2.42 2-2.42 4a26.36 26.36 0 0 0 .7 3.75 2.23 2.23 0 0 1-.92 2.12l-8.7 6.21L470 384c-2 4-12 9-12 9zM395.38 385.5a96.16 96.16 0 0 0-4.5 14.75A36.68 36.68 0 0 0 390 408c0 1.41.5 4 7.67 4 10.46 0 22.33-7 22.33-7l-2-7-12 1s2.63-5.25 3-7a39.47 39.47 0 0 1-13.62-6.5z" style="fill:#d19a5c"/><path d="M463.31 367c-3.94-7.21-19.31-8-30.31-8s-26.37.77-30.31 8c0 0-6.69 12-7.69 18 0 0 1 2 7 5 6.81 3.41 7 3 7 3a26.69 26.69 0 0 0 4-8 108.75 108.75 0 0 1 1 13c0 6-5 19-5 23s6 11 24 11 24-7 24-11-5-17-5-23a108.75 108.75 0 0 1 1-13 26.69 26.69 0 0 0 4 8s.19.41 7-3c6-3 7-5 7-5-1-6-7.69-18-7.69-18z" style="fill:#ffb300"/><path d="M408.09 395.94a58.5 58.5 0 0 1-13.09-7.4 3.56 3.56 0 0 1-1.5-3.08c0-2.72 1.9-4.3 2.39-3.87a52.89 52.89 0 0 0 14.63 8.92c.49.2.73 1.75.11 3.12-.93 2.01-1.92 2.56-2.54 2.31zM457.91 395.94a58.5 58.5 0 0 0 13.09-7.4 3.56 3.56 0 0 0 1.5-3.08c0-2.72-1.9-4.3-2.39-3.87a52.89 52.89 0 0 1-14.63 8.92c-.49.2-.73 1.75-.1 3.12.92 2.01 1.91 2.56 2.53 2.31z" style="fill:#ffcc80"/><path d="M433 315c-5 0-14 1-18 15-1.13 4-3.78 7.88-6.62 9.25C404.75 341 402 346 402 350.13c0 3.06 1 4.37 1 8.37a9.44 9.44 0 0 1-3.5 7.75c-2.62 2-3.5 4-3.5 5.75 0 3.37 4.38 5 10 5 6.32 0 6 3 12 3 6.75 0 7.42-4.84 12-6 2-.51 4.8-.22 7.61-2.38 3.1-2.39 2.39-6.62 6.39-7.62s10-3 10-14c0-9-4-11-4-17 0-5-2.63-18-17-18z" style="fill:#6d4c41"/></g></g><g><path d="M529.92 454c-20 .11-37 7.7-36.92 18.95 0 10 14.09 26.29 49.63 26.05 32.44-.22 39.25-13.34 39.37-19 .19-9.32-19.09-26.17-52.08-26z" style="fill:#ffb300"/><path d="M519.09 469.83c0-5.39 5.31-16.83 17.91-16.83 16 0 19 16.06 19 18.72 0 0-3 7.28-18 7.28-16 0-18.91-9.17-18.91-9.17z" style="fill:#ffca28"/><path d="M530.58 475.53S524 480.18 524 485c0 5 1 4 1 9s-7 7.5-7 7.5l8 .5 1 6s7-4 7-10-4-8.22-4-13c0-4 2.75-8.38 2.75-8.38z" style="fill:#5d4037"/><path d="M526.87 475.57S525 479 517 479c-9 0-10 11-18 14a29 29 0 0 1-12.94 2l7.94 4-6 7s13 0 20-7c5.43-5.43 4-11 12-14a20.08 20.08 0 0 0 10-9z" style="fill:#5d4037"/><path d="M539 473c-13.34 0-17.58-6.61-18.62-8.73a15 15 0 0 0-1.29 5.56S522 479 538 479c15 0 18-7.28 18-7.28a19 19 0 0 0-1-5c-2.32 2.67-7 6.28-16 6.28z" style="fill:#6d4c41"/></g><g><path d="M633 467v1.1a4.85 4.85 0 0 0 4 4.78 7 7 0 0 0 1.29.12 13.32 13.32 0 0 0 5.38-1.49l.36-.17c1.4-.62 2.38-1.16 3.51-1.78l.92-.5c.71-.34 1.43-.64 2.17-.91a50.24 50.24 0 0 0 7.29-3.39 15.22 15.22 0 0 0 5-4.51 9.74 9.74 0 0 0 1-2.86 10.27 10.27 0 0 0 .08-2v-.07c0-3-1.66-6.35-5.28-6.35-1.44 0-6.37 7.35-11 10.74A50.74 50.74 0 0 1 633 467z" style="fill:#c62828"/><path d="M659.07 449a12 12 0 0 0-7.49 2.63 63 63 0 0 0-7.53 6.89 17.28 17.28 0 0 1-3 1.94c-1.3.74-3.51 1.89-5.78 3.38-1.84 1.2-2.57 2.65-2.06 4a5.13 5.13 0 0 0 4.17 3.05c2.11.38 4.18-.65 5.87-1.4s2.74-1.39 4.28-2.22 5.41-1.92 9.41-4.26c3.78-2.23 6.11-5.33 6.11-8.62 0-2.9-1.12-4.21-2.22-4.83a4.78 4.78 0 0 0-1.76-.56z" style="fill:#e53935"/><path d="M655 452a19.22 19.22 0 0 1-1.62 7.5 21.73 21.73 0 0 1-6.38 8.06l.48-.26c.88-.48 2.54-1 4.53-1.87a14.54 14.54 0 0 0 3.52-5.48A20.92 20.92 0 0 0 657 451a12.27 12.27 0 0 0-5-1 14.17 14.17 0 0 0-7.29 2.22A18.08 18.08 0 0 1 651 451a10.26 10.26 0 0 1 4 1z" style="fill:#fbc02d"/><path d="M644.71 452.22a8.43 8.43 0 0 0-2.33 2.28 11.11 11.11 0 0 0-1.38 6 17.67 17.67 0 0 0 3-1.9 7.8 7.8 0 0 1 1-4.2 9 9 0 0 1 4-3.25 18.1 18.1 0 0 0-4.29 1.07z" style="fill:#ff8f00"/></g><g><path d="M609 450c-4.84 3.06-14 8.5-14 8.5 0 2.38.42 3.72 1.12 4.61a4.91 4.91 0 0 0 3.81 1.89h.07c3.88 0 7.11-2.27 10-4.27a22.69 22.69 0 0 1 4.72-2.8l1.49-.52a43.79 43.79 0 0 0 9.66-4.25c3.07-2 3.13-3.86 3.13-5.31 0-2.79-3.14-5.85-8.63-5.85-.04 0-6.53 4.94-11.37 8z" style="fill:#c62828"/><path d="M620 442c-3 0-6.7 1.89-10 4.19-1.34.94-2.69 1.83-3.94 2.65-1.54 1-2.92 1.93-3.89 2.64-2.82 2.09-7.17 3.41-7.17 6.89 0 1.72 1 4.63 5 4.63 5.32 0 9.53-5.33 14-6.95 2.54-.92 7.18-2.27 10.75-4.57 3.25-2.1 3.25-4.08 3.25-5.24 0-2.36-3-4.24-8-4.24z" style="fill:#e53935"/><path d="M620.94 445.86s.34 1.2-.92 3.73c-1.68 3.35-5.75 5.1-6.27 5.41-2.75 1.63-3.37 3-3.37 3a17.2 17.2 0 0 1 3.61-2l1.69-.58A10.85 10.85 0 0 0 623 445c-1.62-1.37-5.08-2-7.75-2-7.07 0-9.62 3-9.62 3 1.25-1 2.87-2 7.5-2a22.22 22.22 0 0 1 7.81 1.86z" style="fill:#fbc02d"/><path d="M606.06 448.84c.11-.67.39-1.91 2.57-3.46a7.39 7.39 0 0 1 3.11-1.34c-3.58.18-5 1.07-6.11 2a8.1 8.1 0 0 0-2.64 4.9c.86-.64 1.92-1.33 3.07-2.1z" style="fill:#ff8f00"/></g></svg>