<svg xmlns="http://www.w3.org/2000/svg" viewBox="0 0 1600 1200"><defs><clipPath id="a"><path d="M0 0h82.2v80H0z"/></clipPath></defs><g clip-path="url(#a)" transform="matrix(2.118 .45082 -.445 2.09066 1379.75 402.345)"><path d="M12 59.5c-4.7 0-8.5 3.8-8.5 8.5s3.8 8.5 8.5 8.5 8.5-3.8 8.5-8.5-3.8-8.5-8.5-8.5zm4 11.4c-1.1-.3-2.1.3-2.4 1.4 0 .1-.1.3-.1.4-.7-.8-1.9-1-2.8-.3l-.3.3c-.1-1.1-1-1.9-2.1-1.9-.1 0-.3 0-.4.1.6-.9.3-2.1-.6-2.7 0-.1-.1-.1-.3-.2 1-.4 1.5-1.5 1.1-2.5 0-.2-.1-.3-.1-.4 1.1.3 2.1-.3 2.4-1.4 0-.1.1-.3.1-.4.7.8 1.9 1 2.8.3l.3-.3c.1 1.1 1 1.9 2.1 1.9.1 0 .3 0 .4-.1-.6.9-.3 2.1.6 2.7.1.1.2.1.4.2-1 .4-1.5 1.5-1.1 2.5-.1.2 0 .3 0 .4z" style="fill:#37474f"/><path d="M82.2 14 69 21.9c-2.4-.8-4.4-2.5-5.6-4.7-1.4-2.1-2-4.6-1.6-7.1L75 2c-6-2.9-13-2.7-18.7.6-8.2 5-4.5 17.1-6.7 19.3l-34 34c-.2.2-.6.3-.9.3-2.2-.5-4.4-.3-6.5.4-4.7 1.7-7.9 6-8.1 11C-.2 74.3 5 79.8 11.7 80h.6c5-.2 9.3-3.4 11-8.1.8-2.1.9-4.3.4-6.5-.1-.3 0-.7.3-.9l34.1-34.1c.6-.5 1.5-.6 2.2-.3 2.6 1.2 8.2 2.9 12.7.2 5.6-3.7 9-9.8 9.2-16.3zM12 75.5c-4.1 0-7.5-3.4-7.5-7.5s3.4-7.5 7.5-7.5 7.5 3.4 7.5 7.5-3.4 7.5-7.5 7.5z" style="fill:#b0bec5"/></g><defs><clipPath id="b"><path d="M0 0h142.7v265.6H0z"/></clipPath></defs><g clip-path="url(#b)" transform="matrix(4.0084 0 0 4.00226 911 87)"><path d="M87.6 19.5c-4-.4-7.8-1.9-11-4.2-6.5-4.6-10.5-7.5-17.1-5.7-6 1.7-7.1 8.2-3.7 10.6 5.1 3.6 15.9-.8 20.2 1 8.7-.8 11.6-1.7 11.6-1.7z" style="fill:#b71c1c"/><path d="M79.9 4.3c-3.3-1.7-6.6-1.1-12.1 2-3.8 2.1-6.3 6.1-6.5 10.5-.6 13.8 1 26.1 8.1 26 10-.1 14.2-6.4 16-8.8 2.7-4.2 4.2-9.1 4.5-14.1 0-5.6-2.1-11.7-10-15.6z" style="fill:#ffccbc"/><path d="M67.6 40.3s2 5.2.9 9.1c-.3 1.1-1 2.2-1.9 2.9-2.7 6.1 2.4 13.5 8.5 12.7 5.5-.8 10.8-4.6 14.8-14.9-.9-1.1-1.7-2.4-2.2-3.7-1.6-4.7-2-9.7-1-14.5.7-4.7-16.1-1-19.1 8.4z" style="fill:#ffccbc"/><path d="M91.1 20.5S95 2.6 78.8.2c-8.7-1.3-15.6 3.3-16.5 10 8.9 2 12.5 7.8 17.9 9.7 2.8 1 5.8 1.1 8.6.3 1.4.2 2.3.3 2.3.3z" style="fill:#c62828"/><ellipse transform="rotate(-75.705 88.55 23.872)" cx="88.5" cy="23.9" rx="5.1" ry="3.2" style="fill:#ffccbc"/><path d="M86.5 20.7s-3.6-.6-9.8-5.4c-6.3-4.9-10.5-7.4-17.1-5.6 7.5.8 12.2 9.1 15.6 11.5 5.1 3.6 11.3-.5 11.3-.5z" style="fill:#e53935"/><path d="M123.9 88.5c-1.4 4.2-2.7 6.9-1.5 10.6.8 2.5 1.8 4.8 3 7.1 4.4 8.8 7.8 8.9 9.5 1.6 1.2-5.6.2-6.5-1.2-8.1-.6-.7-1.3-1.7-1.9-2.5-.8-1.1-.9-2.5-.4-3.7l-7.5-5z" style="fill:#ffccbc"/><path d="M141.5 75.6 133.8 96c-5.1-5.1-12.2-3.8-12.2-3.8l3.3-15.5-18.1 1.8-.6 5.9s-.6 13.7-1.3 19.1c-.3 3.4-.3 6.8 0 10.2.5 7.4-1.7 9-1.7 9s-25.9 12.4-51.8 0c.1-.9-1 .1-.6-6.6.1-1.2 3.7-30.8 3.7-30.8L44.2 68.4c.8-4.9 4.9-10.7 9.7-12.8l14.6-6.2s2.1 5.9 7.7 5.8c5.4 0 10.1-3.6 11.5-8.8l17.5 4.6c2.8.8 5.4 2 7.7 3.7l23 7.7c4.8 1.3 7.7 6.2 6.5 11-.2.8-.5 1.5-.9 2.2z" style="fill:#64b5f6"/><path d="m105.2 51-5.5-1.5-8.7 43 7.8 1.9 8.7-42.6c-.7-.3-1.5-.6-2.3-.8zM67.8 92.5 60 94.3c-6.2-21.2-6.9-36.2-7-38.3l7.5-3.3c.2 2.3 1.6 22 7.3 39.8z" style="fill:#3949ab"/><path d="m99.8 86.7-2.7 38.6c-17.2 9.1-35.3 4.6-41.1-.4-3.4-15.2 2.6-40.9 2.6-40.9 13 1.5 41.2 2.7 41.2 2.7z" style="fill:#3949ab"/><path d="m90.5 94.5-1.8 22.6s-14.7 2.1-23.6.3C63.7 101 67 93.7 67 93.7l23.5.8z" style="fill:#4859af"/><path d="m124.9 76.7-18.1 1.8s4.3-17.5 6.1-23.8l23 7.7c-8.9-.6-11 14.3-11 14.3z" style="fill:#54b0ef"/><path d="M102.7 130.7c3 17.4-3.8 41.8-7.4 60.3.2 5.6-.6 12-2.2 20.5-1.6 8.7-23.7 16.3-23.7 16.3l3.6-39.3-1.4-31.6 2.4-26.5c.1-.1 27.7-5.6 28.7.3z" style="fill:#3949ab"/><path d="M93.2 211.5s-7.7 39.8-11.1 54.1H66l6.4-70.2 20.8 16.1z" style="fill:#344599"/><path d="M17.1 104.9s-.8-.2-1.5-.3c-2.7-.5-12.2-2-13.6-4.1-1.4-2.2-3.2-8.2-.7-9.7 1.6-.9 6.7.6 11.2 2.6.5.3 1.1.1 1.4-.5v-.1c-.2-.4-.5-.7-.9-1-.2-.1-1-.5-1.6-.9-.8-.5-1.2-1.4-1.1-2.3 0-.3.3-.6.7-.6h.2s3.7 1.4 4.9 1.8c2.2.7 3.6 5.8 3.6 5.8l.9.4-3.5 8.9z" style="fill:#ffccbc"/><path d="m44.2 68.3-9.1 29.4-15.5-2.2-3.8 9.3s25.3 9.1 30.8 5.2c4-2.8 9.3-20.3 9.2-28.4-3.5-10.7-11.6-13.3-11.6-13.3z" style="fill:#64b5f6"/><path d="M13.9 104.7H4.1c-.5 0-1-.4-1-.9L1.2 80.4h15.5l-1.9 23.4c.1.5-.3.9-.9.9z" style="fill:#e53935"/><path style="fill:#5d4037" d="m16 89.8-.3 3.9H2.3L2 89.8zM.1 81.4V80c0-1 .9-1.9 1.9-1.9h13.9c1 0 1.9.9 1.9 1.9v1.4H.1z"/><path d="M12.4 91.8c0 2.8-1.6 5.1-3.4 5.1s-3.3-2.3-3.2-5.2c0-2.8 1.6-5.1 3.4-5.1s3.2 2.4 3.2 5.2z" style="fill:#ffe6c2"/><path d="M66 265.6c0-4.3 3.5-7.8 7.8-7.8s7.8 3.5 7.8 7.8H66z" style="fill:#212121"/><path d="M103.6 245.3c1.5-2.1 1-5.1-1.1-6.6-2.8-2.2-5.8-4.2-8.9-6.1l-7.7 5.1s-.3.4 1.7 2.3c4.5 4.3-.1 17.2-1.6 17.5-6.1 1.5-4 8.1-4 8.1h9.2c2.4-1 9.1-14.9 12.4-20.3z" style="fill:#212121"/><path d="M44.3 199.2c24.1 28.2 41.8 46.6 41.8 46.6l12-12.1S81.4 202 67.7 191.1c-.7-.6-.9-1.5-.6-2.3 4.2-11.2 7.9-27.7 9-31.7-2.4-8.2 1.3-22.2 1.3-22.2l2.3-4.2-29.1.6c-.8 2.4-8.9 33.6-8.7 61.3 0 2.4.9 4.8 2.4 6.6z" style="fill:#3949ab"/><path d="M102.7 130.7c.1-3 .5-5.8.5-8 0 0-25.2 9.8-51.8 0l-.8 8.6c.1 0 31.6 8.8 52.1-.6z" style="fill:#2e3f93"/></g><g><defs><clipPath id="c"><path d="M0 0h144v250H0z"/></clipPath></defs><g clip-path="url(#c)" transform="matrix(-3.96528 0 0 3.96 744 154)"><path style="fill:#bdbdbd" d="M27 8.5h47.471v13H27zM0 2.5h21v6H0zM0 21.5h21v6H0z"/><path transform="rotate(-45.001 101.638 41.734)" style="fill:#bdbdbd" d="M95.104 4.546h13.069v74.372H95.104z"/><circle style="fill:#78909c" cx="77.013" cy="15.994" r="11"/><circle style="fill:#e0e0e0" cx="77" cy="15.5" r="6"/><path style="fill:#78909c" d="M30 7.042h4v16.959h-4zM37 7h4v17h-4zM21 0h6v31h-6z"/><circle style="fill:#90a4ae" cx="77" cy="15.5" r="3"/><path style="fill:#90a4ae" d="M106.724 73.464c-9.76 0-17.507-2.716-23.153-8.139-6.976-6.701-10.631-17.71-10.57-31.838.045-10.533 2.086-18.988 2.173-19.343l2.914.713c-.081.333-7.941 33.422 7.566 48.309 8.51 8.169 22.617 9.492 41.931 3.93l.83 2.883c-8.071 2.323-15.311 3.485-21.691 3.485z"/><path style="fill:#bdbdbd" d="M117 70.541h21V229.5h-21z"/><circle style="fill:#78909c" cx="128" cy="69" r="16"/><circle style="fill:#e0e0e0" cx="128" cy="68.5" r="9"/><ellipse style="fill:#90a4ae" cx="128" cy="68.521" rx="4" ry="3.973"/><path style="fill:#78909c" d="M114 113h27v8.041h-27zM114 148h27v8.041h-27zM144 250h-33v-6l3-3.5V228h27v12.333l3 3.667z"/></g></g><g><defs><clipPath id="d"><path d="M0 0h40v40H0z"/></clipPath></defs><g clip-path="url(#d)" transform="translate(714 85) scale(6.425)"><path d="M40 23v-6l-4.5-.7c-.4-1.6-1-3.2-1.9-4.6L36.3 8 32 3.7l-3.7 2.6c-1.4-.9-3-1.5-4.6-1.9L23 0h-6l-.7 4.5c-1.6.4-3.2 1-4.6 1.9L8 3.7 3.7 8l2.6 3.7c-.9 1.4-1.5 3-1.9 4.6L0 17v6l4.5.7c.4 1.6 1 3.2 1.9 4.6L3.7 32 8 36.3l3.7-2.6c1.4.9 3 1.5 4.6 1.9L17 40h6l.7-4.5c1.6-.4 3.2-1 4.6-1.9l3.7 2.6 4.2-4.2-2.6-3.7c.9-1.4 1.5-3 1.9-4.6L40 23zm-20 5c-4.4 0-8-3.6-8-8s3.6-8 8-8 8 3.6 8 8-3.6 8-8 8z" style="fill:#b0bec5"/><path d="M20 6C12.3 6 6 12.3 6 20s6.3 14 14 14 14-6.3 14-14S27.7 6 20 6zm0 24c-5.5 0-10-4.5-10-10s4.5-10 10-10 10 4.5 10 10-4.5 10-10 10z" style="fill:#90a4ae"/></g></g></svg>