<svg xmlns="http://www.w3.org/2000/svg" viewBox="0 0 800 600" style="enable-background:new 0 0 800 600" xml:space="preserve"><path style="fill:#fff" d="M0 0h800v600H0z"/><radialGradient id="a" cx="-2744.817" cy="370.357" r="297.96" gradientTransform="matrix(.4431 0 0 -.4692 1774.228 403.772)" gradientUnits="userSpaceOnUse"><stop offset="0" style="stop-color:#eee"/><stop offset="1" style="stop-color:#eee;stop-opacity:0"/></radialGradient><circle cx="558" cy="230" style="fill:url(#a)" r="168"/><circle cx="557.8" cy="229.8" r="58" style="fill:#fff"/><path d="M698.7 272.7v146.1H90.5V273c17.2 0 31.3-6.1 33.5-13.9 2.2 7.8 16.3 13.9 33.5 13.9 16.2 0 29.7-5.4 33-12.6 3.3 7.2 16.8 12.6 33 12.6 17.2 0 31.3-6.1 33.5-13.9 2.2 7.8 16.3 13.9 33.5 13.9s31.3-6.1 33.5-13.9c2.2 7.8 16.3 13.9 33.5 13.9s31.3-6.1 33.5-13.9c2.2 7.8 16.3 13.9 33.5 13.9s31.3-6.1 33.5-13.9c2.2 7.8 16.3 13.9 33.5 13.9s31.3-6.1 33.5-13.9c2.2 7.8 16.3 13.9 33.5 13.9s31.3-6.1 33.5-13.9c2.2 7.8 16.3 13.9 33.5 13.9s31.3-6.1 33.5-13.9c2.2 7.8 16.3 13.9 33.5 13.9 2.1 0 4.2-.1 6.2-.3z" style="fill:#fff"/><linearGradient id="b" gradientUnits="userSpaceOnUse" x1="394.6" y1="181.2" x2="394.6" y2="340.9" gradientTransform="matrix(1 0 0 -1 0 600)"><stop offset="0" style="stop-color:#fff;stop-opacity:0"/><stop offset="1" style="stop-color:#f5f5f5"/></linearGradient><path d="M698.7 272.7v146.1H90.5V273c17.2 0 31.3-6.1 33.5-13.9 2.2 7.8 16.3 13.9 33.5 13.9 16.2 0 29.7-5.4 33-12.6 3.3 7.2 16.8 12.6 33 12.6 17.2 0 31.3-6.1 33.5-13.9 2.2 7.8 16.3 13.9 33.5 13.9s31.3-6.1 33.5-13.9c2.2 7.8 16.3 13.9 33.5 13.9s31.3-6.1 33.5-13.9c2.2 7.8 16.3 13.9 33.5 13.9s31.3-6.1 33.5-13.9c2.2 7.8 16.3 13.9 33.5 13.9s31.3-6.1 33.5-13.9c2.2 7.8 16.3 13.9 33.5 13.9s31.3-6.1 33.5-13.9c2.2 7.8 16.3 13.9 33.5 13.9s31.3-6.1 33.5-13.9c2.2 7.8 16.3 13.9 33.5 13.9 2.1 0 4.2-.1 6.2-.3z" style="fill:url(#b)"/><linearGradient id="c" gradientUnits="userSpaceOnUse" x1="394.6" y1="141.2" x2="394.6" y2="300.9" gradientTransform="matrix(1 0 0 -1 0 600)"><stop offset="0" style="stop-color:#fff;stop-opacity:0"/><stop offset=".68" style="stop-color:#f5f5f5;stop-opacity:.6802"/><stop offset="1" style="stop-color:#eee"/></linearGradient><path d="M698.7 312.7v146.1H90.5V313c17.2 0 31.3-6.1 33.5-13.9 2.2 7.8 16.3 13.9 33.5 13.9 16.2 0 29.7-5.4 33-12.6 3.3 7.2 16.8 12.6 33 12.6 17.2 0 31.3-6.1 33.5-13.9 2.2 7.8 16.3 13.9 33.5 13.9s31.3-6.1 33.5-13.9c2.2 7.8 16.3 13.9 33.5 13.9s31.3-6.1 33.5-13.9c2.2 7.8 16.3 13.9 33.5 13.9s31.3-6.1 33.5-13.9c2.2 7.8 16.3 13.9 33.5 13.9s31.3-6.1 33.5-13.9c2.2 7.8 16.3 13.9 33.5 13.9s31.3-6.1 33.5-13.9c2.2 7.8 16.3 13.9 33.5 13.9s31.3-6.1 33.5-13.9c2.2 7.8 16.3 13.9 33.5 13.9 2.1 0 4.2-.1 6.2-.3z" style="fill:url(#c)"/><linearGradient id="d" gradientUnits="userSpaceOnUse" x1="394.6" y1="101.2" x2="394.6" y2="260.9" gradientTransform="matrix(1 0 0 -1 0 600)"><stop offset="0" style="stop-color:#fff;stop-opacity:0"/><stop offset=".429" style="stop-color:#f5f5f5;stop-opacity:.4295"/><stop offset="1" style="stop-color:#e0e0e0"/></linearGradient><path d="M698.7 352.7v146.1H90.5V353c17.2 0 31.3-6.1 33.5-13.9 2.2 7.8 16.3 13.9 33.5 13.9 16.2 0 29.7-5.4 33-12.6 3.3 7.2 16.8 12.6 33 12.6 17.2 0 31.3-6.1 33.5-13.9 2.2 7.8 16.3 13.9 33.5 13.9s31.3-6.1 33.5-13.9c2.2 7.8 16.3 13.9 33.5 13.9s31.3-6.1 33.5-13.9c2.2 7.8 16.3 13.9 33.5 13.9s31.3-6.1 33.5-13.9c2.2 7.8 16.3 13.9 33.5 13.9s31.3-6.1 33.5-13.9c2.2 7.8 16.3 13.9 33.5 13.9s31.3-6.1 33.5-13.9c2.2 7.8 16.3 13.9 33.5 13.9s31.3-6.1 33.5-13.9c2.2 7.8 16.3 13.9 33.5 13.9 2.1 0 4.2-.1 6.2-.3z" style="fill:url(#d)"/><radialGradient id="e" cx="389.477" cy="460.78" r="328.29" gradientTransform="matrix(1 -.00289 -.00368 -1.2761 1.698 728.343)" gradientUnits="userSpaceOnUse"><stop offset=".089" style="stop-color:#fff;stop-opacity:0"/><stop offset=".871" style="stop-color:#fff;stop-opacity:.8587"/><stop offset="1" style="stop-color:#fff"/></radialGradient><path d="M692.5 273c-17.2 0-31.3-6.1-33.5-13.9-2.2 7.8-16.3 13.9-33.5 13.9s-31.3-6.1-33.5-13.9c-2.2 7.8-16.3 13.9-33.5 13.9s-31.3-6.1-33.5-13.9c-2.2 7.8-16.3 13.9-33.5 13.9s-31.3-6.1-33.5-13.9c-2.2 7.8-16.3 13.9-33.5 13.9s-31.3-6.1-33.5-13.9c-2.2 7.8-16.3 13.9-33.5 13.9s-31.3-6.1-33.5-13.9c-2.2 7.8-16.3 13.9-33.5 13.9s-31.3-6.1-33.5-13.9c-2.2 7.8-16.3 13.9-33.5 13.9-16.2 0-29.7-5.4-33-12.6-3.3 7.2-16.8 12.6-33 12.6-17.2 0-31.3-6.1-33.5-13.9C121.8 267 17.2 273 0 273v225.9h800V272.7s-105.4.3-107.5.3z" style="fill:url(#e)"/><g><path d="M173.3 175s-6-47.7 39.9-42.6c0 0 7-37.6 51.9-30.5 0 0-37.9 6.1-39.9 33.5 0 0-6 12.2-17.9 19.3l2-12.2c-.1 0-26.1 0-36 32.5zM653 105.1s25.4-3.1 24.5 22.4c0 0 19.7 1 14.8 29.5 0 0-5.3-22.2-18.7-23.4 0 0-5-2.3-8.9-9.2l5.9 1c0 .1.2-14.5-17.6-20.3z" style="fill:#f5f5f5"/></g><g><path d="M538 262.3c2.4-.6 4.6-1.7 6.5-3.3 1 2.3 8.3 7.7 25.5 8l-1.7 5c-6.3 1.8-12.4 1.5-18.9 1.3-3.2-.2-6.4-1-9-2.9-1.3-2.5-2.1-5.4-2.4-8.1z" style="fill:#e9e9e9"/><path d="m560 206.3.8-4.3c.5 1.3 1.3 2 2.8 2 1.9 0 3-1 4.4-1 1.6 0 2.1.3 3 1-1.8-.1-2.4.2-4.3 1.8-.6.5-1.9 1.3-3.4 1.3-1.8-.1-3.3-.8-3.3-.8zM552.6 208c-3.3.5-5.8 3.5-5.6 6.8 0 1.4.4 2.9 1 4.2l22 4c-1.6-1.4-3-2.6-3-6 0-3 1.5-4.4 3-5.9l-17.4-3.1zM543 234.9c-1-1.3-2-3.7-2-5.8 0-2.6 1.3-6.3 5.1-7.3l23.9 4.3c-1.9 1.5-3 3.4-3 6.9 0 2.9 1.6 5.4 4 6.9l-28-5zM544 238c-3.4 1.4-6 4.5-6 8.1 0 5.6 3 7.9 3 7.9l31 5.7s-5-1.8-5-8.7c0-4.4 2.1-6.4 4-8l-27-5z" style="fill:#ff808b"/></g><g><path style="fill:#a1887f" d="m349 375-11 101-15 12-15 4-19 7-23 2-32 1h-97v-48l104-12 27-19 27-1 18-18 19 4z"/><path style="fill:#d7ccc8" d="m166 382 26-3 19-6 74-10 26 10 38 2-17 33-19-4-18 18-27 1-27 19-104 12z"/><path style="fill:#a1887f" d="m349 375-11 101-15 12 9-80z"/><path style="fill:#8d6e63" d="m332 408-9 80-15 4 5-88zM234 502h-97v-48l104-12z"/><path style="fill:#a1887f" d="m313 404-5 88-19 7 6-77z"/><path style="fill:#8d6e63" d="m295 422-6 77-23 2 2-78z"/><path style="fill:#a1887f" d="m268 423-2 78-32 1 7-60z"/></g><g><path d="m246.6 273 5.3-.1c-.4-7.9-.4-15.8 0-23.6l3-18.6-3.4-16.6-9 12.3c-2.5 18.4-2.8 21.1-2.6 23 .8 6.4 5 18.6 6.7 23.6zM194 309.4c0 1.5.6 5.6 8.8 11.8 14.1 10.6 30.4 14.8 50.3 14.8h26c-.4-7.2-15-14-32.1-23.4-45.5-24.9-53-5.1-53-3.2z" style="fill:#1565c0"/><path d="m252 325-13.9-6.8s-2.4 10.7-3.3 17.9c-.9 5.3-1.4 10.6-1.6 16-.2 7.2-1.4 14.4-3.3 21.4-.3 1.2 7.5 2.8 7.7 1.4.8-3.9 3.6-14.6 7.1-25.8 5.8-18 7.3-24.1 7.3-24.1z" style="fill:#fad6b7"/><path d="M246 228.2c.7 4.6 1.1 9.3 1 14-.1 5.6 3 8 3 8v5c8.4 7.1 26 2.1 26 2.1v-6.1c1.2-1.6 2.2-3.3 2.9-5.1 1-3 1.7-10.4 2.1-18.5.1-2.6-2.9-1-3.7-6.3s.7-8.1.7-8.1l-6.6-2.4-11.3-4.9-14.1 22.3z" style="fill:#1e88e5"/><path d="M269.1 357.6c-4.6-24.7-4.1-27-4.1-27 11.4-5 14 5.4 14 5.4v5s0 8-.1 11.3c-.4 9.7-.9 26.7-.9 27.7s1.7 2.6 2.5 3c2.2 1.1 4.1-1 1.7 4.7-3.6-.6-7.3 0-10.5 1.7-.3-1.3-.4-2.6-.4-3.9 0-.8 0-1.6.3-2.4 1.4-6.4-1.4-19.8-2.5-25.5z" style="fill:#fad6b7"/><path d="M250 254.9c-5.7 8.6-9 8.6-22.5 15.9-25 13.6-31.2 29-32.7 35.1-.4 1.5-.8 3.7-.8 3.7.3-1.6 1.6-3.7 6-3.7 8.3 0 16.5 2.4 27.5 9.6C237 321.8 245 330 253 330c23.8-.1 26 6 26 6s3-28 3-43c0-12 .4-24.2-6-36-2.1-3.9-7.7 0-12.6-.2-5.2-.3-11.4-4.7-13.4-1.9z" style="fill:#1e88e5"/><path d="M250 250v5s2 5 13 5c8.7 0 13-3 13-3v-6s-2.5 3-14.4 3c-7.6 0-11.6-4-11.6-4z" style="fill:#1976d2"/><path d="M303.8 207.5c-4-8-13.6-18.6-14.8-19.5l-3.6 2.4c2.1 5.9 9.6 18.9 9.6 20.2s-.9 1.2-1.2 1.4l-16.2 1s-4.2 2.2-2 11c1 4 3.3 5 5 5 3.7 0 18.5-6 21.9-9.9 2.8-3.2 3.3-7.8 1.3-11.6z" style="fill:#42a5f5"/><path d="m277.6 186.4-17.2-2.7c-6.9.2-12.9 4.8-14.9 11.4-2.8 8.4-2.5 9.9-8.1 12.5S227 211.7 225 218c-2.5 7.8.1 13.9 2 19 .6 1.6.9 3.3 1 5 0 3.5-2 6.8-2 8.6 0 1 .6 1.4 2 1.4 14 0 14.6-12.1 21.5-14.5C268 231 269.8 222.7 273 217c1.7-3.1 5-9 5-21 .1-3.2-.1-6.4-.4-9.6z" style="fill:#6d4c41"/><path d="M284.5 188.1s2.2 3-2.8 7.2c-2.9 2.5-8.3 3.7-13.4 3.7-17.2 0-24.4-8-24.4-13.9s6.5-8.9 15.3-7.9l23.1 8.4 2.2 2.5z" style="fill:#ea244a"/><path d="M276 177.3c-1.9-2.5-4.8-5.3-11.6-5.3-6.3 0-10.8 4.9-12.6 8-.5.9-4.1 7.5 8.9 10.3 10 2.2 17.5-1.8 18.3-3.2s-.3-6.1-3-9.8zM229.1 378s-.1-8 4.9-8c4.3 0 4 4.5 4 4.6-.1 1.9-.5 3.7-1.2 5.5l-7.7-2.1z" style="fill:#ef2e4a"/><path d="M276.9 183.5c-.5.7-.7 1.3-.6 2.1-1.2.8-4.7 2.4-9.6 2.4-1.7 0-3.5-.2-5.3-.6-3-.7-4.8-1.5-5.8-2.2-.2-.1-3.2-1.8-3.5-5.5-.1.1-.1.2-.2.3-.5.9-4.1 7.5 8.9 10.3 2.1.5 4.1.7 5.9.7 6.9 0 11.7-2.7 12.4-3.8.2-.4.3-.9.3-1.6 0-.4.8-1.1 2-1.9-1.6.1-3.1 0-4.5-.2z" style="fill:#bbdefb"/><path d="M285.4 184c-1.3-1.3-1.5-4-6.9-4-5.1 0-5.5 1.9-5.5 4s3.1 3 6 3c3.2 0 4.3.5 5.2 1.4.4.6.8 1.3 1.2 1.9l3.6-2.4s-2.9-3.2-3.6-3.9z" style="fill:#fad6b7"/><path d="M257 188s-6.5-.5-17.7 8.1c-3.9 2.9-7 3.9-9.8 3.9-6.2 0-10.1-5-17-5-9.8 0-12.5 5-12.5 5l2 10c2.7-3.1 6.7-4.9 10.8-5 3.9 0 11 5.3 18.6 4.6 3.9-.4 5.9-5.3 11.2-10.3 4.5-4.1 9.3-7.9 14.4-11.3z" style="fill:#90caf9"/><path d="M257 188s-7.8 0-18.1 14.6c-2.7 3.9-5.9 5.4-8.9 5.4-5.4.1-12-4-12-4l-5 10s7.8 5 15.6 5c8.8 0 13.7-4 16.6-12 5-13.4 11.8-19 11.8-19z" style="fill:#c9e5fc"/><linearGradient id="f" gradientUnits="userSpaceOnUse" x1="108.322" y1="1386.747" x2="253.39" y2="1290.112" gradientTransform="translate(0 -912)"><stop offset="0" style="stop-color:#fff;stop-opacity:0"/><stop offset="1" style="stop-color:#1d1d1b;stop-opacity:.1"/></linearGradient><path d="m227.3 387 8.9 2.4-27 16.7c3 1.1 9.9 5.4 9.9 5.4l52.2-22.8 15.5-.5-56.8 30.2s11.1 5.7 12 8.6l-35.7 19-69.3 8 21.7-54c3.3-2.3 6.6-4.6 8.6-5.7 9.2-5.3 31.5 5.5 31.5 5.5s12.8-5 28.5-12.8z" style="fill:url(#f)"/><path d="M229.1 377.9c.1-2.2 1.9-3.9 4.1-3.9 2-.1 3.7 1.6 3.8 3.6v.4c-.1 1.5-.3 3-.6 4.4-.4 2.1.3 3.2.6 4.3.2.9-.1 1.8-.6 2.6-.6.6-3.2.7-7.3.5-1.1-.2-1.9-1.2-2-2.3 0-.4.1-.8.2-1.1.8-2.7 1.5-5.6 1.8-8.5z" style="fill:#af1738"/><path d="m285.9 383.5-5.3-.5s3 .8 1.3 3.1c-.8.7-1.8 1-2.9 1-2.9-.1-3.3-3-7.6-3-.3 0-.8 3.3-.1 6.3.2 1 1.1 1.7 2.8 1.7 1.5-.2 2.9-.6 4.3-1.1 2.8-.7 5.5-1.6 8.2-2.6 2.7-1.3 3.9-4.4-.7-4.9z" style="fill:#ef2e4a"/></g></svg>