<svg xmlns="http://www.w3.org/2000/svg" fill-rule="evenodd" stroke-linecap="square" stroke-miterlimit="10" clip-rule="evenodd" viewBox="0 0 800 600">
  <defs/>
  <path fill="url(#_Radial1)" fill-rule="nonzero" d="M0 79h801v457H0z"/>
  <path fill="#fafafa" fill-rule="nonzero" d="M182 204l.7 4c0 .4.3.7.7.8l4 .6-4 .6c-.4 0-.6.3-.7.7l-.6 4-.6-4c0-.2-.1-.4-.3-.5a.9.9 0 00-.4-.2l-4-.6 4-.6c.2 0 .3-.2.4-.3l.3-.4.6-4.1h-.1zm5.5 117.6l.6 4c0 .2 0 .4.2.6l.5.2 4 .6-4 .6c-.2 0-.4 0-.5.2l-.2.5-.6 4-.6-4c0-.4-.4-.7-.8-.7l-4-.6 4-.6c.4 0 .7-.3.8-.7l.6-4v-.1z"/>
  <path fill="#fff" fill-rule="nonzero" d="M611 263l1.2 7.8c0 .4.2.7.5 1 .3.2.6.4 1 .4l7.8 1.2-7.9 1.1c-.7.1-1.3.7-1.4 1.4l-1.1 7.9-1.1-7.9c-.1-.7-.7-1.3-1.4-1.4l-7.8-1.1 7.8-1.2c.4 0 .7-.2 1-.4l.5-1 1-7.8h-.1zm-47 139l.9 5.6c0 .5.5 1 1 1l5.6.8-5.6.8a1 1 0 00-.7.3c-.2.2-.3.4-.3.7l-.8 5.5-.8-5.5c0-.5-.5-1-1-1l-5.6-.8 5.6-.8.7-.4.3-.6.8-5.6h-.1zM156 209l1.6 10c0 1 .8 1.8 1.8 2l10 1.4-10 1.4c-1 .1-1.8 1-1.9 1.9l-1.4 10-1.5-10c0-.5-.3-.9-.6-1.2-.3-.4-.7-.6-1.2-.7l-10-1.4 10-1.5c.5 0 .9-.3 1.2-.6.3-.3.6-.8.6-1.2l1.5-10.1h-.1zm303 182l1.3 8.6c0 .3.3.7.5 1l1 .5 8.6 1.2-8.6 1.3c-.8.1-1.4.7-1.5 1.5l-1.2 8.6-1.3-8.6a2 2 0 00-.5-1 2 2 0 00-1-.5l-8.6-1.3 8.6-1.2a2 2 0 001-.5c.3-.3.5-.7.5-1l1.3-8.6h-.1z"/>
  <path fill="#fafafa" fill-rule="nonzero" d="M355 408l1.4 9.3c.1.5.3.9.6 1.2.3.3.7.5 1.1.5l9.4 1.4-9.4 1.3a2 2 0 00-1.7 1.7l-1.3 9.4-1.4-9.4a2 2 0 00-.5-1.1 2 2 0 00-1.2-.6l-9.3-1.3 9.3-1.4a2 2 0 001.1-.6c.3-.3.5-.7.6-1.1l1.4-9.3h-.1z"/>
  <circle cx="242" cy="232" r="3" fill="#fafafa"/>
  <circle cx="259" cy="213" r="2" fill="#fafafa"/>
  <circle cx="136" cy="405.1" r="2" fill="#fff"/>
  <circle cx="301" cy="323" r="2" fill="#fafafa"/>
  <circle cx="176.7" cy="432.8" r="2" fill="#fff"/>
  <circle cx="387" cy="296" r="2" fill="#fafafa"/>
  <circle cx="331" cy="274" r="2" fill="#eee"/>
  <circle cx="331" cy="264" r="2" fill="#eee"/>
  <circle cx="299" cy="464.3" r="2" fill="#fff"/>
  <circle cx="292" cy="258" r="2" fill="#fafafa"/>
  <circle cx="352" cy="178" r="2" fill="#fff"/>
  <circle cx="394" cy="367" r="2" fill="#fafafa"/>
  <circle cx="211.3" cy="441.7" r="4" fill="#fafafa"/>
  <circle cx="583" cy="342" r="3" fill="#fafafa"/>
  <circle cx="279" cy="323" r="3" fill="#eee"/>
  <circle cx="462" cy="370" r="3" fill="#fff"/>
  <circle cx="388" cy="227" r="3" fill="#fff"/>
  <circle cx="441" cy="472" r="3" fill="#fff"/>
  <circle cx="243" cy="294" r="3" fill="#eee"/>
  <circle cx="600.7" cy="354" r="2" fill="#fff"/>
  <circle cx="610.9" cy="327" r="3" fill="#fff"/>
  <circle cx="465" cy="462.3" r="3" fill="#fff"/>
  <circle cx="517" cy="391" r="2" fill="#fafafa"/>
  <circle cx="371.1" cy="370.9" r="1.6" fill="#f5f5f5"/>
  <circle cx="170" cy="275" r="2" fill="#fafafa"/>
  <circle cx="113" cy="294" r="3" fill="#fafafa"/>
  <path fill="#fafafa" fill-rule="nonzero" d="M399 327l.7 4c0 .4.3.7.7.8l4 .6-4 .6c-.4 0-.6.3-.7.7l-.6 4-.6-4c0-.2-.1-.4-.3-.5a.9.9 0 00-.4-.2l-4-.6 4-.6c.2 0 .3-.2.4-.3l.3-.4.6-4.1h-.1z"/>
  <path fill="#eee" fill-rule="nonzero" d="M559.7 267.2L596 153.1l-67.8-.2.4 113.4 31.1.9z"/>
  <path fill="#c4ced3" fill-rule="nonzero" d="M578.9 261.6l31.8-99.4a5 5 0 00-3.7-6.5l-10.9-2.6-36.4 114.1 15.1-2.2a5 5 0 004-3.4h.1z"/>
  <path fill="#fafafa" fill-rule="nonzero" d="M527 176.6l61.6.1-29 90.5-6.8-.2"/>
  <path fill="#cfd8dc" fill-rule="nonzero" d="M604.5 181.4L579 261.6a5 5 0 01-4 3.4l-15.2 2.2 29-90.5 15.8 4.7h-.1z"/>
  <path fill="#64b5f6" fill-rule="nonzero" d="M477.6 191.9l-4.8-8.3a1 1 0 00-.7-.5l-2.6-.5c-.9-.1-1.7.2-2.3.8l-5.1 5.1a2.6 2.6 0 000 3.8l4 4 2 3.3 7.8-1.6 1.7-6.1z"/>
  <path fill="none" stroke="#fff" stroke-width="2.7" d="M517 229c-12.2 0-50.3 30.6-50.3 5s-23.2 1.5-23.2-21.7c0-18.4 32.7-19 32.7-32 0-21.3-91.9 27.6-127.1 46.5l-13.3 7.3"/>
  <path fill="#bdbdbd" fill-rule="nonzero" d="M334.1 240l-4.2-7.6 19.7-10.8a1.4 1.4 0 012 .5l2.7 5.2c.4.7.2 1.6-.5 2L334 240h.1z"/>
  <path fill="#757575" fill-rule="nonzero" d="M339.3 237.2l-4.3-7.7 11.7-6.3 4.1 7.7-11.5 6.3z"/>
  <path fill="#1e88e5" fill-rule="nonzero" d="M549 339.6l1.4 11.6.7 8-13.1 6.5s-11.6 1.5-15.3-.7c0 0 .3-8 5.5-10.7 5.2-2.7 5.4-6 3.3-14 5.4.4 17.4-.8 17.4-.8l.1.1z"/>
  <path fill="#3949ab" fill-rule="nonzero" d="M550.6 354l.5 5.2-13.1 6.5s-11.6 1.5-15.3-.7c0 0 .2-6.9 4.4-10 1-.7 2.3-1 3.6-.9 4.4 0 8.1 5.3 10.2 5.1 4.2-.3 9.8-5.2 9.8-5.2h-.1z"/>
  <path fill="#64b5f6" fill-rule="nonzero" d="M619.5 232.6c3.2 6 4.6 12.6 4.1 19.3a2 2 0 01-3.5.7l-1.4-2.5c-1.8-3.3-4.3-7.3-5.7-7.3-.6 0-1 1-1.2 1.4-.3 1-1 2.2-1.8 2.2-1.4 0-1.7-2-2.1-3.6-.4-2.2-.7-4.4-.8-6.6l.8-8 11.6 4.4z"/>
  <path fill="#64b5f6" fill-rule="nonzero" d="M596.3 207.9c-.5-.5-1-1-1.7-1.3l-34-20.4s-34.8 4.2-39 4.9a12 12 0 00-6.4 3l-20.5 14.5a1.4 1.4 0 01-2-.2l-15-16.5-4 6.5-5.8.7 17 26.3c1.4 2.1 4 3.2 6.4 2.5l22.4-5.9-5.3 24.8a95 95 0 0013.6 9.8s34.4-2.9 35-4.5l10.8-33.4 19.7 5.4c1 .3 1.9.8 2.7 1.3l17 10.8c2.6-6.3 12.3-3.6 12.3-3.6a160 160 0 00-23.2-24.7z"/>
  <path fill="#1e88e5" fill-rule="nonzero" d="M486.7 201.8l-9-10c-6.4 7-9.9 7.3-9.9 7.3l8 12.3s6.2-1.3 10.9-9.7v.1z"/>
  <path fill="none" stroke="#fff" stroke-linecap="round" stroke-width="4.6" d="M526.4 187.5s-12.4-.4-12.4 19.8c0 18.6 5.8 26.8 5.8 26.8"/>
  <path fill="#64b5f6" fill-rule="nonzero" d="M518.3 200.6l-9.9 46.2a87.9 87.9 0 0013.6 9.8s34.4-2.9 35-4.5c0 .2-38.7-51.5-38.7-51.5z"/>
  <path fill="#1e88e5" fill-rule="nonzero" d="M595.7 229l11.4 7.3c2.7-6.4 12.4-3.7 12.4-3.7a79.6 79.6 0 00-9.9-12c-3.7-3.7-13.6 0-14 8.3l.1.1z"/>
  <path fill="#64b5f6" fill-rule="nonzero" d="M506.8 253l-34.6 23.2c-.7.5-1.4 1.1-2 1.8l-22.4 27.4s-1.4 10.9 11.7 10.9c8.7-6.5 16.7-13.8 24.1-21.8.9-1 2-1.8 3.2-2.4l44.7-19.5-19-18.9-4.3-5-1.4 4.3z"/>
  <path fill="#1e88e5" fill-rule="nonzero" d="M480.4 270.7l-8.2 5.5c-.7.5-1.4 1.1-2 1.8l-6.5 8 10.5 9a1.4 1.4 0 002-.1c1.4-1.5 3-3 4.4-4.7 1-1 2-1.8 3.3-2.4l4.5-2a1.4 1.4 0 00.6-2.2l-8.6-13v.1z"/>
  <path fill="#64b5f6" fill-rule="nonzero" d="M543.3 303.3c-.5 2-.6 4.2-.2 6.3l5.8 30s-10.1 5.8-17.4.7l-10.9-26.6a14 14 0 01-1-4.2l-2.6-30.3 2.5-21.2 35.6.2-11.8 45v.1z"/>
  <path fill="#1e88e5" fill-rule="nonzero" d="M536.5 300.8c.8.1 1.4.8 1.3 1.6a29 29 0 00.2 7.2l1.5 7.4c.1.7-.3 1.5-1 1.7l-14.3 3.7-3.6-8.7a14 14 0 01-1-4.2l-1-11.2 18 2.5h-.1zm-77 15.5L442.7 333 421 314l3.7-3.6c5.8-5.8 10.1 8.8 23.2-5 0 0 3.7-1.5 11.7 10.9h-.1z"/>
  <path fill="#3949ab" fill-rule="nonzero" d="M447.1 328.6l-4.4 4.4-21.8-19 3.7-3.6c2.3-2.3 4.4-1.3 7-.2 1.3.5 1.7 4.4 1.7 6 0 2.3 3.5 5.3 5 6.6 2.6 2.4 5.6 4.3 8.8 5.8zm110-76.5c-.7 1.7-2 6.1-2 6.1l-1.1.2a141.4 141.4 0 01-34.6-.3 55 55 0 01-12.9-5l2-6.3c3.5 2.6 7.4 4.5 11.7 5.4l5.1 1c7 .7 14 .7 21 0 3.6-.2 7.2-.5 10.8-1v-.1z"/>
  <circle cx="536" cy="238.3" r="4.3" fill="#3949ab"/>
  <path fill="none" stroke="#1e88e5" stroke-linecap="round" stroke-width="2.5" d="M535.9 238.4s6.3 19.7 17.2 19.8c10.9.1 2.6-17.7 2.6-17.7"/>
  <circle cx="522.7" cy="236.3" r="4.3" fill="#3949ab"/>
  <path fill="#64b5f6" fill-rule="nonzero" d="M549.7 229.7s6.7 24 7.4 22.4c-.2.2 10.7-33.3 10.7-33.3"/>
  <path fill="#1e88e5" fill-rule="nonzero" d="M525.3 253.2v5.8c-6.2 6-8.4 20.2-8.4 20.2s-3.6-1.4-3.6-6.6c-.1-5.4.1-10.9.7-16.3l1.9-5.3a40 40 0 009.4 2.2zm-2.5-45.3l-4.5 17.8 24 4 6-19-25.5-2.8z"/>
  <path fill="none" stroke="#fff" stroke-linecap="round" stroke-width="4.6" d="M573.3 189.3s-15.6-.3-15.6 19.3c0 18.2 7.2 26.2 7.2 26.2"/>
  <path fill="#3949ab" fill-rule="nonzero" d="M564 188.2a31.4 31.4 0 00-15 10.2c-3.6.4-23.1 2.3-29.2-2.2 2-4 2.7-8.5 2.2-12.9 3 2.7 5.6 3.1 10.2 3.5 3.8.3 7 .6 12.3-.5 6.8-6.3 17.8-4.7 17.8-4.7l1.7 6.6z"/>
  <path fill="#64b5f6" fill-rule="nonzero" d="M562.3 181.6h-.3l-.2.1h-.2l-.3.2c-1 .3-2 .6-2.8 1a38.6 38.6 0 00-12.3 7.3 46.7 46.7 0 01-14.1 1.1c-2.8-.1-5.5-1-7.7-2.7-1.7-1.5-3-3.4-4-5.5a22.6 22.6 0 01-2-11.4l1.4.3v-.5c0-2.3.6-4.6 1.6-6.7l-2.8-3.4a23.2 23.2 0 1143.7 15.2 16 16 0 000 5z"/>
  <path fill="#616161" fill-rule="nonzero" d="M555.5 171c.1-2-6-6.6-15-10.8-3.7-1.7-11.7-6-15.2-3.8-3.9 2.4-6.6 4.2-7 8.5l-.2 2.6c-.8 9.8 4.5 19.5 14 20.2 9 .7 19.2-3.8 22.9-10l.5-6.6v-.1z"/>
  <path fill="#3949ab" fill-rule="nonzero" d="M555.3 173.1c-1.4-4-13-13.2-24.1-14.1-11.1-.9-12.9 6-12.9 6l.3-3.6s1.8-6.9 12.8-6c11 .9 22.7 10 24.2 14l-.3 3.7z"/>
  <circle cx="531" cy="218.8" r="6" fill="#3949ab"/>
  <path fill="#64b5f6" fill-rule="nonzero" d="M477.6 191.9L474 183s-1.3-2.9-2.2-2.9h-.1a1.3 1.3 0 00-1.3 1.5c0 2.2 1.5 4.2 1.8 5.3.6 2 .5 4.3-.4 6.3l5.8-1.4v.1z"/>
  <path fill="#64b5f6" fill-rule="nonzero" d="M473 190.2l-.2-6.6a1 1 0 00-.8-.5l-2.5-.5c-.9-.1-1.7.2-2.3.8l-5.2 5.2a3 3 0 00-.8 2.5c.1.4 5 1.8 6.8 2.2.7.2 0-.7.7-1l4.3-2v-.1z"/>
  <path fill="none" stroke="#1e88e5" stroke-linecap="round" stroke-width="2.8" d="M522.8 236.2s-7.4 12.4-14 12.4c-3.8 0-2.5-6 1.2-9.6 4.2-4 6.4-2.8 6.4-2.8"/>
  <path fill="#64b5f6" fill-rule="nonzero" d="M508.7 245.3l5-23.3 5.4 15-10.4 8.3z"/>
  <path fill="#303f9f" fill-rule="nonzero" d="M519.8 235.5c0-2.4 5.3-3.6 3-3.6h-.1a4.3 4.3 0 00-4 5.9c.4-1.5 1.1.1 1.1-2.3z"/>
  <path fill="#1e88e5" fill-rule="nonzero" d="M559.9 173.7c0-2.4-2-4.4-4.4-4.4-1.5 0-3 2-3 4.4 0 2.4 1.5 4.4 3 4.4 2.4 0 4.4-2 4.4-4.4z"/>
  <path fill="#fafafa" fill-rule="nonzero" d="M565.5 184l-1.5 4.2s5.7-2 8 4.9c1.4.6 2.8 1.4 4 2.3 2.3-.2 7.3-6 7.3-6l-13-8-4.8 2.5v.1zm.3 41.2l-5 15.4 5.9.3 3.5-8.3-4.4-7.4z"/>
  <path fill="#eee" fill-rule="nonzero" d="M267.8 383l.3.7-.3-.7z"/>
  <path fill="#f5f5f5" fill-rule="nonzero" d="M313.6 348c-1.8-.5-3.7-.8-5.6-1-1.3-.7-2.8-1-4.3-1-7.7 0-14.4 10.3-16.2 12.4-2.2 2.6-9 10.7-14.9 15.6 2.8 6 7.7 6 1 9.3-3.6 1.4-4 3-5.3.4-.2-.3 2-1.5 2-1.7 0 0 9.2-8-.4-5.5A61.8 61.8 0 00258 382l-1.2 1.5s-9 .1-19.4.8c-4.8.2-6.3 3-6.3 3l-3.2 4.2 29.1 11.8 1 3.6 18 5.1 6-2 4.7-5.1s18.6-18.8 25.8-33.1a39 39 0 003.1-6.7c1.6-5.4 1-7.6 1.3-10.5.6-4.7-1.8-6.2-3.3-6.7v.1z"/>
  <path fill="#eee" fill-rule="nonzero" d="M310.6 394.7c-4.3-4.1-4-5.5-3.3-9 .7-3 3.1-8.6 5.2-14-7.9 12.9-14.8 18-25.8 33.1l-3.7 6.7 35.9 1.5 1.7-4.6c.5-1.2.6-2.5.2-3.7-1.1-3.2-6-5.8-10.2-10z"/>
  <path fill="#757575" fill-rule="nonzero" d="M308 347c1 .7 2 1.6 2.6 2.6a.8.8 0 001.3 0c.2-.5-1.5-2.6-3.9-2.6z"/>
  <ellipse cx="300.5" cy="350" fill="#757575" rx="1.5" ry="1"/>
  <ellipse cx="304.5" cy="351" fill="#757575" rx="1.5" ry="1"/>
  <path fill="#424242" fill-rule="nonzero" d="M229.7 389.3l28.9 10.8 1.5-4-29-8.8-1.4 2z"/>
  <path fill="#fff" fill-rule="nonzero" d="M273.4 385.8s6.8-4.2 12.1-5.6c4-1 8.1 2.5 5.8 7.6S282 399 282 399l-8.6-13.2z"/>
  <path fill="#b6b6b6" fill-rule="nonzero" d="M284 392c0-3.9-3.6-7-7.5-7-1.2 0-2.4.3-3.5.8-3.3-.2-3-.8-4.7-.8a7.5 7.5 0 00-6.7-4 6.6 6.6 0 00-6.6 7c.1 2.1.8 4.2 2 6v9l-2 4 21 7 6-4v-11s2-2 2-7z"/>
  <path fill="#e0e0e0" fill-rule="nonzero" d="M272.8 387.7c-1.1-1-3-.8-4.2-.4-1 .3-1.8.8-2.6 1.4l4.3 8.4c1.6-1.5 2.8-3.3 3.5-5.4.5-1.4 0-3-1-4zm-8 7c-1.1-1-3-.8-4.2-.4-1 .3-1.8.8-2.6 1.4l4.3 8.4c1.6-1.5 2.8-3.3 3.5-5.4.5-1.4 0-3-1-4z"/>
  <ellipse cx="260" cy="400" fill="#fff" rx="4" ry="5"/>
  <ellipse cx="268" cy="393" fill="#fff" rx="4" ry="5"/>
  <path fill="#e0e0e0" fill-rule="nonzero" d="M277.8 398.7c-1.1-1-3-.8-4.2-.4-1 .3-1.8.8-2.6 1.4l4.3 8.4c1.6-1.5 2.8-3.3 3.5-5.4.5-1.4 0-3-1-4z"/>
  <ellipse cx="273" cy="404" fill="#fff" rx="4" ry="5"/>
  <path fill="#424242" fill-rule="nonzero" d="M284.6 408.7l2.1-3.8 33.9 3.5-1 2.6-35-2.3z"/>
  <path fill="#fff" fill-rule="nonzero" d="M279.7 377.7l-9.2-15.2a1 1 0 00-1.5-.3l-2.6 2.2a1 1 0 00-.4.9l2 18.7a2 2 0 001.9 1.8l2.4.2c.6 0 1.2-.2 1.6-.6l5.5-5.3a2 2 0 00.3-2.4z"/>
  <defs>
    <radialGradient id="_Radial1" cx="0" cy="0" r="1" gradientTransform="matrix(400.07 0 0 -229.131 403.1 306)" gradientUnits="userSpaceOnUse">
      <stop offset="0" stop-color="#ccc"/>
      <stop offset=".1" stop-color="#cdcdcd"/>
      <stop offset=".3" stop-color="#d0d0d0" stop-opacity=".9"/>
      <stop offset=".4" stop-color="#d5d5d5" stop-opacity=".8"/>
      <stop offset=".6" stop-color="#dcdcdc" stop-opacity=".7"/>
      <stop offset=".7" stop-color="#e6e6e6" stop-opacity=".5"/>
      <stop offset=".8" stop-color="#f1f1f1" stop-opacity=".3"/>
      <stop offset="1" stop-color="#fefefe" stop-opacity="0"/>
      <stop offset="1" stop-color="#fff" stop-opacity="0"/>
    </radialGradient>
  </defs>
</svg>
