<svg xmlns="http://www.w3.org/2000/svg" viewBox="0 0 800 600" style="enable-background:new 0 0 800 600" xml:space="preserve"><path style="fill:#fff" d="M0 0h800v600H0z"/><path style="fill:#f5f5f5" d="M335 332h30v80h-30z"/><path style="fill:#e0e0e0" d="M305 332h30v80h-30zM365 332h30v80h-30zM245 332h30v80h-30zM185 332h30.08v80H185z"/><path style="fill:#f5f5f5" d="M395 332h30v80h-30z"/><path style="fill:#e0e0e0" d="M425 332h30v80h-30z"/><path style="fill:#f5f5f5" d="M275 332h30v80h-30zM215 332h30v80h-30zM155 332h30v80h-30z"/><path style="fill:#e0e0e0" d="M125 332h30.08v80H125z"/><path style="fill:#f5f5f5" d="M95 332h30v80H95z"/><path style="fill:#e0e0e0" d="M65 332h30.08v80H65z"/><path style="fill:#f5f5f5" d="M35 332h30v80H35z"/><path style="fill:#e0e0e0" d="M5 332h30.08v80H5zM655 332h30v80h-30zM595 332h30v80h-30z"/><path style="fill:#f5f5f5" d="M625 332h30v80h-30z"/><path style="fill:#e0e0e0" d="M715 332h30v80h-30zM775 332h25v80h-25z"/><path style="fill:#f5f5f5" d="M745 332h30v80h-30zM685 332h30v80h-30z"/><path style="fill:#d7d7d7" d="M0 292h460v40H0zM590 292h210v40H590z"/><path style="fill:#ececec" d="M0 0h800v292H0z"/><path style="fill:#e0e0e0" d="M590 407h210v15H590zM0 407h459v15H0z"/><path style="fill:#fff" d="M0 422h800v178H0z"/><radialGradient id="a" cx="998.489" cy="-408.848" r="238.44" gradientTransform="matrix(1.34 0 0 1.29 -939.19 899.52)" gradientUnits="userSpaceOnUse"><stop offset="0" style="stop-color:#fff;stop-opacity:0"/><stop offset=".26" style="stop-color:#fff;stop-opacity:.01"/><stop offset=".4" style="stop-color:#fff;stop-opacity:.04"/><stop offset=".51" style="stop-color:#fff;stop-opacity:.09"/><stop offset=".6" style="stop-color:#fff;stop-opacity:.17"/><stop offset=".68" style="stop-color:#fff;stop-opacity:.27"/><stop offset=".76" style="stop-color:#fff;stop-opacity:.39"/><stop offset=".83" style="stop-color:#fff;stop-opacity:.53"/><stop offset=".9" style="stop-color:#fff;stop-opacity:.7"/><stop offset=".96" style="stop-color:#fff;stop-opacity:.88"/><stop offset="1" style="stop-color:#fff"/></radialGradient><path style="fill:url(#a)" d="M0 0h800v600H0z"/><g><linearGradient id="b" gradientUnits="userSpaceOnUse" x1="355" y1="1037" x2="355" y2="908" gradientTransform="matrix(1 0 0 -1 0 1100)"><stop offset="0" style="stop-color:#fff;stop-opacity:0"/><stop offset="1" style="stop-color:#fff"/></linearGradient><path style="opacity:.65;fill:url(#b);enable-background:new" d="M449.8 63H260s57.15 129 95 129 95-129 95-129h-.2z"/><path style="fill:#cfd8dc" d="M340 202h30v30h-30z"/><linearGradient id="c" gradientUnits="userSpaceOnUse" x1="355" y1="858" x2="355" y2="678" gradientTransform="matrix(1 0 0 -1 0 1100)"><stop offset="0" style="stop-color:#fff"/><stop offset="1" style="stop-color:#fff;stop-opacity:0"/></linearGradient><path style="opacity:.8;fill:url(#c);enable-background:new" d="M355 242c-37.59 3-95 180-95 180h190s-57.41-177-95-180z"/></g><g><linearGradient id="d" gradientUnits="userSpaceOnUse" x1="195" y1="1037" x2="195" y2="908" gradientTransform="matrix(1 0 0 -1 0 1100)"><stop offset="0" style="stop-color:#fff;stop-opacity:0"/><stop offset="1" style="stop-color:#fff"/></linearGradient><path style="opacity:.65;fill:url(#d);enable-background:new" d="M289.8 63H100s57.15 129 95 129 95-129 95-129h-.2z"/><path style="fill:#cfd8dc" d="M180 202h30v30h-30z"/><linearGradient id="e" gradientUnits="userSpaceOnUse" x1="195" y1="858" x2="195" y2="678" gradientTransform="matrix(1 0 0 -1 0 1100)"><stop offset="0" style="stop-color:#fff"/><stop offset="1" style="stop-color:#fff;stop-opacity:0"/></linearGradient><path style="opacity:.8;fill:url(#e);enable-background:new" d="M195 242c-37.59 3-95 180-95 180h190s-57.41-177-95-180z"/></g><g><path style="fill:#b0bec5" d="M460 171h130v251H460z"/><path style="fill:none;stroke:#78909c;stroke-width:15;stroke-miterlimit:10" d="M462.5 422V174.5h125V422"/><path style="fill:#fff" d="M536 235.11c0 4.167-.89 7.357-2.67 9.57-1.78 2.213-4.383 3.32-7.81 3.32-3.38 0-6-1.09-7.77-3.25s-2.71-5.28-2.75-9.33v-5.55c0-4.22.9-7.41 2.7-9.6s4.39-3.27 7.78-3.27 6 1.08 7.77 3.24 2.71 5.27 2.75 9.32v5.55zm-6.17-6.1a10.87 10.87 0 0 0-1.05-5.47 3.61 3.61 0 0 0-3.3-1.71 3.531 3.531 0 0 0-3.21 1.63 10.001 10.001 0 0 0-1.1 5.09v7.34a11.407 11.407 0 0 0 1 5.49 3.55 3.55 0 0 0 3.32 1.79 3.469 3.469 0 0 0 3.26-1.72 10.997 10.997 0 0 0 1-5.27V229l.08.01zM558.49 236.12H562V241h-3.46v6.55h-6.06V241h-12.83v-3.79l12.72-20h6.12v18.91zm-12.81 0h6.75v-10.69l-.39.68-6.36 10.01zM506 236.12h3.46V241H506v6.55h-6.06V241h-12.82v-3.79l12.73-20H506v18.91zm-12.81 0h6.75v-10.69l-.4.68-6.35 10.01z"/><path style="fill:#607d8b" d="M555 302h15v34h-15z"/><path style="fill:#78909c" d="M546 319h20v4h-20z"/><path d="M558 306h9v9h-9z"/></g><linearGradient id="f" gradientUnits="userSpaceOnUse" x1="289" y1="-486.37" x2="289" y2="-466.37" gradientTransform="matrix(1 0 0 -1 0 -5.37)"><stop offset="0" style="stop-color:#fff"/><stop offset="1" style="stop-color:#e0e0e0"/></linearGradient><path style="opacity:.2;fill:url(#f);enable-background:new" d="M393 461c0 11.046-8.954 20-20 20H205c-11.046 0-20-8.954-20-20h208z"/><g><path style="fill:#191919" d="m329.63 300.13 9.37.87s1.06 5.63-1.25 8.25-3.44 3.69-5.75 3.75-5.12-7.75-2.37-12.87z"/><path style="fill:#ffccbc" d="M339 301c1.588.082 3.18-.002 4.75-.25 1.86-.19 3.35-.75 3.75-.75 1 0 .49 1.62-1.5 3a9.004 9.004 0 0 1-3.65 1.65 26.507 26.507 0 0 0 1.83 3.35c3 3.77 7.55 3.57 6.7 4.5-1.11 1.18-14.08 4.4-14.08 4.4a50.192 50.192 0 0 1-6.18-6.85C328.44 306.87 327 301 327 301h12z"/><path style="fill:#ffab91" d="M338.83 314.92c-2 .23-2.76 1.34-2 2a4.373 4.373 0 0 0 3.3 1.08 19.213 19.213 0 0 0 4.84-1.6 27.807 27.807 0 0 0 6-4c-.14.03-2.09 1.35-12.14 2.52z"/><path style="fill:#212121" d="M295 256c2.28.841 4.62 1.509 7 2 4 .48 9.1 1.1 13 5a20.213 20.213 0 0 1 4.42 7.43c.88 2.36 2.89 8.19 3.58 10.57.9 3.14 5.08 10.08 7 12 3 3 9 8 9 8s-2.12-.5-5.56 2.81c-3 2.86-3.63 6.19-1.88 9.11 0 0-10.56-7.92-12.56-9.92s-7-11-7-11 1 13 2 21 3 10 3 20c.06 7.825-.63 15.637-2.06 23.33L299 370h-37l-5-54-6.36-5.68a9.004 9.004 0 0 1-2.63-6c-.03-.748.03-1.497.18-2.23 1.74-8.41 7.06-30.15 7.81-33.13.49-1.95 5.32-4.39 9.11-6.36 4-2.07 7.89-3.64 7.89-3.64l22-2.96z"/><path d="M297 449.9v6c0 2.47-.07 3.79 2.09 4.28 1.61.37 6.82 1.64 7.7 1.95 4.85 1.66 9.38 3.75 13.9 3.75 2 0 4.19-.11 5.94-1.25 0 0-.13-5.13-6.81-6.6-8.17-2.35-9.62-10.54-9.62-10.54L297 449.9z"/><path style="fill:#eee" d="m274 258-1 12 7 16 12 16.92 4-11.92 3-13-2-15-10.5 5z"/><path style="fill:none;stroke:#212121;stroke-width:1.5;stroke-miterlimit:10" d="M286.11 299.38S288 291.63 288 271"/><path style="fill:#212121" d="m314.94 356.33 1.89 42.8c.14 2.27.19 4.53.16 6.8L315.63 453s-.63 3.31-10.41 3.31-10-3.18-10-3.18l-2.81-52.51-6.19-47.87L296 351l18.94 5.33z"/><path style="fill:#191919" d="m267 300.63-1.75-2.38 2.25-11 1.75 10.63z"/><path d="M278 459.51c-.15 1.86.09 2.22-1.28 3.42-.75.65-3.52 3-4.72 4.11a26.352 26.352 0 0 1-4.42 4 19.004 19.004 0 0 1-9.4 3 15.06 15.06 0 0 1-.18-2.12c0-1.78.24-4.25 1.69-5.81 4.29-4.6 6.89-6 8.18-10.15a21.712 21.712 0 0 0 .89-7.89h9.07l.17 11.44z"/><path style="fill:#191919" d="m288.24 312-.24-13.3 4.07 4.19s-2 36 12.49 54.57c1.52 2 10.44-1.46 10.44-1.46s-6.81 7.69-13.51 5.64c-8.86-2.7-13.25-49.64-13.25-49.64z"/><path style="fill:#212121" d="m284.88 406.75-2.22 48.5S283 461 270 461c-7.25 0-8.32-4.25-8.32-4.25l-1.63-53 4-60.5 29.77 7.42-8.94 56.08z"/><path style="fill:#5d4037" d="m279 306-10 1.33-6 12.67s-7.67 36.33-8.33 42.67c-.6 5.66-1.46 23.86-1.64 27.64a1 1 0 0 0 .61 1L274 400l-2-76-3-10 10-8z"/><path style="fill:#6d4c41" d="M265.5 311.5s4.26 31.15 3.73 46.27c-.63 18.22 1.11 42.79 1.46 47.45.041.542.301 1.044.72 1.39a12.782 12.782 0 0 0 8 2.39c2.21.13 4.422-.211 6.49-1a1.86 1.86 0 0 0 1.13-2c-.56-7-2.9-39-2.9-55 0-18 1.94-37.75 1.94-37.75s-2.4-6.7-8.25-6.7-12.32 4.95-12.32 4.95z"/><path style="fill:#bdbdbd" d="m290.35 266.94-1.29-1.29a2.18 2.18 0 0 0-3.08 0l-1.29 1.29a2.21 2.21 0 0 0 0 3.12l1.29 1.29a2.21 2.21 0 0 0 3.12 0l1.29-1.29a2.22 2.22 0 0 0-.04-3.12z"/><circle style="fill:#212121" cx="287.5" cy="268.5" r="1.5"/><path style="fill:#fff" d="M275.9 253.1 272 260s-1 5 3 8c5.12 3.84 7 5 7 5a32.384 32.384 0 0 0 4.67-7.84 16.295 16.295 0 0 1-8.79-4.44c-4.24-4-1.98-7.62-1.98-7.62zM291 258l6 1-4 12c-2.31 0-4.91-5.92-4.91-5.92 1.17-1.17.72-.87 1.32-2 .77-1.45 1.79-3.46 1.59-5.08z"/><path style="fill:#424242" d="M295.38 256.13S302 262 304 270l-4 3 4 3-12 26.92s1.05-3.92 2-21.92c1-19-3-23-3-23l4.38-1.87z"/><path style="fill:#ffccbc" d="M293 229c1.08 0 1.23 1.85 2 4 .65 1.82 1.54 2.75 1.66 3.87s.22 2.14.34 3.26.38 3 .63 4.25c.203 1.029.327 2.072.37 3.12.03 1.836-.04 3.672-.21 5.5-.63 3.25-6.79 5-6.79 5s1.05 7.33-3.95 7.33c-1.42 0-9.49.31-12.49-7.69C272.2 251.36 272 253 272 253s2-2 2-9 4.93-15 12-15h7z"/><path d="M273 228c2.5-2.5 5-4 11-4 9 0 10 4 10 6 0 1-2 2-2 2a12.274 12.274 0 0 0-5-1c-3.95 0-5 1.25-5 3v3c0 3-1 3-1 5v5h-2s0-5-2.43-5c-1.88 0-2.57 1-2.57 3a9.437 9.437 0 0 0 2 5v4c0 5-4.52 6.5-6.48 6.5A3.26 3.26 0 0 1 267 257c0-4 3.51-5.73 4.65-6.71.222-.19.35-.468.35-.76v-1.15a1 1 0 0 0-.23-.63 12.548 12.548 0 0 1-2.53-5.89c-.16-.945-.24-1.902-.24-2.86 0-5 1-8 4-11z"/><path style="fill:#424242" d="M274.57 258.13 272 260l-3 13 4 3-2 5s11 11.59 21 21.92c0 0-17.76-28.12-17.43-44.79z"/><path style="fill:none;stroke:#000;stroke-width:1.5;stroke-miterlimit:10" d="M302.57 290a25.811 25.811 0 0 0 7.81-1.65M304 326.5a16.613 16.613 0 0 0 9.75-3.62"/><path style="fill:#795548" d="M279.68 310.59c4.42 6.81.75 34.59 3.93 40.34 0 0 10.39-.61 10.39-3.93a10.25 10.25 0 0 0-1-4l1-2c-6.52-9.5-3.47-24.91-14.32-30.41z"/><path style="fill:#8d6e63" d="M299 341.38c-.56-5.42-4.08-11.9-7-19.8-2.13-5.8-6.48-13.82-11-18.58-1.64-1.72-5-4-8-4-2 0-4-1-7-1-8 0-12.71 6.64-13.66 10.32C248.78 322.15 246 342 246 342s-7 4-7 7 1.86 8.1 4.09 9.61 1.45-.44 3.58.83A22.296 22.296 0 0 0 258 362a42.903 42.903 0 0 0 12-2l-3-8 4-2.12s-2-21.07-2-34.13c0-4.2 3.63-10.62 9.6-6.34.438.298.806.687 1.08 1.14 10.85 5.5 6.8 22.91 13.32 32.41 2.47.04 6-.46 6-1.58z"/><path style="fill:#fff" d="M278 314.25V306c2.5 1.63 6.13 1 10 1-.83 3.37-1 16-1 16l-6.1-.36-2.9-8.39z"/><path style="fill:#ffccbc" d="M281 311.93c.66.6 2.81 2.23 2.81 2.23l1.32 1.33a3 3 0 0 1 .77 2.89l-.89 3.46a2.999 2.999 0 0 1-1.83 2l-2.31.91a3.071 3.071 0 0 1-2.05.08l-4.94-1.51s-2.88-.72-2.88-5.24 2.6-7.11 5.11-7.11c2.96.03 3.98.13 4.89.96z"/><path style="fill:#86665a" d="M260 305s-3.46 1-6.25 13.41c-2.33 10.37-2.75 27.08-2.75 27.08v3.15c-.092.488.032.991.34 1.38l.81.81a.5.5 0 0 0 .85-.36v-3.59s.13-17.39 2.25-28.49C257.53 306.46 260 305 260 305zM266 303s-5.52 3.57-6.65 17.08c-1.52 18.22-4.38 20.79-3 21.48s3.36 1.26 4.33-4c.73-4 .42-8 .87-17.46.31-6.81 1.6-12.33 4.45-17.1z"/></g></svg>