<svg xmlns="http://www.w3.org/2000/svg" fill-rule="evenodd" stroke-linejoin="round" stroke-miterlimit="2" clip-rule="evenodd" viewBox="0 0 1152 1152">
  <path fill-opacity=".3" d="M375 653c-85-16-151-91-151-181 0-69 39-130 96-162v-10a156.7 156.7 0 01156-155.6A156 156 0 01591 195a138 138 0 0169-19c70 0 129 53 139 120 74 24 129 94 129 176 0 90-66 165-151 181h-2a138 138 0 01-27 3H602c-.5 1-.8 2-1 3v2c0 2 2 4 4 5l3 1c4.2-2.3 68 19 68 19a76 76 0 0114 8l6 5c20 18 29 40 35 42 10 2 9-12 15-19l4-2v-2c0-7 3-13 8-18v-27c0-5 5-12 10-12 6 0 11 7 11 12v19h5c0-3 1-5 7-6 6-2 12 3 13 8h5c7-1 8 4 7 9l-2 7c0 3-2 7-5 9 0 6-2 11-5 15 6 5 10 9 9 13a5 5 0 01-1 1c-5 26-63 81-81 75 36 59 82 132 81 134-5 23-97 41-99 40l-18-61c-9 19-21 38-37 54 8 13 13 25 10 34-27-5-49-18-67-37-2-21-5-35-11-54-4.7.5-9.3.8-14 1-4.3-.2-8.7-.6-13-1-7 19-10 33-12 54-18 19-40 32-67 37-2-9 2-21 10-34-15-16-28-35-37-54l-18 61c-2 1-94-17-99-40-1-2 40-68 75-125-12-13-67-72-51-87 41-36 81-54 112-63 2 3 78.3-19.1 75-26H408a182 182 0 01-31-3h-2z"/>
  <ellipse cx="98.8" cy="272.5" fill="#fff" rx="28.3" ry="14.7" transform="matrix(3.89989 0 0 3.06498 191 -133)"/>
  <path d="M493.3 983c-40-47-60.5-102.1-59.2-158.1 0-50.8 19.8-104.6 63.3-143.4 15.8-15 142.2-15 158 0a191.7 191.7 0 0163.3 143.4c4 50.7-15.8 110.5-59.3 158.3h-.7c7.6 12.5 12.2 24 9.3 32.8-27-5-50-19.8-68-38.8h.2c0-18-4-32.9-12-50.8-7.8.4-15.8.4-23.6 0-8 18-12 32.9-12 50.8l-.1.2A127.9 127.9 0 01484 1016c-2-8.7 1.8-20.3 9.3-33z"/>
  <g transform="matrix(3.95216 0 0 2.98693 197 -122)">
    <clipPath id="a">
      <path d="M76 269c4-5 36-5 40 0 11 13 16 31 16 48 1 17-4 37-15 53-3 0-8 0-15-2 0-6-1-11-3-17h-6c-2 6-3 11-3 17-7 2-12 2-15 2a95 95 0 01-15-53c0-17 5-35 16-48z"/>
    </clipPath>
    <g clip-path="url(#a)">
      <ellipse cx="88.1" cy="291.3" fill="#053155" rx="48.7" ry="39.1" transform="matrix(.99864 0 0 .8327 8 65)"/>
      <ellipse cx="88.1" cy="291.3" fill="#305b80" rx="48.7" ry="39.1" transform="matrix(.99864 0 0 .8327 8 53)"/>
      <path fill-opacity=".2" d="M107 265h2c3 1 10 4 16 11l-3 7c4 8 6 17 8 26l24 53c-2 7-27 14-27 14l-9-48c-5-13-11-63-11-63zm-22 0s-7 50-11 63l-10 48s-24-7-26-14l24-53c1-9 4-18 8-26l-3-7c5-7 13-10 16-11h2z"/>
    </g>
  </g>
  <path fill="#053155" d="M493 686.5c58.8-40.6 113.8-37.7 165.8 0-23.7 24-59.1 56.9-82.8 59.9-27.6-3-59.3-36-83-60z"/>
  <g transform="matrix(3.94675 0 0 2.9944 197 -119)">
    <clipPath id="b">
      <path d="M90 256h12v2c1 3 9 5 11 6l4 5c-6 8-14 19-20 20l-1 1-1-1c-7-1-14-12-20-20l4-5c2-1 10-3 11-6 0-.3.4-1.7 0-2z"/>
    </clipPath>
    <g clip-path="url(#b)">
      <path fill="#fff" d="M79 253c5-2 29-2 34 0 2 2-3 7-2 8-6 8-8 16-15 18-7-2-9-10-15-18 1-1-4-6-2-8z"/>
      <g transform="translate(0 -11)">
        <clipPath id="c">
          <path d="M79 264c5-2 29-2 34 0 2 2-3 7-2 8-6 8-8 16-15 18-7-2-9-10-15-18 1-1-4-6-2-8z"/>
        </clipPath>
        <g clip-path="url(#c)">
          <path fill="#ffdac0" d="M101 267l-5 4-5-4h10z"/>
          <path fill="#bfbdbe" d="M92 267c1.4 1.2 2.8 2.6 4 4 1.2-1.4 2.6-2.8 4-4h2a37 37 0 00-5 5l6 18c0 .5-.5 1-1 1l-6-17-6 17a1 1 0 01-1-1l6-18c-1.5-1.5-3-2.8-4.9-4l-.1-1h2z"/>
          <path fill-opacity=".2" d="M67 261h58v32H67z"/>
        </g>
      </g>
    </g>
  </g>
  <path fill="#fff" d="M812 740c-5 26-63 81-81 75-102-32-102-137-102-145l46 7c34 15 49 54 56 56 10 2 9-12 15-19 16-15 70 27 66 26z"/>
  <ellipse cx="192.7" cy="176.8" fill="#fff" rx="7.8" ry="3.1" transform="matrix(3.93264 1.22253 -1.18742 3.8197 234 -181)"/>
  <ellipse cx="192.7" cy="176.8" fill-opacity=".2" rx="7.8" ry="3.1" transform="matrix(3.76616 1.17078 -1.155 3.7154 256 -154)"/>
  <path fill="#ffdac0" d="M779.6 686c19 0 30.5 8.5 30.5 25.7s-11.5 25.8-30.5 25.8c-19.1 0-30.6-13-30.6-25.8 0-17.2 15.3-25.8 30.6-25.8z"/>
  <g transform="matrix(3.8144 0 0 4.2944 51 -57)">
    <clipPath id="d">
      <path d="M191 173c5 0 8 2 8 6s-3 6-8 6-8-3-8-6c0-4 4-6 8-6z"/>
    </clipPath>
    <g fill="#ccae9a" clip-path="url(#d)">
      <path d="M198 173c0-2-2-3-4-3-3 1-3 1-3 3v2c0 2 0 4 3 4 2 0 4-2 4-4v-2z"/>
      <path d="M201 175c1-1 0-3-2-3s-2 1-3 2v2c-1 2-1 3 1 4 2 0 3-2 4-3v-2z"/>
    </g>
  </g>
  <path fill="#ffdac0" d="M818.7 695.2l-9.7-9.4-6.8 6.7-1.4 7.7 3.5 12.3 13-9.6 1.4-7.7z"/>
  <g transform="matrix(5.50623 .91265 -.67436 3.82514 -117 -137)">
    <clipPath id="e">
      <path d="M191 172l-2-2-1 2v2l1 3 2-3v-2z"/>
    </clipPath>
    <g clip-path="url(#e)">
      <path fill="#ccae9a" d="M189 170c-1-2-2-3-4-2l-1 3v3c0 2 1 4 2 3 2 0 3-3 3-5v-2z"/>
    </g>
  </g>
  <path fill="#ffdac0" d="M804 687c0-6-7-11-13-9-8 2-7 3-7 9l-1 8c0 6 0 12 8 12 7 0 13-7 13-13v-7zm-25-22c0-5-5-12-11-12-5 0-10 7-10 12v27c0 6 5 6 10 6 6 0 11 0 11-6v-27z"/>
  <path fill="#ffdac0" d="M758 692l9 15c0 1.1.9 2 2 2 20-1 26-9 26-16 1-3-1-5-2-7l-10-2c-9-1-16 1-23 4l-2 4z"/>
  <path fill="#ccae9a" d="M758 688c8-2 15-5 23-4l12 2c1 2 3 4 2 7 0 7-6 15-26 16a2 2 0 01-2-2c0-1.1.9-2 2-2 14-1 20-5 22-10 1-2 0-5-1-6l-9-1c-8-1-15 2-22 4a2 2 0 01-1 0v-4z"/>
  <path fill="#fff" d="M616 660l97 329c2 1 94-17 99-40 1-3-58-97-95-157-7-40-27-82-63-112-8-7-11-13-38-20z"/>
  <path fill-opacity=".2" d="M681 848c2 4 9-68 24-82-7-7-17-14-29-20 3-15 13-39 21-54-20-20-62-28-74-31 14 28 21 96 58 187z"/>
  <path fill="#fff" d="M690 691c-11-18-68-31-74-31 0 0 47 152 65 188 0 0 4-70 16-82-7-7-17-14-29-20 3-15 14-41 22-55zM532.5 665.5s-83-6-169.7 71.9c-15.8 15 55.2 89.8 55.2 89.8l35.5-65.8 11.9-18 67-77.9z"/>
  <g transform="matrix(3.94675 0 0 2.9944 197 -119)">
    <clipPath id="f">
      <path d="M85 262s-21-2-43 24c-4 5 14 30 14 30l9-22 3-6 17-26z"/>
    </clipPath>
    <g clip-path="url(#f)">
      <path fill-opacity=".2" d="M83 266s-34 63-24 43c1-11-2-14 7-27 2-2 10-14 17-16z"/>
    </g>
  </g>
  <path fill="#fff" d="M536.4 659.5L437.8 989S347 971 339 950l94.7-158.7c7.9-39 27.6-80.9 63.2-110.8 7.8-9 11.8-15 39.4-21z"/>
  <path fill-opacity=".2" d="M469.3 848.2c0 3-7.9-68.9-23.7-80.9l31.6-21-23.7-53.8c19.8-21 63.2-30 75-33-15.8 30-19.7 95.9-59.2 188.7z"/>
  <path fill="#fff" d="M461.4 689.5c11.9-18 67.1-30 75-30 0 0-47.3 152.8-67 188.7 0 0-4-71.9-15.9-80.9l31.6-21-23.7-56.8z"/>
  <path fill-opacity=".2" d="M584 682l6-4c18-13 38-22 61-22 12 0 25 5 25 16 0 16-4 28-14 37 5 18 3 42-19 46l-9 1c-17 0-25-5-39-16l-11-10h-16l-11 10c-14 11-22 16-39 16l-9-1c-22-4-24-28-19-46-10-9-14-21-14-37 0-11 13-16 25-16a107 107 0 0167 26h16z"/>
  <path fill="#e52d6b" d="M584 674l6-4c18-13 38-22 61-22 12 0 25 5 25 16 0 16-4 28-14 37 5 18 3 42-19 46l-9 1c-17 0-25-5-39-16l-11-10h-16l-11 10c-14 11-22 16-39 16l-9-1c-22-4-24-28-19-46-10-9-14-21-14-37 0-11 13-16 25-16a107 107 0 0167 26h16z"/>
  <path fill="#e52d6b" d="M576 687c0-7-9-14-14-17-18-13-38-22-61-22-12 0-25 5-25 16 0 16 4 28 14 37-5 18-3 42 19 46l9 1c17 0 25-5 39-16 4-4 19-15 19-24v-21zm0 0c0-7 9-14 14-17 18-13 38-22 61-22 12 0 25 5 25 16 0 16-4 28-14 37 5 18 3 42-19 46l-9 1c-17 0-25-5-39-16-4-4-19-15-19-24v-21z"/>
  <path fill="#e52d6b" d="M592 682c0-4-4-8-8-8h-16c-4 0-8 4-8 8v32c0 4 4 8 8 8h16c4 0 8-4 8-8v-32z"/>
  <path fill-opacity=".2" d="M568 674a8 8 0 00-8 8v32c0 4 3 8 8 8a101 101 0 01-7 6 10 10 0 01-5-8v-36a10 10 0 0110-10h2zm16 0h2a10 10 0 0110 10v36c0 4-2 7-5 8a98 98 0 01-7-6 8 8 0 008-8v-32a8 8 0 00-8-8z"/>
  <ellipse cx="92.9" cy="294.5" fill="#2ad376" rx="3.1" ry="4.4" transform="matrix(4.52491 0 0 3.20045 4 -17)"/>
  <ellipse cx="92.9" cy="294.5" fill="#2daee5" rx="3.1" ry="4.4" transform="matrix(4.52491 0 0 3.20045 19 -54)"/>
  <ellipse cx="92.9" cy="294.5" fill="#faae00" rx="3.1" ry="4.4" transform="matrix(4.52491 0 0 3.20045 34 -91)"/>
  <path fill="#bfbdbe" fill-rule="nonzero" d="M775 645a138 138 0 01-27 3H408c-101 0-184-83-184-184 0-69 39-130 96-162v-10a156.7 156.7 0 01156-155.6A156 156 0 01591 187a138 138 0 0169-19c70 0 129 53 139 120 74 24 129 94 129 176 0 90-67 166-153 181z"/>
  <path fill="#fff" fill-rule="nonzero" d="M560 344c0-12-1-51-21-85-12-20-29-38-59-48a222 222 0 00-138 2v-1a158 158 0 0136-41c12-2 39-3 51-3 21 1 43 4 61 11 37 13 61 37 76 63 21 36 25 81 26 102l-16 4-16-4z"/>
  <path fill="#ffdac0" fill-rule="nonzero" d="M406 648c-.3 0-61.9-20.7-69.4-93.2-8.8-84.2 56.9-229.6 126.4-220.8 115.5 14.5 111.3 14.7 228 0 69.4-8.8 135 136.6 126.3 220.8C809.8 627.3 748 648 748 648H406z"/>
  <ellipse cx="120.1" cy="124.8" fill-opacity=".2" rx="25.9" ry="25.2" transform="matrix(4.172 -.06846 .07034 4.2867 194 -53)"/>
  <ellipse cx="120.1" cy="124.8" fill="#526779" rx="25.9" ry="25.2" transform="matrix(4.172 -.06846 .07034 4.2867 194 -61)"/>
  <ellipse cx="120.1" cy="124.8" fill-opacity=".2" rx="25.9" ry="25.2" transform="matrix(4.172 -.06846 .07034 4.2867 -62 -49)"/>
  <ellipse cx="120.1" cy="124.8" fill="#526779" rx="25.9" ry="25.2" transform="matrix(4.172 -.06846 .07034 4.2867 -62 -57)"/>
  <ellipse cx="65.3" cy="120.2" fill="#526779" rx="15.3" ry="16.5" transform="matrix(3.66991 -.06022 .03039 1.85177 333 276)"/>
  <ellipse cx="120.1" cy="124.8" fill="#f3e5db" rx="25.9" ry="25.2" transform="matrix(3.55392 -.05832 .05992 3.65165 270 17)"/>
  <ellipse cx="120.1" cy="124.8" fill="#f3e5db" rx="25.9" ry="25.2" transform="matrix(3.55392 -.05832 .05992 3.65165 14 21)"/>
  <path fill-opacity=".2" d="M695 331c37 2 77 31 83 51 3 9-39-17-76-19s-55 11-55 1 11-35 48-33z"/>
  <path fill="#fff" d="M696 323c37 2 76 31 83 51 3 9-39-17-76-19s-56 11-55 1 11-35 48-33z"/>
  <g>
    <path fill-opacity=".2" d="M512 353c-6-7-15-19-30-30-30-22-79-30-71-35 18-10 67-7 97 15 25 19 22 41 18 52 5 4 11 10 15 10 11 1 17-4 17 0s-4 15-15 15c-12-1-25-19-31-27z"/>
    <path fill="#fff" d="M512 296c-29-22-79-25-96-14-8 5 41 12 70 34 30 22 36 44 42 36s14-34-16-56z"/>
  </g>
  <g>
    <path fill="#ae5f5b" d="M576 584.6c15.1-1 24.3 9.2 13.8 24-7.6 10.8-6.2 24-13.8 24-7.7 0-13.9-10.8-13.9-24 0-13.3 6.3-23.5 13.9-24z"/>
    <g transform="matrix(4 0 0 4 -54.2 -7.4)">
      <clipPath id="g">
        <path d="M157.5 148c3.8-.3 6.1 2.3 3.5 6-2 2.7-1.6 6-3.5 6s-3.4-2.7-3.4-6 1.5-5.9 3.4-6z"/>
      </clipPath>
      <g clip-path="url(#g)">
        <circle cx="152.3" cy="157.3" r="2.7" fill="#c98480" transform="matrix(1.72018 0 0 1.13994 -104 -19.9)"/>
      </g>
    </g>
  </g>
  <g>
    <path fill-opacity=".2" d="M577 546l-1-14 76-5h8a85 85 0 0146 15 82 82 0 0116 15c5 6 9 12 12 19 3 8 6 26 6 26 7 21-134 0-157-4-21 9-154 63-152 41v-27c1-7 4-14 7-21a82 82 0 0112-19 85 85 0 0110-9 85 85 0 0139-18l75-13 3 14z"/>
    <path fill="#fff" d="M576 524l4 66s167 27 160 4c0 0-3-18-6-26-3-7-7-13-12-19a82 82 0 00-70-30l-76 5z"/>
    <path fill="#fff" d="M574 524l12 65c-1 0-157 65-155 42v-27c1-7 4-14 7-21a82 82 0 0112-19 85 85 0 0110-9 85 85 0 0139-18l75-13z"/>
  </g>
  <g transform="matrix(4.19476 0 0 2.55176 302 215)">
    <ellipse cx="65.3" cy="120.2" fill="#f5b49e" rx="15.3" ry="16.5"/>
  </g>
  <g>
    <path fill="#4e3e2e" d="M716 452c0-13.2-10.8-24-24-24s-24 10.8-24 24v32c0 13.2 10.8 24 24 24s24-10.8 24-24v-32z"/>
  </g>
  <g>
    <path fill="#4e3e2e" d="M484 452c0-13.2-10.8-24-24-24s-24 10.8-24 24v32c0 13.2 10.8 24 24 24s24-10.8 24-24v-32z"/>
  </g>
</svg>
