<?xml version="1.0" encoding="UTF-8" standalone="no"?>
<!DOCTYPE svg PUBLIC "-//W3C//DTD SVG 1.1//EN" "http://www.w3.org/Graphics/SVG/1.1/DTD/svg11.dtd">
<svg width="100%" height="100%" viewBox="0 0 16 10" version="1.1" xmlns="http://www.w3.org/2000/svg" xmlns:xlink="http://www.w3.org/1999/xlink" xml:space="preserve" xmlns:serif="http://www.serif.com/" style="fill-rule:evenodd;clip-rule:evenodd;stroke-linejoin:round;stroke-miterlimit:2;">
    <g transform="matrix(0.54459,0,0,0.550119,5.6991,0.599046)">
        <g transform="matrix(1.45802,-1.45802,1.45802,1.45802,-19.0353,-3.09732)">
            <path d="M9.46,11.723C9.458,11.293 9.197,10.904 8.799,10.738C8.401,10.571 7.944,10.66 7.642,10.962L3.351,15.253C3.048,15.555 2.96,16.012 3.126,16.41C3.293,16.809 3.682,17.07 4.112,17.072L8.424,17.093C9.012,17.096 9.485,16.623 9.482,16.036L9.46,11.723ZM8.397,11.718L4.107,16.008L8.419,16.03L8.397,11.718Z" style="fill:rgb(250,174,0);"/>
        </g>
        <g transform="matrix(1,0,0,1,-2.4613,1.33227e-14)">
            <path d="M1.224,11.238C0.983,11.603 0.855,12.038 0.869,12.488C0.891,13.257 1.321,13.958 2,14.332L5.324,16.162C6.006,16.538 6.839,16.528 7.512,16.136C8.185,15.744 8.599,15.029 8.599,14.256L8.599,9.163C8.599,8.739 8.474,8.332 8.249,7.986C8.474,7.64 8.599,7.233 8.599,6.809L8.599,1.744C8.599,0.862 8.062,0.067 7.238,-0.271C6.415,-0.609 5.467,-0.422 4.837,0.202L-1.482,6.458C-1.961,6.931 -2.193,7.597 -2.112,8.262C-2.03,8.928 -1.644,9.519 -1.065,9.866L1.224,11.238ZM6.395,6.809L6.395,1.744L0.076,8L5.215,11.079L3.071,12.425L6.395,14.256L6.395,9.163L4.424,8L6.395,6.809Z" style="fill:rgb(250,174,0);"/>
        </g>
    </g>
</svg>
