<svg xmlns="http://www.w3.org/2000/svg" viewBox="0 0 800 600" style="enable-background:new 0 0 800 600" xml:space="preserve"><path style="fill:#fff" d="M0 0h800v600H0z"/><radialGradient id="a" cx="818.521" cy="-1.969" r="264.369" gradientTransform="matrix(1.339 0 0 1.0196 -696.032 356.507)" gradientUnits="userSpaceOnUse"><stop offset="0" style="stop-color:#f2f2f2"/><stop offset=".672" style="stop-color:#f4f4f4"/><stop offset=".921" style="stop-color:#fbfbfb"/><stop offset="1" style="stop-color:#fff"/></radialGradient><path style="fill:url(#a)" d="M0 82h800v495H0z"/><path style="fill:#fff" d="M0 433.1h800V600H0z"/><path style="fill:#fafafa" d="M257.1 126.1h291.8v304.7H257.1z"/><path style="fill:#e5e5e5" d="M561.4 430.8h-17V130.6H261.6v300.2h-17V113.6h316.8z"/><path style="fill:#fafafa" d="M607.9 169.3h127.9v204.4H607.9z"/><path d="M748.3 386.1H596.4V156.8h151.9v229.3zm-135.9-17h118.9V173.8H612.4v195.3z" style="fill:#e5e5e5"/><path style="fill:#fafafa" d="M70 169.3h127.9v204.4H70z"/><path d="M210.3 386.1H58.5V156.8h151.9v229.3zm-135.8-17h118.9V173.8H74.5v195.3z" style="fill:#e5e5e5"/><radialGradient id="b" cx="401.5" cy="129.215" r="333.458" gradientTransform="matrix(1 0 0 -1.1328 0 585.274)" gradientUnits="userSpaceOnUse"><stop offset="0" style="stop-color:#fff;stop-opacity:0"/><stop offset="1" style="stop-color:#fff"/></radialGradient><path style="fill:url(#b)" d="M3 1h800v466H3z"/><g><linearGradient id="c" gradientUnits="userSpaceOnUse" x1="402.5" y1="128.163" x2="402.5" y2="148.163" gradientTransform="matrix(1 0 0 -1 0 604)"><stop offset="0" style="stop-color:#fff"/><stop offset="1" style="stop-color:#e0e0e0"/></linearGradient><path d="M653.5 455.8c0 11-9 20-20 20h-462c-11.1 0-20-9-20-20h502z" style="opacity:.2;fill:url(#c);enable-background:new"/></g><g><path d="M374.7 458.6c-2.5 3.2-4.1 4.9-4.5 7.3 0 .2 0 .4-.1.6-.1 2.7 2.3 4.7 5 4.6 3.1-.2 7.9-1.3 9.9-6.6 1.8-4.6 4.3-4.2 4.9-7.8.3-2.2-.3-6.1-.3-6.1s-1.4 1-6.1.3c-3.6-.6-3.4-1.7-3.4-1.7s.1 2.4-5.4 9.4z" style="fill:#704020"/><path d="m379 319.1 24.7-.2v26.5s-6.1 41.2-8.4 48.1c.1 21.6-3.7 59.2-3.7 59.2H376s-1.2-42 1.2-60.1c0 0-4.6-60 1.8-73.5z" style="fill:#ccb491"/><path d="m385.2 334.8-9.1-2.3 1.8-6.8c.2-.9 1.1-1.4 2-1.2l5.9 1.5c.9.2 1.4 1.1 1.2 2l-1.8 6.8zM432 458.8c2.5 3.3 4 5 4.3 7.4v.6c0 2.7-2.4 4.7-5.1 4.5-3.1-.2-7.8-1.5-9.8-6.8-1.7-4.7-4.2-4.3-4.7-7.9-.3-2.2.4-6.1.4-6.1s1.4 1 6.1.4c3.6-.5 3.4-1.7 3.4-1.7s0 2.4 5.4 9.6z" style="fill:#704020"/><path d="M467.8 264s4.5.7 6.7-5.5c1.2-3.4 6.1-14.8 6.2-19.1 0-1.8-2.2-2.6-3.3-1.2l-15.8 22.3" style="fill:#e2b698"/><path d="M419.3 201.9s-10.2-6.3-15.8-6.3c-6.4 0-15.6 6.1-15.6 6.1 0 12.5-2.4 67.4-2.4 67.4s4.7 5.5 17.9 5.5h.2c13.3 0 16.7-4.2 16.7-4.2s-1-56-1-68.5z"/><path d="m403 231.2-7-1.2s-2.7 6.1-7.5 7.3c0 0-3.6 30.1 14.5 30.1v-36.2zM403 231.2l6.7-1s3 5.8 7.8 7c0 0 3.6 30.1-14.5 30.1v-36.1z" style="fill:#e2b698"/><path d="M389.6 241.5s0-41.7 12.6-41.7l1.2-9.9-11.1 2.8-6 21.1-1.8 27.7h5.1z"/><path d="M417.7 242.3s-3.2-42.5-15.5-42.5l1.2-9.9 11.1 2.8 5.9 21.2 1.8 28.4h-4.5z"/><path d="M427.7 319.5 403 319v26.5s6.1 41.2 8.4 48.1c.1 24.7 3.7 59.2 3.7 59.2h15.7s1.2-50.4-1.2-60.1c-.1-.1 4.5-59.7-1.9-73.2z" style="fill:#ccb491"/><path d="m471.2 264.5-6.8-7.9-15.6 21.1s-9.4-37.8-21.1-38.6l-10.5 39 12.5-6.7s7.5 25.7 15.7 26c11.3.5 25.8-32.9 25.8-32.9z" style="fill:#2662a3"/><path d="M403.3 235.4c13.2 0 11.7.9 11.7.9l12.7 2.8c0 11.2-1.9 80-26 80l1.6-83.7z" style="fill:#51453c"/><path d="M425.6 311.4s-3.5 1.2-22.3 1.2c-18.7 0 0 8.8 0 8.8 18.5 0 24.4-1.9 24.4-1.9.2 0-1.5-8.1-2.1-8.1z" style="fill:#704020"/><path d="M424.6 315.6c-.4-2.1-2.3-3.7-4.5-3.5-3.4.3-8.6.5-16.8.5-18.7 0-22.9-1.2-22.9-1.2-.6 0-1.9 7.7-1.4 7.7 0 0-1.4 7.5 1.6 8.6 3.6 1.2 10.9-6.3 22.6-6.3 0 0 13.8-.4 17.6-.8 2.5-.2 4.3-2.5 3.8-5z" style="fill:#7e4f2e"/><path d="M417.5 313.7c-4.7.5-12.2.3-12.2.3l-3.2 3.1 3.5 2.7s5.6.5 12.2-.3l-.3-5.8z" style="fill:#87593a"/><path d="M413.3 322.3c-.5 0-1-.4-1-1l-.4-8.8c0-.6.4-1 1-1s1 .4 1 1l.4 8.8c0 .5-.4.9-1 1z" style="fill:#a06e4d"/><path d="M417.8 320.1c-.3 0-.5-.2-.6-.5 0-.3.2-.6.5-.6l3.5-.2-.2-4.7-3.5.2c-.3 0-.6-.2-.6-.5s.2-.6.5-.6l4.1-.2c.3 0 .6.2.6.5l.3 5.8c0 .3-.2.6-.5.6l-4.1.2z" style="fill:#78909c"/><path d="m419.8 315.7.1 1.6h-.8c-.5 0-.8-.3-.9-.8 0-.5.3-.8.8-.9.4.1.8.1.8.1z" style="fill:#704020"/><path d="M419.1 317c-.2 0-.4-.2-.5-.4 0-.2.2-.5.4-.5l2.7-.1c.3 0 .5.2.5.4s-.2.5-.4.5l-2.7.1z" style="fill:#b0bec5"/><path d="m403.3 235.4 14.9 1.8 11.4 2.4c.4 11.2.9 21.8 0 31.8 0 4.4-1.3 30.6-4.1 40 0 0-3.4 2.2-22.3 2.2l.1-78.2z" style="fill:#326ec0"/><path d="M331.8 259.4s-4.5-.8-4.6-7.3c-.1-3.6-1.1-16 .2-20.1.5-1.7 2.9-1.7 3.5-.1l7.9 26.2" style="fill:#e2b698"/><path d="m329 260.4 9.6-6 11.9 14.9s16.4-23.8 25.2-28.5l2.8 7.8 10.3 29.4-12.5-7.7s-21.1 19.2-25.5 19.2c-9 .1-21.8-29.1-21.8-29.1z" style="fill:#2662a3"/><path d="m403.3 235.4-15.9 2-11.7 3.5c-1.4 6.2-.9 22.6.6 29.5 0 4.4 1.9 32.5 4.1 41 0 0 6.2 2.2 22.9 2.2v-78.2z" style="fill:#326ec0"/><path style="fill:#3e7ecc" d="M396.3 261.4h-16.5l.6 15 7.8 3.4 8-3.6z"/><path style="fill:#4a91d8" d="M396.3 261.4h-16.5l.2 5.3 8.2 2.1 8.1-2.6z"/><path style="fill:#3e7ecc" d="M426.3 261.4h-16.5l.6 15 7.8 3.4 8-3.6z"/><path style="fill:#4a91d8" d="M426.3 261.4h-16.5l.2 5.3 8.2 2.1 8.1-2.6z"/><path d="M403.3 313.6v-78.2" style="fill:none;stroke:#2662a3;stroke-width:3;stroke-miterlimit:10"/><path d="m384.1 339.1-12.9-3.3-.8-.2c-.8-.2-1.7.7-1.7.7.7-2.8 5.6-1 6.8-4.1l9.6 2.5-1 4.4z" style="fill:#8e5128"/><path d="m384.6 334.6-9.1-2.3 1.8-6.8c.2-.9 1.1-1.4 2-1.2l5.9 1.5c.9.2 1.4 1.1 1.2 2l-1.8 6.8z" style="fill:#8e5a36"/><path transform="rotate(104.513 376.378 350.05)" style="fill:#839ba5" d="M367.9 348.9h17v2.2h-17z"/><path d="m374.7 325-1.3-.3c-.5.9-1.5 1.4-2.6 1.3h-.2c-1.3-.1-2.4.8-2.5 2l-.2 1.6c-.1 1.2.6 2.2 1.7 2.5.1 0 .2 0 .3.1 1.1.1 2 .9 2.3 2l.1.3 2.4-9.5zm-5.8 4.3.1-1.1c.1-.8.8-1.4 1.6-1.3l.7.1c.4 0 .7.4.6.8l-.3 2.6c0 .4-.4.7-.8.6l-.7-.1c-.7-.1-1.3-.8-1.2-1.6zM384.6 329.5c-.2-1 .4-1.9 1.1-2.4.4-.2.8-.5 1.1-.8.3-.3.3-.7 0-1-.2.6-.9.9-1.3.9-.9 0-2.3.8-2.8 1.6-.3-.4 1.9 1.7 1.9 1.7z" style="fill:#58747f"/><path transform="rotate(-75.487 380.318 332.001)" style="fill:#a6b1b2" d="M380.2 328.8h.3v6.4h-.3z"/><path d="m376.6 358.9.8-3.3 1.2.4c.7.3 1 1.1.6 1.7-.5 1-1.5 1.4-2.6 1.2z" style="fill:#b0bec5"/><path transform="rotate(104.513 378.194 352.303)" style="fill:#90a4ae" d="M368 351.1h20.4v2.4H368z"/><path d="M385.7 330.9c.1-.4 0-.8-.3-1.1-.6-.6-1.7-1.5-2.4-2.2-.4-.4-1-.7-1.7-.9-.4-.1-.9-.1-1.3-.1.1-.7-.3-1.4-.9-1.8l.3-1-.5-.1-5.4.9-1.4 12.2c-.2 1.4.6 2.8 1.8 3.4.8.4 1.4 1.1 1.6 2l5.9 1.5c.6.2 1.2-.2 1.4-.8l2.9-12z" style="fill:#78909c"/><path d="m366.2 311-1.2 4.6c-.3 1.3.4 2.5 1.7 2.8 3 .6 7.7 2.2 6.6 6.3l2.7.7c1.2.3 2.4-.4 2.7-1.6.6-2.3 1.8-7.2-6.5-12.4l-2.6-1.6c-1.3-1-3-.3-3.4 1.2z" style="fill:#757575"/><path d="M378.8 323.7c.6-2.3 1.8-7.2-6.5-12.4l-3.5-2.1c-.9-.6-2.1-.1-2.3.9l-1.4 5.5c-.3 1.2.5 2.5 1.7 2.8 3 .6 7.6 2.2 6.6 6.3l2.7.7c1.1.2 2.3-.5 2.7-1.7zm-4.5-2c-.1-.3-.2-.5-.4-.8-.7-1.2-2.8-2.3-4.6-3.1-1.7-.8-2.7-2.6-2.4-4.5l.4-2.1c.1-.3.3-.6.7-.8.3-.1.7-.1 1 .1l2.6 1.6c4.2 2.6 5.5 5.9 5.9 8.5.3 2.1-2.4 3-3.2 1.1 0 .1 0 .1 0 0z" style="fill:#616161"/><path style="fill:#b0bec5" d="m383.6 333.3-6.4-1.6-2 7.6 6.4 1.7zM381.9 329.4l-1.3-.3c-1.4-.4-2.8.5-3.2 1.9l6.4 1.7c.3-1.5-.5-2.9-1.9-3.3z"/><path d="M380.9 334.7c.1-.5-.2-1.1-.7-1.2-.5-.1-1.1.2-1.2.7l-1.5 5.7 2 .5 1.4-5.7zM376.2 339.5l-1-.3 1.7-6.6c.5.3.8.9.6 1.5l-1.3 5.4zM381.6 341l-1-.3 1.4-5.4c.2-.6.7-1 1.3-1l-1.7 6.7z" style="fill:#90a4ae"/><circle cx="376.2" cy="327.9" r="1.1" style="fill:#b0bec5"/><path d="m383 340.9-10-5.2-2.5-.4c-.8-.2-1.6.3-1.8 1.1-.7 3.6 1.4 12.9.3 20.6-.1.6-.2 1.1-.3 1.7-.1.3-.1.5-.2.8v-.1c-.2.7.2 1.4 1 1.6 2.7.7 8.9 1.1 8.9 1.1l4.6-21.2z" style="fill:#704020"/><path d="m384.5 335.2-.7-.2c-1.8-.5-3.9.4-6.7 1-2.4.5-4.4-.9-6-.2-3.9 1.8 1.8 11.9-1.7 25.2 2.4 1.5 5.2 2.3 8 2.3.4 0 .7-.3.8-.6l6.9-26.5c.1-.5-.1-.9-.6-1z" style="fill:#7e4f2e"/><path d="m381.2 352.3-12.3-2.7c-.6-.1-1-.7-1-1.3.1-.8.8-1.3 1.5-1.2l12.3 2.7c.2 0 .3.2.2.4l-.4 1.9c.1.1-.1.2-.3.2z" style="fill:#a06e4d"/><circle cx="372.3" cy="349" r="1.6" style="fill:#b0bec5"/><path style="fill:#4482cc" d="m395.7 231-7.5 5.9 8.7 7.9 6.4-9.4z"/><path style="fill:#4482cc" d="m410.1 231 7.1 5.6-7.9 8.2-6.4-9.4z"/><g><path d="m418.2 237.2-8.1-6.2s-1.5 1-7 1c-5.9 0-7.4-1-7.4-1l-8.3 6.3s3.9 11.9 15.5 11.9c12.5 0 15.3-12 15.3-12z" style="fill:#ffc043"/><path d="M416 236.8s-3-5.6-5.9-5.8c0 0-1.5 1-7 1-5.9 0-7.4-1-7.4-1-3.1.6-5.9 5.8-5.9 5.8s4.3 6.4 13.2 6.4c9.2 0 13-6.4 13-6.4z" style="fill:#ffb92e"/><path d="M418.2 237.2s-5.2-6-8.1-6.2c0 0-4.2 6.1-6.7 10.6-5.8-3.3-7.6-10.6-7.6-10.6-3.1.6-8.3 6.3-8.3 6.3s6.7 5.9 15.5 5.9c9.2 0 15.2-6 15.2-6z" style="fill:#ffcc5a"/><path d="M399.8 245.9c.7-2 1.9-2.6.5-3.4-1.4-.7-5.4 0-6.1 5.1-1.5 10.4 1.6 25.4 1.6 25.4s.5-16.7 4-27.1z" style="fill:#ffcc5a"/><path d="M397.2 245.8c.5-2 1.4-3.3 3.1-3.3 1.9 0 1.5 1.1 1.3 4.1-.7 10.4-5.8 26.4-5.8 26.4s-1.2-15.7 1.4-27.2z" style="fill:#ffd176"/><path d="M405.4 246c-1-1.8-2.4-2.1-1.1-3.2 1.2-1 5.3-1.1 7 3.8 3.5 9.9 3.4 25.2 3.4 25.2s-3.8-16.3-9.3-25.8z" style="fill:#ffcc5a"/><path d="M407.9 245.4c-.8-1.9-2-2.9-3.7-2.6-1.8.4-1.2 1.4-.4 4.3 2.8 10.1 10.9 24.7 10.9 24.7s-2-15.7-6.8-26.4z" style="fill:#ffd176"/><path d="M404.3 246.7h-2.8c-1.3 0-2.4-1.1-2.4-2.4v-.7c0-1.3 1.1-2.4 2.4-2.4h2.8c1.3 0 2.4 1.1 2.4 2.4v.7c0 1.3-1.1 2.4-2.4 2.4z" style="fill:#ffe094"/></g><path d="M419.8 206.6c0 7.8-5.8 26.1-16.7 26.1-11.5 0-16.5-18.3-16.5-26.1s7.4-14.1 16.6-14.1 16.6 6.2 16.6 14.1z" style="fill:#eac0a0"/><g><path d="M427.7 189.4c-4.5 0-21.3 4.7-21.3 9.2 0 10.2 3.9 6-2.8 6s-2.8 4.8-2.8-6c0-4.5-15.3-9.2-19.8-9.2s-8 3.5-8 8.2c0 10.4 5.8 23.6 30.7 23.6s30.7-13.4 30.7-23.6c-.2-4.7-2.2-8.2-6.7-8.2z" style="fill:#d3bea7"/><path d="M387.3 200s2.6-8.1 4.1-12.1c1-3.8 4.6-6.3 6.8-6.3s4.1 2.1 5.4 2.1 3.2-2.1 5.4-2.1 5.7 2.3 6.8 6.3c.9 3.9 3.8 12.1 3.8 12.1l-15.6 7.2-16.7-7.2z" style="fill:#c9ad91"/><path d="M398.2 181.6c.8 0 1.8.3 2.6.6 1.8.7 3.8.7 5.6 0 .9-.4 1.8-.6 2.6-.6.9 0 .1 2.3-1.3 4.9-1.8 3.6-7 3.5-8.7-.2-1-2.6-1.7-4.7-.8-4.7z" style="fill:#bc9471"/><path d="M419.3 198.3c2.4 7.8-3.1 11.8-15.7 11.8s-18.4-3.6-15.7-12c0 0 2.1 4 15.7 4s15.7-3.8 15.7-3.8z" style="fill:#7e4f2e"/></g></g><g><path style="fill:#6d4f47" d="M455.5 187.2h6.1v203h-6.1zM543.3 344.4l-5.7 2v-93.1l5.7.9z"/><path style="fill:#60423d" d="m532.1 295.8-65 4.6.6-7 .2-2.6 63.4-2.1.2 1.9z"/><path style="opacity:.1" d="m531.5 290.6-63.8 2.8.2-2.6 63.4-2.1z"/><path style="fill:#60423d" d="m532.1 279.9-65-.9.6-6.9.2-2.6 63.4 3.2.2 2z"/><path style="opacity:.1" d="m531.5 274.7-63.8-2.6.2-2.6 63.4 3.2z"/><path style="fill:#6d4f47" d="m532.1 287.8-65 1.9.8-9.5 63.4.5zM532.1 303.7l-65 7.4.8-9.6 63.4-4.8z"/><path style="opacity:.1" d="m531.5 282.6-63.8.2.2-2.6 63.4.5zM531.5 298.6l-63.8 5.5.2-2.6 63.4-4.8z"/><path style="fill:#60423d" d="m532.1 264-65-6.3.6-6.9.2-2.6 63.4 8.5.2 2z"/><path style="opacity:.1" d="m531.5 258.7-63.8-7.9.2-2.6 63.4 8.5z"/><path style="fill:#6d4f47" d="m532.1 271.9-65-3.6.8-9.4 63.4 5.8z"/><path style="opacity:.1" d="m531.5 266.7-63.8-5.3.2-2.5 63.4 5.8z"/><path style="fill:#60423d" d="m532.1 327.6-65 15.6.6-7.1.2-2.6 63.4-12.9.2 1.9z"/><path style="opacity:.1" d="m531.5 322.5-63.8 13.6.2-2.6 63.4-12.9z"/><path style="fill:#60423d" d="m532.1 311.7-65 10.1.6-7 .2-2.6 63.4-7.5.2 1.9z"/><path style="opacity:.1" d="m531.5 306.6-63.8 8.2.2-2.6 63.4-7.5z"/><path style="fill:#6d4f47" d="m532.1 319.6-65 12.9.8-9.7 63.4-10.2zM532.1 335.5l-65 18.4.8-9.8 63.4-15.5z"/><path style="opacity:.1" d="m531.5 314.5-63.8 10.9.2-2.6 63.4-10.2zM531.5 330.5l-63.8 16.3.2-2.7 63.4-15.5z"/><path style="fill:#60423d" d="m532.1 343.5-65 21.1.6-7.2.2-2.6 63.4-18.2.2 1.9z"/><path style="opacity:.1" d="m531.5 338.5-63.8 18.9.2-2.6 63.4-18.2z"/><path style="fill:#6d4f47" d="m532.1 351.4-65 23.9.8-9.9 63.4-20.8z"/><path style="opacity:.1" d="m531.5 346.5-63.8 21.6.2-2.7 63.4-20.8z"/><path style="fill:#6d4f47" d="m532.1 256-65-9 .8-9.4 63.4 11.2z"/><path style="opacity:.1" d="m531.5 250.7-63.8-10.6.2-2.5 63.4 11.2z"/><path d="M535.9 240.3c-7.5-1.7-16-3.6-28.2-12.9L506 226c-12.1-10-21.9-17.8-36-22.9v-1.5c0-6.3-3.7-12.7-8.3-14.4v203l74.3-30.9c.9-.4 1.7-1.5 1.7-2.4V242.4c-.1-.9-.9-1.9-1.8-2.1zm-6.7 113.1-59.3 22V236.6l59.3 10.8v106z" style="fill:#82655b"/><path d="m542.4 280.4-6.4-.1v-13.9l6.4.5c1.1.1 2.1 1.1 2.1 2.2v9.2c-.1 1.2-1 2.1-2.1 2.1zM542.4 332.7l-6.4 1.8v-13.9l6.4-1.3c1.1-.2 2.1.5 2.1 1.6v9.2c-.1 1.1-1 2.3-2.1 2.6z" style="fill:#755952"/></g><g><path style="fill:#6d4f47" d="M324.8 187.2h6.1v202.2h-6.1zM262.4 344.4l4.4 2v-93.1l-4.4.9z"/><path style="fill:#60423d" d="m270.9 295.8 49.7 4.7-.5-6.9-.1-2.6-48.4-2.3-.2 2z"/><path style="opacity:.1" d="m271.4 290.7 48.7 2.9-.1-2.6-48.4-2.3z"/><path style="fill:#60423d" d="m270.9 279.9 49.7-.6-.5-6.9-.1-2.6-48.4 2.9-.2 2z"/><path style="opacity:.1" d="m271.4 274.7 48.7-2.3-.1-2.6-48.4 2.9z"/><path style="fill:#6d4f47" d="m270.9 287.8 49.7 2.1-.6-9.5-48.4.3zM270.9 303.8l49.7 7.3-.6-9.6-48.4-4.8z"/><path style="opacity:.1" d="m271.4 282.7 48.7.3-.1-2.6-48.4.3zM271.4 298.6l48.7 5.5-.1-2.6-48.4-4.8z"/><path style="fill:#60423d" d="m270.9 264 49.7-5.9-.5-6.8-.1-2.6-48.4 8.1-.2 1.9z"/><path style="opacity:.1" d="m271.4 258.7 48.7-7.4-.1-2.6-48.4 8.1z"/><path style="fill:#6d4f47" d="m270.9 271.9 49.7-3.2-.6-9.4-48.4 5.5z"/><path style="opacity:.1" d="m271.4 266.7 48.7-4.9-.1-2.5-48.4 5.5z"/><path style="fill:#60423d" d="m270.9 327.6 49.7 15.3-.5-7-.1-2.7-48.4-12.5-.2 1.9z"/><path style="opacity:.1" d="m271.4 322.6 48.7 13.3-.1-2.7-48.4-12.5z"/><path style="fill:#60423d" d="m270.9 311.7 49.7 10-.5-7-.1-2.6-48.4-7.4-.2 1.9z"/><path style="opacity:.1" d="m271.4 306.6 48.7 8.1-.1-2.6-48.4-7.4z"/><path style="fill:#6d4f47" d="m270.9 319.7 49.7 12.6-.6-9.6-48.4-10zM270.9 335.6l49.7 17.9-.6-9.7-48.4-15.1z"/><path style="opacity:.1" d="m271.4 314.6 48.7 10.7-.1-2.6-48.4-10zM271.4 330.6l48.7 15.8-.1-2.6-48.4-15.1z"/><path style="fill:#60423d" d="m270.9 343.5 49.7 20.6-.5-7.1-.1-2.6-48.4-17.7-.2 1.8z"/><path style="opacity:.1" d="m271.4 338.5 48.7 18.5-.1-2.6-48.4-17.7z"/><path style="fill:#6d4f47" d="m270.9 351.5 49.7 23.2-.6-9.8-48.4-20.3z"/><path style="opacity:.1" d="m271.4 346.5 48.7 21.1-.1-2.7-48.4-20.3z"/><path style="fill:#6d4f47" d="m270.9 256 49.7-8.5-.6-9.3-48.4 10.6z"/><path style="opacity:.1" d="m271.4 250.8 48.7-10.1-.1-2.5-48.4 10.6z"/><path d="M266.8 241.2V357c0 .9.6 2 1.3 2.4l56.7 30V187.2c-3.5 1.5-6.4 7.8-6.4 14.1v1.5c-10.8 4.8-18.3 12.4-27.5 22.2l-1.3 1.4c-9.3 9.2-15.8 11-21.5 12.7-.7.2-1.3 1.2-1.3 2.1zm6.3 6.2 45.2-10.3v137.7l-45.2-21.4v-106z" style="fill:#82655b"/><path d="M263.1 280.4h4.9v-13.9l-4.9.5c-.9.1-1.6 1.1-1.6 2.2v9.2c.1 1.1.8 2 1.6 2zM263.1 332.7l4.9 1.8v-13.9l-4.9-1.4c-.9-.2-1.6.5-1.6 1.6v9.2c.1 1.2.8 2.4 1.6 2.7z" style="fill:#755952"/></g></svg>