<svg xmlns="http://www.w3.org/2000/svg" fill-rule="evenodd" stroke-linejoin="round" stroke-miterlimit="2" clip-rule="evenodd" viewBox="0 0 192 192">
  <path fill-rule="nonzero" d="M55 160h82c0-11-11-19-21-19H76c-10 0-21 8-21 19zM71 32c11 0 21 5 29 13a35 35 0 0152 25 46 46 0 01-6 89c23-14 3-82-24-78l-22 3c0-5-1-16-6-26-4-6-10-12-19-15-5-2-10-3-16-3l-13 1c7-6 16-9 25-9zM55 48c-6 0-12 1-17 3a39 39 0 00-6 23 46 46 0 0014 85c-23-14-3-82 24-78l22 3c0-3 0-13-5-21-3-5-8-10-15-12-5-2-11-3-17-3z"/>
  <path d="M73 107a6 6 0 00-12 0v20a6 6 0 0012 0v-20z"/>
  <path d="M77 123a6 6 0 000-12H57a6 6 0 000 12h20z"/>
  <g transform="translate(1 1)">
    <circle cx="114" cy="116" r="6"/>
    <circle cx="124" cy="126" r="6"/>
    <circle cx="134" cy="116" r="6"/>
    <circle cx="124" cy="106" r="6"/>
  </g>
</svg>
