<svg xmlns="http://www.w3.org/2000/svg" fill-rule="evenodd" stroke-linejoin="round" stroke-miterlimit="2" clip-rule="evenodd" viewBox="0 0 192 192">
  <path fill="#e9edf2" d="M0 0h192v192H0z"/>
  <path fill="url(#_Linear1)" fill-rule="nonzero" d="M216.034 9.138l.572-24.258-12.732-25.861-21.934-21.934h125.315l-6.738 151.292H116.669l28.23-8.104 71.135-71.135z" transform="rotate(45)"/>
  <path fill="url(#_Radial2)" d="M-106-106h298v298h-298z"/>
  <path fill="#053155" fill-rule="nonzero" d="M71 32a39.011 39.011 0 00-24.521 8.697c2.87-.467 9.777-.637 12.73-.611 5.403.047 10.89.923 15.383 2.631 9.088 3.208 15.164 9.242 18.918 15.668 5.349 9.157 6.305 20.249 6.422 25.672 8.739-.568 19.332-2.664 23.488-2.94a4.86 4.86 0 01.21-.006c.217-.023.436-.04.655-.05 9.616-.468 20.613 11.05 26.883 28.162.259.707.505 1.415.74 2.125.06.179.112.358.17.537.176.543.35 1.085.514 1.629l.006.017c.034.113.062.227.096.34.172.584.342 1.168.5 1.752.064.239.12.477.183.715.113.43.227.861.332 1.291l.03.129.02.084c.166.679.319 1.357.464 2.033l.012.051c.019.091.035.181.054.271.077.36.155.718.225 1.077.005.023.007.046.012.07.036.186.063.371.097.557.12.643.238 1.286.34 1.925l.016.09.033.207c.04.244.08.488.115.731l.006.041a72.117 72.117 0 01.35 2.824l.06.586.024.234c0 .014.003.029.004.043a68.905 68.905 0 01.205 2.936l.002.027.027.619a62.46 62.46 0 01.047 2.988v.004c-.002.196-.002.393-.006.588a47.26 47.26 0 01-.03 1.004c-.007.219-.014.437-.024.654-.018.374-.042.744-.067 1.112-.011.163-.022.326-.035.488v.014a53.706 53.706 0 01-.117 1.289l-.028.262-.002.025c-.04.359-.086.71-.133 1.062l-.031.26-.01.061c-.003.017-.004.035-.006.052l-.008.053a44.671 44.671 0 01-.238 1.498 37.24 37.24 0 01-1.231 5.026c-1.523 4.695-3.918 8.339-7.14 10.379-.14.083-.31.165-.48.246 21.76-3.976 37.724-23.11 37.734-45.229 0-20.105-13.182-37.988-32.387-43.938C149.168 52.905 134.33 40.018 117 40a35.004 35.004 0 00-17.316 4.634A39.021 39.021 0 0071 31.999V32zM54.895 48.201c-6.081.073-12.205 1.022-17.328 2.809A38.999 38.999 0 0032 71c0 .868.032 1.735.09 2.601C17.285 81.622 8.02 97.158 8 113.999c.017 22.1 15.958 41.219 37.695 45.209-.154-.075-.311-.149-.44-.226a12.65 12.65 0 01-.786-.543h-.002a13.468 13.468 0 01-1.471-1.28 14.942 14.942 0 01-.685-.732c-2.666-3.048-4.49-7.515-5.426-12.85a42.61 42.61 0 01-.238-1.498l-.008-.053c-.002-.017-.003-.035-.006-.052l-.006-.045-.002-.016c-.012-.086-.02-.174-.031-.26a43.974 43.974 0 01-.133-1.062l-.002-.026-.027-.261-.006-.051a53.686 53.686 0 01-.112-1.238v-.014a74.641 74.641 0 01-.101-1.6c-.011-.217-.018-.435-.026-.654a55.012 55.012 0 01-.03-1.004c-.003-.194-.003-.39-.005-.586v-.006a62.46 62.46 0 01.045-2.953l.002-.035v-.022l.027-.597a68.858 68.858 0 01.207-2.963l.004-.043a.164.164 0 00.002-.022l.022-.212c.019-.196.04-.391.06-.586a70.233 70.233 0 01.35-2.825l.006-.041c.035-.242.076-.486.115-.73l.033-.207.014-.09c.102-.639.22-1.282.34-1.926.034-.186.06-.37.098-.556l.01-.071c.07-.358.149-.717.226-1.076.019-.09.037-.181.057-.271l.009-.051c.145-.677.299-1.354.463-2.033l.022-.084c.01-.043.018-.086.029-.129.078-.319.166-.64.248-.959.096-.373.188-.746.289-1.119.039-.143.082-.286.12-.428.156-.559.314-1.117.482-1.676.088-.294.185-.587.277-.881.127-.406.25-.813.385-1.219.235-.709.48-1.418.74-2.125.252-.687.524-1.348.79-2.017C47.792 91.74 57.807 81.305 66.812 81.05a11.391 11.391 0 011.56.06 5 5 0 01.212.006c4.153.275 14.738 2.369 23.475 2.938.025-2.944-.291-12.756-5.245-21.236-2.946-5.044-7.371-9.549-14.703-12.137-4.971-1.737-11.07-2.555-17.215-2.481v.001zm21.865 92.635c-.695 0-1.381.033-2.06.098-.225.021-.442.067-.666.095-.448.057-.898.106-1.338.19a21.473 21.473 0 00-6.455 2.357h-.002a21.66 21.66 0 00-2.601 1.729c-.07.054-.146.101-.215.156l-.002.002c-.064.05-.122.107-.186.158a21.728 21.728 0 00-2.291 2.135 21.557 21.557 0 00-2.093 2.654 21.17 21.17 0 00-3.46 9.59h81.222a21.172 21.172 0 00-.631-3.39 21.172 21.172 0 00-2.828-6.2 21.51 21.51 0 00-3.286-3.849h-.002a21.385 21.385 0 00-1.097-.94 19.721 19.721 0 00-.56-.429c-.327-.248-.653-.498-.995-.727h-.002a21.484 21.484 0 00-6.201-2.848h-.004a21.841 21.841 0 00-1.7-.398h-.003a21.248 21.248 0 00-2-.285h-.006a21.516 21.516 0 00-2.057-.098H76.76z"/>
  <path fill="#305b80" d="M61 110.997h-4c-3.311 0-6 2.688-6 6 0 3.311 2.689 6 6 6h4v4c0 3.311 2.689 6 6 6 3.312 0 6-2.689 6-6v-4h4c3.312 0 6-2.689 6-6 0-3.312-2.688-6-6-6h-4v-4c0-3.312-2.688-6-6-6-3.311 0-6 2.688-6 6v4z"/>
  <circle cx="114" cy="116" r="6" fill="#e52d6b" transform="translate(.999 .997)"/>
  <circle cx="124" cy="126" r="6" fill="#2ad376" transform="translate(.999 .997)"/>
  <circle cx="134" cy="116" r="6" fill="#2daee5" transform="translate(.999 .997)"/>
  <circle cx="124" cy="106" r="6" fill="#faae00" transform="translate(.999 .997)"/>
  <defs>
    <radialGradient id="_Radial2" cx="0" cy="0" r="1" gradientTransform="matrix(112.003 0 0 103.997 43.003 42.997)" gradientUnits="userSpaceOnUse">
      <stop offset="0" stop-color="#fff" stop-opacity=".2"/>
      <stop offset="1" stop-color="#fff" stop-opacity=".02"/>
    </radialGradient>
    <linearGradient id="_Linear1" x1="0" x2="1" y1="0" y2="0" gradientTransform="translate(153.797 10.607) scale(107.125)" gradientUnits="userSpaceOnUse">
      <stop offset="0" stop-color="#252525" stop-opacity=".2"/>
      <stop offset="1" stop-color="#3b3b3b" stop-opacity="0"/>
    </linearGradient>
  </defs>
</svg>
