<svg xmlns="http://www.w3.org/2000/svg" fill-rule="evenodd" stroke-linecap="round" stroke-linejoin="round" stroke-miterlimit="1.5" clip-rule="evenodd" viewBox="0 0 1152 1152">
  <path fill-opacity=".3" fill-rule="nonzero" d="M375 653c-85-16-151-91-151-181 0-69 39-130 96-162v-10a156.7 156.7 0 01156-155.6A156 156 0 01591 195a138 138 0 0169-19c70 0 129 53 139 120 74 24 129 94 129 176 0 90-66 165-151 181h-2a138 138 0 01-27 3H602c-.5 1-.8 2-1 3v2c0 2 75 25 75 25 8 4 15 9 21 14l-11 24a195 195 0 0131 77c38 60 96 153 95 156-5 23-97 41-99 40l-18-61c-9 19-21 38-37 54 8 13 13 25 10 34-27-5-49-18-67-37-2-21-5-35-11-54-4.7.5-9.3.8-14 1-4.3-.2-8.7-.6-13-1-7 19-10 33-12 54-18 19-40 32-67 37-2-9 2-21 10-34-15-16-28-35-37-54l-18 61c-2 1-94-17-99-40-1-2 40-68 75-125-12-13-67-72-51-87 41-36 81-54 112-63v-3s75-16 76-18l-1-2v-3H408a182 182 0 01-31-3h-2z"/>
  <path fill="#bfbdbe" fill-rule="nonzero" d="M775 645a138 138 0 01-27 3H408c-101 0-184-83-184-184 0-69 39-130 96-162v-10a156.7 156.7 0 01156-155.6A156 156 0 01591 187a138 138 0 0169-19c70 0 129 53 139 120 74 24 129 94 129 176 0 90-67 166-153 181z"/>
  <path fill="#fff" fill-rule="nonzero" d="M560 344c0-12-1-51-21-85-12-20-29-38-59-48a222 222 0 00-138 2v-1a158 158 0 0136-41c12-2 39-3 51-3 21 1 43 4 61 11 37 13 61 37 76 63 21 36 25 81 26 102l-16 4-16-4z"/>
  <path fill="#ffdac0" fill-rule="nonzero" d="M406 648c-.3 0-61.9-20.7-69.4-93.2-8.8-84.2 56.9-229.6 126.4-220.8 115.5 14.5 111.3 14.7 228 0 69.4-8.8 135 136.6 126.3 220.8C809.8 627.3 748 648 748 648H406z"/>
  <ellipse cx="98.8" cy="272.5" fill="#fff" rx="28.3" ry="14.7" transform="matrix(3.89989 0 0 3.06498 191 -133)"/>
  <path d="M493.3 983c-40-47-60.5-102.1-59.2-158.1 0-50.8 19.8-104.6 63.3-143.4 15.8-15 142.2-15 158 0a191.7 191.7 0 0163.3 143.4c4 50.7-15.8 110.5-59.3 158.3h-.7c7.6 12.5 12.2 24 9.3 32.8-27-5-50-19.8-68-38.8h.2c0-18-4-32.9-12-50.8-7.8.4-15.8.4-23.6 0-8 18-12 32.9-12 50.8l-.1.2A127.9 127.9 0 01484 1016c-2-8.7 1.8-20.3 9.3-33z"/>
  <g transform="matrix(3.95216 0 0 2.98693 197 -122)">
    <clipPath id="a">
      <path d="M76 269c4-5 36-5 40 0 11 13 16 31 16 48 1 17-4 37-15 53-3 0-8 0-15-2 0-6-1-11-3-17h-6c-2 6-3 11-3 17-7 2-12 2-15 2a95 95 0 01-15-53c0-17 5-35 16-48z"/>
    </clipPath>
    <g clip-path="url(#a)">
      <ellipse cx="88.1" cy="291.3" fill="#053155" rx="48.7" ry="39.1" transform="matrix(.99864 0 0 .8327 8 65)"/>
      <ellipse cx="88.1" cy="291.3" fill="#305b80" rx="48.7" ry="39.1" transform="matrix(.99864 0 0 .8327 8 53)"/>
      <path fill-opacity=".2" d="M107 265h2c3 1 10 4 16 11l-3 7c4 8 6 17 8 26l24 53c-2 7-27 14-27 14l-9-48c-5-13-11-63-11-63zm-22 0s-7 50-11 63l-10 48s-24-7-26-14l24-53c1-9 4-18 8-26l-3-7c5-7 13-10 16-11h2z"/>
    </g>
  </g>
  <path fill="#053155" d="M493 686.5c58.8-40.6 113.8-37.7 165.8 0-23.7 24-59.1 56.9-82.8 59.9-27.6-3-59.3-36-83-60z"/>
  <g transform="matrix(3.94675 0 0 2.9944 197 -119)">
    <clipPath id="b">
      <path d="M90 256h12v2c1 3 9 5 11 6l4 5c-6 8-14 19-20 20l-1 1-1-1c-7-1-14-12-20-20l4-5c2-1 10-3 11-6 0-.3.4-1.7 0-2z"/>
    </clipPath>
    <g clip-path="url(#b)">
      <path fill="#fff" d="M79 253c5-2 29-2 34 0 2 2-3 7-2 8-6 8-8 16-15 18-7-2-9-10-15-18 1-1-4-6-2-8z"/>
      <g transform="translate(0 -11)">
        <clipPath id="c">
          <path d="M79 264c5-2 29-2 34 0 2 2-3 7-2 8-6 8-8 16-15 18-7-2-9-10-15-18 1-1-4-6-2-8z"/>
        </clipPath>
        <g clip-path="url(#c)">
          <path fill="#ffdac0" d="M101 267l-5 4-5-4h10z"/>
          <path fill="#bfbdbe" d="M92 267c1.4 1.2 2.8 2.6 4 4 1.2-1.4 2.6-2.8 4-4h2a37 37 0 00-5 5l6 18c0 .5-.5 1-1 1l-6-17-6 17a1 1 0 01-1-1l6-18c-1.5-1.5-3-2.8-4.9-4l-.1-1h2z"/>
          <path fill-opacity=".2" d="M67 261h58v32H67z"/>
        </g>
      </g>
    </g>
  </g>
  <path fill-opacity=".2" d="M753 636c.8-15.8 72.8-25.2 71 13-1 77-9 102-30 125a81.2 81.2 0 01-97 14c-31-16-59-67-68-110h38c6 0 20 4 30 7 12 4 33 20 41 14 19-16 9-53 15-63z"/>
  <path fill="#fff" d="M823 639.4c1.1 79.6-8.7 104.4-29.8 125-19.6 24.3-60.2 35.4-96.6 15.3-30.8-13.7-57.2-67-67-109.7l37.9-1.6 29.4 10c14 3.2 33.5 21.1 40.5 14.3 19.6-15.9 8.5-53.9 17-65.5 12.6-17.4 70-1 68.5 12.2z"/>
  <g transform="matrix(-1.3911 -3.69348 2.80224 -1.05542 -3 1233)">
    <clipPath id="d">
      <path d="M67 328c-19-9-24-15-27-24-4-9-3-23 5-32 6-8 21-10 32-8l-3 12-5 8c-2 4-8 8-7 11 2 8 12 9 14 13 3 6-6 22-9 20z"/>
    </clipPath>
    <g clip-path="url(#d)">
      <ellipse cx="192.7" cy="176.8" fill="#fff" rx="7.8" ry="3.1" transform="matrix(-.46356 1.23215 -.90799 -.59345 321 187)"/>
      <ellipse cx="192.7" cy="176.8" fill-opacity=".2" rx="7.8" ry="3.1" transform="matrix(-.44394 1.17999 -.8832 -.57724 313 192)"/>
    </g>
  </g>
  <path fill="#ccae9a" d="M777.5 568.1c-1.4-6.4-1.6-24.7 4-24.7 7-1.3 10 1.2 12.8 7.6l15.4 35.7c1.4 7.6-9.8 11.5-16.9 11.5-7 0-11.2 1.3-12.6-5.1l-2.7-25z"/>
  <path fill="#ffdac0" d="M781 567c-1-5-2-20 2-20 5-1 6 1 8 6l12 29c1 6-7 9-12 9s-8 1-9-4l-1-20z"/>
  <path fill="#ccae9a" d="M752.6 576c.9-7.6 1.7-14.4 7.5-15.5 6.9-2.3 13.2 8.6 15.6 15.5l12.6 32.3c1.2 6.9-6.9 10.4-12.6 11.5-5.8 1.2-19.7 1.6-20.8-5.3 0 0-3.2-29.6-2.3-38.5z"/>
  <path fill="#ffdac0" d="M756.2 581c.1-5.7 1-15 5.8-16 5.7-2 8.6 8 10.5 14l12.5 27c1 6-5.8 9-10.6 10s-12.4 3-13.4-3c0 0-5-24-4.8-32z"/>
  <path fill="#ccae9a" d="M811.9 589.3a34.3 34.3 0 00-49-1.2c-12 12-12 29.9 2.4 44.2 14.3 14.4 35.8 18 47.7 6 12-12 13.2-34.7-1.1-49z"/>
  <path fill="#ffdac0" d="M808 593c-12-13-31-11-41-1s-10 25 2 37 30 15 40 5 11-29-1-41z"/>
  <path fill="#ffdac0" d="M808 593c-12-13-35-19-45-9s-6 33 6 45c12 13 30 15 40 5s11-29-1-41z"/>
  <path fill="#ccae9a" d="M770.6 573.4c4-5.2 11.5-8 16.7-1.4 6.5 6.5 5.2 7.8 1.3 13l-5.2 9.2c-4 5.2-7.9 10.4-15.7 5.2-7.8-5.2-4-14.2 0-19.4l3-6.6z"/>
  <path fill="#ffdac0" d="M773 576c3-4 8-6 12-1 5 5 4 6 1 10l-4 7c-3 4-6 8-12 4s-3-10 0-14l3-6z"/>
  <path fill="#ccae9a" d="M787 576c4.7-4.8 14.4-3 18 4.2 4.8 8.4 7.2 11.7 2.4 15.3l-13.2 7.6c-4.9 4.8-7.3 7.2-13.3 1.2-6-6-5.6-17.4-.8-22.2l6.8-6.1z"/>
  <path fill="#ffdac0" d="M788 579c4-4 12-3 15 3 4 7 17 30 13 33l-22-14c-4 4-6 6-11 1s-4-14 0-18l5-5z"/>
  <path fill="#ffdac0" d="M794 601c-4 4 12-10 17-4 14 17 3 50-20 25-2-3 5-15 3-21z"/>
  <path fill="#fff" d="M616 660l97 329c2 1 94-17 99-40 1-3-58-97-95-157-7-40-27-82-63-112-8-7-11-13-38-20z"/>
  <path fill-opacity=".2" d="M681 848c2 4 9-68 24-82-7-7-17-14-29-20 3-15 13-39 21-54-20-20-62-28-74-31 14 28 21 96 58 187z"/>
  <path fill="#fff" d="M690 691c-11-18-68-31-74-31 0 0 47 152 65 188 0 0 4-70 16-82-7-7-17-14-29-20 3-15 14-41 22-55zM532.5 665.5s-83-6-169.7 71.9c-15.8 15 55.2 89.8 55.2 89.8l35.5-65.8 11.9-18 67-77.9z"/>
  <g transform="matrix(3.94675 0 0 2.9944 197 -119)">
    <clipPath id="e">
      <path d="M85 262s-21-2-43 24c-4 5 14 30 14 30l9-22 3-6 17-26z"/>
    </clipPath>
    <g clip-path="url(#e)">
      <path fill-opacity=".2" d="M83 266s-34 63-24 43c1-11-2-14 7-27 2-2 10-14 17-16z"/>
    </g>
  </g>
  <path fill="#fff" d="M536.4 659.5L437.8 989S347 971 339 950l94.7-158.7c7.9-39 27.6-80.9 63.2-110.8 7.8-9 11.8-15 39.4-21z"/>
  <path fill-opacity=".2" d="M469.3 848.2c0 3-7.9-68.9-23.7-80.9l31.6-21-23.7-53.8c19.8-21 63.2-30 75-33-15.8 30-19.7 95.9-59.2 188.7z"/>
  <path fill="#fff" d="M461.4 689.5c11.9-18 67.1-30 75-30 0 0-47.3 152.8-67 188.7 0 0-4-71.9-15.9-80.9l31.6-21-23.7-56.8z"/>
  <path fill-opacity=".2" d="M584 682l6-4c18-13 38-22 61-22 12 0 25 5 25 16 0 16-4 28-14 37 5 18 3 42-19 46l-9 1c-17 0-25-5-39-16l-11-10h-16l-11 10c-14 11-22 16-39 16l-9-1c-22-4-24-28-19-46-10-9-14-21-14-37 0-11 13-16 25-16a107 107 0 0167 26h16z"/>
  <path fill="#e52d6b" d="M584 674l6-4c18-13 38-22 61-22 12 0 25 5 25 16 0 16-4 28-14 37 5 18 3 42-19 46l-9 1c-17 0-25-5-39-16l-11-10h-16l-11 10c-14 11-22 16-39 16l-9-1c-22-4-24-28-19-46-10-9-14-21-14-37 0-11 13-16 25-16a107 107 0 0167 26h16z"/>
  <path fill="#e52d6b" d="M576 687c0-7-9-14-14-17-18-13-38-22-61-22-12 0-25 5-25 16 0 16 4 28 14 37-5 18-3 42 19 46l9 1c17 0 25-5 39-16 4-4 19-15 19-24v-21zm0 0c0-7 9-14 14-17 18-13 38-22 61-22 12 0 25 5 25 16 0 16-4 28-14 37 5 18 3 42-19 46l-9 1c-17 0-25-5-39-16-4-4-19-15-19-24v-21z"/>
  <path fill="#e52d6b" d="M592 682c0-4-4-8-8-8h-16c-4 0-8 4-8 8v32c0 4 4 8 8 8h16c4 0 8-4 8-8v-32z"/>
  <path fill-opacity=".2" d="M568 674a8 8 0 00-8 8v32c0 4 3 8 8 8a101 101 0 01-7 6 10 10 0 01-5-8v-36a10 10 0 0110-10h2zm16 0h2a10 10 0 0110 10v36c0 4-2 7-5 8a98 98 0 01-7-6 8 8 0 008-8v-32a8 8 0 00-8-8z"/>
  <g transform="matrix(4.52491 0 0 3.20045 4 -17)">
    <ellipse cx="92.9" cy="294.5" fill="#2ad376" rx="3.1" ry="4.4"/>
  </g>
  <g transform="matrix(4.52491 0 0 3.20045 19 -54)">
    <ellipse cx="92.9" cy="294.5" fill="#2daee5" rx="3.1" ry="4.4"/>
  </g>
  <g transform="matrix(4.52491 0 0 3.20045 34 -91)">
    <ellipse cx="92.9" cy="294.5" fill="#faae00" rx="3.1" ry="4.4"/>
  </g>
  <g>
    <ellipse cx="120.1" cy="124.8" fill-opacity=".2" rx="25.9" ry="25.2" transform="matrix(4.17256 0 0 4.28728 203 -59)"/>
    <ellipse cx="120.1" cy="124.8" fill="#526779" rx="25.9" ry="25.2" transform="matrix(4.17256 0 0 4.28728 203 -67)"/>
    <ellipse cx="120.1" cy="124.8" fill-opacity=".2" rx="25.9" ry="25.2" transform="matrix(4.17256 0 0 4.28728 -53 -59)"/>
    <ellipse cx="120.1" cy="124.8" fill="#526779" rx="25.9" ry="25.2" transform="matrix(4.17256 0 0 4.28728 -53 -67)"/>
    <ellipse cx="65.3" cy="120.2" fill="#526779" rx="15.3" ry="16.5" transform="matrix(3.6704 0 0 1.85202 336 272)"/>
    <ellipse cx="120.1" cy="124.8" fill="#f3e5db" rx="25.9" ry="25.2" transform="matrix(3.5544 0 0 3.65214 277 12)"/>
    <ellipse cx="120.1" cy="124.8" fill="#f3e5db" rx="25.9" ry="25.2" transform="matrix(3.5544 0 0 3.65214 21 12)"/>
  </g>
  <g>
    <path fill-opacity=".2" d="M691 327c37 2 77 31 83 51 3 9-39-17-76-19s-55 11-55 1 11-35 48-33z"/>
    <path fill="#fff" d="M692 319c37 2 76 31 83 51 3 9-39-17-76-19s-56 11-55 1 11-35 48-33z"/>
  </g>
  <g>
    <path fill-opacity=".2" d="M493 299c-33-17-82-12-97 2-7 6 42 6 74 23 33 16 43 37 47 28s9-36-24-53z"/>
    <path fill="#fff" d="M496 292c-32-17-82-12-97 2-7 6 42 6 75 22 33 17 43 38 47 29s8-36-25-53z"/>
  </g>
  <g>
    <path fill="#ae5f5b" d="M576 584.6c15.1-1 24.3 9.2 13.8 24-7.6 10.8-6.2 24-13.8 24-7.7 0-13.9-10.8-13.9-24 0-13.3 6.3-23.5 13.9-24z"/>
    <g transform="matrix(4 0 0 4 -54.2 -7.4)">
      <clipPath id="f">
        <path d="M157.5 148c3.8-.3 6.1 2.3 3.5 6-2 2.7-1.6 6-3.5 6s-3.4-2.7-3.4-6 1.5-5.9 3.4-6z"/>
      </clipPath>
      <g clip-path="url(#f)">
        <circle cx="152.3" cy="157.3" r="2.7" fill="#c98480" transform="matrix(1.72018 0 0 1.13994 -104 -19.9)"/>
      </g>
    </g>
  </g>
  <g>
    <path fill-opacity=".2" d="M575 536l1-8 76 7 8 1a85 85 0 0132 13 86 86 0 0111 8 82 82 0 0114 18c4 6 7 13 9 20 2 8 2 27 2 27 3 21-126-18-153-27-27 9-156 48-153 27 0 0 0-19 2-27 2-7 5-14 9-20a82 82 0 0114-18 85 85 0 0111-8 85 85 0 0140-14l76-7 1 8z"/>
    <path fill="#fff" d="M576 520l-6 66s162 51 158 28c0 0 0-19-2-27-2-7-5-14-9-20a82 82 0 00-14-18 85 85 0 00-11-8 85 85 0 00-40-14l-76-7z"/>
    <path fill="#fff" d="M574 520l6 66s-161 51-158 28c0 0 0-19 2-27 2-7 5-14 9-20a82 82 0 0114-18 85 85 0 0111-8 85 85 0 0140-14l76-7z"/>
    <path fill="#fff" d="M639 533c0-10-7-17-16-17h-94c-10 0-17 7-17 17v33c0 9 7 17 17 17h94c9 0 16-8 16-17v-33z"/>
  </g>
  <g transform="matrix(4.19476 0 0 2.55176 302 215)">
    <ellipse cx="65.3" cy="120.2" fill="#f5b49e" rx="15.3" ry="16.5"/>
  </g>
  <g>
    <path fill="none" stroke="#4e3e2e" stroke-width="6.2" d="M122 121c-5-5-9-5-14 0" transform="matrix(3.48992 0 0 -4.19796 291 977)"/>
  </g>
  <g>
    <path fill="none" stroke="#4e3e2e" stroke-width="6.2" d="M122 121c-5-5-9-5-14 0" transform="matrix(3.48992 0 0 -4.19796 59 977)"/>
  </g>
</svg>
