<svg xmlns="http://www.w3.org/2000/svg" enable-background="new" viewBox="0 0 192 192">
  <defs>
    <filter id="d" color-interpolation-filters="sRGB">
      <feFlood flood-color="#000" flood-opacity=".251" result="flood"/>
      <feComposite in="flood" in2="SourceGraphic" operator="in" result="composite1"/>
      <feGaussianBlur in="composite1" result="blur" stdDeviation="2"/>
      <feOffset dy="2" result="offset"/>
      <feComposite in="SourceGraphic" in2="offset" result="fbSourceGraphic"/>
      <feColorMatrix in="fbSourceGraphic" result="fbSourceGraphicAlpha" values="0 0 0 -1 0 0 0 0 -1 0 0 0 0 -1 0 0 0 0 1 0"/>
      <feFlood flood-color="#000" flood-opacity=".251" result="flood"/>
      <feComposite in="flood" in2="fbSourceGraphic" operator="in" result="composite1"/>
      <feGaussianBlur in="composite1" result="blur" stdDeviation="1"/>
      <feOffset result="offset"/>
      <feComposite in="fbSourceGraphic" in2="offset" result="composite2"/>
    </filter>
    <filter id="e" color-interpolation-filters="sRGB">
      <feFlood flood-color="#FFF" flood-opacity=".2" result="flood"/>
      <feComposite in="flood" in2="SourceGraphic" operator="out" result="composite1"/>
      <feGaussianBlur in="composite1" result="blur"/>
      <feOffset dy="1" result="offset"/>
      <feComposite in="offset" in2="SourceGraphic" operator="atop" result="composite2"/>
    </filter>
    <filter id="f" color-interpolation-filters="sRGB">
      <feFlood flood-color="#000" flood-opacity=".2" result="flood"/>
      <feComposite in="flood" in2="SourceGraphic" operator="out" result="composite1"/>
      <feGaussianBlur in="composite1" result="blur"/>
      <feOffset dy="-1" result="offset"/>
      <feComposite in="offset" in2="SourceGraphic" operator="atop" result="composite2"/>
    </filter>
    <filter id="c" color-interpolation-filters="sRGB">
      <feBlend in2="BackgroundImage" mode="multiply"/>
    </filter>
    <clipPath id="g">
      <path fill="#053155" d="M71 32a39 39 0 00-39 39 39 39 0 00.092 2.602A46 46 0 008 114a46 46 0 0046 46 46 46 0 00.42-.016c.194.003.385.016.58.016h84.014c2.293 0 4.53-.228 6.693-.657A46 46 0 00184 114a46 46 0 00-32.387-43.938A35 35 0 00117 40a35 35 0 00-17.316 4.635A39 39 0 0071 32z"/>
    </clipPath>
    <clipPath id="a">
      <path fill="#e9edf2" d="M0 0h192v192H0z"/>
    </clipPath>
    <radialGradient id="h" cx="96" cy="96" r="96" gradientTransform="matrix(1.1667 0 0 1.0833 -69 -61)" gradientUnits="userSpaceOnUse">
      <stop offset="0" stop-color="#fff"/>
      <stop offset="1" stop-color="#fff" stop-opacity=".1"/>
    </radialGradient>
    <linearGradient id="b" x1="20.5" x2="162.84" y1="94.5" y2="94.5" gradientTransform="translate(94.058 -67.628) scale(.82788)" gradientUnits="userSpaceOnUse">
      <stop offset="0" stop-color="#252525"/>
      <stop offset="1" stop-color="#3b3b3b" stop-opacity="0"/>
    </linearGradient>
  </defs>
  <path fill="#e9edf2" d="M0 0h192v192H0z"/>
  <g clip-path="url(#a)">
    <path fill="url(#b)" d="M142.14 3.196l31.806-55.508 102.52-2.828V70.7l-159.09 2.828-2.107-8.132z" filter="url(#c)" opacity=".2" transform="rotate(45)"/>
  </g>
  <g filter="url(#d)" transform="translate(16 16) scale(.83333)">
    <g filter="url(#e)">
      <g filter="url(#f)">
        <path fill="#053155" d="M100 114a46 46 0 01-46 46 46 46 0 01-46-46 46 46 0 0146-46 46 46 0 0146 46zm10-43a39 39 0 01-39 39 39 39 0 01-39-39 39 39 0 0139-39 39 39 0 0139 39zm42 4a35 35 0 01-35 35 35 35 0 01-35-35 35 35 0 0135-35 35 35 0 0135 35zm32 39a46 46 0 01-46 46 46 46 0 01-46-46 46 46 0 0146-46 46 46 0 0146 46zM55 92h84.014c18.836 0 34 15.164 34 34s-15.164 34-34 34H55c-18.836 0-34-15.164-34-34s15.164-34 34-34z"/>
      </g>
    </g>
  </g>
  <g clip-path="url(#g)" filter="url(#d)" transform="translate(16 16) scale(.83333)">
    <g filter="url(#e)">
      <g filter="url(#f)">
        <path fill="#305b80" d="M59.21 40.086c-3.008-.026-10.111.148-12.878.635-3.455 2.917-6.509 6.338-8.77 10.344 10.311-3.648 24.606-3.857 34.548-.383 7.332 2.588 11.757 7.091 14.704 12.135 5.531 9.468 5.28 20.67 5.228 22.028l-.054-.008v2.012h7.945c.111-2.984.129-17.25-6.422-28.464-3.753-6.426-9.83-12.46-18.919-15.667-4.491-1.708-9.979-2.584-15.382-2.632z"/>
        <path fill="#e2e5f0" d="M66.811 81.05c-9.004.255-19.02 10.691-25.186 26.154-.267.669-.54 1.33-.791 2.018a74.199 74.199 0 00-.74 2.125c-.135.406-.258.812-.385 1.218-.092.294-.189.587-.277.881a80.32 80.32 0 00-.48 1.676c-.04.143-.083.285-.122.428-.101.373-.193.746-.289 1.119-.082.32-.17.64-.248.959l-.03.129-.02.084c-.165.679-.319 1.357-.464 2.033l-.01.05-.056.272c-.077.36-.155.718-.225 1.076l-.011.07c-.037.187-.064.371-.098.557-.12.644-.238 1.287-.34 1.926l-.014.09c-.01.07-.022.138-.033.207-.04.244-.08.488-.115.73l-.006.042-.002.017c-.137.943-.25 1.878-.348 2.807l-.06.586-.022.213-.002.021-.004.043c-.089.96-.153 1.91-.2 2.85l-.005.086-.002.027c-.01.2-.02.399-.027.597v.022l-.002.035a62.588 62.588 0 00-.045 2.953v.006c.002.196.002.392.006.586.006.337.017.671.03 1.004.007.219.014.437.025.654a54.454 54.454 0 00.101 1.6v.014c.033.417.07.829.112 1.238l.005.05.028.263c0 .008 0 .017.002.025.039.359.086.71.133 1.062.011.086.02.175.03.26.002.005.002.01.003.016l.006.045c.003.017.004.035.006.052a44.435 44.435 0 00.246 1.55c.937 5.336 2.76 9.803 5.426 12.851.222.254.451.498.685.733.467.467.957.895 1.47 1.279h.003c.256.191.519.373.787.543.172.103.374.206.59.304.188.043.377.085.566.125 2.085.413 4.24.634 6.445.649h2.526a21.177 21.177 0 013.467-9.65c.627-.94 1.329-1.827 2.093-2.655a21.612 21.612 0 012.291-2.135c.064-.05.122-.107.186-.158l.002-.002c.07-.055.145-.102.215-.156a21.547 21.547 0 012.601-1.729h.002a21.463 21.463 0 016.456-2.357c.439-.084.89-.133 1.337-.19.224-.028.441-.074.666-.095h.002a21.784 21.784 0 012.06-.098h38.48c.694 0 1.38.034 2.057.098h.004c.676.064 1.343.16 2 .285h.004c.574.11 1.141.244 1.699.398h.004a21.498 21.498 0 016.201 2.848h.002c.342.23.668.479.996.727.188.141.376.282.559.43.374.302.744.612 1.097.939h.002a21.556 21.556 0 013.286 3.85 21.293 21.293 0 012.828 6.199c.304 1.116.52 2.27.638 3.45h2.526a34.356 34.356 0 006.445-.648c.19-.04.378-.082.566-.125a6.13 6.13 0 00.59-.304c3.223-2.04 5.618-5.684 7.14-10.38a37.165 37.165 0 001.231-5.025c.087-.492.167-.991.239-1.498l.008-.052c.002-.018.003-.036.006-.053l.008-.06c.011-.086.02-.174.03-.26.048-.352.095-.704.134-1.063 0-.008 0-.017.002-.025.01-.087.018-.175.027-.262l.006-.05c.042-.41.079-.822.111-1.24v-.013c.013-.162.024-.325.035-.488.025-.368.05-.738.067-1.111.01-.218.017-.436.025-.655.012-.333.023-.667.03-1.004.004-.194.004-.391.006-.588v-.004a62.587 62.587 0 00-.075-3.607l-.002-.027a67.954 67.954 0 00-.205-2.936c0-.014-.003-.028-.004-.043l-.023-.234-.06-.586a72.43 72.43 0 00-.348-2.807l-.002-.017-.006-.041c-.036-.243-.076-.487-.116-.73a48.95 48.95 0 01-.033-.208l-.014-.09c-.102-.639-.22-1.282-.34-1.925-.034-.186-.06-.37-.097-.557-.005-.024-.007-.047-.012-.07-.07-.359-.147-.717-.224-1.077-.02-.09-.038-.18-.057-.271l-.01-.05a78.174 78.174 0 00-.463-2.034l-.021-.084-.03-.129c-.105-.43-.22-.86-.332-1.29-.062-.24-.119-.477-.183-.716a82.059 82.059 0 00-.5-1.752c-.034-.113-.062-.226-.096-.34l-.006-.017a78.212 78.212 0 00-.514-1.63c-.058-.178-.11-.357-.17-.536a74.157 74.157 0 00-.74-2.125c-6.27-17.112-17.267-28.63-26.883-28.162-.219.01-.438.028-.654.05-.072.002-.14.002-.211.006-4.805.319-18.221 3.082-27.419 3.088-9.197-.006-22.614-2.77-27.418-3.088-.07-.004-.14-.004-.211-.005a11.371 11.371 0 00-1.56-.061z"/>
        <g transform="translate(1 1)">
          <circle cx="114" cy="116" r="6" fill="#e52d6b"/>
          <circle cx="124" cy="126" r="6" fill="#2ad376"/>
          <circle cx="134" cy="116" r="6" fill="#2daee5"/>
          <circle cx="124" cy="106" r="6" fill="#faae00"/>
        </g>
        <g fill="#305b80">
          <rect width="12" height="32" x="61.001" y="101" ry="6"/>
          <rect width="12" height="32" x="111" y="-83.001" ry="6" transform="rotate(90)"/>
        </g>
      </g>
    </g>
  </g>
  <path fill="url(#h)" d="M-106-106h298v298h-298z" opacity=".2"/>
</svg>
